<?xml version="1.0" encoding="utf-8"?>
<!-- Generator: Adobe Illustrator 21.1.0, SVG Export Plug-In . SVG Version: 6.00 Build 0)  -->
<svg version="1.1" id="Layer_1" xmlns="http://www.w3.org/2000/svg" xmlns:xlink="http://www.w3.org/1999/xlink" x="0px" y="0px"
	 width="300px" height="300px" viewBox="0 0 300 300" style="enable-background:new 0 0 300 300;" xml:space="preserve">
<style type="text/css">
	.st0{fill:#FFFFFF;}
	.st1{fill:#C9B7A3;}
	.st2{fill:#B66C6A;}
	.st3{fill:#88888A;}
	.st4{fill:#D9CBB7;}
	.st5{fill:#464C4E;}
	.st6{fill:#C77673;}
	.st7{fill:#999A9B;}
	.st8{opacity:0.3;fill:#464C4E;enable-background:new    ;}
	.st9{clip-path:url(#SVGID_2_);}
	.st10{fill:#404647;}
	.st11{clip-path:url(#SVGID_4_);}
	.st12{clip-path:url(#SVGID_6_);}
	.st13{clip-path:url(#SVGID_8_);}
	.st14{clip-path:url(#SVGID_10_);}
	.st15{clip-path:url(#SVGID_12_);}
</style>
<g>
	<g id="Layer_1_1_">
		<g>
			<g>
				<path class="st0" d="M179.9,223.2c0-0.4,0-0.9,0.1-1.3c0,0,0-0.1,0-0.1l0.1-0.7c0,0,0-0.1,0-0.1c0.1-0.4,0.1-0.7,0.2-1.1
					c0.1-0.6,0.2-1.1,0.4-1.7c0.1-0.2,0.1-0.3,0.2-0.5c0-0.1,0.1-0.2,0.1-0.3c0-0.1,0.1-0.2,0.1-0.3c0,0,0-0.1,0-0.1s0-0.1,0.1-0.1
					c0.1-0.1,0.1-0.3,0.2-0.4c0.1-0.1,0.1-0.3,0.2-0.4c0.2-0.4,0.3-0.7,0.5-1c0.1-0.2,0.2-0.3,0.3-0.5c0-0.1,0.1-0.1,0.1-0.1
					s0.1-0.1,0.1-0.1c0.1-0.1,0.2-0.3,0.2-0.4c0.1-0.1,0.2-0.3,0.3-0.4c0,0,0.1-0.1,0.1-0.1c0-0.1,0.1-0.1,0.1-0.2
					c0,0,0.1-0.1,0.1-0.1c0-0.1,0.1-0.1,0.1-0.2c0.1-0.1,0.2-0.3,0.3-0.4c0.1-0.1,0.1-0.2,0.2-0.3c0.1-0.1,0.2-0.3,0.3-0.4
					c0.1-0.2,0.3-0.3,0.4-0.5c0.1-0.1,0.2-0.2,0.3-0.4c0.2-0.2,0.3-0.3,0.5-0.5v0c0.3-0.3,0.6-0.6,0.9-0.8c0.3-0.2,0.6-0.5,0.9-0.7
					c0.2-0.1,0.3-0.2,0.5-0.3c0.2-0.1,0.3-0.2,0.5-0.3c0.4-0.2,0.7-0.4,1.1-0.6h0c0.3-0.2,0.6-0.3,0.9-0.5c0.3-0.1,0.6-0.3,0.9-0.4
					c0.4-0.1,0.7-0.3,1.1-0.4c0.3-0.1,0.6-0.2,1-0.3c0.3-0.1,0.5-0.1,0.8-0.2c0.1,0,0.2,0,0.3-0.1c0.2,0,0.4-0.1,0.7-0.1
					c0.1,0,0.2,0,0.3-0.1c0.1,0,0.3,0,0.4,0c0,0,0,0,0.1,0c0.1,0,0.1,0,0.2,0c0.1,0,0.1,0,0.2,0c0,0,0,0,0.1,0c0.2,0,0.4,0,0.6,0
					c0.3,0,0.5,0,0.8,0s0.5,0,0.8,0h0.1c0,0,0.1,0,0.1,0h0c0.1,0,0.2,0,0.2,0c0,0,0,0,0,0c0,0,0,0,0,0h0c0.2,0,0.3,0,0.5,0
					c0.1,0,0.2,0,0.3,0c0.3,0,0.7,0.1,1,0.2l0.5,0.1c0.1,0,0.2,0.1,0.4,0.1c0.1,0,0.3,0,0.4,0.1c0.2,0.1,0.5,0.1,0.7,0.2
					c0,0,0,0,0.1,0c0.3,0.1,0.6,0.2,1,0.3c0.3,0.1,0.5,0.2,0.8,0.3c0.1,0,0.1,0,0.2,0.1c0.1,0,0.2,0.1,0.3,0.1
					c0.1,0,0.2,0.1,0.3,0.2c0,0,0.1,0,0.1,0.1c0,0,0,0,0.1,0h0c0.1,0,0.2,0.1,0.3,0.1c0.1,0.1,0.2,0.1,0.3,0.2
					c0.1,0,0.1,0.1,0.2,0.1c0.2,0.1,0.4,0.2,0.6,0.4c0.3,0.2,0.5,0.3,0.8,0.5c0.1,0.1,0.2,0.1,0.3,0.2c0.2,0.1,0.3,0.3,0.5,0.4
					c0,0,0.1,0.1,0.1,0.1c0.2,0.2,0.4,0.3,0.5,0.5c0,0,0,0,0,0c0.4,0.3,0.8,0.7,1.2,1.1c0.1,0.1,0.2,0.3,0.3,0.4
					c0.1,0.1,0.2,0.2,0.2,0.3c0.1,0.1,0.1,0.1,0.2,0.2c0.1,0.1,0.1,0.1,0.2,0.2c0.1,0.1,0.1,0.1,0.2,0.2c0.2,0.2,0.4,0.5,0.5,0.7
					c0,0,0.1,0.1,0.1,0.1c0.2,0.2,0.3,0.5,0.5,0.7c0,0,0.1,0.1,0.1,0.1c0,0,0,0.1,0.1,0.1l0,0.1c0.2,0.3,0.3,0.6,0.5,0.9
					c0.2,0.3,0.4,0.7,0.5,1c0.1,0.2,0.2,0.5,0.3,0.7c0.1,0.3,0.3,0.7,0.4,1c0,0,0,0.1,0,0.1c0.1,0.3,0.2,0.6,0.3,0.9
					c0.1,0.5,0.2,1,0.3,1.4c0,0.2,0.1,0.5,0.1,0.7c0,0.3,0.1,0.6,0.1,1c0,0.4,0,0.8,0,1.2L179.9,223.2z M120.1,113.2
					c0,0.3,0,0.5,0,0.8c-0.1,1.4-0.3,2.8-0.7,4.2c-0.1,0.2-0.1,0.5-0.2,0.7c-0.9,2.7-2.5,5.1-4.5,7c-5.6,5.3-13.9,6.3-20.6,2.5
					c-0.2-0.1-0.4-0.3-0.7-0.4c-0.8-0.5-1.5-1-2.2-1.6c-2.3-2-4-4.5-5-7.3c-0.6-1.7-1-3.4-1-5.2c0-0.2,0-0.4,0-0.7L120.1,113.2z"/>
			</g>
			<rect x="193.9" y="80.3" class="st1" width="7.8" height="69.5"/>
			<rect x="98.8" y="150.3" class="st1" width="7.8" height="69.5"/>
			<path class="st2" d="M102.7,42c-30.6,0-55.5,27.8-55.5,61.9c0,16.8,5.9,32.5,16.7,44.2h77.8c10.8-11.8,16.7-27.4,16.7-44.2
				C158.3,69.8,133.4,42,102.7,42z M86.3,119.1c-0.6-1.7-1-3.4-1-5.2c0-0.2,0-0.4,0-0.7h34.8c0,0.3,0,0.5,0,0.8
				c-0.1,1.4-0.3,2.8-0.7,4.2c-0.1,0.2-0.1,0.5-0.2,0.7c-0.9,2.7-2.5,5.1-4.5,7c-5.6,5.3-13.9,6.3-20.6,2.5
				c-0.2-0.1-0.4-0.3-0.7-0.4c-0.8-0.5-1.5-1-2.2-1.6C89.1,124.5,87.3,122,86.3,119.1z"/>
			<path class="st3" d="M236.2,152h-77.8c-10.7,11.8-16.6,27.4-16.6,44.2c0,34.1,24.9,61.9,55.5,61.9c30.6,0,55.5-27.8,55.5-61.9
				C252.8,179.3,246.9,163.7,236.2,152z M179.9,223.2c0-1.7,0.2-3.3,0.7-4.9c2.7-9.2,12.4-14.5,21.6-11.8c4.6,1.3,8.4,4.5,10.6,8.7
				c1,1.8,1.6,3.8,1.9,5.9c0.1,0.7,0.1,1.4,0.1,2.1H179.9z"/>
			<g>
				<g>
					<path class="st4" d="M89.1,151.7l-0.5,13.6c-1.5-2.1-3.6-3.8-5.9-4.9l-10.5-5.1c-0.9-0.4-1.7-0.9-2.4-1.5
						c-0.8-0.7-1.6-1.4-2.4-2.1L89.1,151.7z"/>
					<path class="st4" d="M138,151.7c-0.8,0.7-1.6,1.4-2.4,2.1c-0.7,0.6-1.5,1.1-2.4,1.5l-10.5,5.1c-2.3,1.1-4.4,2.8-5.9,4.9
						l-0.5-13.6L138,151.7z"/>
					<path class="st5" d="M59.1,148.1h-0.1l1.7,1.9C60.1,149.3,59.6,148.7,59.1,148.1z M146.4,148.1c-0.5,0.6-1,1.2-1.6,1.8l1.7-1.8
						H146.4z"/>
				</g>
				<g>
					<path class="st6" d="M102.7,42c-30.6,0-55.5,27.8-55.5,61.9c0,16.8,5.9,32.5,16.7,44.2h77.8c10.8-11.8,16.7-27.4,16.7-44.2
						C158.3,69.8,133.4,42,102.7,42z M58.2,119.4c-1.5,0-2.8-1.3-2.8-2.8c0-1.5,1.3-2.8,2.8-2.8c1.5,0,2.8,1.3,2.8,2.8
						C60.9,118.2,59.7,119.4,58.2,119.4C58.2,119.4,58.2,119.4,58.2,119.4z M58.2,110.5c-1.5,0-2.8-1.2-2.8-2.8s1.2-2.8,2.8-2.8
						c1.5,0,2.8,1.2,2.8,2.8C60.9,109.2,59.7,110.5,58.2,110.5C58.2,110.5,58.2,110.5,58.2,110.5z M58.2,101.5
						c-1.5,0-2.8-1.3-2.8-2.8c0-1.5,1.3-2.8,2.8-2.8c1.5,0,2.8,1.3,2.8,2.8C60.9,100.3,59.7,101.5,58.2,101.5z M58.2,92.5
						c-1.5,0-2.8-1.3-2.8-2.8c0-1.5,1.3-2.8,2.8-2.8c1.5,0,2.8,1.3,2.8,2.8C60.9,91.3,59.7,92.5,58.2,92.5z M147.8,87
						c1.5,0,2.8,1.3,2.8,2.8c0,1.5-1.3,2.8-2.8,2.8c-1.5,0-2.8-1.2-2.8-2.8C145,88.2,146.3,87,147.8,87C147.8,87,147.8,87,147.8,87z
						 M129.9,60.1c1.5,0,2.8,1.2,2.8,2.8c0,1.5-1.2,2.8-2.8,2.8c-1.5,0-2.8-1.2-2.8-2.8C127.1,61.3,128.4,60.1,129.9,60.1
						L129.9,60.1z M129.9,69.1c1.5,0,2.8,1.3,2.8,2.8c0,1.5-1.3,2.8-2.8,2.8c-1.5,0-2.8-1.2-2.8-2.8
						C127.1,70.3,128.3,69.1,129.9,69.1C129.9,69.1,129.9,69.1,129.9,69.1L129.9,69.1z M129.9,78c1.5,0,2.8,1.2,2.8,2.8
						s-1.2,2.8-2.8,2.8c-1.5,0-2.8-1.2-2.8-2.8C127.1,79.3,128.4,78,129.9,78L129.9,78z M120.9,60.1c1.5,0,2.8,1.2,2.8,2.8
						c0,1.5-1.2,2.8-2.8,2.8c-1.5,0-2.8-1.2-2.8-2.8C118.1,61.3,119.4,60.1,120.9,60.1C120.9,60.1,120.9,60.1,120.9,60.1L120.9,60.1
						z M120.9,69.1c1.5,0,2.8,1.3,2.8,2.8s-1.3,2.8-2.8,2.8c-1.5,0-2.8-1.2-2.8-2.8C118.1,70.3,119.4,69.1,120.9,69.1
						C120.9,69.1,120.9,69.1,120.9,69.1L120.9,69.1z M120.9,78c1.5,0,2.8,1.2,2.8,2.8c0,1.5-1.2,2.8-2.8,2.8c-1.5,0-2.8-1.2-2.8-2.8
						C118.1,79.3,119.4,78,120.9,78C120.9,78,120.9,78,120.9,78L120.9,78z M112,51.1c1.5,0,2.8,1.3,2.8,2.8c0,1.5-1.3,2.8-2.8,2.8
						c-1.5,0-2.8-1.2-2.8-2.8C109.2,52.4,110.4,51.1,112,51.1L112,51.1z M112,60.1c1.5,0,2.8,1.2,2.8,2.8c0,1.5-1.2,2.8-2.8,2.8
						c-1.5,0-2.8-1.2-2.8-2.8C109.2,61.3,110.4,60.1,112,60.1L112,60.1z M112,69.1c1.5,0,2.8,1.3,2.8,2.8s-1.3,2.8-2.8,2.8
						c-1.5,0-2.8-1.2-2.8-2.8C109.2,70.3,110.4,69.1,112,69.1L112,69.1z M112,78c1.5,0,2.8,1.2,2.8,2.8c0,1.5-1.2,2.8-2.8,2.8
						c-1.5,0-2.8-1.2-2.8-2.8C109.2,79.3,110.4,78,112,78L112,78z M112,87c1.5,0,2.8,1.3,2.8,2.8s-1.3,2.8-2.8,2.8
						c-1.5,0-2.8-1.2-2.8-2.8C109.2,88.2,110.4,87,112,87L112,87z M112,96c1.5,0,2.8,1.3,2.8,2.8s-1.3,2.8-2.8,2.8
						c-1.5,0-2.8-1.2-2.8-2.8C109.2,97.2,110.4,96,112,96L112,96z M112,104.9c1.5,0,2.8,1.2,2.8,2.8c0,1.5-1.2,2.8-2.8,2.8
						c-1.5,0-2.8-1.2-2.8-2.8C109.2,106.2,110.4,104.9,112,104.9L112,104.9z M103,51.1c1.5,0,2.8,1.3,2.8,2.8c0,1.5-1.3,2.8-2.8,2.8
						c-1.5,0-2.8-1.2-2.8-2.8C100.2,52.4,101.4,51.1,103,51.1C103,51.1,103,51.1,103,51.1z M103,60.1c1.5,0,2.8,1.2,2.8,2.8
						c0,1.5-1.2,2.8-2.8,2.8c-1.5,0-2.8-1.2-2.8-2.8C100.2,61.3,101.5,60.1,103,60.1z M103,69.1c1.5,0,2.8,1.3,2.8,2.8
						s-1.3,2.8-2.8,2.8c-1.5,0-2.8-1.2-2.8-2.8C100.2,70.3,101.4,69.1,103,69.1C103,69.1,103,69.1,103,69.1z M103,78
						c1.5,0,2.8,1.2,2.8,2.8c0,1.5-1.2,2.8-2.8,2.8c-1.5,0-2.8-1.2-2.8-2.8C100.2,79.3,101.5,78,103,78z M103,87
						c1.5,0,2.8,1.3,2.8,2.8s-1.3,2.8-2.8,2.8c-1.5,0-2.8-1.2-2.8-2.8C100.2,88.2,101.4,87,103,87C103,87,103,87,103,87z M103,96
						c1.5,0,2.8,1.3,2.8,2.8s-1.3,2.8-2.8,2.8c-1.5,0-2.8-1.2-2.8-2.8C100.2,97.2,101.4,96,103,96C103,96,103,96,103,96z M103,104.9
						c1.5,0,2.8,1.2,2.8,2.8c0,1.5-1.2,2.8-2.8,2.8c-1.5,0-2.8-1.2-2.8-2.8C100.2,106.2,101.5,104.9,103,104.9z M94,51.1
						c1.5,0,2.8,1.3,2.8,2.8c0,1.5-1.3,2.8-2.8,2.8c-1.5,0-2.8-1.2-2.8-2.8C91.2,52.4,92.5,51.1,94,51.1z M94,60.1
						c1.5,0,2.8,1.2,2.8,2.8c0,1.5-1.2,2.8-2.8,2.8c-1.5,0-2.8-1.2-2.8-2.8C91.3,61.3,92.5,60.1,94,60.1z M94,69.1
						c1.5,0,2.8,1.3,2.8,2.8s-1.3,2.8-2.8,2.8c-1.5,0-2.8-1.2-2.8-2.8C91.2,70.3,92.5,69.1,94,69.1z M94,78c1.5,0,2.8,1.2,2.8,2.8
						c0,1.5-1.2,2.8-2.8,2.8c-1.5,0-2.8-1.2-2.8-2.8C91.3,79.3,92.5,78,94,78z M94,87c1.5,0,2.8,1.3,2.8,2.8s-1.3,2.8-2.8,2.8
						c-1.5,0-2.8-1.2-2.8-2.8C91.2,88.2,92.5,87,94,87z M94,96c1.5,0,2.8,1.3,2.8,2.8s-1.3,2.8-2.8,2.8c-1.5,0-2.8-1.2-2.8-2.8
						C91.2,97.2,92.5,96,94,96z M130,87c1.5,0,2.8,1.3,2.8,2.8c0,1.5-1.3,2.8-2.8,2.8c-1.5,0-2.8-1.2-2.8-2.8
						C127.2,88.2,128.5,87,130,87C130,87,130,87,130,87L130,87z M130,96c1.5,0,2.8,1.3,2.8,2.8c0,1.5-1.3,2.8-2.8,2.8
						c-1.5,0-2.8-1.2-2.8-2.8C127.2,97.2,128.5,96,130,96C130,96,130,96,130,96L130,96z M121.1,87c1.5,0,2.8,1.3,2.8,2.8
						s-1.3,2.8-2.8,2.8c-1.5,0-2.8-1.2-2.8-2.8C118.3,88.2,119.5,87,121.1,87L121.1,87z M121.1,96c1.5,0,2.8,1.3,2.8,2.8
						s-1.3,2.8-2.8,2.8c-1.5,0-2.8-1.2-2.8-2.8C118.3,97.2,119.5,96,121.1,96L121.1,96z M85.1,87c1.5,0,2.8,1.3,2.8,2.8
						s-1.3,2.8-2.8,2.8c-1.5,0-2.8-1.2-2.8-2.8C82.3,88.2,83.5,87,85.1,87C85,87,85,87,85.1,87z M85.1,96c1.5,0,2.8,1.3,2.8,2.8
						s-1.3,2.8-2.8,2.8c-1.5,0-2.8-1.2-2.8-2.8C82.3,97.2,83.5,96,85.1,96C85,96,85,96,85.1,96z M76.1,87c1.5,0,2.8,1.3,2.8,2.8
						s-1.3,2.8-2.8,2.8c-1.5,0-2.8-1.2-2.8-2.8C73.3,88.2,74.6,87,76.1,87z M76.1,96c1.5,0,2.8,1.3,2.8,2.8s-1.3,2.8-2.8,2.8
						c-1.5,0-2.8-1.2-2.8-2.8C73.3,97.2,74.6,96,76.1,96z M94,104.9c1.5,0,2.8,1.2,2.8,2.8c0,1.5-1.2,2.8-2.8,2.8
						c-1.5,0-2.8-1.2-2.8-2.8C91.3,106.2,92.5,104.9,94,104.9z M85.1,104.9c1.5,0,2.8,1.2,2.8,2.8c0,1.5-1.2,2.8-2.8,2.8
						c-1.5,0-2.8-1.2-2.8-2.8C82.3,106.2,83.5,104.9,85.1,104.9z M85.1,60.1c1.5,0,2.8,1.2,2.8,2.8c0,1.5-1.2,2.8-2.8,2.8
						c-1.5,0-2.8-1.2-2.8-2.8C82.3,61.3,83.5,60.1,85.1,60.1z M85.1,69.1c1.5,0,2.8,1.3,2.8,2.8s-1.3,2.8-2.8,2.8
						c-1.5,0-2.8-1.2-2.8-2.8C82.3,70.3,83.5,69.1,85.1,69.1C85,69.1,85.1,69.1,85.1,69.1z M85.1,78c1.5,0,2.8,1.2,2.8,2.8
						c0,1.5-1.2,2.8-2.8,2.8c-1.5,0-2.8-1.2-2.8-2.8C82.3,79.3,83.5,78,85.1,78z M76.1,60.1c1.5,0,2.8,1.2,2.8,2.8
						c0,1.5-1.2,2.8-2.8,2.8c-1.5,0-2.8-1.2-2.8-2.8C73.3,61.3,74.6,60.1,76.1,60.1C76.1,60.1,76.1,60.1,76.1,60.1z M76.1,69.1
						c1.5,0,2.8,1.3,2.8,2.8s-1.3,2.8-2.8,2.8c-1.5,0-2.8-1.2-2.8-2.8C73.3,70.3,74.5,69.1,76.1,69.1C76.1,69.1,76.1,69.1,76.1,69.1
						z M76.1,78c1.5,0,2.8,1.2,2.8,2.8c0,1.5-1.2,2.8-2.8,2.8c-1.5,0-2.8-1.2-2.8-2.8C73.3,79.3,74.6,78,76.1,78
						C76.1,78,76.1,78,76.1,78z M67.1,137.4c-1.5,0-2.8-1.2-2.8-2.8s1.2-2.8,2.8-2.8c1.5,0,2.8,1.2,2.8,2.8l0,0
						C69.9,136.1,68.7,137.4,67.1,137.4C67.1,137.4,67.1,137.4,67.1,137.4z M67.1,128.4c-1.5,0-2.8-1.2-2.8-2.8s1.2-2.8,2.8-2.8
						c1.5,0,2.8,1.2,2.8,2.8l0,0C69.9,127.2,68.7,128.4,67.1,128.4C67.1,128.4,67.1,128.4,67.1,128.4z M67.1,119.4
						c-1.5,0-2.8-1.3-2.8-2.8s1.3-2.8,2.8-2.8c1.5,0,2.8,1.3,2.8,2.8C69.9,118.2,68.7,119.4,67.1,119.4
						C67.1,119.4,67.1,119.4,67.1,119.4z M67.1,110.5c-1.5,0-2.8-1.2-2.8-2.8c0-1.5,1.2-2.8,2.8-2.8c1.5,0,2.8,1.2,2.8,2.8
						C69.9,109.2,68.7,110.5,67.1,110.5C67.1,110.5,67.1,110.5,67.1,110.5z M67.1,101.5c-1.5,0-2.8-1.3-2.8-2.8s1.3-2.8,2.8-2.8
						c1.5,0,2.8,1.3,2.8,2.8C69.9,100.3,68.7,101.5,67.1,101.5C67.1,101.5,67.1,101.5,67.1,101.5z M67.1,92.5
						c-1.5,0-2.8-1.3-2.8-2.8s1.3-2.8,2.8-2.8c1.5,0,2.8,1.3,2.8,2.8C69.9,91.3,68.7,92.5,67.1,92.5C67.1,92.5,67.1,92.5,67.1,92.5z
						 M67.1,83.6c-1.5,0-2.8-1.2-2.8-2.8c0-1.5,1.2-2.8,2.8-2.8c1.5,0,2.8,1.2,2.8,2.8C69.9,82.3,68.7,83.6,67.1,83.6z M67.1,74.6
						c-1.5,0-2.8-1.3-2.8-2.8s1.3-2.8,2.8-2.8c1.5,0,2.8,1.3,2.8,2.8C69.9,73.4,68.7,74.6,67.1,74.6C67.1,74.6,67.1,74.6,67.1,74.6z
						 M76.1,137.4c-1.5,0-2.8-1.2-2.8-2.8c0-1.5,1.2-2.8,2.8-2.8c1.5,0,2.8,1.2,2.8,2.8c0,0,0,0,0,0
						C78.9,136.1,77.6,137.4,76.1,137.4C76.1,137.4,76.1,137.4,76.1,137.4z M76.1,128.4c-1.5,0-2.8-1.2-2.8-2.8
						c0-1.5,1.2-2.8,2.8-2.8c1.5,0,2.8,1.2,2.8,2.8c0,0,0,0,0,0C78.9,127.2,77.6,128.4,76.1,128.4C76.1,128.4,76.1,128.4,76.1,128.4
						z M76.1,119.4c-1.5,0-2.8-1.2-2.8-2.8c0-1.5,1.2-2.8,2.8-2.8s2.8,1.2,2.8,2.8c0,0,0,0,0,0C78.9,118.2,77.6,119.4,76.1,119.4
						C76.1,119.4,76.1,119.4,76.1,119.4z M76.1,110.5c-1.5,0-2.8-1.2-2.8-2.8c0-1.5,1.2-2.8,2.8-2.8c1.5,0,2.8,1.2,2.8,2.8
						c0,0,0,0,0,0C78.9,109.2,77.6,110.5,76.1,110.5C76.1,110.5,76.1,110.5,76.1,110.5z M85.1,137.4c-1.5,0-2.8-1.2-2.8-2.8
						s1.2-2.8,2.8-2.8c1.5,0,2.8,1.2,2.8,2.8l0,0C87.8,136.1,86.6,137.4,85.1,137.4L85.1,137.4z M85.1,128.4c-1.5,0-2.8-1.2-2.8-2.8
						s1.2-2.8,2.8-2.8c1.5,0,2.8,1.2,2.8,2.8l0,0C87.8,127.2,86.6,128.4,85.1,128.4L85.1,128.4z M94,137.4c-1.5,0-2.8-1.2-2.8-2.8
						s1.2-2.8,2.8-2.8c1.5,0,2.8,1.2,2.8,2.8l0,0C96.8,136.1,95.6,137.4,94,137.4C94,137.4,94,137.4,94,137.4L94,137.4z M103,137.4
						c-1.5,0-2.8-1.2-2.8-2.8s1.2-2.8,2.8-2.8c1.5,0,2.8,1.2,2.8,2.8l0,0C105.8,136.1,104.5,137.4,103,137.4L103,137.4z M112,137.4
						c-1.5,0-2.8-1.2-2.8-2.8s1.2-2.8,2.8-2.8c1.5,0,2.8,1.2,2.8,2.8l0,0C114.7,136.1,113.5,137.4,112,137.4
						C112,137.4,112,137.4,112,137.4L112,137.4z M120.9,137.4c-1.5,0-2.8-1.2-2.8-2.8c0-1.5,1.2-2.8,2.8-2.8c1.5,0,2.8,1.2,2.8,2.8
						c0,0,0,0,0,0C123.7,136.1,122.5,137.4,120.9,137.4C120.9,137.4,120.9,137.4,120.9,137.4L120.9,137.4z M120.9,128.4
						c-1.5,0-2.8-1.2-2.8-2.8c0-1.5,1.2-2.8,2.8-2.8c1.5,0,2.8,1.2,2.8,2.8c0,0,0,0,0,0C123.7,127.2,122.5,128.4,120.9,128.4
						C120.9,128.4,120.9,128.4,120.9,128.4L120.9,128.4z M120.9,119.4c-0.6,0-1.2-0.2-1.7-0.6c-0.9,2.7-2.5,5.1-4.5,7
						c-0.1,1.4-1.3,2.5-2.8,2.5c-0.2,0-0.4,0-0.6-0.1c-2.6,1.5-5.6,2.3-8.7,2.3c-3,0-6-0.8-8.6-2.3H94c-1.2,0-2.3-0.8-2.7-2
						c-2.3-2-4-4.5-5-7.3c-1.4,0.7-3,0.2-3.8-1.2c-0.2-0.4-0.3-0.8-0.3-1.3c0-1.5,1.2-2.8,2.8-2.8c0.1,0,0.2,0,0.3,0
						c0-0.2,0-0.4,0-0.7h34.8c0,0.3,0,0.5,0,0.8c0.3-0.1,0.5-0.1,0.8-0.1c1.5,0,2.8,1.2,2.8,2.8
						C123.7,118.2,122.5,119.4,120.9,119.4L120.9,119.4L120.9,119.4z M120.9,110.5c-1.5,0-2.8-1.2-2.8-2.8c0-1.5,1.2-2.8,2.8-2.8
						c1.5,0,2.8,1.2,2.8,2.8c0,0,0,0,0,0C123.7,109.2,122.5,110.5,120.9,110.5C120.9,110.5,120.9,110.5,120.9,110.5L120.9,110.5z
						 M129.9,137.4c-1.5,0-2.8-1.2-2.8-2.8s1.2-2.8,2.8-2.8s2.8,1.2,2.8,2.8l0,0C132.7,136.1,131.4,137.4,129.9,137.4z M129.9,128.4
						c-1.5,0-2.8-1.2-2.8-2.8s1.2-2.8,2.8-2.8s2.8,1.2,2.8,2.8l0,0C132.7,127.2,131.4,128.4,129.9,128.4z M129.9,119.4
						c-1.5,0-2.8-1.3-2.8-2.8s1.3-2.8,2.8-2.8c1.5,0,2.8,1.3,2.8,2.8C132.7,118.2,131.4,119.4,129.9,119.4
						C129.9,119.4,129.9,119.4,129.9,119.4z M129.9,110.5c-1.5,0-2.8-1.2-2.8-2.8c0-1.5,1.2-2.8,2.8-2.8c1.5,0,2.8,1.2,2.8,2.8
						C132.7,109.2,131.4,110.5,129.9,110.5C129.9,110.5,129.9,110.5,129.9,110.5z M138.9,137.4c-1.5,0-2.8-1.2-2.8-2.8
						s1.2-2.8,2.8-2.8s2.8,1.2,2.8,2.8l0,0C141.6,136.1,140.4,137.4,138.9,137.4C138.9,137.4,138.9,137.4,138.9,137.4z M138.9,128.4
						c-1.5,0-2.8-1.2-2.8-2.8s1.2-2.8,2.8-2.8s2.8,1.2,2.8,2.8l0,0C141.6,127.2,140.4,128.4,138.9,128.4
						C138.9,128.4,138.9,128.4,138.9,128.4z M138.9,119.4c-1.5,0-2.8-1.3-2.8-2.8c0-1.5,1.3-2.8,2.8-2.8c1.5,0,2.8,1.3,2.8,2.8
						C141.6,118.2,140.4,119.4,138.9,119.4C138.9,119.4,138.9,119.4,138.9,119.4z M138.9,110.5c-1.5,0-2.8-1.2-2.8-2.8
						s1.2-2.8,2.8-2.8c1.5,0,2.8,1.2,2.8,2.8C141.6,109.2,140.4,110.5,138.9,110.5C138.9,110.5,138.9,110.5,138.9,110.5z
						 M138.9,101.5c-1.5,0-2.8-1.3-2.8-2.8c0-1.5,1.3-2.8,2.8-2.8c1.5,0,2.8,1.3,2.8,2.8C141.6,100.3,140.4,101.5,138.9,101.5
						C138.9,101.5,138.9,101.5,138.9,101.5z M138.9,92.5c-1.5,0-2.8-1.3-2.8-2.8c0-1.5,1.3-2.8,2.8-2.8c1.5,0,2.8,1.3,2.8,2.8
						C141.6,91.3,140.4,92.5,138.9,92.5C138.9,92.5,138.9,92.5,138.9,92.5z M138.9,83.6c-1.5,0-2.8-1.2-2.8-2.8s1.2-2.8,2.8-2.8
						c1.5,0,2.8,1.2,2.8,2.8C141.6,82.3,140.4,83.6,138.9,83.6z M138.9,74.6c-1.5,0-2.8-1.3-2.8-2.8c0-1.5,1.3-2.8,2.8-2.8
						c1.5,0,2.8,1.3,2.8,2.8C141.6,73.4,140.4,74.6,138.9,74.6C138.9,74.6,138.9,74.6,138.9,74.6z M147.8,119.4
						c-1.5,0-2.8-1.3-2.8-2.8c0-1.5,1.3-2.8,2.8-2.8c1.5,0,2.8,1.3,2.8,2.8C150.6,118.2,149.4,119.4,147.8,119.4L147.8,119.4z
						 M147.8,110.5c-1.5,0-2.8-1.2-2.8-2.8s1.2-2.8,2.8-2.8c1.5,0,2.8,1.2,2.8,2.8C150.6,109.2,149.4,110.5,147.8,110.5
						C147.8,110.5,147.8,110.5,147.8,110.5L147.8,110.5z M147.8,101.5c-1.5,0-2.8-1.3-2.8-2.8c0-1.5,1.3-2.8,2.8-2.8
						c1.5,0,2.8,1.3,2.8,2.8C150.6,100.3,149.4,101.5,147.8,101.5L147.8,101.5z"/>
					<path class="st5" d="M143.7,151.1c-0.2,0.2-0.4,0.4-0.5,0.6h0L143.7,151.1c0.2-0.2,0.5-0.5,0.7-0.8L143.7,151.1z"/>
				</g>
				<path class="st4" d="M96.3,192.2v10.5c0,2.5,1.5,4.8,3.7,5.8v9.5c-3.5-0.3-6.8-1.4-9.8-3.1l1.5-38.3l0.1-1.8l0.1-1.8l0.8-21.4
					h7.3v34.8C97.8,187.5,96.3,189.7,96.3,192.2z"/>
				<path class="st4" d="M109.1,202.8v-10.5c0-2.5-1.4-4.8-3.7-5.8v0l0-9.7v-25h7.3l0.8,21.4l0.1,1.8l0.1,1.8l1.5,38.3
					c-3,1.7-6.3,2.8-9.8,3.1v-9.5C107.7,207.6,109.1,205.3,109.1,202.8z"/>
				<path class="st5" d="M102.7,38.4c-32.6,0-59.1,29.4-59.1,65.5c-0.2,16.1,5.3,31.7,15.5,44.2l0,0c0.5,0.6,1.1,1.2,1.6,1.9
					c0.4,0.4,0.7,0.8,1.1,1.2l0.5,0.6c1.7,1.7,3.4,3.4,5.3,4.9c1,0.8,2,1.4,3.1,2l10.5,5.1c4.3,2.1,7.1,6.5,7.1,11.3v0l-1.6,41
					c0,0.6,0.3,1.2,0.9,1.6c9.4,5.8,21.2,5.8,30.6,0c0.5-0.3,0.9-0.9,0.8-1.6l-1.6-40.9v-0.2c0-4.8,2.8-9.2,7.1-11.3l10.5-5.1
					c1.1-0.5,2.1-1.2,3.1-2c1.9-1.5,3.6-3.1,5.3-4.9c0.2-0.2,0.4-0.4,0.5-0.6l0.4-0.4l0.4-0.4c0.1-0.1,0.3-0.3,0.4-0.4
					c0.5-0.6,1.1-1.2,1.6-1.8l0,0c10.2-12.5,15.6-28.1,15.5-44.2C161.9,67.8,135.3,38.4,102.7,38.4z M88.6,165.2
					c-1.5-2.1-3.6-3.8-5.9-4.9l-10.5-5.1c-0.2-0.1-0.5-0.3-0.7-0.4s-0.4-0.3-0.6-0.4c-0.2-0.1-0.4-0.2-0.6-0.4
					c-0.2-0.1-0.4-0.3-0.5-0.4c-0.8-0.7-1.6-1.4-2.4-2.1h21.7L88.6,165.2z M115.2,215c-0.4,0.2-0.8,0.4-1.2,0.6s-0.8,0.4-1.2,0.6
					c-0.3,0.2-0.7,0.3-1,0.4c-0.1,0-0.2,0.1-0.3,0.1c0,0-0.1,0-0.1,0.1c-0.3,0.1-0.6,0.2-0.9,0.3c0,0,0,0-0.1,0
					c-0.3,0.1-0.7,0.2-1,0.3l-0.1,0c-0.1,0-0.1,0-0.2,0c-0.3,0.1-0.5,0.1-0.8,0.2c0,0,0,0,0,0c-0.1,0-0.3,0.1-0.4,0.1
					c-0.1,0-0.3,0.1-0.4,0.1c-0.3,0.1-0.6,0.1-1,0.2c-0.4,0.1-0.8,0.1-1.1,0.1c-1.8,0.2-3.6,0.2-5.4,0c-0.4,0-0.8-0.1-1.3-0.2
					c-0.4-0.1-0.9-0.1-1.3-0.2c-1.3-0.3-2.5-0.6-3.7-1.1c-0.4-0.2-0.8-0.3-1.2-0.5c-0.4-0.2-0.8-0.4-1.2-0.6
					c-0.4-0.2-0.8-0.4-1.2-0.6v0l1.5-38.3l0.1-1.8l0.1-1.8l0.9-21.5h20l0.9,21.5l0.1,1.8l0.1,1.8L115.2,215L115.2,215z M135.6,153.8
					c-0.2,0.1-0.3,0.3-0.5,0.4c-0.6,0.4-1.2,0.8-1.9,1.1l-10.5,5.1c-2.3,1.1-4.4,2.8-5.9,4.9l-0.5-13.6H138
					C137.3,152.4,136.4,153.1,135.6,153.8L135.6,153.8z M141.6,148.1H63.8c-10.7-11.7-16.7-27.4-16.7-44.2
					c0-34.1,24.9-61.9,55.5-61.9s55.5,27.8,55.5,61.9C158.3,120.7,152.4,136.3,141.6,148.1L141.6,148.1z"/>
				<path class="st5" d="M120.2,113.2c0,0.3,0,0.5,0,0.8c-0.1,1.4-0.3,2.8-0.7,4.2c-0.1,0.2-0.1,0.5-0.2,0.7c-0.9,2.7-2.5,5.1-4.5,7
					c-5.6,5.3-13.9,6.3-20.6,2.5c-0.2-0.1-0.4-0.3-0.7-0.4c-0.8-0.5-1.5-1-2.2-1.6c-2.3-2-4-4.5-5-7.3c-0.6-1.7-1-3.4-1-5.2
					c0-0.2,0-0.4,0-0.7H120.2z"/>
				<path class="st5" d="M105.4,186.4L105.4,186.4c-0.8-0.4-1.8-0.6-2.7-0.6c-0.9,0-1.9,0.2-2.7,0.6c-2.3,1-3.7,3.3-3.7,5.8v10.5
					c0,3.5,2.9,6.4,6.4,6.4c3.5,0,6.4-2.9,6.4-6.4v-10.5C109.2,189.7,107.7,187.5,105.4,186.4z M105.6,202.8c0,0.3,0,0.5-0.1,0.8
					c-0.4,1.5-2,2.4-3.5,1.9c-0.9-0.3-1.7-1-1.9-1.9c-0.1-0.3-0.1-0.5-0.1-0.8v-10.5c0-1.6,1.3-2.8,2.8-2.8c1.6,0,2.8,1.3,2.8,2.8
					V202.8z"/>
				<ellipse class="st5" cx="125.5" cy="94.4" rx="7.3" ry="8.6"/>
				<ellipse class="st5" cx="80.7" cy="94.4" rx="7.3" ry="8.6"/>
			</g>
			<g>
				<g>
					<path class="st4" d="M183.7,148.4H162c0.8-0.7,1.6-1.4,2.4-2.1c0.7-0.6,1.5-1.1,2.4-1.5l10.5-5.1c2.3-1.1,4.4-2.8,5.9-4.9
						L183.7,148.4z"/>
					<path class="st4" d="M232.6,148.4h-21.7l0.5-13.6c1.5,2.1,3.6,3.8,5.9,4.9l10.4,5.1c0.9,0.4,1.7,0.9,2.4,1.5
						C231,146.9,231.8,147.6,232.6,148.4z"/>
					<path class="st5" d="M153.5,152h0.2c0.5-0.6,1-1.2,1.6-1.8L153.5,152z M238.3,148.9c-0.1-0.1-0.2-0.2-0.3-0.3L238.3,148.9
						c0.9,1,1.8,2,2.6,3h0.2L238.3,148.9z"/>
					<path class="st5" d="M240.9,152c-0.8-1-1.7-2-2.7-3l-0.3-0.3l-0.2-0.3h0c-1.7-1.7-3.4-3.3-5.3-4.9c-1-0.8-2-1.5-3.1-2
						l-10.5-5.1c-4.3-2.1-7.1-6.5-7.1-11.3V125l1.6-40.9c0-0.6-0.3-1.2-0.8-1.6c-9.4-5.8-21.2-5.8-30.6,0c-0.5,0.3-0.9,0.9-0.8,1.6
						l1.6,41c0,4.8-2.8,9.2-7.1,11.3l-10.5,5.1c-1.1,0.5-2.2,1.2-3.1,2c-1.8,1.5-3.6,3.1-5.3,4.9c-0.2,0.2-0.4,0.4-0.5,0.6l-0.6,0.6
						c-0.2,0.2-0.3,0.4-0.5,0.6c-0.5,0.6-1.1,1.2-1.6,1.8c-10.2,12.5-15.6,28.1-15.5,44.2c0,36.1,26.5,65.5,59.2,65.5
						c32.6,0,59.1-29.4,59.1-65.5C256.6,180.1,251.1,164.4,240.9,152z M211.4,134.8c1.6,2.1,3.6,3.7,5.9,4.9l10.4,5.1
						c0.9,0.4,1.7,0.9,2.4,1.5c0.8,0.7,1.6,1.4,2.4,2.1h-21.7L211.4,134.8z M194.6,79.9h5.4V80c-0.9-0.1-1.8-0.1-2.7-0.1
						c-0.9,0-1.8,0-2.7,0.1L194.6,79.9z M193.9,82c0.2,0,0.4-0.1,0.7-0.1c1.8-0.2,3.6-0.2,5.4,0c0.6,0.1,1.2,0.1,1.8,0.3
						c2.8,0.5,5.6,1.5,8,2.9l-2.5,63.3h-20L184.8,85C187.6,83.4,190.7,82.4,193.9,82z M164.4,146.3c0.7-0.6,1.5-1.1,2.4-1.5
						l10.5-5.1c2.3-1.1,4.4-2.8,5.9-4.9l0.5,13.6H162C162.8,147.6,163.6,146.9,164.4,146.3z M197.3,258.1
						c-30.6,0-55.5-27.8-55.5-61.9c0-16.8,5.9-32.4,16.6-44.2h77.8c10.7,11.7,16.7,27.4,16.7,44.2
						C252.8,230.3,227.9,258.1,197.3,258.1L197.3,258.1z"/>
				</g>
				<g>
					<path class="st4" d="M209.8,85l-2.5,63.3H200v-25l0-9.7c2.3-1.1,3.7-3.3,3.7-5.8V97.2c0-2.5-1.5-4.8-3.7-5.8v-9.5
						C203.4,82.2,206.8,83.3,209.8,85z"/>
					<path class="st4" d="M194.6,123.3v25h-7.3L184.8,85c3-1.7,6.3-2.8,9.8-3.1v9.5c-2.3,1-3.7,3.3-3.7,5.8v10.5
						c0,2.5,1.5,4.8,3.7,5.9L194.6,123.3z"/>
					<path class="st5" d="M197.3,79.9c0.9,0,1.8,0,2.7,0.1v-0.1H197.3z M194.6,79.9V80c0.9-0.1,1.8-0.1,2.7-0.1H194.6z"/>
				</g>
				<g>
					<path class="st7" d="M236.2,152h-77.8c-10.7,11.8-16.6,27.4-16.6,44.2c0,34.1,24.9,61.9,55.5,61.9c30.6,0,55.5-27.8,55.5-61.9
						C252.8,179.3,246.9,163.7,236.2,152z M206,162.7c1.5,0,2.8,1.3,2.8,2.8c0,1.5-1.3,2.8-2.8,2.8c-1.5,0-2.8-1.3-2.8-2.8
						C203.2,163.9,204.5,162.6,206,162.7C206,162.7,206,162.7,206,162.7z M206,171.6c1.5,0,2.8,1.2,2.8,2.8s-1.2,2.8-2.8,2.8
						c-1.5,0-2.8-1.2-2.8-2.8C203.2,172.9,204.5,171.6,206,171.6z M206,180.6c1.5,0,2.8,1.3,2.8,2.8c0,1.5-1.3,2.8-2.8,2.8
						c-1.5,0-2.8-1.3-2.8-2.8C203.2,181.8,204.5,180.6,206,180.6C206,180.6,206,180.6,206,180.6z M206,189.5c1.5,0,2.8,1.2,2.8,2.8
						s-1.2,2.8-2.8,2.8c-1.5,0-2.8-1.2-2.8-2.8C203.2,190.8,204.5,189.5,206,189.5L206,189.5z M206,198.5c1.5,0,2.8,1.3,2.8,2.8
						c0,1.5-1.3,2.8-2.8,2.8c-1.5,0-2.8-1.3-2.8-2.8C203.2,199.7,204.5,198.5,206,198.5C206,198.5,206,198.5,206,198.5L206,198.5z
						 M197,162.7c1.5,0,2.8,1.3,2.8,2.8c0,1.5-1.3,2.8-2.8,2.8c-1.5,0-2.8-1.3-2.8-2.8C194.3,163.9,195.5,162.6,197,162.7
						C197,162.7,197,162.7,197,162.7L197,162.7z M197,171.6c1.5,0,2.8,1.2,2.8,2.8s-1.2,2.8-2.8,2.8c-1.5,0-2.8-1.2-2.8-2.8
						C194.3,172.9,195.5,171.6,197,171.6L197,171.6z M197,180.6c1.5,0,2.8,1.3,2.8,2.8c0,1.5-1.3,2.8-2.8,2.8
						c-1.5,0-2.8-1.3-2.8-2.8C194.3,181.8,195.5,180.6,197,180.6C197,180.6,197,180.6,197,180.6L197,180.6z M197,189.5
						c1.5,0,2.8,1.2,2.8,2.8s-1.2,2.8-2.8,2.8c-1.5,0-2.8-1.2-2.8-2.8C194.3,190.8,195.5,189.5,197,189.5L197,189.5z M197,198.5
						c1.5,0,2.8,1.3,2.8,2.8c0,1.5-1.3,2.8-2.8,2.8c-1.5,0-2.8-1.3-2.8-2.8C194.3,199.7,195.5,198.5,197,198.5
						C197,198.5,197,198.5,197,198.5L197,198.5z M188.1,162.7c1.5,0,2.8,1.3,2.8,2.8c0,1.5-1.3,2.8-2.8,2.8c-1.5,0-2.8-1.3-2.8-2.8
						C185.3,163.9,186.5,162.6,188.1,162.7C188.1,162.7,188.1,162.7,188.1,162.7L188.1,162.7z M188.1,171.6c1.5,0,2.8,1.2,2.8,2.8
						s-1.2,2.8-2.8,2.8c-1.5,0-2.8-1.2-2.8-2.8C185.3,172.9,186.5,171.6,188.1,171.6L188.1,171.6z M188.1,180.6
						c1.5,0,2.8,1.3,2.8,2.8c0,1.5-1.3,2.8-2.8,2.8c-1.5,0-2.8-1.3-2.8-2.8C185.3,181.8,186.5,180.6,188.1,180.6
						C188.1,180.6,188.1,180.6,188.1,180.6L188.1,180.6z M188.1,189.5c1.5,0,2.8,1.2,2.8,2.8s-1.2,2.8-2.8,2.8
						c-1.5,0-2.8-1.2-2.8-2.8C185.3,190.8,186.5,189.5,188.1,189.5L188.1,189.5z M188.1,198.5c1.5,0,2.8,1.3,2.8,2.8
						c0,1.5-1.3,2.8-2.8,2.8c-1.5,0-2.8-1.3-2.8-2.8C185.3,199.7,186.5,198.5,188.1,198.5C188.1,198.5,188.1,198.5,188.1,198.5
						L188.1,198.5z M188.1,207.5c0.4,0,0.8,0.1,1.1,0.3c5-2.6,10.9-2.7,15.9-0.1c1.5-0.5,3,0.3,3.5,1.8c0.1,0.2,0.1,0.5,0.1,0.7
						c1.6,1.4,3,3.1,4,5c1,1.8,1.6,3.8,1.9,5.9c0.1,0.7,0.1,1.4,0.1,2.1h-34.8c0-1.7,0.2-3.3,0.7-4.9c0.9-2.9,2.5-5.6,4.7-7.7v0
						c0-0.1,0-0.2,0-0.3C185.3,208.7,186.5,207.5,188.1,207.5C188.1,207.5,188.1,207.5,188.1,207.5L188.1,207.5z M179.1,162.7
						c1.5,0,2.8,1.2,2.8,2.8s-1.2,2.8-2.8,2.8c-1.5,0-2.8-1.2-2.8-2.8c0,0,0,0,0,0C176.3,163.9,177.6,162.7,179.1,162.7
						C179.1,162.7,179.1,162.7,179.1,162.7L179.1,162.7z M179.1,171.6c1.5,0,2.8,1.2,2.8,2.8c0,1.5-1.2,2.8-2.8,2.8
						c-1.5,0-2.8-1.2-2.8-2.8c0,0,0,0,0,0C176.3,172.9,177.6,171.6,179.1,171.6C179.1,171.6,179.1,171.6,179.1,171.6L179.1,171.6z
						 M179.1,198.5c1.5,0,2.8,1.2,2.8,2.8s-1.2,2.8-2.8,2.8c-1.5,0-2.8-1.2-2.8-2.8c0,0,0,0,0,0
						C176.3,199.8,177.6,198.5,179.1,198.5C179.1,198.5,179.1,198.5,179.1,198.5L179.1,198.5z M179.1,207.5c1.5,0,2.8,1.2,2.8,2.8
						s-1.2,2.8-2.8,2.8c-1.5,0-2.8-1.2-2.8-2.8c0,0,0,0,0,0C176.3,208.7,177.6,207.5,179.1,207.5
						C179.1,207.5,179.1,207.5,179.1,207.5L179.1,207.5z M152.2,213c-1.5,0-2.8-1.2-2.8-2.8c0-1.5,1.2-2.8,2.8-2.8
						c1.5,0,2.8,1.2,2.8,2.8C155,211.8,153.7,213,152.2,213L152.2,213z M152.2,204.1c-1.5,0-2.8-1.2-2.8-2.8c0-1.5,1.2-2.8,2.8-2.8
						c1.5,0,2.8,1.2,2.8,2.8C155,202.8,153.7,204,152.2,204.1L152.2,204.1z M152.2,195.1c-1.5,0-2.8-1.2-2.8-2.8
						c0-1.5,1.2-2.8,2.8-2.8c1.5,0,2.8,1.2,2.8,2.8c0,0,0,0,0,0C155,193.8,153.7,195.1,152.2,195.1L152.2,195.1z M152.2,186.1
						c-1.5,0-2.8-1.2-2.8-2.8c0-1.5,1.2-2.8,2.8-2.8c1.5,0,2.8,1.2,2.8,2.8C155,184.9,153.7,186.1,152.2,186.1L152.2,186.1z
						 M161.2,231c-1.5,0-2.8-1.2-2.8-2.8s1.2-2.8,2.8-2.8c1.5,0,2.8,1.2,2.8,2.8c0,0,0,0,0,0C163.9,229.7,162.7,231,161.2,231
						L161.2,231z M161.2,222c-1.5,0-2.8-1.2-2.8-2.8c0-1.5,1.2-2.8,2.8-2.8c1.5,0,2.8,1.2,2.8,2.8c0,0,0,0,0,0
						C163.9,220.8,162.7,222,161.2,222L161.2,222z M161.2,213c-1.5,0-2.8-1.2-2.8-2.8s1.2-2.8,2.8-2.8c1.5,0,2.8,1.2,2.8,2.8
						C163.9,211.8,162.7,213,161.2,213L161.2,213z M161.2,204.1c-1.5,0-2.8-1.2-2.8-2.8s1.2-2.8,2.8-2.8c1.5,0,2.8,1.2,2.8,2.8
						C163.9,202.8,162.7,204.1,161.2,204.1L161.2,204.1z M161.2,195.1c-1.5,0-2.8-1.2-2.8-2.8c0-1.5,1.2-2.8,2.8-2.8
						c1.5,0,2.8,1.2,2.8,2.8C163.9,193.8,162.7,195.1,161.2,195.1L161.2,195.1z M161.2,186.1c-1.5,0-2.8-1.2-2.8-2.8
						s1.2-2.8,2.8-2.8c1.5,0,2.8,1.2,2.8,2.8C163.9,184.9,162.7,186.1,161.2,186.1L161.2,186.1z M161.2,177.2
						c-1.5,0-2.8-1.2-2.8-2.8c0-1.5,1.2-2.8,2.8-2.8c1.5,0,2.8,1.2,2.8,2.8C163.9,175.9,162.7,177.2,161.2,177.2L161.2,177.2z
						 M161.2,168.2c-1.5,0-2.8-1.2-2.8-2.8s1.2-2.8,2.8-2.8c1.5,0,2.8,1.2,2.8,2.8C163.9,166.9,162.7,168.2,161.2,168.2L161.2,168.2
						z M170.1,239.9c-1.5,0-2.8-1.2-2.8-2.8c0-1.5,1.2-2.8,2.8-2.8c1.5,0,2.8,1.2,2.8,2.8c0,0,0,0,0,0
						C172.9,238.7,171.7,239.9,170.1,239.9L170.1,239.9z M170.1,231c-1.5,0-2.8-1.2-2.8-2.8c0-1.5,1.2-2.8,2.8-2.8
						c1.5,0,2.8,1.2,2.8,2.8c0,0,0,0,0,0C172.9,229.7,171.7,231,170.1,231L170.1,231z M170.1,222c-1.5,0-2.8-1.2-2.8-2.8
						c0-1.5,1.2-2.8,2.8-2.8c1.5,0,2.8,1.2,2.8,2.8c0,0,0,0,0,0C172.9,220.8,171.7,222,170.1,222L170.1,222z M170.1,213
						c-1.5,0-2.8-1.2-2.8-2.8c0-1.5,1.2-2.8,2.8-2.8c1.5,0,2.8,1.2,2.8,2.8C172.9,211.8,171.7,213,170.1,213L170.1,213z
						 M170.1,204.1c-1.5,0-2.8-1.2-2.8-2.8c0-1.5,1.2-2.8,2.8-2.8c1.5,0,2.8,1.2,2.8,2.8C172.9,202.8,171.7,204,170.1,204.1
						L170.1,204.1z M170.1,177.2c-1.5,0-2.8-1.2-2.8-2.8c0-1.5,1.2-2.8,2.8-2.8c1.5,0,2.8,1.2,2.8,2.8c0,0,0,0,0,0
						C172.9,175.9,171.7,177.2,170.1,177.2L170.1,177.2z M170.1,168.2c-1.5,0-2.8-1.2-2.8-2.8c0-1.5,1.2-2.8,2.8-2.8
						c1.5,0,2.8,1.2,2.8,2.8C172.9,166.9,171.7,168.2,170.1,168.2L170.1,168.2z M179.1,239.9c-1.5,0-2.8-1.2-2.8-2.8
						c0-1.5,1.2-2.8,2.8-2.8c1.5,0,2.8,1.2,2.8,2.8c0,0,0,0,0,0C181.9,238.7,180.6,239.9,179.1,239.9L179.1,239.9z M179.1,231
						c-1.5,0-2.8-1.2-2.8-2.8s1.2-2.8,2.8-2.8c1.5,0,2.8,1.2,2.8,2.8c0,0,0,0,0,0C181.9,229.7,180.6,231,179.1,231L179.1,231z
						 M188.1,248.9c-1.5,0-2.8-1.3-2.8-2.8c0-1.5,1.3-2.8,2.8-2.8c1.5,0,2.8,1.3,2.8,2.8C190.8,247.7,189.6,248.9,188.1,248.9
						C188.1,248.9,188.1,248.9,188.1,248.9L188.1,248.9z M188.1,239.9c-1.5,0-2.8-1.2-2.8-2.8s1.2-2.8,2.8-2.8
						c1.5,0,2.8,1.2,2.8,2.8C190.8,238.7,189.6,239.9,188.1,239.9L188.1,239.9z M188.1,231c-1.5,0-2.8-1.3-2.8-2.8
						c0-1.5,1.3-2.8,2.8-2.8c1.5,0,2.8,1.3,2.8,2.8C190.8,229.7,189.6,231,188.1,231C188.1,231,188.1,231,188.1,231L188.1,231z
						 M197,248.9c-1.5,0-2.8-1.2-2.8-2.8s1.2-2.8,2.8-2.8c1.5,0,2.8,1.2,2.8,2.8c0,0,0,0,0,0C199.8,247.7,198.6,248.9,197,248.9
						L197,248.9z M197,239.9c-1.5,0-2.8-1.2-2.8-2.8c0-1.5,1.2-2.8,2.8-2.8c1.5,0,2.8,1.2,2.8,2.8c0,0,0,0,0,0
						C199.8,238.7,198.6,239.9,197,239.9L197,239.9z M197,231c-1.5,0-2.8-1.2-2.8-2.8s1.2-2.8,2.8-2.8c1.5,0,2.8,1.2,2.8,2.8
						c0,0,0,0,0,0C199.8,229.7,198.6,231,197,231L197,231z M206,248.9c-1.5,0-2.8-1.3-2.8-2.8c0-1.5,1.3-2.8,2.8-2.8
						c1.5,0,2.8,1.3,2.8,2.8C208.8,247.7,207.5,248.9,206,248.9L206,248.9z M206,239.9c-1.5,0-2.8-1.2-2.8-2.8s1.2-2.8,2.8-2.8
						c1.5,0,2.8,1.2,2.8,2.8C208.8,238.7,207.5,239.9,206,239.9L206,239.9z M206,231c-1.5,0-2.8-1.3-2.8-2.8c0-1.5,1.3-2.8,2.8-2.8
						c1.5,0,2.8,1.3,2.8,2.8C208.8,229.7,207.5,231,206,231L206,231z M215,239.9c-1.5,0-2.8-1.2-2.8-2.8s1.2-2.8,2.8-2.8
						c1.5,0,2.8,1.2,2.8,2.8C217.7,238.7,216.5,239.9,215,239.9L215,239.9z M215,231c-1.5,0-2.8-1.3-2.8-2.8c0-1.5,1.3-2.8,2.8-2.8
						c1.5,0,2.8,1.3,2.8,2.8C217.7,229.7,216.5,231,215,231C215,231,215,231,215,231L215,231z M179.1,222c-1.5,0-2.8-1.2-2.8-2.8
						s1.2-2.8,2.8-2.8c1.5,0,2.8,1.2,2.8,2.8c0,0,0,0,0,0C181.9,220.8,180.6,222,179.1,222L179.1,222z M188.1,222
						c-1.5,0-2.8-1.3-2.8-2.8c0-1.5,1.3-2.8,2.8-2.8c1.5,0,2.8,1.3,2.8,2.8C190.8,220.8,189.6,222,188.1,222
						C188.1,222,188.1,222,188.1,222L188.1,222z M197,222c-1.5,0-2.8-1.2-2.8-2.8s1.2-2.8,2.8-2.8c1.5,0,2.8,1.2,2.8,2.8
						c0,0,0,0,0,0C199.8,220.8,198.6,222,197,222L197,222z M206,222c-1.5,0-2.8-1.3-2.8-2.8c0-1.5,1.3-2.8,2.8-2.8
						c1.5,0,2.8,1.3,2.8,2.8C208.8,220.8,207.5,222,206,222L206,222z M215,222c-1.5,0-2.8-1.3-2.8-2.8c0-1.5,1.3-2.8,2.8-2.8
						c1.5,0,2.8,1.3,2.8,2.8C217.7,220.8,216.5,222,215,222C215,222,215,222,215,222L215,222z M215,213c-1.5,0-2.8-1.3-2.8-2.8
						c0-1.5,1.3-2.8,2.8-2.8c1.5,0,2.8,1.2,2.8,2.8C217.8,211.8,216.5,213,215,213C215,213,215,213,215,213L215,213z M215,204.1
						c-1.5,0-2.8-1.3-2.8-2.8c0-1.5,1.3-2.8,2.8-2.8c1.5,0,2.8,1.2,2.8,2.8C217.8,202.8,216.5,204.1,215,204.1
						C215,204.1,215,204.1,215,204.1L215,204.1z M215,177.2c-1.5,0-2.8-1.2-2.8-2.8s1.2-2.8,2.8-2.8c1.5,0,2.8,1.2,2.8,2.8
						C217.7,175.9,216.5,177.2,215,177.2C215,177.2,215,177.2,215,177.2L215,177.2z M215,168.2c-1.5,0-2.8-1.3-2.8-2.8
						c0-1.5,1.3-2.8,2.8-2.8c1.5,0,2.8,1.2,2.8,2.8C217.8,166.9,216.5,168.2,215,168.2C215,168.2,215,168.2,215,168.2L215,168.2z
						 M223.9,239.9c-1.5,0-2.8-1.2-2.8-2.8s1.2-2.8,2.8-2.8c1.5,0,2.8,1.2,2.8,2.8C226.7,238.7,225.5,239.9,223.9,239.9L223.9,239.9
						z M223.9,231c-1.5,0-2.8-1.3-2.8-2.8c0-1.5,1.3-2.8,2.8-2.8c1.5,0,2.8,1.3,2.8,2.8C226.7,229.7,225.5,231,223.9,231L223.9,231z
						 M223.9,222c-1.5,0-2.8-1.2-2.8-2.8s1.2-2.8,2.8-2.8c1.5,0,2.8,1.2,2.8,2.8C226.7,220.8,225.5,222,223.9,222L223.9,222z
						 M223.9,213c-1.5,0-2.8-1.3-2.8-2.8c0-1.5,1.3-2.8,2.8-2.8c1.5,0,2.8,1.2,2.8,2.8C226.7,211.8,225.5,213,223.9,213
						C223.9,213,223.9,213,223.9,213L223.9,213z M223.9,204.1c-1.5,0-2.8-1.3-2.8-2.8c0-1.5,1.3-2.8,2.8-2.8c1.5,0,2.8,1.2,2.8,2.8
						C226.7,202.8,225.5,204.1,223.9,204.1C223.9,204.1,223.9,204.1,223.9,204.1L223.9,204.1z M223.9,177.2c-1.5,0-2.8-1.2-2.8-2.8
						s1.2-2.8,2.8-2.8c1.5,0,2.8,1.2,2.8,2.8C226.7,175.9,225.5,177.2,223.9,177.2L223.9,177.2z M223.9,168.2
						c-1.5,0-2.8-1.3-2.8-2.8c0-1.5,1.3-2.8,2.8-2.8c1.5,0,2.8,1.2,2.8,2.8C226.7,166.9,225.5,168.2,223.9,168.2
						C223.9,168.2,223.9,168.2,223.9,168.2L223.9,168.2z M232.9,231c-1.5,0-2.8-1.3-2.8-2.8c0-1.5,1.3-2.8,2.8-2.8
						c1.5,0,2.8,1.3,2.8,2.8C235.7,229.7,234.4,231,232.9,231C232.9,231,232.9,231,232.9,231L232.9,231z M232.9,222
						c-1.5,0-2.8-1.2-2.8-2.8s1.2-2.8,2.8-2.8c1.5,0,2.8,1.2,2.8,2.8C235.7,220.8,234.4,222,232.9,222L232.9,222z M232.9,213
						c-1.5,0-2.8-1.3-2.8-2.8c0-1.5,1.3-2.8,2.8-2.8c1.5,0,2.8,1.2,2.8,2.8C235.7,211.8,234.4,213,232.9,213
						C232.9,213,232.9,213,232.9,213L232.9,213z M232.9,204.1c-1.5,0-2.8-1.3-2.8-2.8c0-1.5,1.3-2.8,2.8-2.8c1.5,0,2.8,1.2,2.8,2.8
						C235.7,202.8,234.4,204.1,232.9,204.1C232.9,204.1,232.9,204.1,232.9,204.1L232.9,204.1z M232.9,195.1c-1.5,0-2.8-1.2-2.8-2.8
						s1.2-2.8,2.8-2.8c1.5,0,2.8,1.2,2.8,2.8C235.7,193.9,234.4,195.1,232.9,195.1C232.9,195.1,232.9,195.1,232.9,195.1L232.9,195.1
						z M232.9,186.1c-1.5,0-2.8-1.3-2.8-2.8c0-1.5,1.3-2.8,2.8-2.8c1.5,0,2.8,1.2,2.8,2.8C235.7,184.9,234.4,186.1,232.9,186.1
						C232.9,186.1,232.9,186.1,232.9,186.1L232.9,186.1z M232.9,177.2c-1.5,0-2.8-1.2-2.8-2.8s1.2-2.8,2.8-2.8
						c1.5,0,2.8,1.2,2.8,2.8C235.7,175.9,234.4,177.2,232.9,177.2C232.9,177.2,232.9,177.2,232.9,177.2L232.9,177.2z M232.9,168.2
						c-1.5,0-2.8-1.3-2.8-2.8c0-1.5,1.3-2.8,2.8-2.8c1.5,0,2.8,1.2,2.8,2.8C235.7,166.9,234.4,168.2,232.9,168.2
						C232.9,168.2,232.9,168.2,232.9,168.2L232.9,168.2z M241.9,180.6c1.5,0,2.8,1.3,2.8,2.8c0,1.5-1.3,2.8-2.8,2.8
						c-1.5,0-2.8-1.3-2.8-2.8C239.1,181.8,240.3,180.6,241.9,180.6C241.9,180.6,241.9,180.6,241.9,180.6L241.9,180.6z M241.9,213
						c-1.5,0-2.8-1.2-2.8-2.8s1.2-2.8,2.8-2.8c1.5,0,2.8,1.2,2.8,2.8C244.6,211.8,243.4,213,241.9,213
						C241.9,213,241.9,213,241.9,213L241.9,213z M241.9,204.1c-1.5,0-2.8-1.2-2.8-2.8s1.2-2.8,2.8-2.8c1.5,0,2.8,1.2,2.8,2.8
						C244.6,202.8,243.4,204.1,241.9,204.1C241.9,204.1,241.9,204.1,241.9,204.1L241.9,204.1z M241.9,195.1c-1.5,0-2.8-1.2-2.8-2.8
						c0-1.5,1.2-2.8,2.8-2.8c1.5,0,2.8,1.2,2.8,2.8C244.6,193.8,243.4,195.1,241.9,195.1L241.9,195.1z"/>
					<path class="st5" d="M156.8,148.4l-0.5,0.6c-0.2,0.2-0.4,0.4-0.6,0.6l0.6-0.6C156.5,148.7,156.7,148.6,156.8,148.4L156.8,148.4
						z"/>
				</g>
				<path class="st8" d="M197.3,79.9c-0.9,0-1.8,0-2.7,0.1v-0.1H197.3z"/>
				<path class="st8" d="M200,79.9V80c-0.9-0.1-1.8-0.1-2.7-0.1H200z"/>
				<path class="st5" d="M200,91.4c-0.8-0.4-1.8-0.6-2.7-0.6c-0.9,0-1.9,0.2-2.7,0.6c-2.3,1-3.7,3.3-3.7,5.8v10.5
					c0,3.5,2.8,6.4,6.4,6.4c0,0,0,0,0.1,0c0.9,0,1.9-0.2,2.7-0.6c2.3-1.1,3.7-3.3,3.7-5.8V97.2C203.7,94.7,202.3,92.5,200,91.4z
					 M200.1,107.8c0,0.3,0,0.6-0.1,0.8c0,0,0,0,0,0c-0.5,1.5-2,2.3-3.5,1.9c-0.9-0.3-1.6-1-1.9-1.9c-0.1-0.3-0.1-0.6-0.1-0.8V97.2
					c0-0.3,0-0.6,0.1-0.8c0.5-1.5,2-2.3,3.5-1.9c0.9,0.3,1.6,1,1.9,1.9c0.1,0.3,0.1,0.6,0.1,0.8V107.8z"/>
			</g>
			<path class="st5" d="M214.7,223.2h-34.8c0-1.7,0.2-3.3,0.7-4.9c2.7-9.2,12.4-14.5,21.6-11.8c4.6,1.3,8.4,4.5,10.6,8.7
				c1,1.8,1.6,3.8,1.9,5.9C214.7,221.7,214.7,222.5,214.7,223.2z"/>
			<g>
				<circle class="st0" cx="197.3" cy="54.6" r="11.7"/>
				<path class="st5" d="M197.3,68.1c-7.5,0-13.5-6.1-13.5-13.5S189.8,41,197.3,41s13.5,6.1,13.5,13.5
					C210.8,62,204.8,68.1,197.3,68.1z M197.3,44.6c-5.5,0-9.9,4.5-9.9,9.9s4.5,9.9,9.9,9.9s9.9-4.5,9.9-9.9
					C207.2,49.1,202.8,44.6,197.3,44.6z"/>
			</g>
			<g>
				<circle class="st0" cx="103" cy="245.5" r="11.7"/>
				<path class="st5" d="M103,259c-7.5,0-13.5-6.1-13.5-13.5c0-7.5,6.1-13.5,13.5-13.5c7.5,0,13.5,6.1,13.5,13.5
					C116.5,252.9,110.5,259,103,259z M103,235.5c-5.5,0-9.9,4.5-9.9,9.9c0,5.5,4.5,9.9,9.9,9.9c5.5,0,9.9-4.5,9.9-9.9
					C112.9,240,108.5,235.5,103,235.5L103,235.5z"/>
			</g>
			<path class="st3" d="M179.1,180.6c1.5,0,2.8,1.3,2.8,2.8c0,1.5-1.3,2.8-2.8,2.8c-1.5,0-2.8-1.3-2.8-2.8
				C176.3,181.8,177.6,180.6,179.1,180.6C179.1,180.6,179.1,180.6,179.1,180.6z"/>
			<path class="st3" d="M170.1,180.6c1.5,0,2.8,1.3,2.8,2.8c0,1.5-1.3,2.8-2.8,2.8c-1.5,0-2.8-1.3-2.8-2.8
				C167.3,181.8,168.6,180.6,170.1,180.6C170.1,180.6,170.1,180.6,170.1,180.6z"/>
			<path class="st3" d="M179.1,189.6c1.5,0,2.8,1.3,2.8,2.8c0,1.5-1.3,2.8-2.8,2.8c-1.5,0-2.8-1.3-2.8-2.8
				C176.3,190.8,177.6,189.5,179.1,189.6C179.1,189.6,179.1,189.6,179.1,189.6z"/>
			<path class="st3" d="M170.1,189.6c1.5,0,2.8,1.3,2.8,2.8c0,1.5-1.3,2.8-2.8,2.8c-1.5,0-2.8-1.3-2.8-2.8
				C167.3,190.8,168.6,189.5,170.1,189.6C170.1,189.6,170.1,189.6,170.1,189.6z"/>
			<path class="st3" d="M223.9,180.6c1.5,0,2.8,1.3,2.8,2.8c0,1.5-1.3,2.8-2.8,2.8c-1.5,0-2.8-1.3-2.8-2.8
				C221.2,181.8,222.4,180.6,223.9,180.6C223.9,180.6,223.9,180.6,223.9,180.6z"/>
			<path class="st3" d="M215,180.6c1.5,0,2.8,1.3,2.8,2.8c0,1.5-1.3,2.8-2.8,2.8c-1.5,0-2.8-1.3-2.8-2.8
				C212.2,181.8,213.4,180.6,215,180.6C215,180.6,215,180.6,215,180.6z"/>
			<path class="st3" d="M223.9,189.6c1.5,0,2.8,1.3,2.8,2.8c0,1.5-1.3,2.8-2.8,2.8c-1.5,0-2.8-1.3-2.8-2.8
				C221.2,190.8,222.4,189.5,223.9,189.6C223.9,189.6,223.9,189.6,223.9,189.6z"/>
			<path class="st3" d="M215,189.6c1.5,0,2.8,1.3,2.8,2.8c0,1.5-1.3,2.8-2.8,2.8c-1.5,0-2.8-1.3-2.8-2.8
				C212.2,190.8,213.4,189.5,215,189.6C215,189.6,215,189.6,215,189.6z"/>
			<ellipse class="st5" cx="219.4" cy="187.8" rx="7.3" ry="8.6"/>
			<ellipse class="st5" cx="174.7" cy="187.8" rx="7.3" ry="8.6"/>
		</g>
		<g>
			<defs>
				<ellipse id="SVGID_1_" cx="174.7" cy="187.8" rx="7.3" ry="8.6"/>
			</defs>
			<clipPath id="SVGID_2_">
				<use xlink:href="#SVGID_1_"  style="overflow:visible;"/>
			</clipPath>
			<g class="st9">
				<path class="st10" d="M179.1,180.6c1.5,0,2.8,1.3,2.8,2.8c0,1.5-1.3,2.8-2.8,2.8c-1.5,0-2.8-1.3-2.8-2.8
					C176.3,181.8,177.6,180.6,179.1,180.6C179.1,180.6,179.1,180.6,179.1,180.6z"/>
				<path class="st10" d="M170.1,180.6c1.5,0,2.8,1.3,2.8,2.8c0,1.5-1.3,2.8-2.8,2.8c-1.5,0-2.8-1.3-2.8-2.8
					C167.3,181.8,168.6,180.6,170.1,180.6C170.1,180.6,170.1,180.6,170.1,180.6z"/>
				<path class="st10" d="M179.1,189.6c1.5,0,2.8,1.3,2.8,2.8c0,1.5-1.3,2.8-2.8,2.8c-1.5,0-2.8-1.3-2.8-2.8
					C176.3,190.8,177.6,189.5,179.1,189.6C179.1,189.6,179.1,189.6,179.1,189.6z"/>
				<path class="st10" d="M170.1,189.6c1.5,0,2.8,1.3,2.8,2.8c0,1.5-1.3,2.8-2.8,2.8c-1.5,0-2.8-1.3-2.8-2.8
					C167.3,190.8,168.6,189.5,170.1,189.6C170.1,189.6,170.1,189.6,170.1,189.6z"/>
			</g>
		</g>
		<g>
			<defs>
				<ellipse id="SVGID_3_" cx="219.4" cy="187.8" rx="7.3" ry="8.6"/>
			</defs>
			<clipPath id="SVGID_4_">
				<use xlink:href="#SVGID_3_"  style="overflow:visible;"/>
			</clipPath>
			<g class="st11">
				<path class="st10" d="M223.9,180.6c1.5,0,2.8,1.3,2.8,2.8c0,1.5-1.3,2.8-2.8,2.8c-1.5,0-2.8-1.3-2.8-2.8
					C221.1,181.8,222.4,180.6,223.9,180.6C223.9,180.6,223.9,180.6,223.9,180.6z"/>
				<path class="st10" d="M214.9,180.6c1.5,0,2.8,1.3,2.8,2.8c0,1.5-1.3,2.8-2.8,2.8c-1.5,0-2.8-1.3-2.8-2.8
					C212.1,181.8,213.4,180.6,214.9,180.6C214.9,180.6,214.9,180.6,214.9,180.6z"/>
				<path class="st10" d="M223.9,189.6c1.5,0,2.8,1.3,2.8,2.8c0,1.5-1.3,2.8-2.8,2.8c-1.5,0-2.8-1.3-2.8-2.8
					C221.1,190.8,222.4,189.5,223.9,189.6C223.9,189.6,223.9,189.6,223.9,189.6z"/>
				<path class="st10" d="M214.9,189.6c1.5,0,2.8,1.3,2.8,2.8c0,1.5-1.3,2.8-2.8,2.8c-1.5,0-2.8-1.3-2.8-2.8
					C212.1,190.8,213.4,189.5,214.9,189.6C214.9,189.6,214.9,189.6,214.9,189.6z"/>
			</g>
		</g>
		<g>
			<defs>
				<path id="SVGID_5_" d="M214.7,223.2h-34.8c0-1.7,0.2-3.3,0.7-4.9c2.7-9.2,12.4-14.5,21.6-11.8c4.6,1.3,8.4,4.5,10.6,8.7
					c1,1.8,1.6,3.8,1.9,5.9C214.7,221.7,214.7,222.5,214.7,223.2z"/>
			</defs>
			<clipPath id="SVGID_6_">
				<use xlink:href="#SVGID_5_"  style="overflow:visible;"/>
			</clipPath>
			<g class="st12">
				<g>
					<path class="st10" d="M179.1,222c-1.5,0-2.8-1.2-2.8-2.8s1.2-2.8,2.8-2.8c1.5,0,2.8,1.2,2.8,2.8c0,0,0,0,0,0
						C181.9,220.8,180.6,222,179.1,222z"/>
					<path class="st10" d="M188.1,222c-1.5,0-2.8-1.3-2.8-2.8c0-1.5,1.3-2.8,2.8-2.8c1.5,0,2.8,1.3,2.8,2.8
						C190.8,220.8,189.6,222,188.1,222C188.1,222,188.1,222,188.1,222z"/>
					<path class="st10" d="M197,222c-1.5,0-2.8-1.2-2.8-2.8s1.2-2.8,2.8-2.8c1.5,0,2.8,1.2,2.8,2.8c0,0,0,0,0,0
						C199.8,220.8,198.6,222,197,222z"/>
					<path class="st10" d="M206,222c-1.5,0-2.8-1.3-2.8-2.8c0-1.5,1.3-2.8,2.8-2.8c1.5,0,2.8,1.3,2.8,2.8
						C208.8,220.8,207.5,222,206,222z"/>
					<path class="st10" d="M215,222c-1.5,0-2.8-1.3-2.8-2.8c0-1.5,1.3-2.8,2.8-2.8c1.5,0,2.8,1.3,2.8,2.8
						C217.7,220.8,216.5,222,215,222C215,222,215,222,215,222z"/>
				</g>
				<path class="st10" d="M206,207.5c1.5,0,2.8,1.3,2.8,2.8c0,1.5-1.3,2.8-2.8,2.8c-1.5,0-2.8-1.3-2.8-2.8
					C203.2,208.7,204.5,207.5,206,207.5C206,207.5,206,207.5,206,207.5z"/>
				<path class="st10" d="M197,207.5c1.5,0,2.8,1.3,2.8,2.8c0,1.5-1.3,2.8-2.8,2.8c-1.5,0-2.8-1.3-2.8-2.8
					C194.3,208.7,195.5,207.5,197,207.5C197,207.5,197,207.5,197,207.5z"/>
				<path class="st10" d="M188.1,207.5c1.5,0,2.8,1.3,2.8,2.8c0,1.5-1.3,2.8-2.8,2.8c-1.5,0-2.8-1.3-2.8-2.8
					C185.3,208.7,186.5,207.5,188.1,207.5C188.1,207.5,188.1,207.5,188.1,207.5z"/>
			</g>
		</g>
		<g>
			<defs>
				<path id="SVGID_7_" d="M120.2,113.2c0,0.3,0,0.5,0,0.8c-0.1,1.4-0.3,2.8-0.7,4.2c-0.1,0.2-0.1,0.5-0.2,0.7
					c-0.9,2.7-2.5,5.1-4.5,7c-5.6,5.3-13.9,6.3-20.6,2.5c-0.2-0.1-0.4-0.3-0.7-0.4c-0.8-0.5-1.5-1-2.2-1.6c-2.3-2-4-4.5-5-7.3
					c-0.6-1.7-1-3.4-1-5.2c0-0.2,0-0.4,0-0.7H120.2z"/>
			</defs>
			<clipPath id="SVGID_8_">
				<use xlink:href="#SVGID_7_"  style="overflow:visible;"/>
			</clipPath>
			<g class="st13">
				<g>
					<path class="st10" d="M112,113.9c1.5,0,2.8,1.2,2.8,2.8c0,1.5-1.2,2.8-2.8,2.8c-1.5,0-2.8-1.2-2.8-2.8
						C109.2,115.1,110.4,113.9,112,113.9z"/>
					<path class="st10" d="M103,113.9c1.5,0,2.8,1.2,2.8,2.8c0,1.5-1.2,2.8-2.8,2.8c-1.5,0-2.8-1.2-2.8-2.8
						C100.2,115.1,101.5,113.9,103,113.9z"/>
					<path class="st10" d="M85.1,113.9c1.5,0,2.8,1.2,2.8,2.8c0,1.5-1.2,2.8-2.8,2.8c-1.5,0-2.8-1.2-2.8-2.8
						C82.3,115.1,83.5,113.9,85.1,113.9z"/>
					<path class="st10" d="M120.9,119.4c-1.5,0-2.8-1.2-2.8-2.8c0-1.5,1.2-2.8,2.8-2.8c1.5,0,2.8,1.2,2.8,2.8c0,0,0,0,0,0
						C123.7,118.2,122.5,119.4,120.9,119.4C120.9,119.4,120.9,119.4,120.9,119.4z"/>
					<path class="st10" d="M94,113.9c1.5,0,2.8,1.2,2.8,2.8c0,1.5-1.2,2.8-2.8,2.8c-1.5,0-2.8-1.2-2.8-2.8
						C91.3,115.1,92.5,113.9,94,113.9z"/>
					<path class="st10" d="M112,122.9c1.5,0,2.8,1.2,2.8,2.8c0,1.5-1.2,2.8-2.8,2.8c-1.5,0-2.8-1.2-2.8-2.8
						C109.2,124.1,110.4,122.9,112,122.9z"/>
					<path class="st10" d="M103,122.9c1.5,0,2.8,1.2,2.8,2.8c0,1.5-1.2,2.8-2.8,2.8c-1.5,0-2.8-1.2-2.8-2.8
						C100.2,124.1,101.5,122.9,103,122.9z"/>
					<path class="st10" d="M94,122.9c1.5,0,2.8,1.2,2.8,2.8c0,1.5-1.2,2.8-2.8,2.8c-1.5,0-2.8-1.2-2.8-2.8
						C91.3,124.1,92.5,122.9,94,122.9z"/>
					<path class="st10" d="M85.1,122.9c1.5,0,2.8,1.2,2.8,2.8c0,1.5-1.2,2.8-2.8,2.8c-1.5,0-2.8-1.2-2.8-2.8
						C82.3,124.1,83.5,122.9,85.1,122.9z"/>
					<path class="st10" d="M120.9,128.4c-1.5,0-2.8-1.2-2.8-2.8c0-1.5,1.2-2.8,2.8-2.8c1.5,0,2.8,1.2,2.8,2.8c0,0,0,0,0,0
						C123.7,127.2,122.5,128.4,120.9,128.4C120.9,128.4,120.9,128.4,120.9,128.4z"/>
				</g>
			</g>
		</g>
		<g>
			<defs>
				<ellipse id="SVGID_9_" cx="80.7" cy="94.4" rx="7.3" ry="8.6"/>
			</defs>
			<clipPath id="SVGID_10_">
				<use xlink:href="#SVGID_9_"  style="overflow:visible;"/>
			</clipPath>
			<g class="st14">
				<path class="st10" d="M85.2,87.1c1.5,0,2.8,1.3,2.8,2.8s-1.3,2.8-2.8,2.8c-1.5,0-2.8-1.3-2.8-2.8C82.4,88.4,83.6,87.1,85.2,87.1
					C85.2,87.1,85.2,87.1,85.2,87.1z"/>
				<path class="st10" d="M76.2,87.1c1.5,0,2.8,1.3,2.8,2.8s-1.3,2.8-2.8,2.8c-1.5,0-2.8-1.3-2.8-2.8C73.4,88.4,74.7,87.1,76.2,87.1
					C76.2,87.1,76.2,87.1,76.2,87.1z"/>
				<path class="st10" d="M85.2,96.1c1.5,0,2.8,1.3,2.8,2.8s-1.3,2.8-2.8,2.8c-1.5,0-2.8-1.3-2.8-2.8C82.4,97.3,83.6,96.1,85.2,96.1
					C85.2,96.1,85.2,96.1,85.2,96.1z"/>
				<path class="st10" d="M76.2,96.1c1.5,0,2.8,1.3,2.8,2.8s-1.3,2.8-2.8,2.8c-1.5,0-2.8-1.3-2.8-2.8C73.4,97.3,74.7,96.1,76.2,96.1
					C76.2,96.1,76.2,96.1,76.2,96.1z"/>
			</g>
		</g>
		<g>
			<defs>
				<ellipse id="SVGID_11_" cx="125.5" cy="94.4" rx="7.3" ry="8.6"/>
			</defs>
			<clipPath id="SVGID_12_">
				<use xlink:href="#SVGID_11_"  style="overflow:visible;"/>
			</clipPath>
			<g class="st15">
				<path class="st10" d="M130,87.1c1.5,0,2.8,1.3,2.8,2.8c0,1.5-1.3,2.8-2.8,2.8c-1.5,0-2.8-1.3-2.8-2.8
					C127.2,88.4,128.5,87.1,130,87.1C130,87.1,130,87.1,130,87.1z"/>
				<path class="st10" d="M121,87.1c1.5,0,2.8,1.3,2.8,2.8s-1.3,2.8-2.8,2.8c-1.5,0-2.8-1.3-2.8-2.8C118.2,88.4,119.5,87.1,121,87.1
					C121,87.1,121,87.1,121,87.1z"/>
				<path class="st10" d="M130,96.1c1.5,0,2.8,1.3,2.8,2.8c0,1.5-1.3,2.8-2.8,2.8c-1.5,0-2.8-1.3-2.8-2.8
					C127.2,97.3,128.5,96.1,130,96.1C130,96.1,130,96.1,130,96.1z"/>
				<path class="st10" d="M121,96.1c1.5,0,2.8,1.3,2.8,2.8s-1.3,2.8-2.8,2.8c-1.5,0-2.8-1.3-2.8-2.8C118.2,97.3,119.5,96.1,121,96.1
					C121,96.1,121,96.1,121,96.1z"/>
			</g>
		</g>
	</g>
</g>
</svg>
