<svg xmlns="http://www.w3.org/2000/svg" width="4.167in" height="4.167in" viewBox="0 0 300.024 300.024"><title>3d--paddle-outline</title><path d="M256.871,156.092a77.826,77.826,0,0,0-33.1-29.742,1.366,1.366,0,0,1-.74-1.17l1.59-40.563a12.95,12.95,0,0,0-6.06-11.6c-.09-.05-.18-.11-.27-.16a2.788,2.788,0,0,1-.909-3.837q.052-.084.109-.163a24.744,24.744,0,1,0-40.363.01c2.45,3.46-7.371,11.351-8.711,7.561-10.161-28.782-35.773-49.254-65.685-49.254-38.783,0-70.346,34.413-70.346,76.716,0,30.392,16.4,56.475,43.874,69.786a1.392,1.392,0,0,1,.52.47,1.478,1.478,0,0,1,.22.67l-1.62,40.853A13.063,13.063,0,0,0,81.446,227c.16.1.32.19.48.29a2.783,2.783,0,0,1,.918,3.828q-.051.083-.108.163a24.739,24.739,0,1,0,40.363-.22c-1.2-1.67-.02-3.24,1.26-4.45,1.26-1.19,5.82-7.011,7.241-2.98,10.161,28.762,35.773,49.224,65.7,49.224,38.783,0,70.346-34.413,70.346-76.706A76.713,76.713,0,0,0,256.871,156.092Z" style="fill:#fff"/></svg>