<svg xmlns="http://www.w3.org/2000/svg" xmlns:xlink="http://www.w3.org/1999/xlink" width="4.167in" height="4.167in" viewBox="0 0 300.024 300.024">
  <defs>
    <clipPath id="a">
      <ellipse cx="174.652" cy="187.839" rx="7.301" ry="8.592" style="fill: none"/>
    </clipPath>
    <clipPath id="b">
      <ellipse cx="219.448" cy="187.839" rx="7.301" ry="8.592" style="fill: none"/>
    </clipPath>
    <clipPath id="c">
      <path d="M214.717,223.168H179.874a17.778,17.778,0,0,1,.7-4.92,17.409,17.409,0,0,1,32.153-3.14,16.67,16.67,0,0,1,1.86,5.92A16.852,16.852,0,0,1,214.717,223.168Z" style="fill: none"/>
    </clipPath>
    <clipPath id="d">
      <path d="M120.151,113.249c0,.26-.01.51-.02.76a17.9,17.9,0,0,1-.68,4.16c-.07.23-.14.46-.22.69a17.433,17.433,0,0,1-25.062,9.561c-.22-.12-.44-.25-.65-.38a18.774,18.774,0,0,1-2.16-1.59,17.281,17.281,0,0,1-5.02-7.321,16.744,16.744,0,0,1-1.01-5.22c-.02-.22-.02-.44-.02-.66Z" style="fill: none"/>
    </clipPath>
    <clipPath id="e">
      <ellipse cx="80.711" cy="94.388" rx="7.301" ry="8.592" style="fill: none"/>
    </clipPath>
    <clipPath id="f">
      <ellipse cx="125.544" cy="94.388" rx="7.301" ry="8.592" style="fill: none"/>
    </clipPath>
  </defs>
  <title>3d--paddle</title>
  <g>
    <g>
      <path d="M256.871,156.092a77.826,77.826,0,0,0-33.1-29.742,1.366,1.366,0,0,1-.74-1.17l1.59-40.563a12.95,12.95,0,0,0-6.06-11.6c-.09-.05-.18-.11-.27-.16a2.788,2.788,0,0,1-.909-3.837q.052-.084.109-.163a24.744,24.744,0,1,0-40.363.01c2.45,3.46-7.371,11.351-8.711,7.561-10.161-28.782-35.773-49.254-65.685-49.254-38.783,0-70.346,34.413-70.346,76.716,0,30.392,16.4,56.475,43.874,69.786a1.392,1.392,0,0,1,.52.47,1.478,1.478,0,0,1,.22.67l-1.62,40.853A13.063,13.063,0,0,0,81.446,227c.16.1.32.19.48.29a2.783,2.783,0,0,1,.918,3.828q-.051.083-.108.163a24.739,24.739,0,1,0,40.363-.22c-1.2-1.67-.02-3.24,1.26-4.45,1.26-1.19,5.82-7.011,7.241-2.98,10.161,28.762,35.773,49.224,65.7,49.224,38.783,0,70.346-34.413,70.346-76.706A76.713,76.713,0,0,0,256.871,156.092Zm-77,67.075c0-.43.02-.86.05-1.29a.34.34,0,0,1,.01-.1l.06-.69a.688.688,0,0,0,.02-.13c.05-.36.1-.71.17-1.06.1-.56.24-1.11.39-1.65.05-.17.1-.34.16-.5.03-.1.06-.19.09-.28.04-.11.07-.21.11-.31.01-.04.03-.07.04-.11a.694.694,0,0,1,.05-.13c.05-.14.11-.28.17-.42a3.808,3.808,0,0,1,.18-.42c.15-.35.32-.69.5-1.03.09-.17.18-.33.27-.49.03-.05.05-.1.08-.14s.06-.1.09-.14c.07-.14.16-.27.24-.4s.17-.27.26-.4a1.211,1.211,0,0,1,.1-.14,2.165,2.165,0,0,1,.13-.19c.03-.04.05-.07.08-.11a1.015,1.015,0,0,1,.13-.18c.09-.13.19-.27.3-.4.06-.08.13-.17.2-.25.1-.12.2-.25.31-.37a3.882,3.882,0,0,1,.43-.48c.1-.12.21-.23.32-.35a5.211,5.211,0,0,1,.48-.46v-.01c.29-.28.6-.56.92-.82.3-.24.61-.48.93-.71.16-.11.32-.23.49-.34s.33-.21.49-.31c.35-.22.71-.43,1.07-.62h.01c.3-.16.61-.31.92-.45.28-.13.56-.25.85-.36.37-.14.74-.27,1.12-.39q.48-.15.96-.27c.26-.07.52-.12.78-.18.09-.02.18-.03.27-.05.21-.04.43-.07.65-.1.12-.02.23-.04.34-.05.13-.02.26-.03.39-.04a.091.091,0,0,1,.05-.01,1.351,1.351,0,0,1,.2-.02.859.859,0,0,1,.16-.01.148.148,0,0,1,.07-.01c.19-.01.38-.03.58-.03.25-.01.5-.02.75-.02s.5.01.75.02h.07a.375.375,0,0,1,.11.01h.04a1.784,1.784,0,0,1,.23.02s0-.01.01,0a.03.03,0,0,1,.04,0h.01c.16.01.32.02.48.04.11.01.23.02.34.04q.51.06,1.02.15l.45.09c.12.02.24.05.36.08a2.343,2.343,0,0,1,.38.09c.24.06.48.12.71.2.02.01.04.01.06.02.32.1.64.2.95.32a5.722,5.722,0,0,1,.81.33.434.434,0,0,1,.21.09,1.388,1.388,0,0,1,.28.12,1.546,1.546,0,0,1,.34.17.159.159,0,0,1,.1.05c.03,0,.04.01.07.04h.01a1.22,1.22,0,0,1,.28.14c.09.05.18.09.27.15a.582.582,0,0,1,.19.1,5.791,5.791,0,0,1,.64.36,8.22,8.22,0,0,1,.78.53,3.691,3.691,0,0,1,.32.23c.17.12.34.25.5.38a1.059,1.059,0,0,1,.12.1c.18.15.36.3.53.46.01-.01.01,0,.01,0a15.125,15.125,0,0,1,1.16,1.11c.12.13.23.25.34.38a1.877,1.877,0,0,1,.23.26c.06.06.11.12.16.18s.11.13.16.2a1.568,1.568,0,0,1,.16.2q.285.36.54.72a.616.616,0,0,1,.07.1c.17.24.33.49.49.74a1.511,1.511,0,0,1,.08.13c.02.03.04.07.06.1l.03.06c.17.28.33.56.48.85.18.34.35.68.5,1.03q.165.36.3.72c.13.33.25.66.36,1a.3.3,0,0,1,.04.1c.09.31.18.62.26.94a13.624,13.624,0,0,1,.3,1.44c.04.23.07.46.1.69q.06.48.09.96c.03.39.04.79.04,1.18ZM120.15,113.249c0,.26-.01.51-.02.76a17.9,17.9,0,0,1-.68,4.16c-.07.23-.14.46-.22.69a17.433,17.433,0,0,1-25.062,9.561c-.22-.12-.44-.25-.65-.38a18.774,18.774,0,0,1-2.16-1.59,17.281,17.281,0,0,1-5.02-7.321,16.744,16.744,0,0,1-1.01-5.22c-.02-.22-.02-.44-.02-.66Z" style="fill: #fff"/>
      <rect x="193.923" y="80.291" width="7.82" height="69.453" style="fill: #c9b7a3"/>
      <rect x="98.761" y="150.318" width="7.82" height="69.453" style="fill: #c9b7a3"/>
      <path d="M102.729,41.973c-30.632,0-55.544,27.782-55.544,61.915,0,16.8,5.91,32.463,16.651,44.184h77.786c10.751-11.751,16.651-27.4,16.651-44.184C158.274,69.756,133.361,41.973,102.729,41.973ZM86.338,119.13a16.744,16.744,0,0,1-1.01-5.22c-.02-.22-.02-.44-.02-.66h34.843c0,.26-.01.51-.02.76a17.9,17.9,0,0,1-.68,4.16c-.07.23-.14.46-.22.69a17.433,17.433,0,0,1-25.062,9.561c-.22-.12-.44-.25-.65-.38a18.774,18.774,0,0,1-2.16-1.59A17.281,17.281,0,0,1,86.338,119.13Z" style="fill: #b66c6a"/>
      <path d="M236.19,151.952H158.384c-10.731,11.751-16.631,27.4-16.631,44.194,0,34.143,24.912,61.9,55.544,61.9,30.612,0,55.544-27.762,55.544-61.9C252.841,179.344,246.931,163.673,236.19,151.952Zm-56.315,71.216a17.778,17.778,0,0,1,.7-4.92,17.409,17.409,0,0,1,32.153-3.14,16.67,16.67,0,0,1,1.86,5.92,16.852,16.852,0,0,1,.13,2.14Z" style="fill: #88888a"/>
      <g>
        <g>
          <path d="M89.125,151.664l-.541,13.574a16.1,16.1,0,0,0-5.894-4.9l-10.459-5.061a12.717,12.717,0,0,1-2.413-1.521c-.819-.673-1.624-1.375-2.4-2.092Z" style="fill: #d9cbb7"/>
          <path d="M138.025,151.664c-.775.717-1.58,1.419-2.413,2.092a11.687,11.687,0,0,1-2.384,1.506l-10.488,5.09a15.846,15.846,0,0,0-5.88,4.9l-.541-13.589Z" style="fill: #d9cbb7"/>
          <path d="M59.051,148.066H58.9l1.74,1.858C60.1,149.312,59.563,148.695,59.051,148.066Zm87.341,0q-.768.943-1.58,1.843l1.726-1.843Z" style="fill: #464c4e"/>
        </g>
        <g>
          <path d="M102.729,41.973c-30.632,0-55.544,27.782-55.544,61.915,0,16.8,5.91,32.463,16.651,44.184h77.786c10.751-11.751,16.651-27.4,16.651-44.184C158.274,69.756,133.361,41.973,102.729,41.973ZM58.156,119.44a2.77,2.77,0,1,1,2.78-2.76,2.77,2.77,0,0,1-2.78,2.76Zm0-8.961a2.774,2.774,0,1,1,.006,0Zm0-8.971a2.77,2.77,0,1,1,2.78-2.76A2.77,2.77,0,0,1,58.156,101.508Zm0-8.971a2.77,2.77,0,1,1,2.78-2.76A2.77,2.77,0,0,1,58.156,92.537ZM147.823,87a2.774,2.774,0,1,1-.012,0Zm-17.931-26.9a2.775,2.775,0,1,1-2.78,2.78,2.775,2.775,0,0,1,2.78-2.78Zm0,8.971a2.774,2.774,0,1,1-.012,0h.012Zm0,8.961a2.775,2.775,0,1,1-2.78,2.78,2.775,2.775,0,0,1,2.78-2.78Zm-8.961-17.931a2.775,2.775,0,1,1-2.78,2.78,2.775,2.775,0,0,1,2.78-2.78h0Zm0,8.971a2.772,2.772,0,1,1-.016,0h.016Zm0,8.961a2.775,2.775,0,1,1-2.78,2.78,2.775,2.775,0,0,1,2.78-2.78h0ZM111.96,51.134a2.77,2.77,0,1,1-2.78,2.78,2.77,2.77,0,0,1,2.78-2.78Zm0,8.961a2.775,2.775,0,1,1-2.78,2.78,2.775,2.775,0,0,1,2.78-2.78Zm0,8.971a2.77,2.77,0,1,1-2.78,2.78,2.77,2.77,0,0,1,2.78-2.78Zm0,8.961a2.775,2.775,0,1,1-2.78,2.78,2.775,2.775,0,0,1,2.78-2.78Zm0,8.971a2.77,2.77,0,1,1-2.78,2.78A2.77,2.77,0,0,1,111.96,87Zm0,8.971a2.77,2.77,0,1,1-2.78,2.78,2.77,2.77,0,0,1,2.78-2.78Zm0,8.961a2.775,2.775,0,1,1-2.78,2.78,2.775,2.775,0,0,1,2.78-2.78Zm-8.971-53.794a2.775,2.775,0,1,1-.012,0Zm0,8.961a2.775,2.775,0,1,1-2.78,2.78A2.775,2.775,0,0,1,102.989,60.095Zm0,8.971a2.774,2.774,0,1,1-.012,0Zm0,8.961a2.775,2.775,0,1,1-2.78,2.78A2.775,2.775,0,0,1,102.989,78.026Zm0,8.971a2.774,2.774,0,1,1-.012,0Zm0,8.971a2.774,2.774,0,1,1-.012,0Zm0,8.961a2.775,2.775,0,1,1-2.78,2.78A2.775,2.775,0,0,1,102.989,104.928ZM94.029,51.134a2.77,2.77,0,1,1-2.78,2.78A2.77,2.77,0,0,1,94.029,51.134Zm0,8.961a2.775,2.775,0,1,1-2.78,2.78A2.775,2.775,0,0,1,94.029,60.095Zm0,8.971a2.77,2.77,0,1,1-2.78,2.78A2.77,2.77,0,0,1,94.029,69.066Zm0,8.961a2.775,2.775,0,1,1-2.78,2.78A2.775,2.775,0,0,1,94.029,78.026Zm0,8.971a2.77,2.77,0,1,1-2.78,2.78A2.77,2.77,0,0,1,94.029,87Zm0,8.971a2.77,2.77,0,1,1-2.78,2.78A2.77,2.77,0,0,1,94.029,95.968Zm36-8.971a2.774,2.774,0,1,1-.012,0h.012Zm0,8.971a2.774,2.774,0,1,1-.012,0h.012ZM121.065,87a2.77,2.77,0,1,1-2.78,2.78,2.77,2.77,0,0,1,2.78-2.78Zm0,8.971a2.77,2.77,0,1,1-2.78,2.78,2.77,2.77,0,0,1,2.78-2.78ZM85.053,87a2.774,2.774,0,1,1-.012,0Zm0,8.971a2.774,2.774,0,1,1-.012,0ZM76.092,87a2.77,2.77,0,1,1-2.78,2.78A2.77,2.77,0,0,1,76.092,87Zm0,8.971a2.77,2.77,0,1,1-2.78,2.78A2.77,2.77,0,0,1,76.092,95.968Zm17.936,8.961a2.775,2.775,0,1,1-2.78,2.78A2.775,2.775,0,0,1,94.029,104.928Zm-8.971,0a2.775,2.775,0,1,1-2.78,2.78A2.775,2.775,0,0,1,85.058,104.928Zm0-44.834a2.775,2.775,0,1,1-2.78,2.78A2.775,2.775,0,0,1,85.058,60.095Zm0,8.971a2.774,2.774,0,1,1-.012,0Zm0,8.961a2.775,2.775,0,1,1-2.78,2.78A2.775,2.775,0,0,1,85.058,78.026ZM76.1,60.095a2.775,2.775,0,1,1-2.78,2.78,2.775,2.775,0,0,1,2.78-2.78Zm0,8.971a2.772,2.772,0,1,1-.016,0Zm0,8.961a2.775,2.775,0,1,1-2.78,2.78,2.775,2.775,0,0,1,2.78-2.78Zm-8.971,59.365a2.78,2.78,0,1,1,2.78-2.78h0a2.774,2.774,0,0,1-2.768,2.78Zm0-8.971a2.78,2.78,0,1,1,2.78-2.78h0a2.774,2.774,0,0,1-2.768,2.78Zm0-8.981a2.765,2.765,0,1,1,.012,0Zm0-8.961a2.768,2.768,0,1,1,.018,0Zm0-8.971a2.77,2.77,0,1,1,2.78-2.76,2.77,2.77,0,0,1-2.78,2.76Zm0-8.971a2.77,2.77,0,1,1,2.78-2.76,2.77,2.77,0,0,1-2.78,2.76Zm0-8.961a2.775,2.775,0,1,1,2.78-2.77A2.775,2.775,0,0,1,67.125,83.577Zm0-8.971a2.77,2.77,0,1,1,2.78-2.76,2.77,2.77,0,0,1-2.78,2.76ZM76.1,137.391a2.78,2.78,0,1,1,2.77-2.79v.01a2.774,2.774,0,0,1-2.768,2.78Zm0-8.971a2.78,2.78,0,1,1,2.77-2.79v.01a2.774,2.774,0,0,1-2.768,2.78Zm0-8.981a2.77,2.77,0,1,1,2.77-2.77v.01a2.763,2.763,0,0,1-2.766,2.76Zm0-8.961a2.775,2.775,0,1,1,2.77-2.78v.01a2.766,2.766,0,0,1-2.762,2.77Zm8.961,26.912a2.78,2.78,0,1,1,2.78-2.78h0a2.78,2.78,0,0,1-2.779,2.78Zm0-8.971a2.78,2.78,0,1,1,2.78-2.78h0a2.78,2.78,0,0,1-2.779,2.78Zm8.971,8.971a2.78,2.78,0,1,1,2.78-2.78h0a2.774,2.774,0,0,1-2.768,2.78h-.012Zm8.961,0a2.78,2.78,0,1,1,2.78-2.78h0a2.78,2.78,0,0,1-2.779,2.78Zm8.971,0a2.78,2.78,0,1,1,2.78-2.78h0a2.774,2.774,0,0,1-2.768,2.78h-.012Zm8.971,0a2.78,2.78,0,1,1,2.77-2.79v.01a2.774,2.774,0,0,1-2.768,2.78h0Zm0-8.971a2.78,2.78,0,1,1,2.77-2.79v.01a2.774,2.774,0,0,1-2.768,2.78h0Zm0-8.981a2.792,2.792,0,0,1-1.7-.58,17.459,17.459,0,0,1-4.5,7.021,2.785,2.785,0,0,1-2.77,2.54,2.6,2.6,0,0,1-.56-.06,17.33,17.33,0,0,1-8.671,2.31,17.129,17.129,0,0,1-8.561-2.25h-.14a2.791,2.791,0,0,1-2.67-1.97,17.281,17.281,0,0,1-5.02-7.321,2.774,2.774,0,1,1-1.28-5.23,2.45,2.45,0,0,1,.27.01c-.02-.22-.02-.44-.02-.66H120.15c0,.26-.01.51-.02.76a2.973,2.973,0,0,1,.8-.11,2.77,2.77,0,1,1,0,5.54h0Zm0-8.961a2.775,2.775,0,1,1,2.77-2.78v.01a2.766,2.766,0,0,1-2.762,2.77h-.008Zm8.961,26.912a2.78,2.78,0,1,1,2.78-2.78h0A2.78,2.78,0,0,1,129.89,137.391Zm0-8.971a2.78,2.78,0,1,1,2.78-2.78h0A2.78,2.78,0,0,1,129.89,128.42Zm0-8.981a2.77,2.77,0,1,1,2.78-2.76,2.77,2.77,0,0,1-2.78,2.76Zm0-8.961a2.777,2.777,0,1,1,.006,0Zm8.971,26.912a2.78,2.78,0,1,1,2.78-2.78h0a2.774,2.774,0,0,1-2.768,2.78Zm0-8.971a2.78,2.78,0,1,1,2.78-2.78h0a2.774,2.774,0,0,1-2.768,2.78Zm0-8.981a2.764,2.764,0,1,1,.014,0Zm0-8.961a2.768,2.768,0,1,1,.018,0Zm0-8.971a2.77,2.77,0,1,1,2.78-2.76,2.77,2.77,0,0,1-2.78,2.76Zm0-8.971a2.77,2.77,0,1,1,2.78-2.76,2.77,2.77,0,0,1-2.78,2.76Zm0-8.961a2.775,2.775,0,1,1,2.78-2.77A2.775,2.775,0,0,1,138.861,83.577Zm0-8.971a2.77,2.77,0,1,1,2.78-2.76,2.77,2.77,0,0,1-2.78,2.76Zm8.961,44.834a2.77,2.77,0,1,1,2.78-2.76,2.77,2.77,0,0,1-2.78,2.76Zm0-8.961a2.777,2.777,0,1,1,.006,0h-.006Zm0-8.971a2.77,2.77,0,1,1,2.78-2.76,2.77,2.77,0,0,1-2.78,2.76Z" style="fill: #c77673"/>
          <path d="M143.711,151.094c-.176.19-.366.38-.541.57h.029l.527-.57c.234-.249.483-.512.717-.775Z" style="fill: #464c4e"/>
        </g>
        <path d="M96.308,192.24v10.547a6.427,6.427,0,0,0,3.715,5.821v9.523a24.624,24.624,0,0,1-9.8-3.13l1.507-38.3.073-1.8.073-1.8.848-21.444h7.3v34.77A6.39,6.39,0,0,0,96.308,192.24Z" style="fill: #d9cbb7"/>
        <path d="M109.15,202.787V192.24a6.389,6.389,0,0,0-3.715-5.807v-.018l-.015-9.713V151.66h7.3l.848,21.444.073,1.8.073,1.8,1.507,38.3a25.03,25.03,0,0,1-9.786,3.13v-9.523A6.426,6.426,0,0,0,109.15,202.787Z" style="fill: #d9cbb7"/>
        <path d="M102.729,38.373c-32.6,0-59.135,29.392-59.135,65.515a68.87,68.87,0,0,0,15.451,44.174l.01.01c.51.62,1.05,1.24,1.59,1.85.35.4.72.79,1.08,1.19l.54.55a59.226,59.226,0,0,0,5.27,4.87,15.716,15.716,0,0,0,3.11,1.98l10.481,5.07A12.6,12.6,0,0,1,88.208,174.9v.02l-1.63,41a1.835,1.835,0,0,0,.85,1.59,28.936,28.936,0,0,0,30.582,0,1.762,1.762,0,0,0,.84-1.59l-1.61-40.853v-.17a12.679,12.679,0,0,1,7.081-11.321l10.491-5.07a16.3,16.3,0,0,0,3.1-1.98,59.088,59.088,0,0,0,5.26-4.87c.18-.19.37-.38.54-.57l.37-.38.36-.39c.12-.13.25-.27.37-.41.54-.6,1.07-1.22,1.58-1.84l.01-.01a68.882,68.882,0,0,0,15.461-44.174C161.863,67.765,135.332,38.373,102.729,38.373ZM88.588,165.243a16.118,16.118,0,0,0-5.9-4.9l-10.461-5.06c-.24-.12-.47-.25-.69-.37s-.43-.25-.63-.38a5.663,5.663,0,0,1-.57-.38,6.414,6.414,0,0,1-.52-.39q-1.23-1.02-2.4-2.1H89.127Zm26.632,49.764c-.38.21-.76.42-1.15.61s-.78.38-1.18.55c-.34.15-.68.29-1.03.42a2.193,2.193,0,0,1-.33.12c-.04.02-.09.03-.13.05-.31.12-.62.22-.94.32a.142.142,0,0,1-.06.02c-.33.11-.66.21-.99.29l-.12.03c-.05.01-.1.03-.15.04-.25.07-.49.13-.75.18-.01,0-.03.01-.04.01-.13.03-.26.07-.4.09s-.27.06-.4.08c-.32.07-.64.12-.97.17q-.57.09-1.14.15a22.342,22.342,0,0,1-5.42,0c-.42-.04-.84-.1-1.26-.16s-.85-.14-1.28-.23a24.647,24.647,0,0,1-3.72-1.08c-.4-.15-.8-.31-1.2-.49s-.79-.35-1.18-.56c-.39-.18-.78-.39-1.16-.61V215l1.51-38.293.07-1.8.08-1.79.85-21.452H112.72l.85,21.452.07,1.79.07,1.8L115.22,215Zm20.392-61.245c-.17.14-.34.27-.52.4a12.174,12.174,0,0,1-1.86,1.1l-10.491,5.09a15.846,15.846,0,0,0-5.88,4.9l-.54-13.591h21.7c-.77.72-1.58,1.42-2.411,2.1Zm6.01-5.69H63.836C53.1,136.351,47.185,120.69,47.185,103.888c0-34.133,24.912-61.915,55.544-61.915s55.544,27.782,55.544,61.915c0,16.781-5.9,32.433-16.652,44.184Z" style="fill: #464c4e"/>
        <path d="M120.151,113.249c0,.26-.01.51-.02.76a17.9,17.9,0,0,1-.68,4.16c-.07.23-.14.46-.22.69a17.433,17.433,0,0,1-25.062,9.561c-.22-.12-.44-.25-.65-.38a18.774,18.774,0,0,1-2.16-1.59,17.281,17.281,0,0,1-5.02-7.321,16.744,16.744,0,0,1-1.01-5.22c-.02-.22-.02-.44-.02-.66Z" style="fill: #464c4e"/>
        <path d="M105.434,186.434v-.019a6.428,6.428,0,0,0-2.706-.6,6.226,6.226,0,0,0-2.706.614,6.389,6.389,0,0,0-3.715,5.807v10.547a6.422,6.422,0,1,0,12.843,0V192.24A6.39,6.39,0,0,0,105.434,186.434Zm.117,16.353a2.768,2.768,0,0,1-.117.775,2.812,2.812,0,0,1-5.412,0,2.767,2.767,0,0,1-.117-.775V192.24a2.823,2.823,0,0,1,5.646,0Z" style="fill: #464c4e"/>
        <ellipse cx="125.544" cy="94.388" rx="7.301" ry="8.592" style="fill: #464c4e"/>
        <ellipse cx="80.711" cy="94.388" rx="7.301" ry="8.592" style="fill: #464c4e"/>
      </g>
      <g>
        <g>
          <path d="M183.707,148.358H162c.775-.717,1.58-1.419,2.413-2.092a11.92,11.92,0,0,1,2.384-1.507l10.473-5.075a16.107,16.107,0,0,0,5.894-4.929Z" style="fill: #d9cbb7"/>
          <path d="M232.607,148.358H210.9l.541-13.56a16.2,16.2,0,0,0,5.894,4.885l10.444,5.061a11.993,11.993,0,0,1,2.428,1.536C231.026,146.94,231.831,147.642,232.607,148.358Z" style="fill: #d9cbb7"/>
          <path d="M153.471,151.957h.161q.768-.943,1.58-1.843Zm84.825-3.028c-.1-.1-.2-.219-.307-.322l.292.322c.922.98,1.814,1.989,2.662,3.028h.176Z" style="fill: #464c4e"/>
          <path d="M240.94,151.952c-.84-1.03-1.74-2.04-2.66-3.02l-.29-.32-.23-.25h-.02a60.436,60.436,0,0,0-5.25-4.86,15.561,15.561,0,0,0-3.12-1.99l-10.471-5.07a12.6,12.6,0,0,1-7.081-11.321v-.15l1.61-40.873a1.786,1.786,0,0,0-.83-1.59,28.9,28.9,0,0,0-30.592,0,1.816,1.816,0,0,0-.84,1.59l1.62,41.023a12.679,12.679,0,0,1-7.081,11.321l-10.492,5.07a15.292,15.292,0,0,0-3.1,1.98,60.594,60.594,0,0,0-5.26,4.87c-.18.19-.37.38-.54.57l-.59.61c-.16.19-.34.38-.51.57-.54.6-1.07,1.22-1.58,1.84a68.886,68.886,0,0,0-15.491,44.194c0,36.113,26.532,65.505,59.155,65.505,32.6,0,59.135-29.392,59.135-65.505A68.786,68.786,0,0,0,240.94,151.952Zm-29.5-17.151a16.264,16.264,0,0,0,5.9,4.88l10.441,5.06a12.13,12.13,0,0,1,2.43,1.54c.82.66,1.62,1.36,2.4,2.08H210.9ZM194.587,79.906h5.4v.13a26.925,26.925,0,0,0-2.69-.13c-.91,0-1.81.04-2.71.13Zm-.66,2.07q.33-.06.66-.09a24.376,24.376,0,0,1,5.4,0c.59.06,1.18.14,1.76.25a24.319,24.319,0,0,1,8.041,2.88l-2.49,63.345H187.306l-2.5-63.345A24.653,24.653,0,0,1,193.927,81.977Zm-29.513,64.285a12.17,12.17,0,0,1,2.38-1.5l10.481-5.08a15.955,15.955,0,0,0,5.89-4.93l.54,13.611H162C162.774,147.642,163.584,146.942,164.413,146.262ZM197.3,258.051c-30.632,0-55.544-27.762-55.544-61.9,0-16.791,5.9-32.443,16.631-44.194h77.806c10.741,11.721,16.651,27.392,16.651,44.194,0,34.143-24.931,61.9-55.543,61.9Z" style="fill: #464c4e"/>
        </g>
        <g>
          <path d="M209.788,85.021,207.3,148.358H200V123.316l-.015-9.7a6.429,6.429,0,0,0,3.73-5.836V97.235a6.424,6.424,0,0,0-3.73-5.821V81.891A24.62,24.62,0,0,1,209.788,85.021Z" style="fill: #d9cbb7"/>
          <path d="M194.6,123.316v25.042h-7.3l-2.5-63.337a24.789,24.789,0,0,1,9.786-3.13v9.523a6.424,6.424,0,0,0-3.73,5.821v10.547a6.467,6.467,0,0,0,3.73,5.851Z" style="fill: #d9cbb7"/>
          <path d="M197.3,79.906c.892,0,1.8.044,2.691.132v-.132Zm-2.706,0v.132c.892-.088,1.8-.132,2.706-.132Z" style="fill: #464c4e"/>
        </g>
        <g>
          <path d="M236.19,151.952H158.384c-10.731,11.751-16.631,27.4-16.631,44.194,0,34.143,24.912,61.9,55.544,61.9,30.612,0,55.544-27.762,55.544-61.9C252.841,179.344,246.931,163.673,236.19,151.952ZM206,162.653a2.77,2.77,0,1,1-2.78,2.76,2.77,2.77,0,0,1,2.78-2.76Zm0,8.961a2.775,2.775,0,1,1-2.78,2.77A2.775,2.775,0,0,1,206,171.614Zm0,8.971a2.77,2.77,0,1,1-2.78,2.76,2.77,2.77,0,0,1,2.78-2.76Zm0,8.961a2.775,2.775,0,1,1-2.78,2.77,2.775,2.775,0,0,1,2.78-2.77Zm0,8.971a2.77,2.77,0,1,1-2.78,2.76,2.77,2.77,0,0,1,2.78-2.76h0Zm-8.961-35.863a2.77,2.77,0,1,1-2.78,2.76,2.77,2.77,0,0,1,2.78-2.76h0Zm0,8.961a2.775,2.775,0,1,1-2.78,2.77,2.775,2.775,0,0,1,2.78-2.77Zm0,8.971a2.77,2.77,0,1,1-2.78,2.76,2.77,2.77,0,0,1,2.78-2.76h0Zm0,8.961a2.775,2.775,0,1,1-2.78,2.77,2.775,2.775,0,0,1,2.78-2.77Zm0,8.971a2.77,2.77,0,1,1-2.78,2.76,2.77,2.77,0,0,1,2.78-2.76h0Zm-8.971-35.863a2.77,2.77,0,1,1-2.78,2.76,2.77,2.77,0,0,1,2.78-2.76h0Zm0,8.961a2.775,2.775,0,1,1-2.78,2.77,2.775,2.775,0,0,1,2.78-2.77Zm0,8.971a2.77,2.77,0,1,1-2.78,2.76,2.77,2.77,0,0,1,2.78-2.76h0Zm0,8.961a2.775,2.775,0,1,1-2.78,2.77,2.775,2.775,0,0,1,2.78-2.77Zm0,8.971a2.77,2.77,0,1,1-2.78,2.76,2.77,2.77,0,0,1,2.78-2.76h0Zm0,8.971a2.716,2.716,0,0,1,1.14.25,17.344,17.344,0,0,1,15.921-.11,2.776,2.776,0,0,1,3.64,2.45,17.3,17.3,0,0,1,3.96,5.03,16.67,16.67,0,0,1,1.86,5.92,16.852,16.852,0,0,1,.13,2.14H179.874a17.778,17.778,0,0,1,.7-4.92,17.25,17.25,0,0,1,4.72-7.7v-.01a2.843,2.843,0,0,1-.01-.29,2.77,2.77,0,0,1,2.78-2.76h0ZM179.1,162.653a2.77,2.77,0,1,1-2.77,2.77v-.01a2.761,2.761,0,0,1,2.762-2.76h.008Zm0,8.961a2.775,2.775,0,1,1-2.77,2.78v-.01a2.77,2.77,0,0,1,2.77-2.77h0Zm0,26.9a2.77,2.77,0,1,1-2.77,2.77v-.01a2.761,2.761,0,0,1,2.762-2.76h.008Zm0,8.971a2.77,2.77,0,1,1-2.77,2.77v-.01a2.761,2.761,0,0,1,2.762-2.76h.008Zm-26.892,5.54a2.77,2.77,0,1,1,2.76-2.78,2.77,2.77,0,0,1-2.76,2.78Zm0-8.971a2.77,2.77,0,1,1,2.76-2.78,2.77,2.77,0,0,1-2.76,2.78Zm0-8.961a2.775,2.775,0,1,1,2.76-2.79v.01a2.78,2.78,0,0,1-2.76,2.78Zm0-8.971a2.77,2.77,0,1,1,2.76-2.78,2.77,2.77,0,0,1-2.76,2.78Zm8.961,44.834a2.77,2.77,0,1,1,2.77-2.77v.01a2.776,2.776,0,0,1-2.77,2.76Zm0-8.961a2.775,2.775,0,1,1,2.77-2.78v.01a2.785,2.785,0,0,1-2.77,2.77Zm0-8.971a2.77,2.77,0,1,1,2.77-2.78,2.77,2.77,0,0,1-2.77,2.78Zm0-8.971a2.77,2.77,0,1,1,2.77-2.78,2.77,2.77,0,0,1-2.77,2.78Zm0-8.961a2.775,2.775,0,1,1,2.77-2.78,2.775,2.775,0,0,1-2.77,2.78Zm0-8.971a2.77,2.77,0,1,1,2.77-2.78,2.77,2.77,0,0,1-2.77,2.78Zm0-8.961a2.775,2.775,0,1,1,2.77-2.78,2.775,2.775,0,0,1-2.77,2.78Zm0-8.971a2.77,2.77,0,1,1,2.77-2.78,2.77,2.77,0,0,1-2.77,2.78Zm8.971,71.736a2.775,2.775,0,1,1,2.76-2.79q0,.01,0,.02a2.778,2.778,0,0,1-2.761,2.77Zm0-8.971a2.77,2.77,0,1,1,2.76-2.78q0,.01,0,.02a2.77,2.77,0,0,1-2.761,2.76Zm0-8.961a2.775,2.775,0,1,1,2.76-2.79q0,.01,0,.02a2.778,2.778,0,0,1-2.761,2.77Zm0-8.971a2.77,2.77,0,1,1,2.76-2.78,2.77,2.77,0,0,1-2.76,2.78Zm0-8.971a2.77,2.77,0,1,1,2.76-2.78,2.77,2.77,0,0,1-2.76,2.78Zm0-26.892a2.775,2.775,0,1,1,2.76-2.79v.01a2.781,2.781,0,0,1-2.761,2.78Zm0-8.971a2.77,2.77,0,1,1,2.76-2.78,2.77,2.77,0,0,1-2.76,2.78Zm8.961,71.736a2.775,2.775,0,1,1,2.77-2.78v.01a2.776,2.776,0,0,1-2.77,2.77Zm0-8.971a2.77,2.77,0,1,1,2.77-2.77v.01a2.768,2.768,0,0,1-2.77,2.76Zm8.971,17.931a2.77,2.77,0,1,1,2.78-2.76,2.77,2.77,0,0,1-2.78,2.76h0Zm0-8.961a2.775,2.775,0,1,1,2.78-2.77,2.775,2.775,0,0,1-2.78,2.77Zm0-8.971a2.77,2.77,0,1,1,2.78-2.76,2.77,2.77,0,0,1-2.78,2.76h0Zm8.971,17.931a2.77,2.77,0,1,1,2.77-2.77v.01a2.77,2.77,0,0,1-2.77,2.76Zm0-8.961a2.775,2.775,0,1,1,2.77-2.78v.01a2.778,2.778,0,0,1-2.77,2.77Zm0-8.971a2.77,2.77,0,1,1,2.77-2.77v.01a2.77,2.77,0,0,1-2.77,2.76ZM206,248.89a2.77,2.77,0,1,1,2.78-2.76,2.77,2.77,0,0,1-2.78,2.76Zm0-8.961a2.775,2.775,0,1,1,2.78-2.77,2.775,2.775,0,0,1-2.78,2.77Zm0-8.971a2.77,2.77,0,1,1,2.78-2.76,2.77,2.77,0,0,1-2.78,2.76Zm8.971,8.971a2.775,2.775,0,1,1,2.78-2.77,2.775,2.775,0,0,1-2.78,2.77Zm0-8.971a2.77,2.77,0,1,1,2.78-2.76,2.77,2.77,0,0,1-2.78,2.76h0ZM179.1,221.993a2.77,2.77,0,1,1,2.77-2.77v.01a2.768,2.768,0,0,1-2.77,2.76Zm8.971,0a2.77,2.77,0,1,1,2.78-2.76,2.77,2.77,0,0,1-2.78,2.76h0Zm8.971,0a2.77,2.77,0,1,1,2.77-2.77v.01a2.77,2.77,0,0,1-2.77,2.76Zm8.961,0a2.77,2.77,0,1,1,2.78-2.76,2.77,2.77,0,0,1-2.78,2.76Zm8.971,0a2.77,2.77,0,1,1,2.78-2.76,2.77,2.77,0,0,1-2.78,2.76h0Zm0-8.966a2.774,2.774,0,1,1,.012,0h-.012Zm0-8.971a2.774,2.774,0,1,1,.012,0h-.012Zm0-26.892a2.775,2.775,0,1,1,2.78-2.78,2.775,2.775,0,0,1-2.78,2.78h0Zm0-8.971a2.774,2.774,0,1,1,.012,0h-.012Zm8.961,71.736a2.775,2.775,0,1,1,2.78-2.77,2.775,2.775,0,0,1-2.78,2.77Zm0-8.971a2.77,2.77,0,1,1,2.78-2.76,2.77,2.77,0,0,1-2.78,2.76Zm0-8.961a2.775,2.775,0,1,1,2.78-2.77,2.775,2.775,0,0,1-2.78,2.77Zm0-8.971a2.77,2.77,0,1,1,2.78-2.78,2.77,2.77,0,0,1-2.78,2.78h0Zm0-8.971a2.77,2.77,0,1,1,2.78-2.78,2.77,2.77,0,0,1-2.78,2.78h0Zm0-26.892a2.775,2.775,0,1,1,2.78-2.78,2.775,2.775,0,0,1-2.78,2.78Zm0-8.971a2.77,2.77,0,1,1,2.78-2.78,2.77,2.77,0,0,1-2.78,2.78h0Zm8.971,62.765a2.77,2.77,0,1,1,2.78-2.76,2.77,2.77,0,0,1-2.78,2.76h0Zm0-8.961a2.775,2.775,0,1,1,2.78-2.77A2.775,2.775,0,0,1,232.9,222Zm0-8.971a2.771,2.771,0,1,1,.012,0H232.9Zm0-8.971a2.771,2.771,0,1,1,.012,0H232.9Zm0-8.961a2.775,2.775,0,1,1,2.78-2.78,2.775,2.775,0,0,1-2.78,2.78h0Zm0-8.971a2.767,2.767,0,1,1,.012,0H232.9Zm0-8.961a2.775,2.775,0,1,1,2.78-2.78,2.775,2.775,0,0,1-2.78,2.78h0Zm0-8.971a2.767,2.767,0,1,1,.012,0H232.9Zm8.971,12.391a2.77,2.77,0,1,1-2.78,2.76,2.77,2.77,0,0,1,2.78-2.76h0Zm0,32.443a2.77,2.77,0,1,1,2.77-2.78,2.77,2.77,0,0,1-2.77,2.78h0Zm0-8.971a2.77,2.77,0,1,1,2.77-2.78,2.77,2.77,0,0,1-2.77,2.78h0Zm0-8.961a2.775,2.775,0,1,1,2.77-2.78,2.775,2.775,0,0,1-2.77,2.78Z" style="fill: #999a9b"/>
          <path d="M156.824,148.362l-.53.57c-.19.2-.38.41-.57.61l.59-.61c.17-.19.36-.38.54-.57Z" style="fill: #464c4e"/>
        </g>
        <path d="M197.3,79.906c-.907,0-1.814.044-2.706.132v-.132Z" style="fill: #464c4e;opacity: 0.30000001192092896;isolation: isolate"/>
        <path d="M199.987,79.906v.132c-.892-.088-1.8-.132-2.691-.132Z" style="fill: #464c4e;opacity: 0.30000001192092896;isolation: isolate"/>
        <path d="M199.987,91.413a6.15,6.15,0,0,0-2.691-.6,6.213,6.213,0,0,0-2.706.6,6.424,6.424,0,0,0-3.73,5.821v10.547a6.4,6.4,0,0,0,6.364,6.437h.071a6.15,6.15,0,0,0,2.691-.6,6.429,6.429,0,0,0,3.73-5.836V97.235A6.424,6.424,0,0,0,199.987,91.413Zm.132,16.368a2.528,2.528,0,0,1-.132.819c.015.015,0,.015,0,.029a2.825,2.825,0,0,1-5.4,0,2.708,2.708,0,0,1-.132-.848V97.235a2.617,2.617,0,0,1,.132-.834,2.825,2.825,0,0,1,5.4,0,2.617,2.617,0,0,1,.132.834Z" style="fill: #464c4e"/>
      </g>
      <path d="M214.717,223.168H179.874a17.778,17.778,0,0,1,.7-4.92,17.409,17.409,0,0,1,32.153-3.14,16.67,16.67,0,0,1,1.86,5.92A16.852,16.852,0,0,1,214.717,223.168Z" style="fill: #464c4e"/>
      <g>
        <circle cx="197.3" cy="54.569" r="11.743" style="fill: #fff"/>
        <path d="M197.3,68.112A13.542,13.542,0,1,1,210.841,54.57,13.542,13.542,0,0,1,197.3,68.112Zm0-23.486a9.943,9.943,0,1,0,9.943,9.943A9.943,9.943,0,0,0,197.3,44.627Z" style="fill: #464c4e"/>
      </g>
      <g>
        <circle cx="102.99" cy="245.455" r="11.743" style="fill: #fff"/>
        <path d="M102.99,259a13.542,13.542,0,1,1,13.542-13.542A13.542,13.542,0,0,1,102.99,259Zm0-23.486a9.943,9.943,0,1,0,9.943,9.943,9.943,9.943,0,0,0-9.943-9.943Z" style="fill: #464c4e"/>
      </g>
      <path d="M179.094,180.584a2.77,2.77,0,1,1-2.78,2.76,2.77,2.77,0,0,1,2.78-2.76Z" style="fill: #88888a"/>
      <path d="M170.124,180.584a2.77,2.77,0,1,1-2.78,2.76,2.77,2.77,0,0,1,2.78-2.76Z" style="fill: #88888a"/>
      <path d="M179.094,189.55a2.77,2.77,0,1,1-2.78,2.76,2.77,2.77,0,0,1,2.78-2.76Z" style="fill: #88888a"/>
      <path d="M170.124,189.55a2.77,2.77,0,1,1-2.78,2.76,2.77,2.77,0,0,1,2.78-2.76Z" style="fill: #88888a"/>
      <path d="M223.933,180.584a2.77,2.77,0,1,1-2.78,2.76,2.77,2.77,0,0,1,2.78-2.76Z" style="fill: #88888a"/>
      <path d="M214.962,180.584a2.77,2.77,0,1,1-2.78,2.76,2.77,2.77,0,0,1,2.78-2.76Z" style="fill: #88888a"/>
      <path d="M223.933,189.55a2.77,2.77,0,1,1-2.78,2.76,2.77,2.77,0,0,1,2.78-2.76Z" style="fill: #88888a"/>
      <path d="M214.962,189.55a2.77,2.77,0,1,1-2.78,2.76,2.77,2.77,0,0,1,2.78-2.76Z" style="fill: #88888a"/>
      <ellipse cx="219.448" cy="187.839" rx="7.301" ry="8.592" style="fill: #464c4e"/>
      <ellipse cx="174.652" cy="187.839" rx="7.301" ry="8.592" style="fill: #464c4e"/>
    </g>
    <g style="clip-path: url(#a)">
      <g>
        <path d="M179.094,180.584a2.77,2.77,0,1,1-2.78,2.76,2.77,2.77,0,0,1,2.78-2.76Z" style="fill: #404647"/>
        <path d="M170.124,180.584a2.77,2.77,0,1,1-2.78,2.76,2.77,2.77,0,0,1,2.78-2.76Z" style="fill: #404647"/>
        <path d="M179.094,189.55a2.77,2.77,0,1,1-2.78,2.76,2.77,2.77,0,0,1,2.78-2.76Z" style="fill: #404647"/>
        <path d="M170.124,189.55a2.77,2.77,0,1,1-2.78,2.76,2.77,2.77,0,0,1,2.78-2.76Z" style="fill: #404647"/>
      </g>
    </g>
    <g style="clip-path: url(#b)">
      <g>
        <path d="M223.89,180.584a2.77,2.77,0,1,1-2.78,2.76,2.77,2.77,0,0,1,2.78-2.76Z" style="fill: #404647"/>
        <path d="M214.917,180.584a2.77,2.77,0,1,1-2.78,2.76,2.77,2.77,0,0,1,2.78-2.76Z" style="fill: #404647"/>
        <path d="M223.89,189.55a2.77,2.77,0,1,1-2.78,2.76,2.77,2.77,0,0,1,2.78-2.76Z" style="fill: #404647"/>
        <path d="M214.917,189.55a2.77,2.77,0,1,1-2.78,2.76,2.77,2.77,0,0,1,2.78-2.76Z" style="fill: #404647"/>
      </g>
    </g>
    <g style="clip-path: url(#c)">
      <g>
        <g>
          <path d="M179.1,221.993a2.77,2.77,0,1,1,2.77-2.77v.01A2.768,2.768,0,0,1,179.1,221.993Z" style="fill: #404647"/>
          <path d="M188.066,221.993a2.77,2.77,0,1,1,2.78-2.76,2.77,2.77,0,0,1-2.78,2.76Z" style="fill: #404647"/>
          <path d="M197.037,221.993a2.77,2.77,0,1,1,2.77-2.77v.01A2.77,2.77,0,0,1,197.037,221.993Z" style="fill: #404647"/>
          <path d="M206,221.993a2.77,2.77,0,1,1,2.78-2.76A2.77,2.77,0,0,1,206,221.993Z" style="fill: #404647"/>
          <path d="M214.968,221.993a2.77,2.77,0,1,1,2.78-2.76,2.77,2.77,0,0,1-2.78,2.76Z" style="fill: #404647"/>
        </g>
        <path d="M206,207.487a2.77,2.77,0,1,1-2.78,2.76,2.77,2.77,0,0,1,2.78-2.76Z" style="fill: #404647"/>
        <path d="M197.037,207.487a2.77,2.77,0,1,1-2.78,2.76,2.77,2.77,0,0,1,2.78-2.76Z" style="fill: #404647"/>
        <path d="M188.066,207.487a2.77,2.77,0,1,1-2.78,2.76,2.77,2.77,0,0,1,2.78-2.76Z" style="fill: #404647"/>
      </g>
    </g>
    <g style="clip-path: url(#d)">
      <g>
        <path d="M111.96,113.894a2.775,2.775,0,1,1-2.78,2.78A2.775,2.775,0,0,1,111.96,113.894Z" style="fill: #404647"/>
        <path d="M102.989,113.894a2.775,2.775,0,1,1-2.78,2.78A2.775,2.775,0,0,1,102.989,113.894Z" style="fill: #404647"/>
        <path d="M85.058,113.894a2.775,2.775,0,1,1-2.78,2.78A2.775,2.775,0,0,1,85.058,113.894Z" style="fill: #404647"/>
        <path d="M120.931,119.445a2.775,2.775,0,1,1,2.77-2.78v.01a2.766,2.766,0,0,1-2.762,2.77Z" style="fill: #404647"/>
        <path d="M94.029,113.894a2.775,2.775,0,1,1-2.78,2.78A2.775,2.775,0,0,1,94.029,113.894Z" style="fill: #404647"/>
        <path d="M111.96,122.865a2.775,2.775,0,1,1-2.78,2.78A2.775,2.775,0,0,1,111.96,122.865Z" style="fill: #404647"/>
        <path d="M102.989,122.865a2.775,2.775,0,1,1-2.78,2.78A2.775,2.775,0,0,1,102.989,122.865Z" style="fill: #404647"/>
        <path d="M94.029,122.865a2.775,2.775,0,1,1-2.78,2.78A2.775,2.775,0,0,1,94.029,122.865Z" style="fill: #404647"/>
        <path d="M85.058,122.865a2.775,2.775,0,1,1-2.78,2.78A2.775,2.775,0,0,1,85.058,122.865Z" style="fill: #404647"/>
        <path d="M120.931,128.41a2.775,2.775,0,1,1,2.77-2.78v.01a2.766,2.766,0,0,1-2.762,2.77Z" style="fill: #404647"/>
      </g>
    </g>
    <g style="clip-path: url(#e)">
      <g>
        <path d="M85.154,87.132a2.77,2.77,0,1,1-2.78,2.76,2.77,2.77,0,0,1,2.78-2.76Z" style="fill: #404647"/>
        <path d="M76.183,87.132a2.77,2.77,0,1,1-2.78,2.76,2.77,2.77,0,0,1,2.78-2.76Z" style="fill: #404647"/>
        <path d="M85.154,96.1a2.77,2.77,0,1,1-2.78,2.76,2.77,2.77,0,0,1,2.78-2.76Z" style="fill: #404647"/>
        <path d="M76.183,96.1a2.77,2.77,0,1,1-2.78,2.76,2.77,2.77,0,0,1,2.78-2.76Z" style="fill: #404647"/>
      </g>
    </g>
    <g style="clip-path: url(#f)">
      <g>
        <path d="M129.986,87.132a2.77,2.77,0,1,1-2.78,2.76,2.77,2.77,0,0,1,2.78-2.76Z" style="fill: #404647"/>
        <path d="M121.016,87.132a2.77,2.77,0,1,1-2.78,2.76,2.77,2.77,0,0,1,2.78-2.76Z" style="fill: #404647"/>
        <path d="M129.986,96.1a2.77,2.77,0,1,1-2.78,2.76,2.77,2.77,0,0,1,2.78-2.76Z" style="fill: #404647"/>
        <path d="M121.016,96.1a2.77,2.77,0,1,1-2.78,2.76,2.77,2.77,0,0,1,2.78-2.76Z" style="fill: #404647"/>
      </g>
    </g>
  </g>
</svg>
