<svg xmlns="http://www.w3.org/2000/svg" xmlns:xlink="http://www.w3.org/1999/xlink" width="1200" height="800" viewBox="0 0 1200 800">
  <defs>
    <style>
      .cls-1 {
        fill: none;
      }

      .cls-2 {
        isolation: isolate;
      }

      .cls-3 {
        opacity: 0.08;
      }

      .cls-4 {
        clip-path: url(#clip-path);
      }

      .cls-5 {
        fill: #fff;
      }

      .cls-6 {
        fill: #fee047;
      }

      .cls-7 {
        fill: #30b993;
      }

      .cls-8 {
        opacity: 0.14;
        mix-blend-mode: multiply;
      }

      .cls-9 {
        clip-path: url(#clip-path-2);
      }

      .cls-10 {
        fill: #f6891f;
        opacity: 0.6;
      }

      .cls-11, .cls-13, .cls-15 {
        fill: #25446e;
      }

      .cls-11, .cls-14 {
        opacity: 0.1;
      }

      .cls-12 {
        fill: #69808d;
      }

      .cls-13 {
        opacity: 0.07;
      }
    </style>
    <clipPath id="clip-path">
      <rect class="cls-1" y="-830" width="1200" height="800"/>
    </clipPath>
    <clipPath id="clip-path-2">
      <rect class="cls-1" width="1200" height="800"/>
    </clipPath>
  </defs>
  <title>background--bb8</title>
  <g class="cls-2">
    <g id="Layer_1" data-name="Layer 1">
      <g class="cls-3">
        <g class="cls-4">
          <g>
            <path class="cls-5" d="M2684.564-132.122V338.605H52.879V-94.532c-2.636,1.694-5.273,3.235-7.983,4.7-2.2,1.31-4.394,2.542-6.665,3.7V354.011h2660.98V-140.133C2694.45-137.283,2689.617-134.587,2684.564-132.122Zm0-390.078v299.645c4.98-4.083,9.813-8.55,14.648-13.172V-556.17Q2691.851-539.07,2684.564-522.2ZM1354.11-1204.6v7.7h14.648v-7.7Z"/>
            <rect class="cls-5" x="38.231" y="76.705" width="14.648" height="15.406"/>
            <path class="cls-5" d="M2684.564-132.122c5.053-2.465,9.886-5.161,14.648-8.011V354.011H38.232V-86.135c2.271-1.156,4.467-2.388,6.665-3.7,2.71-1.464,5.346-3,7.983-4.7V76.7H685.661V25.1c4.981-.077,9.814-.231,14.648-.463V76.7h653.8V92.111H52.879V338.605H2684.564Z"/>
            <path class="cls-6" d="M859.309-45.156c-.073.077-.147.154-.22.154a15.4,15.4,0,0,1-2.124,1.772C814.853-16.193,762.342-1.249,700.309,1.6,587.6,6.781,471.439-21.864,368.782-69.748,266.181-117.607,183.86-199.394,86.495-256.294c-.659-.385-1.244-.693-1.9-1a2.255,2.255,0,0,0-.732-.385c-2.783-1.618-5.493-3.081-8.2-4.544a2.644,2.644,0,0,1-.806-.386v-33.97c1.1.462,2.2,1,3.3,1.541C181.62-244.3,263.5-155.3,367.281-105.311a795.119,795.119,0,0,0,247.557,72.48,560.91,560.91,0,0,0,70.822,3.774c4.906-.077,9.74-.231,14.648-.462,51.853-2.465,101.143-14.25,141.351-40.055A14.292,14.292,0,0,1,861.8-64.413,15.886,15.886,0,0,1,859.309-45.156Z"/>
          </g>
        </g>
      </g>
      <rect class="cls-7" width="1200" height="800"/>
      <g class="cls-8">
        <g class="cls-9">
          <g>
            <path class="cls-5" d="M397.706-1.355C257.7,69.345,164.168,209.908,153.247,366.53,142.481,520.972,210.8,667.578,336.006,758.7a421.128,421.128,0,0,0,51.837,32.672A447.28,447.28,0,0,0,753.187,816.85a420.891,420.891,0,0,0,55.766-25.105A446.908,446.908,0,0,0,979.465,631.858a411.012,411.012,0,0,0,27.46-52.093A447.182,447.182,0,0,0,977.9,160.855a432.921,432.921,0,0,0-35.115-48.186,441.415,441.415,0,0,0-91.376-83.712A445.92,445.92,0,0,0,629.942-48.16,441.261,441.261,0,0,0,401.774-3.3L397.832-1.34Z"/>
            <path class="cls-10" d="M554.812,140.3c-20.96-62.565-59.2-108.765-109.228-132.477A175.716,175.716,0,0,0,380.105-9.465c-4.28-.3-8.717-.456-13-.456a170.036,170.036,0,0,0-21.572,1.374,73.029,73.029,0,0,0,20.96,6.73A459.115,459.115,0,0,0,211.374,146.268c42.375-58.285,99.585-95,155.734-95a121.059,121.059,0,0,1,35.637,5.2c42.681,13.311,76.033,49.871,94.087,103.26,18.965,56.911,18.2,125.138-2.45,191.834-35.339,114.427-122.076,197.5-206.37,197.5a121.178,121.178,0,0,1-35.637-5.356c-85.975-26.618-127.588-143.8-98.98-268.476a461.889,461.889,0,0,0,14.842,289.738A180.523,180.523,0,0,0,288.013,610.25c112.134,0,221.055-98.98,264.8-240.484C577.3,290.678,577.908,209.293,554.812,140.3Z"/>
            <path class="cls-11" d="M832.92-.9a1608.966,1608.966,0,0,1-466.275-.919H366.5L318,30.617a66.372,66.372,0,0,0,54.311,48.646h.149a1535.109,1535.109,0,0,0,443.791.766c2.144-.153,4.437-.459,6.573-.766,26.771-3.978,49.718-23.406,57.217-48.34Z"/>
            <path class="cls-10" d="M598.867,639.008c-119.633,0-220.137,64.4-245.227,150.072a434.622,434.622,0,0,0,55.843,29.983C418.506,752.516,500.045,700.2,598.867,700.2c98.972,0,180.361,52.317,189.384,118.864a434.034,434.034,0,0,0,55.835-29.983C819,703.411,718.493,639.008,598.867,639.008Z"/>
            <path class="cls-10" d="M893.8,397c-36.1-110.909-.762-224.723,79.088-270.922A451.444,451.444,0,0,0,933.125,78.8c-97.912,63.335-141.5,202.546-97.448,337.316,29.983,91.633,95.454,163.379,172.712,195.812a424.555,424.555,0,0,0,24.627-55.835C971.369,530.852,918.432,472.414,893.8,397Z"/>
            <path class="cls-12" d="M599.193,874.911c-11.115,0-22.394-.4-33.525-1.173a473.964,473.964,0,0,1-192.273-55.395,451.937,451.937,0,0,1-55.5-34.98C184.222,686.072,111.223,529.427,122.726,364.409,134.5,195.514,236.176,44.1,388.073-30.74L392-32.675l.17.015c74.709-36.16,156.357-51.832,239.9-46.02A476.625,476.625,0,0,1,868.73,3.732,471.768,471.768,0,0,1,966.3,93.106a463.276,463.276,0,0,1,37.5,51.466,477.773,477.773,0,0,1,31.088,447.6,440.5,440.5,0,0,1-29.415,55.8A477.319,477.319,0,0,1,823.446,818.688a450.748,450.748,0,0,1-59.69,26.876A474.354,474.354,0,0,1,599.193,874.911ZM397.706-1.355C257.7,69.345,164.168,209.908,153.247,366.53,142.481,520.972,210.8,667.578,336.006,758.7a421.128,421.128,0,0,0,51.837,32.672A447.28,447.28,0,0,0,753.187,816.85a420.891,420.891,0,0,0,55.766-25.105A446.908,446.908,0,0,0,979.465,631.858a411.012,411.012,0,0,0,27.46-52.093A447.182,447.182,0,0,0,977.9,160.855a432.921,432.921,0,0,0-35.115-48.186,441.415,441.415,0,0,0-91.376-83.712A445.92,445.92,0,0,0,629.942-48.16,441.261,441.261,0,0,0,401.774-3.3L397.832-1.34Z"/>
            <path class="cls-5" d="M724.917-371.255l-30.9-10.708c-30.9-8.108-54.155-12.851-85.049-13.613l-23.26.456S307.135-377.373,307.135-101.095v29.983A69.831,69.831,0,0,0,366.5-1.816h.149A1608.966,1608.966,0,0,0,832.92-.9c2.293-.153,4.743-.613,7.036-.919,34.271-5.046,62.879-34.569,62.879-69.3v-29.983C902.835-308.227,724.917-371.255,724.917-371.255Z"/>
            <path class="cls-11" d="M1006.955,579.711a403.4,403.4,0,0,1-27.563,52.211A446.8,446.8,0,0,1,808.915,791.786a427.933,427.933,0,0,1-55.729,25.1,447.67,447.67,0,0,1-365.34-25.471A401.714,401.714,0,0,1,346.083,765.8a553.048,553.048,0,0,0,130.748,25.064,546.333,546.333,0,0,0,228.763-32.508,519.879,519.879,0,0,0,69.024-31.073A550.1,550.1,0,0,0,984.8,530.166a504.29,504.29,0,0,0,33.938-64.492,523.658,523.658,0,0,0,26.946-74.182c.214,12.284-.185,24.674-1.058,37.189A440.083,440.083,0,0,1,1006.955,579.711Z"/>
            <path class="cls-13" d="M1059.889,429.745A457.494,457.494,0,0,1,1020.938,585.9a424.555,424.555,0,0,1-28.451,53.987A462.109,462.109,0,0,1,816.262,805.181a434.034,434.034,0,0,1-57.785,26.027,462.654,462.654,0,0,1-377.851-26.343A434.622,434.622,0,0,1,327,771.071c-124.194-90.395-200.5-240.935-189.016-405.6.575-8.241,1.305-16.468,2.491-24.667A438.228,438.228,0,0,0,273.2,495.889a409.917,409.917,0,0,0,50.971,32.078,438.883,438.883,0,0,0,359.543,25.067A410.009,410.009,0,0,0,738.65,528.34a439.518,439.518,0,0,0,167.685-157.3,382.18,382.18,0,0,0,27.045-51.326,433.433,433.433,0,0,0,37.2-148.61,430.707,430.707,0,0,0,.812-46.869c6.875,9.221,13.267,18.712,19.48,28.5A460.114,460.114,0,0,1,1059.889,429.745Z"/>
            <g class="cls-14">
              <path class="cls-15" d="M442.984-1.816a69.831,69.831,0,0,1-59.361-69.3v-29.983c0-196.731,141.205-262.359,222.587-283.774-13.766-3.365-26.315-6.121-39.163-7.955-62.565,9.789-259.912,59.2-259.912,291.729v29.983A69.831,69.831,0,0,0,366.5-1.816h.149a1546.193,1546.193,0,0,0,197.5,16.829c12.848-.153,25.852-.613,38.7-1.225a1545.69,1545.69,0,0,1-159.708-15.6Z"/>
              <path class="cls-15" d="M724.917-371.255l-30.9-10.708a456.8,456.8,0,0,0-50.48-10.861,365.671,365.671,0,0,0-37.326,7.955c3.668.915,7.492,1.834,11.316,2.906l30.9,10.708s177.918,63.028,177.918,270.161v29.983c0,34.726-28.609,64.25-62.879,69.3-2.293.306-4.743.766-7.036.919-50.786,7.343-102.184,12.239-153.59,14.685,12.7.613,25.247,1.072,37.789,1.225A1581.313,1581.313,0,0,0,832.92-.9c2.293-.153,4.743-.613,7.036-.919,34.271-5.046,62.879-34.569,62.879-69.3v-29.983C902.835-308.227,724.917-371.255,724.917-371.255Z"/>
            </g>
            <path class="cls-12" d="M602.921,30.921H602.9A1620.083,1620.083,0,0,1,365.512,13.48l-1.311-.172a84.79,84.79,0,0,1-72.364-84.421V-101.1c0-287.311,289.968-309.107,292.9-309.294l23.934-.486c32.792.8,57.466,5.781,89.232,14.118l32.024,11.048c1.983.7,188.21,69.161,188.21,284.614v29.983c0,41.075-33.361,78.162-75.951,84.429l-2.131.314c-2.052.306-4.144.605-6.138.739A1609.592,1609.592,0,0,1,602.921,30.921ZM368.033-17.064l.872.112A1588.244,1588.244,0,0,0,602.9.326h.021a1589.643,1589.643,0,0,0,227.8-16.366c2.355-.2,3.556-.4,4.739-.583l2.472-.359c27.727-4.078,49.606-27.869,49.606-54.132V-101.1c0-194.075-166.051-255.147-167.73-255.744l-30.8-10.667c-29.171-7.612-51.137-12.056-80.42-12.78l-22.584.463c-10.1.68-263.572,20.377-263.572,278.728v29.983A54.365,54.365,0,0,0,368.033-17.064Z"/>
          </g>
        </g>
      </g>
    </g>
  </g>
</svg>
