<svg xmlns="http://www.w3.org/2000/svg" width="4in" height="4in" viewBox="0 0 288 288"><defs><style>.a{fill:#fff;}</style></defs><title>bb8-decal</title><path class="a" d="M112.422,279.088h-4.948c-1.562-.483-3.155-.883-4.679-1.465-5.373-2.056-9.6-5.738-13.316-9.961a130.53,130.53,0,0,1-24.245-39.473c-6.187-16.07-9.6-32.6-8.541-49.91a65.615,65.615,0,0,1,8.31-29.2c7.39-12.815,18.236-21.313,32.765-24.784,5.885-1.406,11.872-2.013,17.759-.282s11.643,3.858,17.447,5.84c4.059,1.386,8.108,3.049,12.485,1.606,3.8-1.252,7.548-2.668,11.291-4.082,8.425-3.183,16.908-5.656,26.141-4.71,11.945,1.225,22.429,5.438,30.973,14,1.9,1.9,3.5,4.109,5.289,6.236a54.559,54.559,0,0,0-12.235,10.979c-8.546,10.506-11.508,22.482-9.462,35.782A42.786,42.786,0,0,0,207.069,211a47.462,47.462,0,0,0,15.855,12.333c1.129.549,1.587,1.069,1.054,2.36-1.505,3.646-2.726,7.418-4.378,10.994a125.6,125.6,0,0,1-21.739,32.595,29.285,29.285,0,0,1-11.98,8.177c-6.989,2.407-13.734,1.233-20.415-1.326-4.086-1.565-8.151-3.266-12.36-4.41-7.825-2.128-15.557-1.179-23.107,1.579-4.425,1.616-8.829,3.29-13.276,4.841A35.755,35.755,0,0,1,112.422,279.088Z"/><path class="a" d="M181.363,68.7c-.034,3.33.337,6.723-.176,9.977a45.3,45.3,0,0,1-16.636,29.038c-6.984,5.648-14.885,9.029-24.248,8.437a29.83,29.83,0,0,1,.334-10.459,46.143,46.143,0,0,1,20.064-29.6,43.673,43.673,0,0,1,18.263-7.115,3.6,3.6,0,0,0,.75-.281Z"/><path d="M195.8,65.3h-32c-.957-1.56-2.295-4.4-3.912-6.155l32.384-.216c-6.162-7.88-15.255-14.275-23.056-18.314V2.913a3.128,3.128,0,0,0-6.241,0V38.444A69.473,69.473,0,0,0,145.812,35.7V21.555c0-1.609-.732-2.913-2.341-2.913s-2.341,1.3-2.341,2.913V35.8c-18.724,1.188-34.013,10.775-44.252,23.258h32.485a12.731,12.731,0,0,0-4.516,6.241h-32a56.937,56.937,0,0,0-7.89,29.814v6.053a14.087,14.087,0,0,0,12.006,13.976,327.04,327.04,0,0,0,95.453,0c6.926-1.029,12.689-6.974,12.689-13.976V95.11C205.106,83.982,201.2,74.658,195.8,65.3ZM132.313,97.825a2.937,2.937,0,1,1,2.936-2.937A2.936,2.936,0,0,1,132.313,97.825Zm12.012-13.506a12.543,12.543,0,1,1,12.543-12.543A12.544,12.544,0,0,1,144.325,84.318Zm21.2,16.842a6.272,6.272,0,1,1,6.271-6.272A6.272,6.272,0,0,1,165.529,101.16Z"/><path d="M50.589,197.567a90.559,90.559,0,0,0,.7,10.3c3.648,11.118,10.6,18.961,19.706,22.154,19.992,7.009,44.367-10.412,54.33-38.834h0c9.963-28.422,1.8-57.247-18.192-64.256a27.69,27.69,0,0,0-9.2-1.551c-6.494,0-13.138,2.177-19.37,6.108A90.2,90.2,0,0,0,50.589,197.567Z"/><path d="M195.53,186.871a53.687,53.687,0,0,0,28.181,41.968l6.377,3.453a89.958,89.958,0,0,0-14.243-94l-1.79,1.546A53.688,53.688,0,0,0,195.53,186.871Z"/><path d="M145.719,254.041a49.811,49.811,0,0,0-44.268,23.542,94.333,94.333,0,0,0,85.451.37A49.76,49.76,0,0,0,145.719,254.041Z"/><path d="M190.027,187.468a59.151,59.151,0,0,1,20.411-51.821l1.7-1.466a92.869,92.869,0,0,0-11.973-10.51,15.87,15.87,0,0,0-11.827-2.761l-.055.008a304.74,304.74,0,0,1-76.672,1.388c21.759,8.893,30.768,40.123,20.047,70.712h0c-9.269,26.442-30.361,44.067-50.476,44.067a32.83,32.83,0,0,1-10.91-1.84,33.844,33.844,0,0,1-13.577-8.961A91.815,91.815,0,0,0,96.6,274.893l.114-.182a55.832,55.832,0,0,1,95.052.6,92.282,92.282,0,0,0,35.962-38l-6.654-3.6A59.151,59.151,0,0,1,190.027,187.468Z"/></svg>