<svg xmlns="http://www.w3.org/2000/svg" width="4in" height="4in" viewBox="0 0 288 288"><defs><style>.a{fill:#fff;}.b{fill:#4b7cbf;}.c{fill:#ef3d2c;}.d{fill:#231f20;}.e{fill:#0f0c0d;}</style></defs><title>captain</title><path class="a" d="M99.389,111.807A55.017,55.017,0,1,0,176.07,99.291,55.02,55.02,0,0,0,99.389,111.807Z"/><path class="b" d="M144.008,108.022a35.978,35.978,0,1,0,35.97,35.97A35.97,35.97,0,0,0,144.008,108.022Zm17.774,60.35c-.227.049-.341-.1-.471-.195-2.5-1.8-5.032-3.6-7.515-5.421-3.181-2.272-6.33-4.545-9.479-6.834-.341-.244-.341-.244-.666-.016q-4.066,2.995-8.165,5.973-4.261,3.141-8.522,6.249a4,4,0,0,1-.633.357c.341-1.412.828-2.759,1.25-4.123.455-1.4.909-2.776,1.331-4.172.471-1.38.893-2.759,1.347-4.123.438-1.4.876-2.792,1.331-4.172.438-1.38.893-2.759,1.347-4.172q-8.863-6.379-17.693-12.774c.162-.227.357-.146.519-.146,1.867-.016,3.766-.016,5.632-.016,5.064-.016,10.145-.049,15.209-.065.162,0,.308,0,.5-.016l6.671-20.744h.1a1.9,1.9,0,0,1,.146.39q3.092,9.3,6.136,18.618c.146.455.308.909.438,1.364.114.341.114.341.5.341,2.045,0,4.107-.016,6.152-.016l14.868-.049c.146,0,.276.016.438.016a.566.566,0,0,1-.292.341c-1.834,1.347-3.668,2.694-5.519,4.025-2.532,1.85-5.032,3.7-7.564,5.551-1.3.958-2.6,1.915-3.912,2.857a3.218,3.218,0,0,1-.292.244Q158.389,157.967,161.782,168.372Z"/><path class="c" d="M101.243,203.2a73.024,73.024,0,1,1,101.913-16.4A73,73,0,0,1,101.243,203.2Zm-1.854-91.393A55.017,55.017,0,1,0,176.07,99.291,55.02,55.02,0,0,0,99.389,111.807Z"/><path class="d" d="M169.092,109.256a42.861,42.861,0,1,0,9.651,59.845A42.853,42.853,0,0,0,169.092,109.256Zm-25.1,66.823A32.078,32.078,0,1,1,176.07,144,32.074,32.074,0,0,1,143.992,176.079Z"/><path class="e" d="M143.992,0A144,144,0,1,0,288,144.008,144,144,0,0,0,143.992,0ZM104.377,198.86a67.672,67.672,0,1,1,94.443-15.194A67.651,67.651,0,0,1,104.377,198.86Z"/></svg>