<svg xmlns="http://www.w3.org/2000/svg" width="4in" height="4in" viewBox="0 0 288 288"><defs><style>.a{fill:#fff;}.b{fill:#0d090a;}</style></defs><title>golf</title><circle class="a" cx="144" cy="146.077" r="84.724"/><circle class="b" cx="154.347" cy="146.077" r="3.246"/><circle class="b" cx="164.277" cy="138.572" r="3.246"/><circle class="b" cx="169.522" cy="128.155" r="3.246"/><path class="b" d="M144.008,0A144,144,0,1,0,288,144.008,144.005,144.005,0,0,0,144.008,0Zm12.044,160.11a34.33,34.33,0,0,0-8.213,22.3V217.2h-7.678V182.412a34.33,34.33,0,0,0-8.213-22.3.7.7,0,0,1,.584-1.071h22.935A.7.7,0,0,1,156.052,160.11Zm19.153-25.5a3.244,3.244,0,0,0-3.961,5.064,3.177,3.177,0,0,0,.99.682,33.6,33.6,0,0,1-5.73,6.769,3.242,3.242,0,1,0-5.178,3.863,33.3,33.3,0,0,1-8.051,3.49,3.241,3.241,0,0,0-6.363.876,1.762,1.762,0,0,0,.016.292,28.837,28.837,0,0,1-2.922.146,33.559,33.559,0,1,1,33.437-36.2,3.238,3.238,0,0,0-1.185,6.249,3.089,3.089,0,0,0,1.071.227A32.6,32.6,0,0,1,175.206,134.61Z"/></svg>