<svg xmlns="http://www.w3.org/2000/svg" width="4in" height="4in" viewBox="0 0 288 288"><defs><style>.a{fill:#0f0c0d;}.b{fill:#fff;}.c{fill:#2d64ad;}</style></defs><title>jengo</title><circle class="a" cx="144" cy="144" r="144"/><path class="b" d="M148.29,74.537h-7.6a48.177,48.177,0,0,0-48.114,45.741H196.4A48.176,48.176,0,0,0,148.29,74.537Z"/><rect class="c" x="86.394" y="125.147" width="2.968" height="64.115"/><rect class="c" x="199.681" y="125.147" width="2.906" height="64.115"/><path class="b" d="M186.761,161.262l3.515,28-26.868,18.951h0A74.6,74.6,0,0,1,185.4,162.6Z"/><path class="c" d="M92.577,125.147v16.674h0a90.555,90.555,0,0,1,35.977,62.519,54.573,54.573,0,0,1,.294,6.14l.249.176h4.657V141.877l-34.989-6.665v-4.666h91.51v4.666l-34.989,6.665v68.779h4.657l.249-.176a54.573,54.573,0,0,1,.294-6.14A90.557,90.557,0,0,1,196.4,141.869h.061V125.147Z"/><path class="b" d="M102.282,161.262l-3.515,28,26.868,18.951h0A74.6,74.6,0,0,0,103.642,162.6Z"/><path class="c" d="M103.569,74.537H87.925A1.623,1.623,0,0,0,86.3,76.16v8.95h6.214A10.611,10.611,0,0,1,102.9,77.24l.657.008a1.355,1.355,0,1,0,.016-2.711Z"/><rect class="b" x="86.302" y="85.11" width="3.06" height="35.168"/></svg>