<?xml version="1.0" encoding="utf-8"?>
<!-- Generator: Adobe Illustrator 21.1.0, SVG Export Plug-In . SVG Version: 6.00 Build 0)  -->
<svg version="1.1" id="Layer_1" xmlns="http://www.w3.org/2000/svg" xmlns:xlink="http://www.w3.org/1999/xlink" x="0px" y="0px"
	 width="288px" height="288px" viewBox="0 0 288 288" style="enable-background:new 0 0 288 288;" xml:space="preserve">
<style type="text/css">
	.st0{fill:#0F0C0D;}
	.st1{fill:#E9E9E9;}
	.st2{fill:#59C8DE;}
	.st3{fill:#D4EFFC;}
</style>
<g>
	<circle class="st0" cx="144" cy="144" r="144"/>
	<path class="st1" d="M89.258,72.232L89.258,72.232c-1.164,0.863-1.436,2.493-0.614,3.687l50.823,73.843l9.342-6.922L92.964,72.717
		C92.061,71.584,90.423,71.369,89.258,72.232z"/>
	
		<rect x="168.059" y="184.24" transform="matrix(0.8035 -0.5953 0.5953 0.8035 -76.8191 140.1462)" class="st1" width="11.627" height="4.385"/>
	
		<rect x="164.299" y="179.166" transform="matrix(0.8035 -0.5953 0.5953 0.8035 -74.5373 136.9112)" class="st1" width="11.627" height="4.385"/>
	
		<rect x="160.54" y="174.092" transform="matrix(0.8035 -0.5953 0.5953 0.8035 -72.2556 133.6761)" class="st1" width="11.627" height="4.385"/>
	
		<rect x="156.781" y="169.018" transform="matrix(0.8035 -0.5953 0.5953 0.8035 -69.9738 130.4411)" class="st1" width="11.627" height="4.385"/>
	<path class="st1" d="M149.239,162.951l1.877,2.534l-0.19,0.141c-0.604,0.448-0.731,1.3-0.283,1.904
		c0.448,0.604,1.3,0.731,1.904,0.283l0.19-0.141l2.732,3.688l9.342-6.922l-2.732-3.688l0.19-0.141
		c0.604-0.448,0.731-1.3,0.283-1.904c-0.448-0.604-1.3-0.731-1.904-0.283l-0.19,0.141l-1.877-2.534l-0.804,0.596l-2.937-4.025
		l0.746-0.553l-2.613-7.911l-0.947-1.279l-13.479,9.987l0.947,1.279l6.808,4.803l0.775-0.574l2.966,4.003L149.239,162.951z"/>
	<path class="st1" d="M191.135,197.753l-1.059,0.785l-9.079-12.254l-9.342,6.922l14.044,18.955l9.342-6.922l-1.773-2.393
		l1.059-0.785c0.639-0.473,0.773-1.375,0.3-2.013l-1.478-1.995C192.675,197.414,191.774,197.279,191.135,197.753z"/>
	<polygon class="st1" points="193.204,218.739 189.426,218.458 187.379,215.696 187.027,215.221 186.777,213.763 196.26,206.736 
		197.583,207.4 197.934,207.875 199.981,210.637 199.149,214.334 	"/>
	<path class="st2" d="M89.258,72.232L89.258,72.232c-1.164,0.863-1.436,2.493-0.614,3.687l50.823,73.843l9.342-6.922L92.964,72.717
		C92.061,71.584,90.423,71.369,89.258,72.232z"/>
</g>
</svg>
