<svg xmlns="http://www.w3.org/2000/svg" width="4in" height="4in" viewBox="0 0 288 288"><defs><style>.a{fill:#0f0c0d;}.b{fill:#e42528;}.c{fill:#fff;}</style></defs><title>pokemon</title><circle class="a" cx="144" cy="144" r="144"/><path class="b" d="M111.182,139.359H78.69a65.473,65.473,0,0,1,130.621,0H176.818a33.137,33.137,0,0,0-65.635,0Z"/><path class="c" d="M167.905,144A23.905,23.905,0,1,1,144,120.095,23.9,23.9,0,0,1,167.905,144Z"/><path class="c" d="M144,209.5a65.511,65.511,0,0,1-65.31-60.854h32.493a33.137,33.137,0,0,0,65.635,0H209.31A65.511,65.511,0,0,1,144,209.5Z"/></svg>