<svg xmlns="http://www.w3.org/2000/svg" width="4in" height="4in" viewBox="0 0 288 288"><defs><style>.a{fill:#fff;}</style></defs><title>r2d2-decal</title><path class="a" d="M119.762,218.634h-4.333c-1.368-.423-2.763-.773-4.1-1.283-4.706-1.8-8.407-5.025-11.662-8.724a114.313,114.313,0,0,1-21.233-34.569c-5.419-14.074-8.409-28.549-7.48-43.71a57.463,57.463,0,0,1,7.278-25.57c6.471-11.223,15.97-18.665,28.694-21.705,5.154-1.232,10.4-1.763,15.552-.247s10.2,3.379,15.279,5.115c3.555,1.214,7.1,2.67,10.934,1.406,3.328-1.1,6.61-2.336,9.889-3.575,7.379-2.788,14.807-4.954,22.893-4.124,10.461,1.073,19.643,4.763,27.125,12.26,1.664,1.668,3.065,3.6,4.632,5.461a47.78,47.78,0,0,0-10.715,9.615c-7.484,9.2-10.079,19.689-8.286,31.336A37.47,37.47,0,0,0,202.65,159a41.565,41.565,0,0,0,13.885,10.8c.988.481,1.39.936.923,2.067-1.318,3.193-2.388,6.5-3.834,9.628a110,110,0,0,1-19.038,28.545,25.647,25.647,0,0,1-10.491,7.161c-6.12,2.108-12.027,1.08-17.879-1.161-3.578-1.371-7.138-2.86-10.825-3.862-6.853-1.863-13.624-1.032-20.236,1.383-3.875,1.415-7.732,2.881-11.627,4.239A31.313,31.313,0,0,1,119.762,218.634Z"/><path class="a" d="M172.531,40.384a47.9,47.9,0,0,1-.122,6.9A31.346,31.346,0,0,1,160.9,67.379c-4.832,3.908-10.3,6.247-16.777,5.838a20.639,20.639,0,0,1,.231-7.237A31.926,31.926,0,0,1,158.235,45.5a30.217,30.217,0,0,1,12.636-4.923,2.49,2.49,0,0,0,.519-.195Z"/><polygon points="250.272 246.162 216.133 246.162 208.437 288 257.968 288 250.272 246.162"/><polygon points="126.877 246.162 119.18 288 168.712 288 161.015 246.162 126.877 246.162"/><polygon points="37.728 246.162 30.032 288 79.563 288 71.867 246.162 37.728 246.162"/><polygon points="77.22 224.122 89.646 243.721 201.267 243.721 211.007 224.122 77.22 224.122"/><path d="M192.265,17.484l1.437-3.773-7.757-6.119-3.4,2.505C171.25,3.356,158.054,0,143.946,0,102.3,0,68.534,34.932,68.52,75.928H219.372A76.472,76.472,0,0,0,192.265,17.484ZM152.453,67.535a4.059,4.059,0,1,1,4.059-4.059A4.06,4.06,0,0,1,152.453,67.535ZM156.488,44.5H131.4a37.661,37.661,0,0,1,3.578-21.011l.522-.854h16.884l.522.854A37.666,37.666,0,0,1,156.488,44.5Zm24.5,25.242a6.264,6.264,0,1,1,6.264-6.264A6.264,6.264,0,0,1,180.991,69.74Z"/><circle cx="143.946" cy="33.395" r="8.986"/><path d="M223.99,83.116v7.4h-4.618V79.851H68.52V90.519H63.914v-7.4h-21.4v69.7h3.17v90.9H63.914V120.2H68.52V221.681H219.372V120.2h4.618V243.721h18.232v-90.9h3.17v-69.7ZM164.663,197.408a2.733,2.733,0,0,1-2.733,2.733h-32.4a2.733,2.733,0,0,1-2.733-2.733V135.53a2.733,2.733,0,0,1,2.733-2.733h32.4a2.733,2.733,0,0,1,2.733,2.733ZM180.12,120.2H111.341V109.827H180.12Zm0-19.307H111.341V90.519H180.12Z"/><path d="M161.8,134.346H129.665a1.367,1.367,0,0,0-1.367,1.367v61.514a1.367,1.367,0,0,0,1.367,1.367H161.8a1.366,1.366,0,0,0,1.367-1.367V135.712A1.366,1.366,0,0,0,161.8,134.346Zm-4.11,58.782h-23.91v-23.91h23.91Zm0-29.377h-23.91V139.84h23.91Z"/></svg>