<svg xmlns="http://www.w3.org/2000/svg" width="4in" height="4in" viewBox="0 0 288 288"><defs><style>.a,.c{fill:#0d090a;}.b{fill:#fff;}.c{stroke:#0d090a;stroke-miterlimit:10;}</style></defs><title>stormtrooper-decal</title><circle class="a" cx="144" cy="144" r="144"/><path class="b" d="M173.4,150.235l-8.457-3.688a59.735,59.735,0,0,1-14.51-9.009l-.09-.075a9.561,9.561,0,0,0-12.429.017,59.571,59.571,0,0,1-14.581,9.087l-8.391,3.664c-6.067,2.649-7.916,10.768-3.65,16.031l2.893,3.57a8.527,8.527,0,0,0,6.6,3.225,4.468,4.468,0,0,0,3.029-1.155l.013-.012,6.487-5.912a20.855,20.855,0,0,1,8.807-4.8l.01,0a19.668,19.668,0,0,1,9.659,0,20.345,20.345,0,0,1,8.714,4.716l6.571,5.991.01.01a4.466,4.466,0,0,0,2.513,1.119,8.5,8.5,0,0,0,7.57-3.178l2.892-3.571C181.318,161,179.467,152.882,173.4,150.235Z"/><path class="b" d="M201.938,158.9l-3.857-9.406a25.445,25.445,0,0,1-1.9-9.4v-14.53c-.56-19.516-11.549-37.541-29.216-45.929a49.754,49.754,0,0,0-21.676-5.091l-.415.061c-17.941,0-33.351,9.122-42.853,22.838a50.884,50.884,0,0,0-9.083,28.12v14.505a25.483,25.483,0,0,1-1.946,9.449l-3.83,9.378A25.357,25.357,0,0,0,88.8,181.17l11.146,18.888a24.459,24.459,0,0,0,2.688,3.719l4.806,5.465a22.977,22.977,0,0,0,29.569,4.486l.049-.029a14.9,14.9,0,0,1,14.908.007,22.978,22.978,0,0,0,29.583-4.467l4.814-5.466a24.441,24.441,0,0,0,2.693-3.71l11.193-18.914A25.364,25.364,0,0,0,201.938,158.9Zm-44.495,47.209a3.207,3.207,0,0,1-4.13,2.073l-5.074-1.85a12.046,12.046,0,0,0-8.134-.051l-5.217,1.832a3.158,3.158,0,0,1-4.021-2.028,3.362,3.362,0,0,1,1.577-4.067L139.4,198.4a10.3,10.3,0,0,1,9.548.01L155.838,202A3.415,3.415,0,0,1,157.443,206.106Zm9.687-.9a4.511,4.511,0,1,1,4.339-4.507A4.426,4.426,0,0,1,167.131,205.21Zm-2.526-29.529-6.668-5.993a20.744,20.744,0,0,0-8.843-4.716,20.254,20.254,0,0,0-9.8,0l-.01.006a20.758,20.758,0,0,0-8.843,4.72l-6.677,6.012a7.96,7.96,0,0,1-11.593-.924L99.1,159.084c-2.439-3.009-1.379-8.032,2.107-8.662h0c2.667-.826,4.168-5.175,2.713-7.857l-4.375-9.184v-5.937h90.338v5.9l-4.9,8.732a5.347,5.347,0,0,0,2.286,7.406,5.916,5.916,0,0,1,2.006,9.13L176.2,174.732A7.963,7.963,0,0,1,164.605,175.681Z"/><path class="c" d="M185.64,187.1a1.623,1.623,0,0,1-2.292.125l-4.075-3.652a1.623,1.623,0,1,1,2.167-2.417l4.075,3.652A1.623,1.623,0,0,1,185.64,187.1Z"/><path class="c" d="M190.67,181.078a1.621,1.621,0,0,1-2.292.125l-4.075-3.652a1.623,1.623,0,1,1,2.167-2.417l4.075,3.652A1.623,1.623,0,0,1,190.67,181.078Z"/><path class="c" d="M195.7,175.058a1.623,1.623,0,0,1-2.292.125l-4.075-3.652a1.623,1.623,0,0,1,2.167-2.417l4.075,3.652A1.623,1.623,0,0,1,195.7,175.058Z"/><path class="c" d="M94.578,175.6a1.623,1.623,0,0,1-1.084-2.832l4.075-3.652a1.623,1.623,0,0,1,2.167,2.417l-4.075,3.652A1.616,1.616,0,0,1,94.578,175.6Z"/><path class="c" d="M100.691,181.2a1.623,1.623,0,1,1-2.167-2.417l4.075-3.652a1.623,1.623,0,0,1,2.167,2.417Z"/><path class="c" d="M109.8,183.572l-4.075,3.652a1.623,1.623,0,1,1-2.167-2.417l4.075-3.652a1.623,1.623,0,0,1,2.167,2.417Z"/><circle class="a" cx="144" cy="144" r="144"/><path class="b" d="M173.4,151.046l-8.457-3.688a59.735,59.735,0,0,1-14.51-9.009l-.09-.075a9.561,9.561,0,0,0-12.429.017,59.571,59.571,0,0,1-14.581,9.087l-8.391,3.664c-6.067,2.649-7.916,10.768-3.65,16.031l2.893,3.57a8.527,8.527,0,0,0,6.6,3.225,4.468,4.468,0,0,0,3.029-1.155l.013-.012,6.487-5.912a20.855,20.855,0,0,1,8.807-4.8l.01,0a19.668,19.668,0,0,1,9.659,0,20.345,20.345,0,0,1,8.714,4.716l6.571,5.991.01.01a4.466,4.466,0,0,0,2.513,1.119,8.5,8.5,0,0,0,7.57-3.178l2.892-3.571C181.318,161.811,179.467,153.693,173.4,151.046Z"/><path class="b" d="M201.938,158.9l-3.857-9.406a25.445,25.445,0,0,1-1.9-9.4v-14.53c-.56-19.516-11.549-37.541-29.216-45.929a49.754,49.754,0,0,0-21.676-5.091l-.415.061c-17.941,0-33.351,9.122-42.853,22.838a50.884,50.884,0,0,0-9.083,28.12v14.505a25.483,25.483,0,0,1-1.946,9.449l-3.83,9.378A25.357,25.357,0,0,0,88.8,181.17l11.146,18.888a24.459,24.459,0,0,0,2.688,3.719l4.806,5.465a22.977,22.977,0,0,0,29.569,4.486l.049-.029a14.9,14.9,0,0,1,14.908.007,22.978,22.978,0,0,0,29.583-4.467l4.814-5.466a24.441,24.441,0,0,0,2.693-3.71l11.193-18.914A25.364,25.364,0,0,0,201.938,158.9Zm-92.411,29.638a2.436,2.436,0,0,1-3.418-.43L95.668,174.439a2.435,2.435,0,0,1,.434-3.411,2.488,2.488,0,0,1,3.416.43l10.442,13.665a2.437,2.437,0,0,1-.433,3.411Zm47.916,17.572a3.207,3.207,0,0,1-4.13,2.073l-5.074-1.85a12.046,12.046,0,0,0-8.134-.051l-5.217,1.832a3.158,3.158,0,0,1-4.021-2.028,3.362,3.362,0,0,1,1.577-4.067L139.4,198.4a10.3,10.3,0,0,1,9.548.01L155.838,202A3.415,3.415,0,0,1,157.443,206.106Zm9.687-.9a4.511,4.511,0,1,1,4.339-4.507A4.426,4.426,0,0,1,167.131,205.21Zm-2.526-26.689-6.668-5.993a20.744,20.744,0,0,0-8.843-4.716,20.254,20.254,0,0,0-9.8,0l-.01.006a20.758,20.758,0,0,0-8.843,4.72l-6.677,6.012a7.96,7.96,0,0,1-11.593-.924L99.1,159.084c-2.439-3.009-1.379-8.032,2.107-8.662h0c2.667-.826,4.168-5.175,2.713-7.857l-4.375-9.184v-5.937h90.338v5.9l-4.9,8.732a5.347,5.347,0,0,0,2.286,7.406,5.916,5.916,0,0,1,2.006,9.13L176.2,177.572A7.963,7.963,0,0,1,164.605,178.521Zm28.929-3.887-10.788,13.378a2.435,2.435,0,1,1-3.77-3.082l10.788-13.377a2.5,2.5,0,0,1,3.431-.345,2.435,2.435,0,0,1,.339,3.426Z"/></svg>