<svg xmlns="http://www.w3.org/2000/svg" width="4in" height="4in" viewBox="0 0 288 288"><defs><style>.a{fill:#0f0c0d;}.b{fill:#ef3d2c;}.c{fill:#fff;}</style></defs><title>superman</title><path class="a" d="M143.991-.009A144.009,144.009,0,1,0,288,144,144,144,0,0,0,143.991-.009Zm0,215.18q-40.01-46.083-80-92.131c.215-.251.394-.484.591-.681q13.489-13.7,27-27.39a2.3,2.3,0,0,1,1.451-.609q50.974-.054,101.947,0a2.014,2.014,0,0,1,1.308.466q13.731,13.892,27.408,27.82c.09.09.161.2.322.394Q184,169.124,143.991,215.171Z"/><path class="b" d="M223.692,122.645Q210,108.727,196.28,94.829a2.013,2.013,0,0,0-1.313-.476Q144,94.321,93.028,94.359a2.263,2.263,0,0,0-1.453.613q-13.522,13.667-26.991,27.387c-.2.206-.38.435-.6.687L144,215.165l80.016-92.125C223.857,122.846,223.783,122.737,223.692,122.645Zm-146.266-.079q9.174-9.377,18.341-18.761a1.97,1.97,0,0,1,1.564-.65c5.1.024,10.2.014,15.24.014-13.927,7.167-23.134,17.378-22.692,34.239L77.107,122.945C77.229,122.8,77.319,122.675,77.426,122.566Zm83.31,8.025a206.6,206.6,0,0,0-21.008-.239c-5.609.106-11.225-.087-16.666-1.6a24.9,24.9,0,0,1-6.5-2.7c-6.2-3.876-6.432-11.194-.638-15.65a30.1,30.1,0,0,1,11.9-5.192,51.005,51.005,0,0,1,26.569.8c8.54,2.59,13.92,8.2,15.45,17.176.082.482.223.775.808.773q10.963-.026,21.927-.019a2.827,2.827,0,0,0,.462-.09V104.652l17.876,18.266-20.07,22.82c-.807-1.292-1.5-2.6-2.384-3.781-3.017-4.04-7.157-6.51-11.815-8.2A60.949,60.949,0,0,0,160.736,130.591Zm13.337,31.717a13.585,13.585,0,0,1-5.954,3.324,55.908,55.908,0,0,1-12.935,2.376c-3.985.33-7.99.427-11.984.653a1.427,1.427,0,0,1-1.394-.684c-3.54-4.875-8.45-7.5-14.284-8.528a17.679,17.679,0,0,0-7.537.209,7.7,7.7,0,0,0-5.864,5.232L97.855,146.456c1.654.535,3.122,1.081,4.629,1.484a68.009,68.009,0,0,0,13.9,2.079c8.192.447,16.391.766,24.585,1.169,5.2.256,10.395.484,15.581.879,4.711.359,9.433.792,13.941,2.367a13.041,13.041,0,0,1,2.859,1.381C175.817,157.438,176.1,160.147,174.073,162.307Zm-5.953-59.117h13.454c.728,3.529-1.55,8.747-4.872,10.421C174.673,109.563,171.456,106.47,168.12,103.191Zm-23.757,73.993a102.93,102.93,0,0,0,20.817-2.272l-21.072,23.963L123.25,175.233A112.437,112.437,0,0,0,144.363,177.183Z"/><path class="c" d="M193.038,123.845V104.652l17.876,18.266-20.07,22.82c-.807-1.292-1.5-2.6-2.384-3.781-3.017-4.041-7.157-6.51-11.815-8.2a60.948,60.948,0,0,0-15.91-3.164,206.6,206.6,0,0,0-21.008-.239,57.754,57.754,0,0,1-16.666-1.6,24.9,24.9,0,0,1-6.5-2.7c-6.2-3.876-6.432-11.194-.638-15.649a30.1,30.1,0,0,1,11.9-5.192,51,51,0,0,1,26.569.8c8.54,2.59,13.92,8.2,15.45,17.176.082.482.223.775.808.773q10.963-.026,21.927-.019A2.832,2.832,0,0,0,193.038,123.845Z"/><path class="c" d="M114.12,164.889,97.855,146.457c1.654.535,3.122,1.081,4.629,1.484a68.011,68.011,0,0,0,13.9,2.079c8.192.447,16.391.766,24.585,1.169,5.2.256,10.395.484,15.581.879,4.711.359,9.432.792,13.941,2.367a13.04,13.04,0,0,1,2.859,1.381c2.462,1.622,2.744,4.332.718,6.492a13.585,13.585,0,0,1-5.954,3.324,55.909,55.909,0,0,1-12.935,2.376c-3.985.33-7.99.427-11.984.653a1.427,1.427,0,0,1-1.394-.684c-3.54-4.875-8.45-7.5-14.284-8.528a17.678,17.678,0,0,0-7.537.209A7.7,7.7,0,0,0,114.12,164.889Z"/><path class="c" d="M123.25,175.233a112.437,112.437,0,0,0,21.113,1.951,102.935,102.935,0,0,0,20.817-2.272l-21.072,23.963Z"/><path class="c" d="M112.57,103.169c-13.927,7.167-23.134,17.378-22.692,34.239L77.107,122.945c.122-.146.212-.27.319-.379q9.174-9.377,18.341-18.761a1.97,1.97,0,0,1,1.564-.65C102.433,103.18,107.535,103.169,112.57,103.169Z"/><path class="c" d="M168.12,103.191h13.454c.728,3.529-1.55,8.747-4.872,10.421C174.673,109.563,171.456,106.47,168.12,103.191Z"/></svg>