<svg xmlns="http://www.w3.org/2000/svg" width="4in" height="4in" viewBox="0 0 288 288"><defs><style>.a{fill:#0d090a;}.b{fill:#fff;}.c{fill:#77c043;}</style></defs><title>texas</title><circle class="a" cx="144" cy="144" r="144"/><path class="b" d="M73.248,133.219h34.535v-49.6h32.578v24.8l11.514,2.795c2.481.6,4.945,1.279,7.36,2.107a38.8,38.8,0,0,0,23.678.476l.056-.017a15.744,15.744,0,0,1,11.545,1l5.363,2.681v14.065a16.693,16.693,0,0,0,2.678,9.068l.475.733a16.064,16.064,0,0,1,2.453,10.719l-.667,5.337a5.489,5.489,0,0,1-2.65,4.042l-20.348,12.1a27.519,27.519,0,0,0-12.286,31.591h0a1.94,1.94,0,0,1-2.338,2.439l-13.9-3.371a10.219,10.219,0,0,1-7.8-9.553l-.107-2.879a10.219,10.219,0,0,0-4.158-7.855l-.149-.11a25.426,25.426,0,0,1-8.38-10.639l-2.766-6.585a10.231,10.231,0,0,0-17.366-2.5l-3.116,3.827a4.751,4.751,0,0,1-6.009,1.143l-5.788-3.249a14.369,14.369,0,0,1-7.33-12.179h0A6.112,6.112,0,0,0,87,148.329h0a25.86,25.86,0,0,1-10.037-9.2Z"/><circle class="c" cx="234.633" cy="53.367" r="43.367"/><path class="b" d="M210.572,41.239a4.385,4.385,0,0,1,3.089,1.36l-1.3,1.456a2.467,2.467,0,0,0-1.761-.784c-1.457,0-2.593,1.265-2.593,3.361,0,2.146,1.008,3.394,2.529,3.394a2.557,2.557,0,0,0,1.984-.929l1.3,1.425a4.26,4.26,0,0,1-3.313,1.537c-2.705,0-4.914-1.841-4.914-5.347C205.594,43.256,207.883,41.239,210.572,41.239Z"/><path class="b" d="M215.034,41.431h2.353v5.843c0,2.049.64,2.753,1.809,2.753s1.857-.7,1.857-2.753V41.431h2.273v5.6c0,3.506-1.425,5.026-4.13,5.026s-4.162-1.521-4.162-5.026Z"/><path class="b" d="M226.218,48.938a4.155,4.155,0,0,0,2.561,1.088c.977,0,1.457-.384,1.457-1.009,0-.656-.592-.864-1.5-1.248l-1.345-.576a3.035,3.035,0,0,1-2.113-2.85c0-1.729,1.553-3.1,3.713-3.1a4.83,4.83,0,0,1,3.361,1.376L231.164,44.1a3.423,3.423,0,0,0-2.177-.833c-.8,0-1.329.353-1.329.944,0,.641.688.864,1.6,1.232l1.329.545a2.877,2.877,0,0,1,2.065,2.833c0,1.729-1.44,3.233-3.921,3.233a5.784,5.784,0,0,1-3.874-1.5Z"/><path class="b" d="M236.122,43.416h-2.881V41.431h8.1v1.985h-2.865v8.451h-2.353Z"/><path class="b" d="M242.01,46.6c0-3.409,1.937-5.361,4.738-5.361,2.817,0,4.738,1.969,4.738,5.361,0,3.41-1.921,5.459-4.738,5.459C243.947,52.06,242.01,50.011,242.01,46.6Zm7.059,0c0-2.08-.9-3.329-2.321-3.329-1.408,0-2.321,1.249-2.321,3.329,0,2.1.913,3.426,2.321,3.426C248.172,50.026,249.069,48.7,249.069,46.6Z"/><path class="b" d="M253.433,41.431h2.5l1.745,4.69.625,1.824h.064l.624-1.824,1.7-4.69h2.5V51.867h-2.209V48.042c0-1.024.192-2.545.3-3.554h-.064l-.848,2.417-1.617,4.05H257.8l-1.6-4.05-.833-2.417h-.064c.112,1.009.3,2.529.3,3.554v3.825h-2.177Z"/><path class="b" d="M215.09,66.139a4.155,4.155,0,0,0,2.561,1.088c.977,0,1.457-.384,1.457-1.009,0-.656-.592-.864-1.5-1.248l-1.345-.576a3.035,3.035,0,0,1-2.113-2.85c0-1.729,1.553-3.1,3.713-3.1a4.83,4.83,0,0,1,3.361,1.376L220.036,61.3a3.423,3.423,0,0,0-2.177-.833c-.8,0-1.329.353-1.329.944,0,.641.688.864,1.6,1.232l1.329.545a2.877,2.877,0,0,1,2.065,2.833c0,1.729-1.44,3.233-3.921,3.233a5.784,5.784,0,0,1-3.874-1.5Z"/><path class="b" d="M224.994,60.616h-2.881V58.631h8.1v1.985h-2.865v8.451h-2.353Z"/><path class="b" d="M236.1,66.586h-3.2l-.64,2.481h-2.4l3.281-10.437h2.817l3.281,10.437h-2.5Zm-.48-1.84-.256-.961c-.288-1.04-.56-2.272-.848-3.361h-.064c-.24,1.1-.528,2.321-.816,3.361l-.256.961Z"/><path class="b" d="M241.73,60.616h-2.881V58.631h8.1v1.985h-2.865v8.451H241.73Z"/><path class="b" d="M248.561,58.631h6.547v1.985H250.93v2.1h3.553v1.969H250.93v2.4h4.338v1.984h-6.707Z"/></svg>