<svg xmlns="http://www.w3.org/2000/svg" width="4in" height="4in" viewBox="0 0 288 288"><defs><style>.a{fill:#0d090a;}.b{fill:#fff;}.c{fill:#77c043;}</style></defs><title>texas</title><circle class="a" cx="144" cy="144" r="144"/><path class="b" d="M195.734,115.124c-3.387-.543-6.305-2.5-9.617-3.292-2.749-.66-8.1-1.279-10.5.631-.7.558-.381,1.354-1.379,1.7-1.434.5-2.439-1-3.419-1.661-3.069-2.083-2.013,1.064-4.561.525-.951-.2-1.334-1.734-2.566-1.831-1.5-.117-2.586,1.6-4.093,1.493-1.244-.087-1.646-1.03-2.691-1.625-1.6-.911-2.851-.671-4.617-.567-3.572.21-5.95-2.014-9.33-2.137-2.028-.074-4.551-1.47-4.962-3.627V82.566H109.129V135.9H73.351c0,.715-.22,1.931.171,2.429.565.719,1.623,2.78,2.032,3.223.682.737,1.891,1.057,2.346,1.576,1.076,1.229,2.819,2.345,3.618,3.3.369.442.772,2.214,1.172,2.565,1.49,1.308,3.626,2.032,4.987,3.383,2.737,2.717,2.489,6.339,3.291,9.11.68,2.348,2.775,5.849,5.44,7.283,1.144.615,3.033.424,3.872.914,1.562.913,1.585,2.053,2.843,3.1,7.061,5.85,6.031-5.4,10.285-8.168,1.948-1.267,6.508-1.165,8.85-.569,3.517.9,2.576,1.905,5.573,4.029,1.124.8,2.38.327,3.625,1.3.189.149,2.6,4.4,2.707,4.6,2.069,3.708,4.079,8.447,6.9,11.639,1.541,1.746,2.61,2.114,3.99,4.228a56.485,56.485,0,0,0,6.278,7.981c2.507,2.768,3.022,2.9,6.05,4.612.842.475,2.084,1.805,2.859,2.074,2.2.764,1.857-.274,4.283-.325,1.5-.032,4.326,2.288,5.487.685-.185.255-1.778-8.511-1.976-9.105-.261-.786-1.214-2.008-.941-2.744.476-1.28.942-1.3,1.772-1.915,2.2-1.634-.6-2.18-1.077-2.958-1.386-2.281-.281-.991,1.777-2,2.11-1.034,2.153-3.008,3.48-4.4,1.246-1.3,2.44-1.039,3.343-2.759.918-1.749.17-2.627,2.438-3.494,2.221-.848,4.452.231,6.718-.85,3.754-1.791,3.629-3.038,5.18-6.075.61-1.194,1.962-.829,2.172-2.332.17-1.22-1.808-2.171-1.581-3.125,1.242-5.23,2.467.207,3.125.514,2.324,1.082-.08,1.38,2.594.856,2.977-.583,5.28-4.18,5.865-7.111.437-2.187-.076-4.421.365-6.615.392-1.951,1.83-3.831,1.7-5.882-.206-3.319-3.326-7.821-4.319-11-.782-2.5-1.512-2.9-1.765-5.955V116.849a1.652,1.652,0,0,0-1.574-1.65Z"/><circle class="c" cx="234.633" cy="53.367" r="43.367"/><path class="b" d="M210.572,41.239a4.385,4.385,0,0,1,3.089,1.36l-1.3,1.456a2.467,2.467,0,0,0-1.761-.784c-1.457,0-2.593,1.265-2.593,3.361,0,2.146,1.008,3.394,2.529,3.394a2.557,2.557,0,0,0,1.984-.929l1.3,1.425a4.26,4.26,0,0,1-3.313,1.537c-2.705,0-4.914-1.841-4.914-5.347C205.594,43.256,207.883,41.239,210.572,41.239Z"/><path class="b" d="M215.034,41.431h2.353v5.843c0,2.049.64,2.753,1.809,2.753s1.857-.7,1.857-2.753V41.431h2.273v5.6c0,3.506-1.425,5.026-4.13,5.026s-4.162-1.521-4.162-5.026Z"/><path class="b" d="M226.218,48.938a4.155,4.155,0,0,0,2.561,1.088c.977,0,1.457-.384,1.457-1.009,0-.656-.592-.864-1.5-1.248l-1.345-.576a3.035,3.035,0,0,1-2.113-2.85c0-1.729,1.553-3.1,3.713-3.1a4.83,4.83,0,0,1,3.361,1.376L231.164,44.1a3.423,3.423,0,0,0-2.177-.833c-.8,0-1.329.353-1.329.944,0,.641.688.864,1.6,1.232l1.329.545a2.877,2.877,0,0,1,2.065,2.833c0,1.729-1.44,3.233-3.921,3.233a5.784,5.784,0,0,1-3.874-1.5Z"/><path class="b" d="M236.122,43.416h-2.881V41.431h8.1v1.985h-2.865v8.451h-2.353Z"/><path class="b" d="M242.01,46.6c0-3.409,1.937-5.361,4.738-5.361,2.817,0,4.738,1.969,4.738,5.361,0,3.41-1.921,5.459-4.738,5.459C243.947,52.06,242.01,50.011,242.01,46.6Zm7.059,0c0-2.08-.9-3.329-2.321-3.329-1.408,0-2.321,1.249-2.321,3.329,0,2.1.913,3.426,2.321,3.426C248.172,50.026,249.069,48.7,249.069,46.6Z"/><path class="b" d="M253.433,41.431h2.5l1.745,4.69.625,1.824h.064l.624-1.824,1.7-4.69h2.5V51.867h-2.209V48.042c0-1.024.192-2.545.3-3.554h-.064l-.848,2.417-1.617,4.05H257.8l-1.6-4.05-.833-2.417h-.064c.112,1.009.3,2.529.3,3.554v3.825h-2.177Z"/><path class="b" d="M215.09,66.139a4.155,4.155,0,0,0,2.561,1.088c.977,0,1.457-.384,1.457-1.009,0-.656-.592-.864-1.5-1.248l-1.345-.576a3.035,3.035,0,0,1-2.113-2.85c0-1.729,1.553-3.1,3.713-3.1a4.83,4.83,0,0,1,3.361,1.376L220.036,61.3a3.423,3.423,0,0,0-2.177-.833c-.8,0-1.329.353-1.329.944,0,.641.688.864,1.6,1.232l1.329.545a2.877,2.877,0,0,1,2.065,2.833c0,1.729-1.44,3.233-3.921,3.233a5.784,5.784,0,0,1-3.874-1.5Z"/><path class="b" d="M224.994,60.616h-2.881V58.631h8.1v1.985h-2.865v8.451h-2.353Z"/><path class="b" d="M236.1,66.586h-3.2l-.64,2.481h-2.4l3.281-10.437h2.817l3.281,10.437h-2.5Zm-.48-1.84-.256-.961c-.288-1.04-.56-2.272-.848-3.361h-.064c-.24,1.1-.528,2.321-.816,3.361l-.256.961Z"/><path class="b" d="M241.73,60.616h-2.881V58.631h8.1v1.985h-2.865v8.451H241.73Z"/><path class="b" d="M248.561,58.631h6.547v1.985H250.93v2.1h3.553v1.969H250.93v2.4h4.338v1.984h-6.707Z"/></svg>