<svg xmlns="http://www.w3.org/2000/svg" width="4in" height="4in" viewBox="0 0 288 288"><defs><style>.a{fill:#0d090a;}.b{fill:#fff;}.c{fill:#231f20;}.d{fill:#77c043;}</style></defs><title>wisconsin</title><path class="a" d="M182.039,175.579V121.365h-12.06V185.2h11.882a100.429,100.429,0,0,0,1.428,11.541,17.98,17.98,0,0,1,.649,11.378H122.42s-1.428-.828-3.344-1.948A15.107,15.107,0,0,1,112,189.652l.081-.357a29.707,29.707,0,0,0,.633-4.09h.13L124.9,143l11.882,42.2h12.628l16.751-63.84H153.52L143.2,169.119l-12.45-45.936H119.839l-11.719,43.6-.633,2.337-1.007-4.626-9.414-43.128H83.853l8.132,31.376-5.162-3.668A14.353,14.353,0,0,1,80.8,136.525l.519-8.911a10.18,10.18,0,0,0-.243-2.97l-1.007-4.35a11.06,11.06,0,0,1,5.535-12.206L88.56,106.5a6.947,6.947,0,0,0,3.652-6.119V94.225a9.72,9.72,0,0,1,6.574-9.22L118.67,78.14a2.188,2.188,0,0,1,2.695,3l-.341.73a6.333,6.333,0,0,0,2.922,8.311l4.237,2.126a184.07,184.07,0,0,0,23.7,9.836l18.764,6.3a21.62,21.62,0,0,1,14.739,19.9l.779,4.772a1.8,1.8,0,0,0,3.246.747l5.145-7.288a1.968,1.968,0,0,1,1.169-.649,1.943,1.943,0,0,1,2.094,2.727c-3.49,7.726-8.587,28.552-14.365,41.359A19.546,19.546,0,0,0,182.039,175.579Z"/><path class="b" d="M182.039,175.579V121.365h-12.06V185.2h11.882a100.429,100.429,0,0,0,1.428,11.541,17.98,17.98,0,0,1,.649,11.378H122.42s-1.428-.828-3.344-1.948A15.107,15.107,0,0,1,112,189.652l.081-.357a29.707,29.707,0,0,0,.633-4.09h.13L124.9,143l11.882,42.2h12.628l16.751-63.84H153.52L143.2,169.119l-12.45-45.936H119.839l-11.719,43.6a22.553,22.553,0,0,0-1.639-2.289l-9.414-43.128H83.853l8.132,31.376-5.162-3.668A14.353,14.353,0,0,1,80.8,136.525l.519-8.911a10.18,10.18,0,0,0-.243-2.97l-1.007-4.35a11.06,11.06,0,0,1,5.535-12.206L88.56,106.5a6.947,6.947,0,0,0,3.652-6.119V94.225a9.72,9.72,0,0,1,6.574-9.22L118.67,78.14a2.188,2.188,0,0,1,2.695,3l-.341.73a6.333,6.333,0,0,0,2.922,8.311l4.237,2.126a184.07,184.07,0,0,0,23.7,9.836l18.764,6.3a21.62,21.62,0,0,1,14.739,19.9l.779,4.772a1.8,1.8,0,0,0,3.246.747l5.145-7.288a1.968,1.968,0,0,1,1.169-.649,1.943,1.943,0,0,1,2.094,2.727c-3.49,7.726-8.587,28.552-14.365,41.359A19.546,19.546,0,0,0,182.039,175.579Z"/><path class="c" d="M143.992,0A144,144,0,1,0,288,144.008,144,144,0,0,0,143.992,0Zm53.824,128.653c-3.49,7.726-8.587,28.552-14.365,41.359a19.546,19.546,0,0,0-1.412,5.567V121.365h-12.06V185.2h11.882a100.429,100.429,0,0,0,1.428,11.541,17.98,17.98,0,0,1,.649,11.378H122.42s-1.428-.828-3.344-1.948A15.107,15.107,0,0,1,112,189.652l.081-.357a29.707,29.707,0,0,0,.633-4.09h.13L124.9,143l11.882,42.2h12.628l16.751-63.84H153.52L143.2,169.119l-12.45-45.936H119.839l-11.719,43.6-.633,2.337-1.007-4.626-9.414-43.128H83.853l8.132,31.376-5.162-3.668A14.353,14.353,0,0,1,80.8,136.525l.519-8.911a10.18,10.18,0,0,0-.243-2.97l-1.007-4.35a11.06,11.06,0,0,1,5.535-12.206L88.56,106.5a6.947,6.947,0,0,0,3.652-6.119V94.225a9.72,9.72,0,0,1,6.574-9.22L118.67,78.14a2.188,2.188,0,0,1,2.695,3l-.341.73a6.333,6.333,0,0,0,2.922,8.311l4.237,2.126a184.07,184.07,0,0,0,23.7,9.836l18.764,6.3a21.62,21.62,0,0,1,14.739,19.9l.779,4.772a1.8,1.8,0,0,0,3.246.747l5.145-7.288a1.968,1.968,0,0,1,1.169-.649A1.943,1.943,0,0,1,197.816,128.653Z"/><circle class="d" cx="234.633" cy="53.367" r="43.367"/><path class="b" d="M210.572,41.239a4.385,4.385,0,0,1,3.089,1.36l-1.3,1.456a2.467,2.467,0,0,0-1.761-.784c-1.457,0-2.593,1.265-2.593,3.361,0,2.146,1.008,3.394,2.529,3.394a2.557,2.557,0,0,0,1.984-.929l1.3,1.425a4.26,4.26,0,0,1-3.313,1.537c-2.705,0-4.914-1.841-4.914-5.347C205.594,43.256,207.883,41.239,210.572,41.239Z"/><path class="b" d="M215.034,41.431h2.353v5.843c0,2.049.64,2.753,1.809,2.753s1.857-.7,1.857-2.753V41.431h2.273v5.6c0,3.506-1.425,5.026-4.13,5.026s-4.162-1.521-4.162-5.026Z"/><path class="b" d="M226.218,48.938a4.155,4.155,0,0,0,2.561,1.088c.977,0,1.457-.384,1.457-1.009,0-.656-.592-.864-1.5-1.248l-1.345-.576a3.035,3.035,0,0,1-2.113-2.85c0-1.729,1.553-3.1,3.713-3.1a4.83,4.83,0,0,1,3.361,1.376L231.164,44.1a3.423,3.423,0,0,0-2.177-.833c-.8,0-1.329.353-1.329.944,0,.641.688.864,1.6,1.232l1.329.545a2.877,2.877,0,0,1,2.065,2.833c0,1.729-1.44,3.233-3.921,3.233a5.784,5.784,0,0,1-3.874-1.5Z"/><path class="b" d="M236.122,43.416h-2.881V41.431h8.1v1.985h-2.865v8.451h-2.353Z"/><path class="b" d="M242.01,46.6c0-3.409,1.937-5.361,4.738-5.361,2.817,0,4.738,1.969,4.738,5.361,0,3.41-1.921,5.459-4.738,5.459C243.947,52.06,242.01,50.011,242.01,46.6Zm7.059,0c0-2.08-.9-3.329-2.321-3.329-1.408,0-2.321,1.249-2.321,3.329,0,2.1.913,3.426,2.321,3.426C248.172,50.026,249.069,48.7,249.069,46.6Z"/><path class="b" d="M253.433,41.431h2.5l1.745,4.69.625,1.824h.064l.624-1.824,1.7-4.69h2.5V51.867h-2.209V48.042c0-1.024.192-2.545.3-3.554h-.064l-.848,2.417-1.617,4.05H257.8l-1.6-4.05-.833-2.417h-.064c.112,1.009.3,2.529.3,3.554v3.825h-2.177Z"/><path class="b" d="M215.09,66.139a4.155,4.155,0,0,0,2.561,1.088c.977,0,1.457-.384,1.457-1.009,0-.656-.592-.864-1.5-1.248l-1.345-.576a3.035,3.035,0,0,1-2.113-2.85c0-1.729,1.553-3.1,3.713-3.1a4.83,4.83,0,0,1,3.361,1.376L220.036,61.3a3.423,3.423,0,0,0-2.177-.833c-.8,0-1.329.353-1.329.944,0,.641.688.864,1.6,1.232l1.329.545a2.877,2.877,0,0,1,2.065,2.833c0,1.729-1.44,3.233-3.921,3.233a5.784,5.784,0,0,1-3.874-1.5Z"/><path class="b" d="M224.994,60.616h-2.881V58.631h8.1v1.985h-2.865v8.451h-2.353Z"/><path class="b" d="M236.1,66.586h-3.2l-.64,2.481h-2.4l3.281-10.437h2.817l3.281,10.437h-2.5Zm-.48-1.84-.256-.961c-.288-1.04-.56-2.272-.848-3.361h-.064c-.24,1.1-.528,2.321-.816,3.361l-.256.961Z"/><path class="b" d="M241.73,60.616h-2.881V58.631h8.1v1.985h-2.865v8.451H241.73Z"/><path class="b" d="M248.561,58.631h6.547v1.985H250.93v2.1h3.553v1.969H250.93v2.4h4.338v1.984h-6.707Z"/></svg>