<?xml version="1.0" encoding="utf-8"?>
<!-- Generator: Adobe Illustrator 19.2.1, SVG Export Plug-In . SVG Version: 6.00 Build 0)  -->
<svg version="1.1" xmlns="http://www.w3.org/2000/svg" xmlns:xlink="http://www.w3.org/1999/xlink" x="0px" y="0px"
	 width="177.432px" height="177.432px" viewBox="0 0 177.432 177.432" enable-background="new 0 0 177.432 177.432"
	 xml:space="preserve">
<g id="Layer_1">
	<circle fill="#0D090A" cx="88.716" cy="88.716" r="88.716"/>
	<path fill="#FFFFFF" d="M101.44,46.269c-9.336,0-18.673,0-28.009,0c0.037,1.25,2.681,4.12,3.536,5.229
		c2.191,2.843,2.4,2.603,0.996,5.925c-0.915,2.163-0.436,3.573-2.841,4.522c-2.474,0.976-5.445,0.002-6.151,3.646
		c-0.258,1.33,0.81,2.416,0.751,3.526c-0.068,1.286-0.688,1.549-1.061,2.636c-0.544,1.585-1.074,2.186-2.018,3.452
		c-0.727,0.974-1.223,1.184-1.761,2.432v0c-0.74,1.125-1.196,2.413-1.327,3.754l-0.076,0.78c-0.634,4.871,3.024,8.152,5.933,11.399
		c1.349,1.505,2.829,2.818,3.272,4.801c0.484,2.167-0.876,3.407,1.865,3.755c2.185,0.278,4.029-1.878,5.127,1.558
		c0.777,2.432-1.067,3.732-2.031,5.621c-1.637,3.205-0.132,5.324,3.019,7.002c2.579,1.374,2.829,1.405,4.432,3.651
		c1.135,1.59,2.635,1.637,2.545,4.012c-0.06,1.577-1.429,2.19-1.358,3.346c0.144,2.339,3.293,4.146,4.802,3.817
		c0.258-0.056,0.753-2.287,1.01-2.534c1.966-1.892,3.047-0.219,4.799,0.515c1.09,0.456,1.291,1.482,2.303,0.273
		c1.136-1.357-1.177-2.932-0.944-3.91c0.256-1.074,1.19-0.92,2.101-1.569c1.956-1.393,1.303-0.556,1.954-2.375
		c0.492-1.374,0.354-3.984,0.807-5.715c0.897-3.424,3.073-6.225,4.845-9.647c0.553-1.068,1.838-2.232,1.95-3.508
		c0.17-1.941-1.066-2.245-1.577-3.751c-0.671-1.979,0.065-2.481,0.42-4.433c0.718-3.953,0-8.721,0-12.729c0-5.837,0-11.675,0-17.512
		c0-4.059-0.279-5.303-1.726-8.915l-2.396-3.938l-0.579-1.124c-0.651-1.264-0.598-2.776,0.14-3.992v0H101.44z"/>
</g>
<g id="Layer_2" display="none">
</g>
</svg>
