<svg xmlns="http://www.w3.org/2000/svg" xmlns:xlink="http://www.w3.org/1999/xlink" width="350" height="350" viewBox="0 0 350 350"><defs><style>.a{fill:none;}.b{isolation:isolate;}.c{opacity:0.2;}.c,.j{mix-blend-mode:multiply;}.d{fill:#a9afbd;}.e{fill:#92969f;}.f{fill:#f3f3f5;}.g,.h{fill:#d6d8de;}.h{opacity:0.5;}.i{clip-path:url(#a);}.j{opacity:0.3;}</style><clipPath id="a"><path class="a" d="M252.787,121.382l-22.836,155.1a17.726,17.726,0,0,1-17.537,15.144H131.03a17.726,17.726,0,0,1-17.537-15.144l-22.836-155.1H252.787Z"/></clipPath></defs><title>help-trash</title><g class="b"><g class="c"><path class="d" d="M269.182,297.4c0,4.656-14.382,8.422-32.138,8.422-10.4,0-19.636-1.294-25.507-3.3a63.419,63.419,0,0,0-22.427-3.178c-5.77.172-11.795,0.263-17.992,0.263-42.3,0-76.586-4.211-76.586-9.4s34.288-9.4,76.586-9.4c40.159,0,73.1,3.8,76.319,8.622C260.091,290.547,269.182,293.7,269.182,297.4Z"/></g><path class="d" d="M252.787,121.382l-22.836,155.1a17.726,17.726,0,0,1-17.537,15.144H131.03a17.726,17.726,0,0,1-17.537-15.144l-22.836-155.1H252.787Z"/><path class="e" d="M248.828,124.8L226.569,275.982a14.39,14.39,0,0,1-14.155,12.224H131.03a14.39,14.39,0,0,1-14.155-12.224L94.615,124.8H248.828m3.958-3.418H90.657l22.836,155.1a17.726,17.726,0,0,0,17.537,15.144h81.384a17.726,17.726,0,0,0,17.537-15.144l22.836-155.1h0Z"/><path class="f" d="M175.5,45.433c-0.428-.264-1.041-0.037-1.919.358q-9.842,4.435-19.628,8.992a5.955,5.955,0,0,0-2.166,1.429c-1.1,1.322-.536,3.122-0.357,4.656,1.368,11.753,5.7,23.039,11.645,33.266,1.387,2.384,2.789,2.86,5.351,1.813,6.646-2.716,13.554-5.089,19.745-8.773A54.112,54.112,0,0,0,203.45,73.6l0.062-.081c0.771-1.01-1.377-.92-1.952-1.013-1.183-.191-2.362-0.412-3.533-0.672a45.235,45.235,0,0,1-6.781-2.034,22.336,22.336,0,0,1-8.172-5.264,21.036,21.036,0,0,1-4.139-6.147,34.765,34.765,0,0,1-2.161-7.852c-0.24-1.336-.36-2.728-0.686-4.045A1.63,1.63,0,0,0,175.5,45.433Z"/><path class="g" d="M166.228,97.6c-1.692,0-3-.94-4.134-2.9C155.567,83.489,151.6,72.147,150.3,61c-0.03-.258-0.072-0.523-0.114-0.793-0.226-1.443-.506-3.238.726-4.722a6.961,6.961,0,0,1,2.562-1.733c6.471-3.014,13.08-6.041,19.641-9,0.889-.4,2-0.9,2.984-0.29h0a2.734,2.734,0,0,1,1.094,1.758c0.218,0.882.348,1.782,0.473,2.652,0.071,0.491.141,0.981,0.228,1.464a33.772,33.772,0,0,0,2.083,7.6,19.785,19.785,0,0,0,3.915,5.813,21.082,21.082,0,0,0,7.769,4.994,43.69,43.69,0,0,0,6.61,1.982c1.1,0.242,2.264.464,3.468,0.659,0.081,0.013.2,0.019,0.343,0.029,0.911,0.063,2.159.149,2.6,1.13a1.576,1.576,0,0,1-.271,1.67l-0.063.083a55.62,55.62,0,0,1-15.6,13.857,106.094,106.094,0,0,1-15.519,7.1c-1.465.577-2.927,1.153-4.377,1.746A7.041,7.041,0,0,1,166.228,97.6ZM174.9,46.491a7.453,7.453,0,0,0-.849.339c-6.553,2.954-13.152,5.977-19.615,8.986a5.083,5.083,0,0,0-1.771,1.124c-0.535.644-.437,1.572-0.228,2.914,0.047,0.3.092,0.6,0.126,0.881,1.261,10.835,5.13,21.879,11.5,32.826,1.1,1.885,1.907,2.16,3.935,1.331,1.459-.6,2.93-1.176,4.4-1.757a104.456,104.456,0,0,0,15.189-6.941A53.4,53.4,0,0,0,201.94,73.685h-0.011c-0.226-.016-0.42-0.032-0.55-0.053-1.247-.2-2.457-0.432-3.6-0.684a45.923,45.923,0,0,1-6.952-2.086,23.273,23.273,0,0,1-8.575-5.533,22.067,22.067,0,0,1-4.363-6.481,35.8,35.8,0,0,1-2.238-8.107c-0.091-.508-0.166-1.024-0.24-1.542-0.123-.853-0.239-1.658-0.43-2.432A2.55,2.55,0,0,0,174.9,46.491Z"/><path class="h" d="M166.114,108.524a9.721,9.721,0,0,1-9.133-6.513,1.139,1.139,0,0,1,2.174-.684,7.4,7.4,0,0,0,8.691,4.679,1.14,1.14,0,1,1,.626,2.191A8.589,8.589,0,0,1,166.114,108.524Z"/><g class="i"><g class="j"><path class="d" d="M264.3,128.49l-1.042,6.692a2.7,2.7,0,0,1-2.672,2.288H82.856a2.7,2.7,0,0,1-2.672-2.288l-1.042-6.692a2.7,2.7,0,0,1,2.672-3.12H261.63A2.7,2.7,0,0,1,264.3,128.49Z"/></g></g><path class="d" d="M260.883,122.793l-1.042,6.692a2.7,2.7,0,0,1-2.672,2.288H86.274a2.7,2.7,0,0,1-2.672-2.288l-1.042-6.692a2.7,2.7,0,0,1,2.672-3.12H258.212A2.7,2.7,0,0,1,260.883,122.793Z"/><path class="e" d="M257.17,133.482H86.274a4.39,4.39,0,0,1-4.36-3.734l-1.042-6.691a4.413,4.413,0,0,1,4.36-5.092H258.212a4.413,4.413,0,0,1,4.36,5.092l-1.042,6.691A4.39,4.39,0,0,1,257.17,133.482Zm-171.937-12.1a0.995,0.995,0,0,0-.983,1.148l1.042,6.691a0.99,0.99,0,0,0,.983.842h170.9a0.99,0.99,0,0,0,.983-0.842l1.042-6.691a0.995,0.995,0,0,0-.983-1.148H85.232Z"/><path class="g" d="M143.839,55.519a1.14,1.14,0,0,1-1.048-.692c-2.136-5,2.771-8.837,5.664-10.17a1.139,1.139,0,0,1,.956,2.069c-0.259.12-6.324,3-4.524,7.206A1.14,1.14,0,0,1,143.839,55.519Z"/><path class="f" d="M251.375,270.906a45.009,45.009,0,0,0-.05-4.758,1.75,1.75,0,0,0-.244-0.925c-0.555-.773-1.74-0.252-2.6.16-3.682,1.782-8.028.05-12.121,0.093a27.755,27.755,0,0,0-5.96.933,10.083,10.083,0,0,0-4.875,2.1c-1.992,1.9-2.085,4.976-2.026,7.733-3.867,2.287-8.12,4.707-10.76,8.053,1.53,2.707,4.859,3,4.556,7.053-0.135,1.782-.942,3.875.311,5.153a4.219,4.219,0,0,0,2.286.942q2.4,0.466,4.783.933a2.346,2.346,0,0,0,.967.042,2.318,2.318,0,0,0,1.084-.79c0.782-.857,1.572-1.723,2.362-2.581a1.052,1.052,0,0,1,.664-0.429,1.021,1.021,0,0,1,.656.294c1.421,1.16,2.513,2.69,3.959,3.816,1.614,1.261,4.564,2.219,6.052.261l-0.445-.605c1.513,1.4,3.236,2.69,4.707,2.286,3.943-1.093,6.414-2.185,10.356-3.278a6.929,6.929,0,0,0,3.152-1.479c0.983-.975,1.295-2.421,2.043-3.589a1.855,1.855,0,0,0,.361-0.756,1.606,1.606,0,0,0-.143-0.706,78.354,78.354,0,0,1-2.387-7.557,8.862,8.862,0,0,0,.807-1.042,3.323,3.323,0,0,0,.664-2.295,5.629,5.629,0,0,0-1.387-2.27,7.449,7.449,0,0,1-1.5-4.195,2.4,2.4,0,0,0-.5-1.8,1.935,1.935,0,0,0-.967-0.361Z"/><path class="g" d="M244.1,301.783a6.006,6.006,0,0,1-3.5-1.5,3.855,3.855,0,0,1-1.96.824,7.153,7.153,0,0,1-4.91-1.56,19.65,19.65,0,0,1-2.18-2.081,20.437,20.437,0,0,0-1.726-1.69c-0.792.86-1.568,1.71-2.335,2.552a2.735,2.735,0,0,1-3,1.068l-4.792-.935a5.134,5.134,0,0,1-2.825-1.23c-1.314-1.341-1.015-3.2-.774-4.7,0.068-.426.138-0.85,0.169-1.257,0.152-2.039-.773-2.81-2.053-3.877a9.415,9.415,0,0,1-2.373-2.589l-0.341-.6,0.43-.544c2.634-3.337,6.628-5.695,10.491-7.975l0.038-.022c-0.027-2.812.225-5.865,2.356-7.9a10.994,10.994,0,0,1,5.355-2.36,22.277,22.277,0,0,1,10.517-.591c2.667,0.354,5.186.689,7.347-.357,0.84-.4,2.8-1.347,3.887.168a2.621,2.621,0,0,1,.434,1.432c0.084,1.319.112,2.634,0.084,3.935l2.863,0.329a2.986,2.986,0,0,1,1.527.609,3.04,3.04,0,0,1,.845,2.386l0.005,0.151a6.408,6.408,0,0,0,1.293,3.608c0.112,0.15.229,0.292,0.345,0.435a4.9,4.9,0,0,1,1.241,2.3,4.263,4.263,0,0,1-.819,3.026c-0.168.254-.345,0.5-0.537,0.736,0.552,2.092,1.247,4.26,2.224,6.944a2.545,2.545,0,0,1,.2,1.172,2.515,2.515,0,0,1-.467,1.122,10.34,10.34,0,0,0-.72,1.392,7.732,7.732,0,0,1-1.517,2.453,7.811,7.811,0,0,1-3.607,1.742c-1.939.538-3.555,1.088-5.118,1.621-1.59.542-3.235,1.1-5.235,1.657A3.241,3.241,0,0,1,244.1,301.783Zm-3.425-4.157c0.635,0.586,2.569,2.367,3.733,2.05,1.939-.538,3.556-1.088,5.118-1.621,1.59-.542,3.235-1.1,5.235-1.657a6.013,6.013,0,0,0,2.7-1.218,6.119,6.119,0,0,0,1.089-1.838,12.069,12.069,0,0,1,.81-1.574l0.064-.1a1.832,1.832,0,0,0,.145-0.244,1.046,1.046,0,0,1-.09-0.2,78.262,78.262,0,0,1-2.419-7.661l-0.136-.534,0.368-.41a7.827,7.827,0,0,0,.713-0.921,2.329,2.329,0,0,0,.507-1.556,3.3,3.3,0,0,0-.8-1.327c-0.133-.164-0.265-0.327-0.389-0.491a8.491,8.491,0,0,1-1.711-4.776l-0.006-.162a2.253,2.253,0,0,0-.132-0.894,1.405,1.405,0,0,0-.465-0.125l-4.708-.54,0.041-.961a44.078,44.078,0,0,0-.049-4.648,1.948,1.948,0,0,0-.055-0.394,5.143,5.143,0,0,0-1.308.5c-2.718,1.314-5.666.923-8.517,0.544a28.139,28.139,0,0,0-4.041-.351,26.874,26.874,0,0,0-5.688.9,9.385,9.385,0,0,0-4.442,1.852c-1.68,1.6-1.765,4.319-1.709,6.966l0.013,0.6-1.076.636c-3.462,2.043-7.035,4.152-9.441,6.9a10.075,10.075,0,0,0,1.509,1.443c1.416,1.181,3.021,2.52,2.79,5.62-0.035.463-.111,0.946-0.189,1.43-0.233,1.449-.335,2.368.208,2.922a3.4,3.4,0,0,0,1.745.65l4.785,0.934a1.81,1.81,0,0,0,.53.051,1.972,1.972,0,0,0,.564-0.486c0.778-.854,1.569-1.72,2.361-2.579a2.016,2.016,0,0,1,1.36-.76,1.972,1.972,0,0,1,1.357.512,21.386,21.386,0,0,1,2.008,1.944,17.791,17.791,0,0,0,1.949,1.87,5.03,5.03,0,0,0,3.373,1.14,1.732,1.732,0,0,0,1.22-.688l0.136,0.1Z"/><path class="f" d="M230.412,280.431c1.652-1.559-1.142-6.181-2.992-7.5-4.447,2.858-11.36,7.161-14.678,11.365,1.532,2.7,4.861,3,4.556,7.051-0.134,1.783-.945,3.876.307,5.152a4.211,4.211,0,0,0,2.287.946l4.789,0.929a1.728,1.728,0,0,0,2.046-.745l2.36-2.579a1.067,1.067,0,0,1,.669-0.43,1.013,1.013,0,0,1,.653.3c1.424,1.159,2.519,2.684,3.964,3.816,1.607,1.26,4.564,2.219,6.052.257"/><path class="g" d="M238.038,301.143a7.479,7.479,0,0,1-4.3-1.6,20.1,20.1,0,0,1-2.165-2.067,20.467,20.467,0,0,0-1.746-1.705l-2.335,2.552a3.247,3.247,0,0,1-1.613,1.1,3.208,3.208,0,0,1-1.391-.04l-4.79-.929a5.133,5.133,0,0,1-2.828-1.236c-1.312-1.337-1.011-3.2-.77-4.691,0.069-.428.139-0.854,0.17-1.263,0.154-2.038-.772-2.81-2.053-3.878a9.434,9.434,0,0,1-2.371-2.585l-0.343-.6,0.43-.545c3.235-4.1,9.54-8.14,14.143-11.089l1.376-.883,0.57,0.406a11.036,11.036,0,0,1,3.918,6.691,2.865,2.865,0,0,1-.817,2.4,1.033,1.033,0,0,1-1.418-1.5,1,1,0,0,0,.173-0.756,9.244,9.244,0,0,0-2.541-4.709l-0.146.094c-4.256,2.727-10.006,6.412-13.159,10.054a10.065,10.065,0,0,0,1.508,1.442c1.417,1.182,3.024,2.522,2.791,5.621-0.035.465-.112,0.95-0.191,1.437-0.233,1.446-.336,2.363.2,2.914a3.437,3.437,0,0,0,1.747.655l4.789,0.929a1.783,1.783,0,0,0,.523.057,1.877,1.877,0,0,0,.563-0.486l2.359-2.579a2.031,2.031,0,0,1,1.378-.765,1.973,1.973,0,0,1,1.357.527,21.434,21.434,0,0,1,2.011,1.944,18.265,18.265,0,0,0,1.939,1.861,5.089,5.089,0,0,0,3.367,1.136,1.735,1.735,0,0,0,1.224-.69,1.033,1.033,0,1,1,1.647,1.248,3.807,3.807,0,0,1-2.605,1.492A4.723,4.723,0,0,1,238.038,301.143Z"/><path class="f" d="M240.554,291.12a14.261,14.261,0,0,0-3.1,4.878c1.747,1.439,4.82,5.339,7.228,4.672,3.944-1.092,6.417-2.184,10.361-3.277a6.954,6.954,0,0,0,3.151-1.483c0.981-.971,1.292-2.421,2.039-3.582a1.856,1.856,0,0,0,.363-0.76,1.584,1.584,0,0,0-.14-0.7,67.109,67.109,0,0,1-3.046-10.5"/><path class="g" d="M244.1,301.782c-2.14,0-4.247-2.058-5.98-3.75-0.491-.48-0.955-0.933-1.322-1.235l-0.571-.471,0.262-.693a15.37,15.37,0,0,1,3.328-5.232,1.033,1.033,0,1,1,1.481,1.44,13.3,13.3,0,0,0-2.608,3.87c0.278,0.259.571,0.545,0.875,0.842,1.418,1.385,3.558,3.481,4.843,3.121,1.943-.538,3.561-1.088,5.125-1.621,1.591-.542,3.236-1.1,5.236-1.656a6.2,6.2,0,0,0,2.7-1.221,6.073,6.073,0,0,0,1.084-1.828,11.942,11.942,0,0,1,.814-1.579l0.058-.089a1.922,1.922,0,0,0,.152-0.255,0.677,0.677,0,0,1-.09-0.208,68.95,68.95,0,0,1-3.09-10.657,1.033,1.033,0,1,1,2.029-.392,67.083,67.083,0,0,0,3,10.341,2.177,2.177,0,0,1-.276,2.3,10.2,10.2,0,0,0-.717,1.387,7.7,7.7,0,0,1-1.512,2.444,7.862,7.862,0,0,1-3.6,1.745c-1.942.538-3.559,1.088-5.122,1.62-1.592.542-3.238,1.1-5.239,1.656A3.213,3.213,0,0,1,244.1,301.782Z"/><path class="f" d="M251.886,286.348a9.081,9.081,0,0,0,6.984-4.083,3.345,3.345,0,0,0,.669-2.3,5.622,5.622,0,0,0-1.39-2.269,7.471,7.471,0,0,1-1.506-4.2,2.4,2.4,0,0,0-.489-1.794,1.907,1.907,0,0,0-.971-0.362,14.073,14.073,0,0,0-6.629.52"/><path class="g" d="M251.885,287.382a1.034,1.034,0,0,1-.056-2.065A8.026,8.026,0,0,0,258,281.7a2.375,2.375,0,0,0,.517-1.562,3.365,3.365,0,0,0-.816-1.34c-0.129-.158-0.257-0.315-0.378-0.474a8.525,8.525,0,0,1-1.716-4.783l-0.006-.17a2.257,2.257,0,0,0-.128-0.884,1.181,1.181,0,0,0-.458-0.122,13.05,13.05,0,0,0-6.14.481,1.033,1.033,0,0,1-.649-1.962,15.1,15.1,0,0,1,7.118-.56,2.837,2.837,0,0,1,1.483.6,3.033,3.033,0,0,1,.84,2.378l0.005,0.157a6.439,6.439,0,0,0,1.3,3.613c0.106,0.141.22,0.279,0.333,0.417a4.96,4.96,0,0,1,1.254,2.307,4.232,4.232,0,0,1-.821,3.028,10.126,10.126,0,0,1-7.794,4.553Z"/><path class="g" d="M222.467,275.237c-0.069-3,.059-5.294,2.341-7.477a11.074,11.074,0,0,1,5.363-2.359,28.537,28.537,0,0,1,6.184-.959,31.037,31.037,0,0,1,4.328.369c2.667,0.354,5.186.689,7.354-.356,0.837-.4,2.8-1.349,3.885.166a2.712,2.712,0,0,1,.432,1.462,45.741,45.741,0,0,1,.057,4.869l-2.065-.087a43.526,43.526,0,0,0-.054-4.647,1.762,1.762,0,0,0-.056-0.4,5.783,5.783,0,0,0-1.3.5c-2.724,1.315-5.673.923-8.524,0.543a30.85,30.85,0,0,0-4.036-.351,26.975,26.975,0,0,0-5.736.906,9.367,9.367,0,0,0-4.4,1.839c-1.623,1.552-1.769,3.071-1.7,5.936Z"/></g></svg>