<?xml version="1.0" encoding="utf-8"?>
<!-- Generator: Adobe Illustrator 19.2.0, SVG Export Plug-In . SVG Version: 6.00 Build 0)  -->
<svg version="1.1" id="Layer_1" xmlns="http://www.w3.org/2000/svg" xmlns:xlink="http://www.w3.org/1999/xlink" x="0px" y="0px"
	 width="350px" height="350px" viewBox="0 0 350 350" enable-background="new 0 0 350 350" xml:space="preserve">
<g>
	<g opacity="0.2">
		
			<rect x="50.496" y="65.419" transform="matrix(0.9411 -0.338 0.338 0.9411 -55.7321 42.7896)" fill="#A9AFBD" width="89" height="232"/>
	</g>
	<g>
		<g>
			<path fill="#D6D8DE" d="M65.974,277.279h255.153c7.438,0,13.468-6.03,13.468-13.468V101.026c0-7.438-6.03-13.468-13.468-13.468
				H65.974c-7.438,0-13.468,6.03-13.468,13.468v162.784C52.506,271.249,58.536,277.279,65.974,277.279z"/>
			<path fill="#A9AFBD" d="M321.127,278.779H65.974c-8.253,0-14.968-6.715-14.968-14.968V101.026
				c0-8.253,6.715-14.968,14.968-14.968h255.153c8.253,0,14.968,6.715,14.968,14.968v162.785
				C336.095,272.065,329.38,278.779,321.127,278.779z M65.974,89.058c-6.599,0-11.968,5.369-11.968,11.968v162.785
				c0,6.599,5.369,11.968,11.968,11.968h255.153c6.599,0,11.968-5.369,11.968-11.968V101.026c0-6.599-5.369-11.968-11.968-11.968
				H65.974z"/>
		</g>
		<g opacity="0.8">
			<path fill="#F0F6FC" d="M215.272,169.537c-8.914,5.913-7.811,18.258,1.665,22.666c-0.775,1.725-1.407,3.542-2.366,5.166
				c-1.322,2.236-2.767,4.425-4.381,6.458c-2.904,3.656-6.017,4.398-10.298,2.474c-3.586-1.612-7.067-1.636-10.629-0.005
				c-1.016,0.465-2.124,0.807-3.225,0.994c-2.421,0.41-4.358-0.659-5.98-2.333c-3.014-3.112-5.351-6.69-7.034-10.68
				c-2.067-4.901-3.2-9.987-2.769-15.338c0.299-3.713,1.459-7.118,3.913-9.984c4.097-4.785,9.718-6.021,15.928-3.547
				c0.35,0.14,0.708,0.265,1.046,0.429c1.783,0.865,3.546,0.831,5.354,0.024c1.155-0.516,2.359-0.933,3.564-1.324
				C205.685,162.713,211.978,164.772,215.272,169.537z"/>
			<path fill="#F0F6FC" d="M193.52,163.157c-1.432-5.323,5.448-13.271,11.285-13.035
				C205.876,155.826,200.105,163.822,193.52,163.157z"/>
		</g>
		<g>
			<defs>
				<path id="SVGID_9_" d="M336.091,101.025v162.79c0,8.25-6.71,14.96-14.96,14.96H65.971c-8.25,0-14.97-6.71-14.97-14.96v-162.79
					c0-8.25,6.72-14.97,14.97-14.97h255.16C329.381,86.055,336.091,92.775,336.091,101.025z"/>
			</defs>
			<clipPath id="SVGID_2_">
				<use xlink:href="#SVGID_9_"  overflow="visible"/>
			</clipPath>
			<g opacity="0.3" clip-path="url(#SVGID_2_)">
				
					<rect x="50.496" y="65.419" transform="matrix(0.9411 -0.338 0.338 0.9411 -55.7321 42.7896)" fill="#A9AFBD" width="89" height="232"/>
			</g>
		</g>
	</g>
	<path opacity="0.3" fill="#88CAD3" d="M176.8,192.907c3.197-6,8.927-10.596,15.477-12.414c2.954-0.82,6.026-1.093,9.05-1.595
		c9.903-1.644,19.376-5.815,27.275-12.01c2.821-2.212,5.616-5.001,6.01-8.565c0.589-5.324-4.333-9.582-9.105-12.014
		c-9.23-4.705-19.886-6.565-30.164-5.263c-11.068,1.402-21.874,6.36-32.938,4.927c-9.895-1.282-18.367-7.483-27.671-11.089
		c-19.147-7.421-42.39-2.817-57.263,11.341c-2.067,1.967-4.045,4.216-4.759,6.978c-0.889,3.439,0.325,7.056,1.802,10.286
		c9.123,19.945,28.983,32.808,50.255,36.393C141.135,202.64,168.346,208.775,176.8,192.907z"/>
	<g>
		<g>
			
				<rect x="55.496" y="56.419" transform="matrix(0.9411 -0.338 0.338 0.9411 -52.3956 43.95)" fill="#F3F3F5" width="89" height="232"/>
			<path fill="#A9AFBD" d="M102.666,48.205l78.421,218.344l-83.761,30.084L18.905,78.289L102.666,48.205 M104.475,44.367
				l-2.823,1.014L17.891,75.465l-2.823,1.014l1.014,2.823l78.421,218.344l1.014,2.823l2.823-1.014l83.761-30.084l2.823-1.014
				l-1.014-2.823L105.49,47.191L104.475,44.367L104.475,44.367z"/>
		</g>
		<g opacity="0.5">
			<defs>
				
					<rect id="SVGID_11_" x="55.496" y="56.419" transform="matrix(0.9411 -0.338 0.338 0.9411 -52.3956 43.95)" opacity="0.5" width="89" height="232"/>
			</defs>
			<clipPath id="SVGID_3_">
				<use xlink:href="#SVGID_11_"  overflow="visible"/>
			</clipPath>
			<g clip-path="url(#SVGID_3_)">
				<g>
					<path opacity="0.1" fill="#A29E9F" d="M124.188,97.16l-1.809-0.853l1.706-3.618l1.809,0.853L124.188,97.16z M119.239,95.932
						l-3.618-1.706l0.853-1.809l3.618,1.706L119.239,95.932z M112.003,92.521l-3.618-1.706l0.853-1.809l3.618,1.706L112.003,92.521z
						 M127.6,89.924l-1.809-0.853l1.706-3.618l1.809,0.853L127.6,89.924z M106.098,88.631l-1.809-0.853l1.706-3.618l1.809,0.853
						L106.098,88.631z M131.011,82.689l-1.809-0.853l1.706-3.618l1.809,0.853L131.011,82.689z M109.509,81.395l-1.809-0.853
						l1.706-3.618l1.809,0.853L109.509,81.395z M127.769,77.842l-3.618-1.706l0.853-1.809l3.618,1.706L127.769,77.842z
						 M120.533,74.431l-3.618-1.706l0.853-1.809l3.618,1.706L120.533,74.431z M112.921,74.159l-1.809-0.853l1.706-3.618l1.809,0.853
						L112.921,74.159z"/>
					<path opacity="0.1" fill="#A29E9F" d="M133.749,123.78l-1.809-0.853l1.706-3.618l1.809,0.853L133.749,123.78z M128.8,122.552
						l-3.618-1.706l0.853-1.809l3.618,1.706L128.8,122.552z M121.564,119.14l-3.618-1.706l0.853-1.809l3.618,1.706L121.564,119.14z
						 M137.16,116.544l-1.809-0.853l1.706-3.618l1.809,0.853L137.16,116.544z M115.659,115.251l-1.809-0.853l1.706-3.618
						l1.809,0.853L115.659,115.251z M140.572,109.308l-1.809-0.853l1.706-3.618l1.809,0.853L140.572,109.308z M119.07,108.015
						l-1.809-0.853l1.706-3.618l1.809,0.853L119.07,108.015z M137.329,104.462l-3.618-1.706l0.853-1.809l3.618,1.706
						L137.329,104.462z M130.093,101.05l-3.618-1.706l0.853-1.809l3.618,1.706L130.093,101.05z M122.482,100.778l-1.809-0.853
						l1.706-3.618l1.809,0.853L122.482,100.778z"/>
					<path opacity="0.1" fill="#A29E9F" d="M143.31,150.399l-1.809-0.853l1.706-3.618l1.809,0.853L143.31,150.399z M138.361,149.171
						l-3.618-1.706l0.853-1.809l3.618,1.706L138.361,149.171z M131.125,145.759l-3.618-1.706l0.853-1.809l3.618,1.706
						L131.125,145.759z M146.721,143.163l-1.809-0.853l1.706-3.618l1.809,0.853L146.721,143.163z M125.219,141.87l-1.809-0.853
						l1.706-3.618l1.809,0.853L125.219,141.87z M150.133,135.927l-1.809-0.853l1.706-3.618l1.809,0.853L150.133,135.927z
						 M128.631,134.634l-1.809-0.853l1.706-3.618l1.809,0.853L128.631,134.634z M146.89,131.081l-3.618-1.706l0.853-1.809
						l3.618,1.706L146.89,131.081z M139.654,127.67l-3.618-1.706l0.853-1.809l3.618,1.706L139.654,127.67z M132.043,127.398
						l-1.809-0.853l1.706-3.618l1.809,0.853L132.043,127.398z"/>
					<path opacity="0.1" fill="#A29E9F" d="M152.87,177.019l-1.809-0.853l1.706-3.618l1.809,0.853L152.87,177.019z M147.922,175.791
						l-3.618-1.706l0.853-1.809l3.618,1.706L147.922,175.791z M140.686,172.379l-3.618-1.706l0.853-1.809l3.618,1.706
						L140.686,172.379z M156.282,169.782l-1.809-0.853l1.706-3.618l1.809,0.853L156.282,169.782z M134.78,168.489l-1.809-0.853
						l1.706-3.618l1.809,0.853L134.78,168.489z M159.693,162.546l-1.809-0.853l1.706-3.618l1.809,0.853L159.693,162.546z
						 M138.192,161.254l-1.809-0.853l1.706-3.618l1.809,0.853L138.192,161.254z M156.451,157.7l-3.618-1.706l0.853-1.809
						l3.618,1.706L156.451,157.7z M149.215,154.289l-3.618-1.706l0.853-1.809l3.618,1.706L149.215,154.289z M141.604,154.017
						l-1.809-0.853l1.706-3.618l1.809,0.853L141.604,154.017z"/>
					<path opacity="0.1" fill="#A29E9F" d="M162.431,203.638l-1.809-0.853l1.706-3.618l1.809,0.853L162.431,203.638z
						 M157.482,202.41l-3.618-1.706l0.853-1.809l3.618,1.706L157.482,202.41z M150.246,198.998l-3.618-1.706l0.853-1.809
						l3.618,1.706L150.246,198.998z M165.843,196.402l-1.809-0.853l1.706-3.618l1.809,0.853L165.843,196.402z M144.341,195.108
						l-1.809-0.853l1.706-3.618l1.809,0.853L144.341,195.108z M169.254,189.166l-1.809-0.853l1.706-3.618l1.809,0.853
						L169.254,189.166z M147.753,187.873l-1.809-0.853l1.706-3.618l1.809,0.853L147.753,187.873z M166.012,184.32l-3.618-1.706
						l0.853-1.809l3.618,1.706L166.012,184.32z M158.776,180.908l-3.618-1.706l0.853-1.809l3.618,1.706L158.776,180.908z
						 M151.165,180.636l-1.809-0.853l1.706-3.618l1.809,0.853L151.165,180.636z"/>
					<path opacity="0.1" fill="#A29E9F" d="M171.992,230.257l-1.809-0.853l1.706-3.618l1.809,0.853L171.992,230.257z
						 M167.044,229.03l-3.618-1.706l0.853-1.809l3.618,1.706L167.044,229.03z M159.807,225.618l-3.618-1.706l0.854-1.809
						l3.618,1.706L159.807,225.618z M175.403,223.021l-1.809-0.853l1.706-3.618l1.809,0.853L175.403,223.021z M153.901,221.728
						l-1.809-0.853l1.705-3.618l1.809,0.853L153.901,221.728z M178.815,215.785l-1.809-0.853l1.706-3.618l1.809,0.852
						L178.815,215.785z M157.313,214.493l-1.809-0.853l1.706-3.618l1.809,0.853L157.313,214.493z M175.572,210.939l-3.618-1.706
						l0.853-1.809l3.618,1.706L175.572,210.939z M168.336,207.527l-3.618-1.706l0.853-1.809l3.618,1.706L168.336,207.527z
						 M160.725,207.256l-1.809-0.853l1.706-3.618l1.809,0.853L160.725,207.256z"/>
					<path opacity="0.1" fill="#A29E9F" d="M181.552,256.877l-1.809-0.853l1.706-3.618l1.809,0.853L181.552,256.877z
						 M176.604,255.649l-3.618-1.706l0.853-1.809l3.618,1.706L176.604,255.649z M169.368,252.237l-3.618-1.706l0.853-1.809
						l3.618,1.706L169.368,252.237z M184.964,249.641l-1.809-0.853l1.706-3.618l1.809,0.853L184.964,249.641z M163.462,248.347
						l-1.809-0.854l1.706-3.618l1.809,0.854L163.462,248.347z M188.376,242.405l-1.809-0.853l1.706-3.618l1.809,0.853
						L188.376,242.405z M166.875,241.111l-1.809-0.853l1.706-3.618l1.809,0.853L166.875,241.111z M185.134,237.559l-3.618-1.706
						l0.853-1.809l3.618,1.706L185.134,237.559z M177.898,234.148l-3.618-1.706l0.853-1.809l3.618,1.706L177.898,234.148z
						 M170.286,233.875l-1.809-0.853l1.706-3.617l1.809,0.853L170.286,233.875z"/>
					<path opacity="0.1" fill="#A29E9F" d="M191.113,283.496l-1.809-0.853l1.706-3.618l1.809,0.853L191.113,283.496z
						 M186.165,282.269l-3.618-1.706l0.853-1.809l3.618,1.706L186.165,282.269z M178.928,278.857l-3.618-1.706l0.854-1.809
						l3.618,1.706L178.928,278.857z M194.525,276.26l-1.809-0.853l1.706-3.618l1.809,0.853L194.525,276.26z M173.023,274.967
						l-1.809-0.853l1.705-3.618l1.809,0.853L173.023,274.967z M197.937,269.024l-1.809-0.853l1.706-3.618l1.808,0.852
						L197.937,269.024z M176.435,267.731l-1.809-0.853l1.706-3.618l1.809,0.853L176.435,267.731z M194.693,264.178l-3.618-1.706
						l0.853-1.809l3.618,1.706L194.693,264.178z M187.457,260.766l-3.618-1.706l0.853-1.809l3.618,1.706L187.457,260.766z
						 M179.846,260.495l-1.809-0.853l1.706-3.618l1.809,0.853L179.846,260.495z"/>
					<path opacity="0.1" fill="#A29E9F" d="M114.627,70.541l-1.809-0.853l1.706-3.618l1.809,0.853L114.627,70.541z M109.679,69.314
						l-3.618-1.706l0.853-1.809l3.618,1.706L109.679,69.314z M102.442,65.901l-3.618-1.706l0.853-1.809l3.618,1.706L102.442,65.901z
						 M118.039,63.305l-1.809-0.853l1.706-3.618l1.809,0.853L118.039,63.305z M96.537,62.012l-1.809-0.853l1.706-3.618l1.809,0.853
						L96.537,62.012z M121.45,56.069l-1.809-0.853l1.706-3.618l1.809,0.853L121.45,56.069z M99.949,54.776l-1.809-0.853l1.706-3.618
						l1.809,0.853L99.949,54.776z M118.208,51.223l-3.618-1.706l0.853-1.809l3.618,1.706L118.208,51.223z M110.972,47.811
						l-3.618-1.706l0.853-1.809l3.618,1.706L110.972,47.811z M103.36,47.54l-1.809-0.853l1.706-3.618l1.809,0.853L103.36,47.54z"/>
				</g>
				<g>
					<path opacity="0.1" fill="#A29E9F" d="M97.568,106.721l-1.809-0.853l1.706-3.618l1.809,0.853L97.568,106.721z M92.62,105.494
						l-3.618-1.706l0.853-1.809l3.618,1.706L92.62,105.494z M85.384,102.082l-3.618-1.706l0.853-1.809l3.618,1.706L85.384,102.082z
						 M100.98,99.485l-1.809-0.853l1.706-3.618l1.809,0.853L100.98,99.485z M79.479,98.192l-1.809-0.853l1.706-3.618l1.809,0.853
						L79.479,98.192z M104.392,92.249l-1.809-0.853l1.706-3.618l1.809,0.853L104.392,92.249z M82.89,90.956l-1.809-0.853
						l1.706-3.618l1.809,0.853L82.89,90.956z M101.149,87.403l-3.618-1.706l0.853-1.809l3.618,1.706L101.149,87.403z M93.913,83.991
						l-3.618-1.706l0.853-1.809l3.618,1.706L93.913,83.991z M86.302,83.72l-1.809-0.853l1.706-3.618l1.809,0.853L86.302,83.72z"/>
					<path opacity="0.1" fill="#A29E9F" d="M107.129,133.34l-1.809-0.853l1.706-3.618l1.809,0.853L107.129,133.34z M102.181,132.112
						l-3.618-1.706l0.853-1.809l3.618,1.706L102.181,132.112z M94.944,128.701l-3.618-1.706l0.853-1.809l3.618,1.706L94.944,128.701
						z M110.541,126.105l-1.809-0.853l1.706-3.618l1.809,0.853L110.541,126.105z M89.039,124.811l-1.809-0.853l1.706-3.618
						l1.809,0.853L89.039,124.811z M113.953,118.869l-1.809-0.853l1.706-3.618l1.809,0.853L113.953,118.869z M92.451,117.575
						l-1.809-0.853l1.706-3.618l1.809,0.853L92.451,117.575z M110.71,114.023l-3.618-1.706l0.853-1.809l3.618,1.706L110.71,114.023z
						 M103.474,110.611l-3.618-1.706l0.853-1.809l3.618,1.706L103.474,110.611z M95.863,110.339l-1.809-0.853l1.706-3.618
						l1.809,0.853L95.863,110.339z"/>
					<path opacity="0.1" fill="#A29E9F" d="M116.69,159.96l-1.809-0.853l1.706-3.618l1.809,0.853L116.69,159.96z M111.742,158.733
						l-3.618-1.706l0.853-1.809l3.618,1.706L111.742,158.733z M104.505,155.32l-3.618-1.706l0.853-1.809l3.618,1.706L104.505,155.32
						z M120.102,152.724l-1.809-0.853l1.706-3.618l1.809,0.853L120.102,152.724z M98.6,151.431l-1.809-0.853l1.706-3.618
						l1.809,0.853L98.6,151.431z M123.513,145.488l-1.809-0.853l1.706-3.618l1.809,0.853L123.513,145.488z M102.012,144.195
						l-1.809-0.853l1.706-3.618l1.809,0.853L102.012,144.195z M120.271,140.642l-3.618-1.706l0.853-1.809l3.618,1.706
						L120.271,140.642z M113.035,137.23l-3.618-1.706l0.853-1.809l3.618,1.706L113.035,137.23z M105.423,136.959l-1.809-0.853
						l1.706-3.618l1.809,0.853L105.423,136.959z"/>
					<path opacity="0.1" fill="#A29E9F" d="M126.251,186.579l-1.809-0.853l1.706-3.618l1.809,0.853L126.251,186.579z
						 M121.302,185.351l-3.618-1.706l0.853-1.809l3.618,1.706L121.302,185.351z M114.066,181.94l-3.618-1.706l0.853-1.809
						l3.618,1.706L114.066,181.94z M129.663,179.343l-1.809-0.853l1.706-3.618l1.809,0.853L129.663,179.343z M108.161,178.05
						l-1.809-0.853l1.706-3.618l1.809,0.853L108.161,178.05z M133.074,172.108l-1.809-0.853l1.706-3.618l1.809,0.853
						L133.074,172.108z M111.572,170.814l-1.809-0.853l1.706-3.618l1.809,0.853L111.572,170.814z M129.832,167.261l-3.618-1.706
						l0.853-1.809l3.618,1.706L129.832,167.261z M122.596,163.85l-3.618-1.706l0.853-1.809l3.618,1.706L122.596,163.85z
						 M114.984,163.578l-1.809-0.853l1.706-3.618l1.809,0.853L114.984,163.578z"/>
					<path opacity="0.1" fill="#A29E9F" d="M135.812,213.199l-1.809-0.853l1.706-3.618l1.809,0.853L135.812,213.199z
						 M130.863,211.971l-3.618-1.706l0.853-1.809l3.618,1.706L130.863,211.971z M123.627,208.559l-3.618-1.706l0.853-1.809
						l3.618,1.706L123.627,208.559z M139.223,205.962l-1.809-0.853l1.706-3.618l1.809,0.853L139.223,205.962z M117.722,204.67
						l-1.809-0.853l1.706-3.618l1.809,0.853L117.722,204.67z M142.635,198.727l-1.809-0.853l1.706-3.618l1.809,0.853
						L142.635,198.727z M121.133,197.434l-1.809-0.853l1.706-3.618l1.809,0.853L121.133,197.434z M139.392,193.88l-3.618-1.706
						l0.853-1.809l3.618,1.706L139.392,193.88z M132.156,190.469l-3.618-1.706l0.853-1.809l3.618,1.706L132.156,190.469z
						 M124.545,190.197l-1.809-0.853l1.706-3.618l1.809,0.853L124.545,190.197z"/>
					<path opacity="0.1" fill="#A29E9F" d="M145.372,239.818l-1.809-0.853l1.706-3.618l1.809,0.853L145.372,239.818z
						 M140.423,238.59l-3.618-1.706l0.853-1.809l3.618,1.706L140.423,238.59z M133.188,235.178l-3.618-1.706l0.853-1.809
						l3.618,1.706L133.188,235.178z M148.784,232.582l-1.809-0.853l1.706-3.618l1.809,0.853L148.784,232.582z M127.282,231.289
						l-1.809-0.854l1.706-3.618l1.809,0.854L127.282,231.289z M152.195,225.346l-1.809-0.853l1.706-3.618l1.809,0.853
						L152.195,225.346z M130.694,224.052l-1.809-0.853l1.706-3.618l1.809,0.853L130.694,224.052z M148.954,220.501l-3.618-1.706
						l0.853-1.809l3.618,1.706L148.954,220.501z M141.718,217.089l-3.618-1.706l0.853-1.809l3.618,1.706L141.718,217.089z
						 M134.106,216.816l-1.809-0.853l1.706-3.617l1.809,0.853L134.106,216.816z"/>
					<path opacity="0.1" fill="#A29E9F" d="M154.933,266.438l-1.809-0.853l1.706-3.618l1.809,0.853L154.933,266.438z
						 M149.985,265.21l-3.618-1.706l0.853-1.809l3.618,1.706L149.985,265.21z M142.748,261.798l-3.618-1.706l0.854-1.809
						l3.618,1.706L142.748,261.798z M158.345,259.201l-1.809-0.853l1.706-3.618l1.809,0.853L158.345,259.201z M136.843,257.908
						l-1.809-0.853l1.705-3.618l1.809,0.853L136.843,257.908z M161.757,251.965l-1.809-0.853l1.706-3.618l1.808,0.852
						L161.757,251.965z M140.254,250.672l-1.809-0.853l1.706-3.618l1.809,0.853L140.254,250.672z M158.513,247.119l-3.618-1.706
						l0.853-1.809l3.618,1.706L158.513,247.119z M151.277,243.708l-3.618-1.706l0.853-1.809l3.618,1.706L151.277,243.708z
						 M143.666,243.437l-1.809-0.853l1.706-3.618l1.809,0.853L143.666,243.437z"/>
					<path opacity="0.1" fill="#A29E9F" d="M164.494,293.057l-1.809-0.853l1.706-3.618l1.809,0.853L164.494,293.057z
						 M159.545,291.829l-3.618-1.706l0.853-1.809l3.618,1.706L159.545,291.829z M152.309,288.417l-3.618-1.706l0.853-1.809
						l3.618,1.706L152.309,288.417z M167.905,285.821l-1.809-0.853l1.706-3.618l1.809,0.853L167.905,285.821z M146.404,284.527
						l-1.809-0.854l1.706-3.618l1.809,0.854L146.404,284.527z M171.317,278.585l-1.809-0.853l1.706-3.618l1.809,0.853
						L171.317,278.585z M149.816,277.291l-1.809-0.853l1.706-3.618l1.809,0.853L149.816,277.291z M168.075,273.739l-3.618-1.706
						l0.853-1.809l3.618,1.706L168.075,273.739z M160.839,270.328l-3.618-1.706l0.853-1.809l3.618,1.706L160.839,270.328z
						 M153.228,270.055l-1.809-0.853l1.706-3.617l1.809,0.853L153.228,270.055z"/>
					<path opacity="0.1" fill="#A29E9F" d="M88.008,80.102l-1.809-0.853l1.706-3.618l1.809,0.853L88.008,80.102z M83.059,78.874
						l-3.618-1.706l0.853-1.809l3.618,1.706L83.059,78.874z M75.823,75.462l-3.618-1.706l0.853-1.809l3.618,1.706L75.823,75.462z
						 M91.419,72.866l-1.809-0.853l1.706-3.618l1.809,0.853L91.419,72.866z M69.918,71.572l-1.809-0.853l1.706-3.618l1.809,0.853
						L69.918,71.572z M94.831,65.63l-1.809-0.853l1.706-3.618l1.809,0.853L94.831,65.63z M73.33,64.337l-1.809-0.853l1.706-3.618
						l1.809,0.853L73.33,64.337z M91.589,60.784l-3.618-1.706l0.853-1.809l3.618,1.706L91.589,60.784z M84.353,57.372l-3.618-1.706
						l0.853-1.809l3.618,1.706L84.353,57.372z M76.741,57.101l-1.809-0.853l1.706-3.618l1.809,0.853L76.741,57.101z"/>
				</g>
				<g>
					<path opacity="0.1" fill="#A29E9F" d="M70.949,116.282l-1.809-0.853l1.706-3.618l1.809,0.853L70.949,116.282z M66.001,115.054
						l-3.618-1.706l0.853-1.809l3.618,1.706L66.001,115.054z M58.764,111.642l-3.618-1.706l0.853-1.809l3.618,1.706L58.764,111.642z
						 M74.361,109.046l-1.809-0.853l1.706-3.618l1.809,0.853L74.361,109.046z M52.859,107.753L51.05,106.9l1.706-3.618l1.809,0.853
						L52.859,107.753z M77.773,101.81l-1.809-0.853l1.706-3.618l1.809,0.853L77.773,101.81z M56.271,100.517l-1.809-0.853
						l1.706-3.618l1.809,0.853L56.271,100.517z M74.53,96.964l-3.618-1.706l0.853-1.809l3.618,1.706L74.53,96.964z M67.294,93.552
						l-3.618-1.706l0.853-1.809l3.618,1.706L67.294,93.552z M59.683,93.28l-1.809-0.853l1.706-3.618l1.809,0.853L59.683,93.28z"/>
					<path opacity="0.1" fill="#A29E9F" d="M80.51,142.901l-1.809-0.853l1.706-3.618l1.809,0.853L80.51,142.901z M75.562,141.674
						l-3.618-1.706l0.853-1.809l3.618,1.706L75.562,141.674z M68.325,138.262l-3.618-1.706l0.853-1.809l3.618,1.706L68.325,138.262z
						 M83.921,135.665l-1.809-0.853l1.706-3.618l1.809,0.853L83.921,135.665z M62.42,134.372l-1.809-0.853l1.706-3.618l1.809,0.853
						L62.42,134.372z M87.333,128.429l-1.809-0.853l1.706-3.618l1.809,0.853L87.333,128.429z M65.832,127.136l-1.809-0.853
						l1.706-3.618l1.809,0.853L65.832,127.136z M84.09,123.583l-3.618-1.706l0.853-1.809l3.618,1.706L84.09,123.583z
						 M76.855,120.171l-3.618-1.706l0.853-1.809l3.618,1.706L76.855,120.171z M69.243,119.9l-1.809-0.853l1.706-3.618l1.809,0.853
						L69.243,119.9z"/>
					<path opacity="0.1" fill="#A29E9F" d="M90.071,169.521l-1.809-0.853l1.706-3.618l1.809,0.853L90.071,169.521z M85.122,168.293
						l-3.618-1.706l0.853-1.809l3.618,1.706L85.122,168.293z M77.886,164.881l-3.618-1.706l0.853-1.809l3.618,1.706L77.886,164.881z
						 M93.482,162.285l-1.809-0.853l1.706-3.618l1.809,0.853L93.482,162.285z M71.981,160.991l-1.809-0.853l1.706-3.618l1.809,0.853
						L71.981,160.991z M96.894,155.049l-1.809-0.853l1.706-3.618l1.809,0.853L96.894,155.049z M75.392,153.755l-1.809-0.853
						l1.706-3.618l1.809,0.853L75.392,153.755z M93.651,150.203l-3.618-1.706l0.853-1.809l3.618,1.706L93.651,150.203z
						 M86.416,146.791l-3.618-1.706l0.853-1.809l3.618,1.706L86.416,146.791z M78.804,146.519l-1.809-0.853l1.706-3.618l1.809,0.853
						L78.804,146.519z"/>
					<path opacity="0.1" fill="#A29E9F" d="M99.631,196.14l-1.809-0.853l1.706-3.618l1.809,0.853L99.631,196.14z M94.683,194.913
						l-3.618-1.706l0.853-1.809l3.618,1.706L94.683,194.913z M87.447,191.501l-3.618-1.706l0.853-1.809l3.618,1.706L87.447,191.501z
						 M103.043,188.904l-1.809-0.853l1.706-3.618l1.809,0.853L103.043,188.904z M81.542,187.611l-1.809-0.853l1.706-3.618
						l1.809,0.853L81.542,187.611z M106.455,181.668l-1.809-0.853l1.706-3.618l1.809,0.853L106.455,181.668z M84.953,180.375
						l-1.809-0.853l1.706-3.618l1.809,0.853L84.953,180.375z M103.212,176.822l-3.618-1.706l0.853-1.809l3.618,1.706
						L103.212,176.822z M95.976,173.41l-3.618-1.706l0.853-1.809l3.618,1.706L95.976,173.41z M88.365,173.139l-1.809-0.853
						l1.706-3.618l1.809,0.853L88.365,173.139z"/>
					<path opacity="0.1" fill="#A29E9F" d="M109.192,222.759l-1.809-0.853l1.706-3.618l1.809,0.853L109.192,222.759z
						 M104.243,221.531l-3.618-1.706l0.853-1.809l3.618,1.706L104.243,221.531z M97.007,218.12l-3.618-1.706l0.853-1.809
						l3.618,1.706L97.007,218.12z M112.604,215.524l-1.809-0.853l1.706-3.618l1.809,0.853L112.604,215.524z M91.102,214.23
						l-1.809-0.853L91,209.759l1.809,0.853L91.102,214.23z M116.016,208.288l-1.809-0.853l1.706-3.618l1.809,0.853L116.016,208.288z
						 M94.514,206.994l-1.809-0.854l1.706-3.618l1.809,0.854L94.514,206.994z M112.773,203.442l-3.618-1.706l0.853-1.809
						l3.618,1.706L112.773,203.442z M105.537,200.03l-3.618-1.706l0.854-1.809l3.618,1.706L105.537,200.03z M97.926,199.758
						l-1.809-0.853l1.706-3.618l1.809,0.853L97.926,199.758z"/>
					<path opacity="0.1" fill="#A29E9F" d="M118.753,249.379l-1.809-0.853l1.706-3.618l1.809,0.853L118.753,249.379z
						 M113.805,248.151l-3.618-1.706l0.853-1.809l3.618,1.706L113.805,248.151z M106.568,244.74l-3.618-1.706l0.854-1.809
						l3.618,1.706L106.568,244.74z M122.165,242.143l-1.809-0.853l1.706-3.618l1.809,0.853L122.165,242.143z M100.663,240.85
						l-1.809-0.853l1.705-3.618l1.809,0.853L100.663,240.85z M125.577,234.907l-1.809-0.853l1.706-3.618l1.808,0.852
						L125.577,234.907z M104.074,233.614l-1.809-0.853l1.706-3.618l1.809,0.853L104.074,233.614z M122.333,230.061l-3.618-1.706
						l0.853-1.809l3.618,1.706L122.333,230.061z M115.097,226.649l-3.618-1.706l0.853-1.809l3.618,1.706L115.097,226.649z
						 M107.486,226.378l-1.809-0.853l1.706-3.618l1.809,0.853L107.486,226.378z"/>
					<path opacity="0.1" fill="#A29E9F" d="M128.314,275.998l-1.809-0.853l1.706-3.618l1.809,0.853L128.314,275.998z
						 M123.365,274.77l-3.618-1.706l0.853-1.809l3.618,1.706L123.365,274.77z M116.129,271.358l-3.618-1.706l0.853-1.809
						l3.618,1.706L116.129,271.358z M131.725,268.762l-1.809-0.853l1.706-3.618l1.809,0.853L131.725,268.762z M110.224,267.469
						l-1.809-0.854l1.706-3.618l1.809,0.854L110.224,267.469z M135.137,261.526l-1.809-0.853l1.706-3.618l1.809,0.853
						L135.137,261.526z M113.636,260.233l-1.809-0.853l1.706-3.618l1.809,0.853L113.636,260.233z M131.895,256.681l-3.618-1.706
						l0.853-1.809l3.618,1.706L131.895,256.681z M124.659,253.269l-3.618-1.706l0.853-1.809l3.618,1.706L124.659,253.269z
						 M117.047,252.996l-1.809-0.853l1.706-3.617l1.809,0.853L117.047,252.996z"/>
					<path opacity="0.1" fill="#A29E9F" d="M137.875,302.618l-1.809-0.853l1.706-3.618l1.809,0.853L137.875,302.618z
						 M132.926,301.39l-3.618-1.706l0.853-1.809l3.618,1.706L132.926,301.39z M125.69,297.979l-3.618-1.706l0.854-1.809l3.618,1.706
						L125.69,297.979z M141.286,295.381l-1.809-0.853l1.706-3.618l1.809,0.853L141.286,295.381z M119.784,294.088l-1.809-0.853
						l1.705-3.618l1.809,0.853L119.784,294.088z M144.698,288.146l-1.809-0.853l1.706-3.618l1.808,0.852L144.698,288.146z
						 M123.196,286.853L121.387,286l1.706-3.618l1.809,0.853L123.196,286.853z M141.455,283.299l-3.618-1.706l0.853-1.809
						l3.618,1.706L141.455,283.299z M134.218,279.888l-3.618-1.706l0.853-1.809l3.618,1.706L134.218,279.888z M126.607,279.617
						l-1.809-0.853l1.706-3.618l1.809,0.853L126.607,279.617z"/>
					<path opacity="0.1" fill="#A29E9F" d="M61.388,89.663L59.58,88.81l1.706-3.618l1.809,0.853L61.388,89.663z M56.44,88.435
						l-3.618-1.706l0.853-1.809l3.618,1.706L56.44,88.435z M49.204,85.023l-3.618-1.706l0.853-1.809l3.618,1.706L49.204,85.023z
						 M64.8,82.426l-1.809-0.853l1.706-3.618l1.809,0.853L64.8,82.426z M43.298,81.133l-1.809-0.853l1.706-3.618l1.809,0.853
						L43.298,81.133z M68.211,75.191l-1.809-0.853l1.706-3.618l1.809,0.853L68.211,75.191z M46.71,73.898l-1.809-0.853l1.706-3.618
						l1.809,0.853L46.71,73.898z M64.969,70.344l-3.618-1.706l0.853-1.809l3.618,1.706L64.969,70.344z M57.733,66.933l-3.618-1.706
						l0.853-1.809l3.618,1.706L57.733,66.933z M50.122,66.661l-1.809-0.853l1.706-3.618l1.809,0.853L50.122,66.661z"/>
				</g>
				<g>
					<path opacity="0.1" fill="#A29E9F" d="M44.33,125.842l-1.809-0.853l1.706-3.618l1.809,0.853L44.33,125.842z M39.381,124.614
						l-3.618-1.706l0.853-1.809l3.618,1.706L39.381,124.614z M32.145,121.203l-3.618-1.706l0.853-1.809l3.618,1.706L32.145,121.203z
						 M47.741,118.607l-1.809-0.853l1.706-3.618l1.809,0.853L47.741,118.607z M26.24,117.313l-1.809-0.854l1.706-3.618l1.809,0.854
						L26.24,117.313z M51.153,111.371l-1.809-0.853l1.706-3.618l1.809,0.853L51.153,111.371z M29.652,110.077l-1.809-0.853
						l1.706-3.618l1.809,0.853L29.652,110.077z M47.911,106.525l-3.618-1.706l0.853-1.809l3.618,1.706L47.911,106.525z
						 M40.675,103.113l-3.618-1.706l0.853-1.809l3.618,1.706L40.675,103.113z M33.064,102.84l-1.809-0.853l1.706-3.617l1.809,0.853
						L33.064,102.84z"/>
					<path opacity="0.1" fill="#A29E9F" d="M53.891,152.462l-1.809-0.853l1.706-3.618l1.809,0.853L53.891,152.462z M48.942,151.234
						l-3.618-1.705l0.853-1.809l3.618,1.705L48.942,151.234z M41.706,147.822l-3.618-1.706l0.853-1.809l3.618,1.706L41.706,147.822z
						 M57.302,145.226l-1.809-0.853l1.706-3.618l1.809,0.853L57.302,145.226z M35.8,143.933l-1.809-0.853l1.706-3.618l1.809,0.853
						L35.8,143.933z M60.714,137.99l-1.809-0.853l1.706-3.618l1.809,0.852L60.714,137.99z M39.212,136.697l-1.809-0.853l1.706-3.618
						l1.809,0.853L39.212,136.697z M57.471,133.144l-3.618-1.706l0.853-1.809l3.618,1.706L57.471,133.144z M50.235,129.732
						l-3.618-1.706l0.853-1.809l3.618,1.706L50.235,129.732z M42.624,129.461l-1.809-0.853l1.706-3.618l1.809,0.853L42.624,129.461z
						"/>
					<path opacity="0.1" fill="#A29E9F" d="M63.451,179.082l-1.809-0.853l1.706-3.618l1.809,0.853L63.451,179.082z M58.503,177.854
						l-3.618-1.706l0.853-1.809l3.618,1.706L58.503,177.854z M51.267,174.442l-3.618-1.706l0.853-1.809l3.618,1.706L51.267,174.442z
						 M66.863,171.845l-1.809-0.853l1.706-3.618l1.809,0.853L66.863,171.845z M45.361,170.552l-1.809-0.853l1.706-3.618l1.809,0.853
						L45.361,170.552z M70.274,164.609l-1.809-0.853l1.706-3.618l1.809,0.853L70.274,164.609z M48.773,163.316l-1.809-0.853
						l1.706-3.618l1.809,0.853L48.773,163.316z M67.032,159.764l-3.618-1.706l0.853-1.809l3.618,1.706L67.032,159.764z
						 M59.796,156.352l-3.618-1.706l0.853-1.809l3.618,1.706L59.796,156.352z M52.185,156.08l-1.809-0.853l1.706-3.618l1.809,0.853
						L52.185,156.08z"/>
					<path opacity="0.1" fill="#A29E9F" d="M73.012,205.701l-1.809-0.853l1.706-3.618l1.809,0.853L73.012,205.701z M68.064,204.473
						l-3.618-1.706l0.853-1.809l3.618,1.706L68.064,204.473z M60.827,201.061l-3.618-1.706l0.853-1.809l3.618,1.706L60.827,201.061z
						 M76.424,198.465l-1.809-0.853l1.706-3.618l1.809,0.853L76.424,198.465z M54.922,197.171l-1.809-0.853l1.706-3.618l1.809,0.853
						L54.922,197.171z M79.836,191.229l-1.809-0.853l1.706-3.618l1.809,0.853L79.836,191.229z M58.334,189.936l-1.809-0.853
						l1.706-3.618l1.809,0.853L58.334,189.936z M76.593,186.383l-3.618-1.706l0.853-1.809l3.618,1.706L76.593,186.383z
						 M69.357,182.971l-3.618-1.706l0.853-1.809l3.618,1.706L69.357,182.971z M61.746,182.699l-1.809-0.853l1.706-3.618l1.809,0.853
						L61.746,182.699z"/>
					<path opacity="0.1" fill="#A29E9F" d="M82.573,232.32l-1.809-0.853l1.706-3.618l1.809,0.853L82.573,232.32z M77.625,231.093
						l-3.618-1.706l0.853-1.809l3.618,1.706L77.625,231.093z M70.388,227.681l-3.618-1.706l0.854-1.809l3.618,1.706L70.388,227.681z
						 M85.984,225.084l-1.809-0.853l1.706-3.618l1.809,0.853L85.984,225.084z M64.482,223.791l-1.809-0.853l1.705-3.618l1.809,0.853
						L64.482,223.791z M89.397,217.848l-1.809-0.853l1.706-3.618l1.809,0.852L89.397,217.848z M67.894,216.556l-1.809-0.853
						l1.706-3.618l1.809,0.853L67.894,216.556z M86.153,213.002l-3.618-1.706l0.853-1.809l3.618,1.706L86.153,213.002z
						 M78.917,209.59l-3.618-1.706l0.853-1.809l3.618,1.706L78.917,209.59z M71.306,209.319l-1.809-0.853l1.706-3.618l1.809,0.853
						L71.306,209.319z"/>
					<path opacity="0.1" fill="#A29E9F" d="M92.133,258.94l-1.809-0.853l1.706-3.618l1.809,0.853L92.133,258.94z M87.185,257.712
						l-3.618-1.706l0.853-1.809l3.618,1.706L87.185,257.712z M79.949,254.3l-3.618-1.706l0.853-1.809l3.618,1.706L79.949,254.3z
						 M95.545,251.704l-1.809-0.853l1.706-3.618l1.809,0.853L95.545,251.704z M74.044,250.41l-1.809-0.854l1.706-3.618l1.809,0.854
						L74.044,250.41z M98.957,244.468l-1.809-0.853l1.706-3.618l1.809,0.853L98.957,244.468z M77.456,243.174l-1.809-0.853
						l1.706-3.618l1.809,0.853L77.456,243.174z M95.715,239.622l-3.618-1.706l0.853-1.809l3.618,1.706L95.715,239.622z
						 M88.479,236.211l-3.618-1.706l0.853-1.809l3.618,1.706L88.479,236.211z M80.867,235.938l-1.809-0.853l1.706-3.617l1.809,0.853
						L80.867,235.938z"/>
					<path opacity="0.1" fill="#A29E9F" d="M101.694,285.559l-1.809-0.853l1.706-3.618l1.809,0.853L101.694,285.559z
						 M96.746,284.332l-3.618-1.706l0.853-1.809l3.618,1.706L96.746,284.332z M89.509,280.92l-3.618-1.706l0.854-1.809l3.618,1.706
						L89.509,280.92z M105.106,278.323l-1.809-0.853l1.706-3.618l1.809,0.853L105.106,278.323z M83.604,277.03l-1.809-0.853
						l1.705-3.618l1.809,0.853L83.604,277.03z M108.518,271.087l-1.809-0.853l1.706-3.618l1.808,0.852L108.518,271.087z
						 M87.016,269.794l-1.809-0.853l1.706-3.618l1.809,0.853L87.016,269.794z M105.274,266.241l-3.618-1.706l0.853-1.809
						l3.618,1.706L105.274,266.241z M98.038,262.829l-3.618-1.706l0.853-1.809l3.618,1.706L98.038,262.829z M90.427,262.558
						l-1.809-0.853l1.706-3.618l1.809,0.853L90.427,262.558z"/>
					<path opacity="0.1" fill="#A29E9F" d="M111.255,312.178l-1.809-0.853l1.706-3.618l1.809,0.853L111.255,312.178z
						 M106.306,310.95l-3.618-1.706l0.853-1.809l3.618,1.706L106.306,310.95z M99.07,307.539l-3.618-1.706l0.853-1.809l3.618,1.706
						L99.07,307.539z M114.667,304.942l-1.809-0.853l1.706-3.618l1.809,0.853L114.667,304.942z M93.165,303.649l-1.809-0.854
						l1.706-3.618l1.809,0.854L93.165,303.649z M118.078,297.707l-1.809-0.853l1.706-3.618l1.809,0.853L118.078,297.707z
						 M96.577,296.413l-1.809-0.853l1.706-3.618l1.809,0.853L96.577,296.413z M114.836,292.861l-3.618-1.706l0.853-1.809
						l3.618,1.706L114.836,292.861z M107.601,289.449l-3.618-1.706l0.853-1.809l3.618,1.706L107.601,289.449z M99.989,289.176
						l-1.809-0.853l1.706-3.617l1.809,0.853L99.989,289.176z"/>
					<path opacity="0.1" fill="#A29E9F" d="M34.769,99.223l-1.809-0.853l1.706-3.618l1.809,0.853L34.769,99.223z M29.82,97.995
						l-3.618-1.706l0.853-1.809l3.618,1.706L29.82,97.995z M22.584,94.584l-3.618-1.706l0.853-1.809l3.618,1.706L22.584,94.584z
						 M38.181,91.987l-1.809-0.853l1.706-3.618l1.809,0.853L38.181,91.987z M16.679,90.694l-1.809-0.853l1.706-3.618l1.809,0.853
						L16.679,90.694z M41.593,84.752l-1.809-0.853l1.706-3.618l1.809,0.852L41.593,84.752z M20.09,83.458l-1.809-0.853l1.706-3.618
						l1.809,0.853L20.09,83.458z M38.349,79.905l-3.618-1.706l0.853-1.809l3.618,1.706L38.349,79.905z M31.113,76.493l-3.618-1.705
						l0.853-1.809l3.618,1.705L31.113,76.493z M23.502,76.222l-1.809-0.853l1.706-3.618l1.809,0.853L23.502,76.222z"/>
				</g>
				<g>
					<path opacity="0.1" fill="#A29E9F" d="M17.711,135.403l-1.809-0.853l1.706-3.618l1.809,0.853L17.711,135.403z M12.762,134.176
						l-3.618-1.706l0.853-1.809l3.618,1.706L12.762,134.176z M5.525,130.764l-3.618-1.706l0.854-1.809l3.618,1.706L5.525,130.764z
						 M21.122,128.167l-1.809-0.853l1.706-3.618l1.809,0.853L21.122,128.167z M-0.38,126.874l-1.809-0.853l1.705-3.618l1.809,0.853
						L-0.38,126.874z M24.534,120.931l-1.809-0.853l1.706-3.618l1.808,0.852L24.534,120.931z M3.032,119.638l-1.809-0.853
						l1.706-3.618l1.809,0.853L3.032,119.638z M21.291,116.085l-3.618-1.706l0.853-1.809l3.618,1.706L21.291,116.085z
						 M14.054,112.673l-3.618-1.706l0.853-1.809l3.618,1.706L14.054,112.673z M6.443,112.402l-1.809-0.853l1.706-3.618l1.809,0.853
						L6.443,112.402z"/>
					<path opacity="0.1" fill="#A29E9F" d="M27.271,162.023l-1.809-0.853l1.706-3.618l1.809,0.853L27.271,162.023z M22.322,160.795
						l-3.618-1.706l0.853-1.809l3.618,1.706L22.322,160.795z M15.086,157.383l-3.618-1.706l0.853-1.809l3.618,1.706L15.086,157.383z
						 M30.683,154.787l-1.809-0.853l1.706-3.618l1.809,0.853L30.683,154.787z M9.181,153.493l-1.809-0.854l1.706-3.618l1.809,0.854
						L9.181,153.493z M34.094,147.551l-1.809-0.853l1.706-3.618l1.809,0.853L34.094,147.551z M12.593,146.257l-1.809-0.853
						l1.706-3.618l1.809,0.853L12.593,146.257z M30.853,142.705l-3.618-1.706l0.853-1.809l3.618,1.706L30.853,142.705z
						 M23.617,139.294l-3.618-1.706l0.853-1.809l3.618,1.706L23.617,139.294z M16.005,139.021l-1.809-0.853l1.706-3.617l1.809,0.853
						L16.005,139.021z"/>
					<path opacity="0.1" fill="#A29E9F" d="M36.832,188.642l-1.809-0.853l1.706-3.618l1.809,0.853L36.832,188.642z M31.884,187.415
						l-3.618-1.706l0.853-1.809l3.618,1.706L31.884,187.415z M24.647,184.003l-3.618-1.706l0.854-1.809l3.618,1.706L24.647,184.003z
						 M40.244,181.406l-1.809-0.853l1.706-3.618l1.809,0.853L40.244,181.406z M18.742,180.113l-1.809-0.853l1.705-3.618l1.809,0.853
						L18.742,180.113z M43.656,174.17l-1.809-0.853l1.706-3.618l1.808,0.852L43.656,174.17z M22.153,172.877l-1.809-0.853
						l1.706-3.618l1.809,0.853L22.153,172.877z M40.412,169.324l-3.618-1.706l0.853-1.809l3.618,1.706L40.412,169.324z
						 M33.176,165.912l-3.618-1.706l0.853-1.809l3.618,1.706L33.176,165.912z M25.565,165.641l-1.809-0.853l1.706-3.618l1.809,0.853
						L25.565,165.641z"/>
					<path opacity="0.1" fill="#A29E9F" d="M46.393,215.261l-1.809-0.853l1.706-3.618l1.809,0.853L46.393,215.261z M41.444,214.033
						l-3.618-1.706l0.853-1.809l3.618,1.706L41.444,214.033z M34.208,210.622l-3.618-1.706l0.853-1.809l3.618,1.706L34.208,210.622z
						 M49.804,208.025l-1.809-0.853l1.706-3.618l1.809,0.853L49.804,208.025z M28.303,206.732l-1.809-0.854l1.706-3.618l1.809,0.854
						L28.303,206.732z M53.216,200.79l-1.809-0.853l1.706-3.618l1.809,0.853L53.216,200.79z M31.715,199.496l-1.809-0.853
						l1.706-3.618l1.809,0.853L31.715,199.496z M49.974,195.944l-3.618-1.706l0.853-1.809l3.618,1.706L49.974,195.944z
						 M42.738,192.532l-3.618-1.706l0.853-1.809l3.618,1.706L42.738,192.532z M35.127,192.259l-1.809-0.853l1.706-3.617l1.809,0.853
						L35.127,192.259z"/>
					<path opacity="0.1" fill="#A29E9F" d="M55.953,241.881l-1.809-0.853l1.706-3.618l1.809,0.853L55.953,241.881z M51.004,240.653
						l-3.618-1.705l0.853-1.809l3.618,1.705L51.004,240.653z M43.769,237.241l-3.618-1.706l0.853-1.809l3.618,1.706L43.769,237.241z
						 M59.365,234.645l-1.809-0.853l1.706-3.618l1.809,0.853L59.365,234.645z M37.863,233.351l-1.809-0.853l1.706-3.618l1.809,0.853
						L37.863,233.351z M62.776,227.409l-1.809-0.853l1.706-3.618l1.809,0.853L62.776,227.409z M41.275,226.115l-1.809-0.853
						l1.706-3.618l1.809,0.853L41.275,226.115z M59.534,222.563l-3.618-1.706l0.853-1.809l3.618,1.706L59.534,222.563z
						 M52.298,219.151l-3.618-1.706l0.853-1.809l3.618,1.706L52.298,219.151z M44.687,218.879l-1.809-0.853l1.706-3.618l1.809,0.853
						L44.687,218.879z"/>
					<path opacity="0.1" fill="#A29E9F" d="M65.514,268.5l-1.809-0.853l1.706-3.618l1.809,0.853L65.514,268.5z M60.565,267.272
						l-3.618-1.706l0.853-1.809l3.618,1.706L60.565,267.272z M53.329,263.86l-3.618-1.706l0.853-1.809l3.618,1.706L53.329,263.86z
						 M68.926,261.264l-1.809-0.853l1.706-3.618l1.809,0.853L68.926,261.264z M47.424,259.971l-1.809-0.853l1.706-3.618l1.809,0.853
						L47.424,259.971z M72.337,254.028l-1.809-0.853l1.706-3.618l1.809,0.853L72.337,254.028z M50.836,252.735l-1.809-0.853
						l1.706-3.618l1.809,0.853L50.836,252.735z M69.095,249.182l-3.618-1.706l0.853-1.809l3.618,1.706L69.095,249.182z
						 M61.859,245.771l-3.618-1.706l0.853-1.809l3.618,1.706L61.859,245.771z M54.248,245.499l-1.809-0.853l1.706-3.618l1.809,0.853
						L54.248,245.499z"/>
					<path opacity="0.1" fill="#A29E9F" d="M75.075,295.12l-1.809-0.853l1.706-3.618l1.809,0.853L75.075,295.12z M70.126,293.892
						l-3.618-1.706l0.853-1.809l3.618,1.706L70.126,293.892z M62.89,290.48l-3.618-1.706l0.853-1.809l3.618,1.706L62.89,290.48z
						 M78.486,287.884l-1.809-0.853l1.706-3.618l1.809,0.853L78.486,287.884z M56.985,286.59l-1.809-0.853l1.706-3.618l1.809,0.853
						L56.985,286.59z M81.898,280.648l-1.809-0.853l1.706-3.618l1.809,0.853L81.898,280.648z M60.397,279.354l-1.809-0.853
						l1.706-3.618l1.809,0.853L60.397,279.354z M78.656,275.802l-3.618-1.706l0.853-1.809l3.618,1.705L78.656,275.802z
						 M71.42,272.39l-3.618-1.706l0.853-1.809l3.618,1.706L71.42,272.39z M63.809,272.118L62,271.265l1.706-3.618l1.809,0.853
						L63.809,272.118z"/>
					<path opacity="0.1" fill="#A29E9F" d="M84.636,321.739l-1.809-0.853l1.706-3.618l1.809,0.853L84.636,321.739z M79.688,320.511
						l-3.618-1.706l0.853-1.809l3.618,1.706L79.688,320.511z M72.451,317.1l-3.618-1.706l0.854-1.809l3.618,1.706L72.451,317.1z
						 M88.047,314.503l-1.809-0.853l1.706-3.618l1.809,0.853L88.047,314.503z M66.545,313.21l-1.809-0.852l1.705-3.618l1.809,0.853
						L66.545,313.21z M91.46,307.267l-1.809-0.853l1.706-3.618l1.809,0.852L91.46,307.267z M69.957,305.974l-1.809-0.853
						l1.706-3.618l1.809,0.853L69.957,305.974z M88.216,302.421l-3.618-1.706l0.853-1.809l3.618,1.706L88.216,302.421z
						 M80.98,299.009l-3.618-1.706l0.853-1.809l3.618,1.706L80.98,299.009z M73.369,298.738l-1.809-0.854l1.706-3.618l1.809,0.854
						L73.369,298.738z"/>
					<path opacity="0.1" fill="#A29E9F" d="M8.149,108.784l-1.809-0.853l1.706-3.618l1.809,0.853L8.149,108.784z M3.201,107.556
						l-3.618-1.706l0.853-1.809l3.618,1.706L3.201,107.556z M-4.035,104.144l-3.618-1.706l0.853-1.809l3.618,1.706L-4.035,104.144z
						 M11.561,101.548l-1.809-0.853l1.706-3.618l1.809,0.853L11.561,101.548z M-9.94,100.254l-1.809-0.854l1.706-3.618l1.809,0.854
						L-9.94,100.254z M14.973,94.312l-1.809-0.853l1.706-3.618l1.809,0.853L14.973,94.312z M-6.528,93.018l-1.809-0.853l1.706-3.618
						l1.809,0.853L-6.528,93.018z M11.731,89.466L8.113,87.76l0.853-1.809l3.618,1.706L11.731,89.466z M4.495,86.055l-3.618-1.706
						L1.73,82.54l3.618,1.706L4.495,86.055z M-3.117,85.782l-1.809-0.853l1.706-3.617l1.809,0.853L-3.117,85.782z"/>
				</g>
			</g>
		</g>
		<g opacity="0.1">
			
				<rect x="85.24" y="54.113" transform="matrix(0.9411 -0.3381 0.3381 0.9411 -14.2008 32.6866)" fill="#A29E9F" width="3" height="6"/>
			<path fill="#A29E9F" d="M156.794,256.595l-3.914-10.897l2.823-1.014l3.914,10.897L156.794,256.595z M148.965,234.801
				l-3.914-10.897l2.823-1.014l3.914,10.897L148.965,234.801z M141.138,213.006l-3.914-10.897l2.823-1.014l3.914,10.897
				L141.138,213.006z M133.31,191.211l-3.914-10.897l2.823-1.014l3.914,10.897L133.31,191.211z M125.481,169.416l-3.914-10.897
				l2.823-1.014l3.914,10.897L125.481,169.416z M117.654,147.622l-3.914-10.897l2.823-1.014l3.914,10.897L117.654,147.622z
				 M109.826,125.827l-3.914-10.897l2.823-1.014l3.914,10.897L109.826,125.827z M101.998,104.032l-3.914-10.897l2.823-1.014
				l3.914,10.897L101.998,104.032z M94.17,82.237L90.256,71.34l2.823-1.014l3.914,10.897L94.17,82.237z"/>
			
				<rect x="161.633" y="266.81" transform="matrix(0.9411 -0.3381 0.3381 0.9411 -81.609 71.036)" fill="#A29E9F" width="3" height="6"/>
		</g>
	</g>
</g>
</svg>
