<svg xmlns="http://www.w3.org/2000/svg" width="350" height="350" viewBox="0 0 350 350"><defs><style>.a{fill:#818385;}.b{fill:#6d6f71;}.c,.d{fill:#e7f3fb;}.c{opacity:0.1;}.e,.g,.k{fill:#f3f3f5;}.e{fill-opacity:0.5;}.f,.h{fill:#d6d8de;}.f,.k{opacity:0.7;}.g{fill-opacity:0.7;}.i{fill:#e6e7ea;}.j{opacity:0.6;}</style></defs><title>help-peel</title><circle class="a" cx="176.635" cy="179.368" r="77.394"/><path class="b" d="M176.635,104.356a75.012,75.012,0,1,1-75.012,75.012,75.1,75.1,0,0,1,75.012-75.012m0-2.381a77.394,77.394,0,1,0,77.394,77.394,77.394,77.394,0,0,0-77.394-77.394h0Z"/><path class="c" d="M190.275,216.965a6.227,6.227,0,0,1-2.157-.5c-0.1-.041-0.2-0.085-0.294-0.12-0.027.008-.06,0.02-0.114,0.04a3.693,3.693,0,0,1-1.356.27,4.482,4.482,0,0,1-1.492-.282,5.229,5.229,0,0,1-1.61-1.028c-0.127-.106-0.249-0.215-0.36-0.29l-0.411-.229a10.489,10.489,0,0,1-3.408-2.71,32.758,32.758,0,0,1-3.614-4.6,3.975,3.975,0,0,0-.847-0.929,11.918,11.918,0,0,1-1.1-1.076,24.773,24.773,0,0,1-3.149-5.058c-0.292-.566-0.576-1.12-0.863-1.635-0.135-.242-0.637-1.121-0.985-1.713a4.126,4.126,0,0,1-1.727-.685,8.236,8.236,0,0,1-1.634-1.506A2.21,2.21,0,0,0,165,194.74c-0.015,0-.141-0.053-0.426-0.126a6.841,6.841,0,0,0-1.526-.155,4.1,4.1,0,0,0-1.4.176,8.292,8.292,0,0,0-.772,1.665c-0.587,1.494-1.567,4-4.2,4a5.294,5.294,0,0,1-3.348-1.444,5.406,5.406,0,0,1-1.094-1.264c-0.017-.026-0.034-0.052-0.051-0.079l-0.085-.01a5.5,5.5,0,0,1-2-.545A9.5,9.5,0,0,1,146,191.592a14.068,14.068,0,0,1-.334-1.583,4.007,4.007,0,0,0-.83-2.3,5.49,5.49,0,0,0-.912-0.595,9.942,9.942,0,0,1-1.67-1.13,3.825,3.825,0,0,1-1.012-1.71l-0.028-.077c-0.124-.109-0.292-0.247-0.417-0.351a12.784,12.784,0,0,1-1.155-1.035l-0.05-.027a4.854,4.854,0,0,1-1.363-.984,6.926,6.926,0,0,1-.83-1.239c-0.144-.245-0.288-0.5-0.4-0.658a3.6,3.6,0,0,1-.6-2.594l0.01-.178,0.038-2.342,2.343-.035H155.7V145.993h20.331v13.785a0.954,0.954,0,0,0,.38.126,9.372,9.372,0,0,1,3.048.727,4.933,4.933,0,0,0,1.642.432l0.438-.025c0.31-.023.6-0.041,0.88-0.041a5.07,5.07,0,0,1,2.606.676,4.481,4.481,0,0,1,.47.309,3.862,3.862,0,0,1,1.93-.553l0.266,0.01a3.159,3.159,0,0,1,1.571.563,2.815,2.815,0,0,1,1.186-.255,3.97,3.97,0,0,1,2.173.757,6.889,6.889,0,0,1,4.081-1.08,15.534,15.534,0,0,1,3.449.415,17.383,17.383,0,0,1,2.7.956,11.551,11.551,0,0,0,2.19.763l0.7,0.033a3.269,3.269,0,0,1,3.117,3.269v5.869a3.323,3.323,0,0,0,.341,1.278,12.792,12.792,0,0,1,.5,1.326,16.062,16.062,0,0,0,.844,1.891,12.889,12.889,0,0,1,1.589,4.6,6.531,6.531,0,0,1-.669,3,5.478,5.478,0,0,0-.291.789,6.486,6.486,0,0,0-.053,1.281,10.354,10.354,0,0,1-.143,2.284c-0.488,2.44-2.376,5.182-5.04,5.705,0,0-.621.126-0.738,0.144a3.308,3.308,0,0,1-1.18,1.169c-0.064.136-.122,0.264-0.177,0.385a6.206,6.206,0,0,1-3.532,3.594,5.636,5.636,0,0,1-2.509.513c-0.169,0-.969-0.015-1.006-0.014a5.251,5.251,0,0,1-.338.8,4.328,4.328,0,0,1-1.98,1.909,1.227,1.227,0,0,0-.21.117,3.752,3.752,0,0,0-.226.4,6.075,6.075,0,0,1-1.05,1.543,2.742,2.742,0,0,1,.128.73,21.32,21.32,0,0,1-.46,5.047c-0.435-.581-0.5,1.045-1.184.8a0.522,0.522,0,0,0-.443-0.014,0.512,0.512,0,0,0-.189.385,2.979,2.979,0,0,0,2,3.246A2.788,2.788,0,0,1,190.275,216.965Z"/><path class="d" d="M204.78,165.93c-1.826-.293-3.4-1.346-5.186-1.775-1.482-.356-4.366-0.689-5.66.34-0.378.3-.206,0.73-0.744,0.918-0.773.27-1.315-.537-1.843-0.9-1.655-1.123-1.085.574-2.459,0.283-0.513-.108-0.719-0.935-1.383-0.987-0.807-.063-1.394.862-2.207,0.805-0.671-.047-0.887-0.555-1.451-0.876a3.889,3.889,0,0,0-2.49-.306c-1.926.113-3.208-1.086-5.031-1.152a2.842,2.842,0,0,1-2.675-1.955V148.374H158.083v28.759H138.792a2.658,2.658,0,0,0,.092,1.31c0.3,0.388.875,1.5,1.1,1.738,0.368,0.4,1.02.57,1.265,0.85,0.58,0.662,1.52,1.264,1.951,1.78,0.2,0.238.416,1.194,0.632,1.383,0.8,0.705,1.955,1.1,2.689,1.824,1.476,1.465,1.342,3.418,1.775,4.912a7.156,7.156,0,0,0,2.933,3.927c0.617,0.332,1.635.228,2.088,0.493,0.842,0.492.854,1.107,1.533,1.669,3.807,3.154,3.252-2.912,5.546-4.4,1.05-.683,3.509-0.628,4.772-0.307,1.9,0.483,1.389,1.027,3,2.173,0.606,0.43,1.283.176,1.955,0.7,0.1,0.08,1.4,2.374,1.46,2.478,1.115,2,2.2,4.554,3.718,6.276a16.47,16.47,0,0,1,2.151,2.28,30.456,30.456,0,0,0,3.385,4.3,9.1,9.1,0,0,0,3.262,2.487,17.486,17.486,0,0,0,1.542,1.118c1.188,0.412,1-.148,2.309-0.175,0.811-.017,2.332,1.234,2.958.369-0.1.137-.959-4.589-1.065-4.91a3.134,3.134,0,0,1-.507-1.479,1.786,1.786,0,0,1,.956-1.033c1.186-.881-0.325-1.175-0.581-1.6-0.748-1.23-.152-0.535.958-1.078,1.138-.557,1.161-1.622,1.877-2.37,0.672-.7,1.315-0.56,1.8-1.488,0.5-.943.091-1.417,1.314-1.884,1.2-.457,2.4.125,3.622-0.458,2.024-.966,1.957-1.638,2.793-3.276,0.329-.644,1.058-0.447,1.171-1.257,0.092-.658-0.975-1.17-0.853-1.685,0.67-2.82,1.33.112,1.685,0.277,1.253,0.584-.043.744,1.4,0.461,1.605-.314,2.847-2.254,3.163-3.834,0.236-1.179-.041-2.384.2-3.567,0.211-1.052.987-2.066,0.918-3.171-0.111-1.789-1.794-4.217-2.329-5.929-0.422-1.348-.815-1.564-0.951-3.211V166.86a0.891,0.891,0,0,0-.849-0.89Z"/><path class="e" d="M233.763,57.13C183.711,81.708,129.458,77.486,75.412,77.486l-0.659.2V281.251l9.188,1.828a151.432,151.432,0,0,1,31.01,9.724"/><path class="f" d="M114.475,293.893a150.5,150.5,0,0,0-30.766-9.648l-9.188-1.827a1.191,1.191,0,0,1-.958-1.168V77.689a1.191,1.191,0,0,1,.84-1.138l0.659-.2a1.192,1.192,0,0,1,.351-0.053c6.922,0,13.957.07,20.761,0.138,46.049,0.457,93.672.936,137.065-20.372l1.05,2.137c-43.9,21.557-91.81,21.077-138.139,20.615-6.623-.066-13.467-0.134-20.206-0.138v201.6l8.23,1.637a152.909,152.909,0,0,1,31.254,9.8Z"/><path class="g" d="M233.8,57.2S209.761,93.929,27.162,181.909c0,0,20.33,87.328,87.79,110.892"/><path class="h" d="M114.951,293.993a1.187,1.187,0,0,1-.393-0.067c-35.2-12.3-57.413-42.047-69.845-64.837A209.607,209.607,0,0,1,26,182.179a1.191,1.191,0,0,1,.643-1.343C206.384,94.235,232.559,56.91,232.8,56.543a1.191,1.191,0,0,1,1.991,1.307c-0.251.383-6.464,9.606-35.156,29.686-47.463,33.219-119.052,69.929-171.086,95.025A210.745,210.745,0,0,0,46.834,228c12.229,22.4,34.041,51.634,68.51,63.674A1.191,1.191,0,0,1,114.951,293.993Z"/><path class="i" d="M114.95,293.993a1.191,1.191,0,0,1-1.062-1.727l118.845-235.6a1.191,1.191,0,1,1,2.126,1.072l-118.845,235.6A1.19,1.19,0,0,1,114.95,293.993Z"/><g class="j"><path class="k" d="M173.228,102.05c-16.1,10.109-36.387,21.992-61.891,35.768A77.319,77.319,0,0,1,173.228,102.05Z"/></g></svg>