<svg xmlns="http://www.w3.org/2000/svg" xmlns:xlink="http://www.w3.org/1999/xlink" width="350" height="350" viewBox="0 0 350 350"><defs><style>.a,.g,.k,.m{fill:none;}.b{isolation:isolate;}.c{opacity:0.2;}.c,.i{mix-blend-mode:multiply;}.d,.j{fill:#a9afbd;}.e{fill:#92969f;}.f,.l{fill:#f3f3f5;}.f,.g,.k,.l,.m{stroke:#d6d8de;}.f,.g,.j,.k,.l,.m{stroke-miterlimit:10;}.f,.g,.k{stroke-width:2px;}.g,.k,.l{stroke-linecap:round;}.g{opacity:0.5;}.h{clip-path:url(#a);}.i{opacity:0.3;}.j{stroke:#92969f;stroke-width:3px;}.l,.m{stroke-width:1.814px;}</style><clipPath id="a"><path class="a" d="M243.273,127.94L223.23,264.068a15.558,15.558,0,0,1-15.392,13.292h-71.43a15.558,15.558,0,0,1-15.392-13.292L100.973,127.94h142.3Z"/></clipPath></defs><title>help-trash</title><g class="b"><g class="c"><path class="d" d="M257.663,282.428c0,4.087-12.623,7.392-28.208,7.392-9.127,0-17.235-1.135-22.387-2.9a55.662,55.662,0,0,0-19.684-2.79c-5.065.151-10.352,0.231-15.792,0.231-37.125,0-67.22-3.7-67.22-8.252s30.095-8.252,67.22-8.252c35.247,0,64.159,3.334,66.985,7.568C249.684,276.415,257.663,279.182,257.663,282.428Z"/></g><path class="d" d="M136.408,275.86A14.139,14.139,0,0,1,122.5,263.85L102.71,129.44H241.536l-19.79,134.41a14.139,14.139,0,0,1-13.908,12.01h-71.43Z"/><path class="e" d="M239.8,130.94L220.262,263.631a12.63,12.63,0,0,1-12.424,10.729h-71.43a12.629,12.629,0,0,1-12.424-10.729L104.447,130.94H239.8m3.474-3h-142.3l20.043,136.128a15.558,15.558,0,0,0,15.392,13.292h71.43a15.558,15.558,0,0,0,15.392-13.292L243.273,127.94h0Z"/><path class="f" d="M175.442,61.28a1.981,1.981,0,0,0-1.684.315q-8.638,3.893-17.228,7.892a5.226,5.226,0,0,0-1.9,1.254c-0.964,1.161-.47,2.74-0.313,4.086a76.062,76.062,0,0,0,10.221,29.2c1.218,2.093,2.448,2.51,4.7,1.591,5.833-2.384,11.9-4.467,17.33-7.7A47.494,47.494,0,0,0,199.97,86l0.055-.071c0.677-.886-1.209-0.808-1.713-0.889-1.039-.168-2.073-0.362-3.1-0.59a39.7,39.7,0,0,1-5.951-1.785,19.6,19.6,0,0,1-7.172-4.62,18.463,18.463,0,0,1-3.633-5.395,30.513,30.513,0,0,1-1.9-6.892c-0.21-1.173-.316-2.395-0.6-3.55A1.431,1.431,0,0,0,175.442,61.28Z"/><path class="g" d="M169,115.407a7.484,7.484,0,0,1-8.857-4.769"/><g class="h"><g class="i"><path class="d" d="M253.379,134.178l-0.914,5.873a2.373,2.373,0,0,1-2.345,2.008H94.126a2.373,2.373,0,0,1-2.345-2.008l-0.914-5.873a2.373,2.373,0,0,1,2.345-2.738H251.034A2.373,2.373,0,0,1,253.379,134.178Z"/></g></g><path class="j" d="M250.379,129.178l-0.914,5.873a2.373,2.373,0,0,1-2.345,2.008H97.126a2.373,2.373,0,0,1-2.345-2.008l-0.914-5.873a2.373,2.373,0,0,1,2.345-2.738H248.034A2.373,2.373,0,0,1,250.379,129.178Z"/><path class="k" d="M152.12,61.507s-6.458,2.976-4.47,7.625"/><path class="l" d="M242.034,259.176A39.5,39.5,0,0,0,241.99,255a1.536,1.536,0,0,0-.214-0.812c-0.487-.679-1.527-0.221-2.28.14-3.231,1.564-7.046.044-10.639,0.081a24.361,24.361,0,0,0-5.231.819,8.85,8.85,0,0,0-4.279,1.844c-1.749,1.667-1.83,4.368-1.778,6.788-3.394,2.007-7.127,4.132-9.444,7.068,1.343,2.376,4.264,2.634,4,6.19-0.118,1.564-.826,3.4.273,4.523a3.7,3.7,0,0,0,2.007.826l4.2,0.819a2.059,2.059,0,0,0,.849.037,2.035,2.035,0,0,0,.952-0.693c0.686-.753,1.38-1.513,2.073-2.265a0.924,0.924,0,0,1,.583-0.376,0.9,0.9,0,0,1,.575.258c1.247,1.018,2.206,2.361,3.475,3.349,1.416,1.107,4.006,1.948,5.312.229l-0.391-.531c1.328,1.225,2.84,2.361,4.132,2.007,3.46-.959,5.629-1.918,9.09-2.877a6.081,6.081,0,0,0,2.767-1.3c0.863-.856,1.136-2.125,1.793-3.15a1.628,1.628,0,0,0,.317-0.664,1.41,1.41,0,0,0-.125-0.62,68.771,68.771,0,0,1-2.1-6.633,7.778,7.778,0,0,0,.708-0.915,2.917,2.917,0,0,0,.583-2.014,4.941,4.941,0,0,0-1.217-1.992,6.538,6.538,0,0,1-1.32-3.682,2.1,2.1,0,0,0-.435-1.579,1.7,1.7,0,0,0-.849-0.317Z"/><path class="l" d="M223.635,267.536c1.45-1.368-1-5.425-2.626-6.583-3.9,2.508-9.971,6.285-12.883,9.975,1.345,2.373,4.266,2.636,4,6.188-0.118,1.565-.829,3.4.269,4.522a3.7,3.7,0,0,0,2.007.83l4.2,0.816a1.516,1.516,0,0,0,1.8-.654l2.072-2.264a0.937,0.937,0,0,1,.587-0.378,0.889,0.889,0,0,1,.573.261c1.25,1.017,2.211,2.355,3.479,3.349,1.41,1.105,4.006,1.948,5.311.225"/><path class="l" d="M232.536,276.918a12.517,12.517,0,0,0-2.723,4.281c1.533,1.263,4.23,4.686,6.344,4.1,3.461-.959,5.632-1.917,9.094-2.876a6.1,6.1,0,0,0,2.765-1.3c0.861-.852,1.134-2.125,1.79-3.144a1.629,1.629,0,0,0,.318-0.667,1.391,1.391,0,0,0-.123-0.618,58.9,58.9,0,0,1-2.674-9.216"/><path class="l" d="M242.483,272.73a7.97,7.97,0,0,0,6.13-3.583,2.936,2.936,0,0,0,.587-2.015,4.934,4.934,0,0,0-1.22-1.992,6.557,6.557,0,0,1-1.322-3.685,2.1,2.1,0,0,0-.429-1.575,1.673,1.673,0,0,0-.852-0.317,12.351,12.351,0,0,0-5.818.457"/><path class="m" d="M242.037,259.178a39.1,39.1,0,0,0-.049-4.176,1.542,1.542,0,0,0-.211-0.813c-0.486-.678-1.528-0.22-2.279.143-3.235,1.562-7.046.044-10.638,0.078a24.3,24.3,0,0,0-5.231.819,8.9,8.9,0,0,0-4.285,1.842c-1.767,1.69-1.831,3.442-1.775,5.886"/></g></svg>