<svg xmlns="http://www.w3.org/2000/svg" xmlns:xlink="http://www.w3.org/1999/xlink" width="4.861in" height="4.861in" viewBox="0 0 350 350"><defs><style>.a{fill:none;}.b{opacity:0.2;}.c{fill:#a9afbd;}.d{fill:#d6d8de;}.e{opacity:0.8;}.f{fill:#f0f6fc;}.g{clip-path:url(#a);}.h,.i{opacity:0.3;}.i{fill:#88cad3;}.i,.m{isolation:isolate;}.j{fill:#f3f3f5;}.k{opacity:0.8;}.l{clip-path:url(#b);}.m,.o{fill:#a29e9f;}.m,.n{opacity:0.1;}</style><clipPath id="a"><path class="a" d="M336.091,101.025v162.79a14.976,14.976,0,0,1-14.96,14.96H65.971A14.984,14.984,0,0,1,51,263.815V101.025a14.993,14.993,0,0,1,14.97-14.97h255.16A14.984,14.984,0,0,1,336.091,101.025Z"/></clipPath><clipPath id="b"><rect class="a" x="55.49" y="56.42" width="88.996" height="231.99" transform="translate(-52.394 43.946) rotate(-19.756)"/></clipPath></defs><title>help-clean</title><g class="b"><rect class="c" x="50.49" y="65.419" width="88.996" height="231.99" transform="translate(-55.73 42.785) rotate(-19.756)"/></g><path class="d" d="M65.974,277.279H321.127A13.468,13.468,0,0,0,334.6,263.811V101.026a13.468,13.468,0,0,0-13.468-13.468H65.974a13.468,13.468,0,0,0-13.468,13.468V263.81A13.468,13.468,0,0,0,65.974,277.279Z"/><path class="c" d="M321.127,278.779H65.974a14.985,14.985,0,0,1-14.968-14.968V101.026A14.985,14.985,0,0,1,65.974,86.058H321.127A14.985,14.985,0,0,1,336.1,101.026V263.811A14.985,14.985,0,0,1,321.127,278.779ZM65.974,89.058a11.982,11.982,0,0,0-11.968,11.968V263.811a11.982,11.982,0,0,0,11.968,11.968H321.127A11.982,11.982,0,0,0,333.1,263.811V101.026a11.982,11.982,0,0,0-11.968-11.968H65.974Z"/><g class="e"><path class="f" d="M215.272,169.537c-8.914,5.913-7.811,18.258,1.665,22.666a51.443,51.443,0,0,1-2.366,5.166,57.15,57.15,0,0,1-4.381,6.458c-2.9,3.656-6.017,4.4-10.3,2.474a12.22,12.22,0,0,0-10.629-.005,13.113,13.113,0,0,1-3.225.994c-2.421.41-4.358-.659-5.98-2.333a34.487,34.487,0,0,1-7.034-10.68,32.378,32.378,0,0,1-2.769-15.338,16.988,16.988,0,0,1,3.913-9.984c4.1-4.785,9.718-6.021,15.928-3.547,0.35,0.14.708,0.265,1.046,0.429a6.028,6.028,0,0,0,5.354.024,35.826,35.826,0,0,1,3.564-1.324A13.541,13.541,0,0,1,215.272,169.537Z"/><path class="f" d="M193.52,163.157c-1.432-5.323,5.448-13.271,11.285-13.035C205.876,155.826,200.1,163.822,193.52,163.157Z"/></g><g class="g"><g class="h"><rect class="c" x="50.49" y="65.419" width="88.996" height="231.99" transform="translate(-55.73 42.785) rotate(-19.756)"/></g></g><path class="i" d="M176.8,192.907a25.485,25.485,0,0,1,15.477-12.414,86.584,86.584,0,0,1,9.05-1.6,60.469,60.469,0,0,0,27.275-12.01c2.821-2.212,5.616-5,6.01-8.565,0.589-5.324-4.333-9.582-9.1-12.014a52.4,52.4,0,0,0-30.164-5.263c-11.068,1.4-21.874,6.36-32.938,4.927-9.9-1.282-18.367-7.483-27.671-11.089-19.147-7.421-42.39-2.817-57.263,11.341-2.067,1.967-4.045,4.216-4.759,6.978-0.889,3.439.325,7.056,1.8,10.286,9.123,19.945,28.983,32.808,50.255,36.393C141.135,202.64,168.346,208.775,176.8,192.907Z"/><rect class="j" x="55.49" y="56.42" width="88.996" height="231.99" transform="translate(-52.394 43.946) rotate(-19.756)"/><path class="c" d="M102.666,48.205l78.421,218.344L97.326,296.633,18.905,78.289l83.761-30.084m1.809-3.838-2.823,1.014L17.891,75.465l-2.823,1.014L16.082,79.3,94.5,297.646l1.014,2.823,2.823-1.014L182.1,269.371l2.823-1.014-1.014-2.823L105.49,47.191l-1.015-2.824h0Z"/><g class="k"><g class="l"><path class="m" d="M124.188,97.16l-1.809-.853,1.706-3.618,1.809,0.853Zm-4.949-1.228-3.618-1.706,0.853-1.809,3.618,1.706ZM112,92.521l-3.618-1.706,0.853-1.809,3.618,1.706Zm15.6-2.6-1.809-.853,1.706-3.618,1.809,0.853Zm-21.5-1.293-1.809-.853L106,84.16l1.809,0.853Zm24.913-5.942-1.809-.853,1.706-3.618,1.809,0.853Zm-21.5-1.294-1.809-.853,1.706-3.618,1.809,0.853Zm18.26-3.553-3.618-1.706L125,74.327l3.618,1.706Zm-7.236-3.411-3.618-1.706,0.853-1.809,3.618,1.706Zm-7.612-.272-1.809-.853,1.706-3.618,1.809,0.853Z"/><path class="m" d="M133.749,123.78l-1.809-.853,1.706-3.618,1.809,0.853Zm-4.949-1.228-3.618-1.706,0.853-1.809,3.618,1.706Zm-7.236-3.412-3.618-1.706,0.853-1.809,3.618,1.706Zm15.6-2.6-1.809-.853,1.706-3.618,1.809,0.853Zm-21.5-1.293-1.809-.853,1.706-3.618,1.809,0.853Zm24.913-5.943-1.809-.853,1.706-3.618,1.809,0.853Zm-21.5-1.293-1.809-.853,1.706-3.618,1.809,0.853Zm18.259-3.553-3.618-1.706,0.853-1.809,3.618,1.706Zm-7.236-3.412-3.618-1.706,0.853-1.809,3.618,1.706Zm-7.611-.272-1.809-.853,1.706-3.618,1.809,0.853Z"/><path class="m" d="M143.31,150.4l-1.809-.853,1.706-3.618,1.809,0.853Zm-4.949-1.228-3.618-1.706,0.853-1.809,3.618,1.706Zm-7.236-3.412-3.618-1.706,0.853-1.809,3.618,1.706Zm15.6-2.6-1.809-.853,1.706-3.618,1.809,0.853Zm-21.5-1.293-1.809-.853,1.706-3.618,1.809,0.853Zm24.914-5.943-1.809-.853,1.706-3.618,1.809,0.853Zm-21.5-1.293-1.809-.853,1.706-3.618,1.809,0.853Zm18.259-3.553-3.618-1.706,0.853-1.809,3.618,1.706Zm-7.236-3.411-3.618-1.706,0.853-1.809,3.618,1.706Zm-7.611-.272-1.809-.853,1.706-3.618,1.809,0.853Z"/><path class="m" d="M152.87,177.019l-1.809-.853,1.706-3.618,1.809,0.853Zm-4.948-1.228-3.618-1.706,0.853-1.809,3.618,1.706Zm-7.236-3.412-3.618-1.706,0.853-1.809,3.618,1.706Zm15.6-2.6-1.809-.853,1.706-3.618,1.809,0.853Zm-21.5-1.293-1.809-.853,1.706-3.618,1.809,0.853Zm24.913-5.943-1.809-.853,1.706-3.618,1.809,0.853Zm-21.5-1.292-1.809-.853,1.706-3.618,1.809,0.853Zm18.259-3.554-3.618-1.706,0.853-1.809,3.618,1.706Zm-7.236-3.411-3.618-1.706,0.853-1.809,3.618,1.706Zm-7.611-.272-1.809-.853,1.706-3.618,1.809,0.853Z"/><path class="m" d="M162.431,203.638l-1.809-.853,1.706-3.618,1.809,0.853Zm-4.949-1.228-3.618-1.706,0.853-1.809,3.618,1.706ZM150.246,199l-3.618-1.706,0.853-1.809,3.618,1.706Zm15.6-2.6-1.809-.853,1.706-3.618,1.809,0.853Zm-21.5-1.294-1.809-.853,1.706-3.618,1.809,0.853Zm24.913-5.942-1.809-.853,1.706-3.618,1.809,0.853Zm-21.5-1.293-1.809-.853,1.706-3.618,1.809,0.853Zm18.259-3.553-3.618-1.706,0.853-1.809,3.618,1.706Zm-7.236-3.412-3.618-1.706,0.853-1.809,3.618,1.706Zm-7.611-.272-1.809-.853,1.706-3.618,1.809,0.853Z"/><path class="m" d="M171.992,230.257l-1.809-.853,1.706-3.618,1.809,0.853Zm-4.948-1.227-3.618-1.706,0.853-1.809,3.618,1.706Zm-7.237-3.412-3.618-1.706,0.854-1.809,3.618,1.706Zm15.6-2.6-1.809-.853,1.706-3.618,1.809,0.853Zm-21.5-1.293-1.809-.853,1.705-3.618,1.809,0.853Zm24.914-5.943-1.809-.853,1.706-3.618,1.809,0.852Zm-21.5-1.292-1.809-.853,1.706-3.618,1.809,0.853Zm18.259-3.554-3.618-1.706,0.853-1.809,3.618,1.706Zm-7.236-3.412-3.618-1.706,0.853-1.809,3.618,1.706Zm-7.611-.271-1.809-.853,1.706-3.618,1.809,0.853Z"/><path class="m" d="M181.552,256.877l-1.809-.853,1.706-3.618,1.809,0.853Zm-4.948-1.228-3.618-1.706,0.853-1.809,3.618,1.706Zm-7.236-3.412-3.618-1.706,0.853-1.809,3.618,1.706Zm15.6-2.6-1.809-.853,1.706-3.618,1.809,0.853Zm-21.5-1.294-1.809-.854,1.706-3.618,1.809,0.854Zm24.914-5.942-1.809-.853,1.706-3.618,1.809,0.853Zm-21.5-1.294-1.809-.853,1.706-3.618,1.809,0.853Zm18.259-3.552-3.618-1.706,0.853-1.809,3.618,1.706Zm-7.236-3.411-3.618-1.706,0.853-1.809,3.618,1.706Zm-7.612-.273-1.809-.853,1.706-3.617,1.809,0.853Z"/><path class="m" d="M191.113,283.5l-1.809-.853,1.706-3.618,1.809,0.853Zm-4.948-1.227-3.618-1.706,0.853-1.809,3.618,1.706Zm-7.237-3.412-3.618-1.706,0.854-1.809,3.618,1.706Zm15.6-2.6-1.809-.853,1.706-3.618,1.809,0.853Zm-21.5-1.293-1.809-.853,1.705-3.618,1.809,0.853Zm24.914-5.943-1.809-.853,1.706-3.618,1.808,0.852Zm-21.5-1.293-1.809-.853,1.706-3.618,1.809,0.853Zm18.258-3.553-3.618-1.706,0.853-1.809,3.618,1.706Zm-7.236-3.412-3.618-1.706,0.853-1.809,3.618,1.706Zm-7.611-.271-1.809-.853,1.706-3.618,1.809,0.853Z"/><path class="m" d="M114.627,70.541l-1.809-.853,1.706-3.618,1.809,0.853Zm-4.948-1.227-3.618-1.706,0.853-1.809,3.618,1.706ZM102.442,65.9l-3.618-1.706,0.853-1.809,3.618,1.706Zm15.6-2.6-1.809-.853,1.706-3.618,1.809,0.853Zm-21.5-1.293-1.809-.853,1.706-3.618,1.809,0.853Zm24.913-5.943-1.809-.853,1.706-3.618,1.809,0.853Zm-21.5-1.293-1.809-.853,1.706-3.618,1.809,0.853Zm18.259-3.553-3.618-1.706,0.853-1.809,3.618,1.706Zm-7.236-3.412L107.354,46.1l0.853-1.809L111.825,46Zm-7.612-.271-1.809-.853,1.706-3.618,1.809,0.853Z"/><path class="m" d="M97.568,106.721l-1.809-.853,1.706-3.618,1.809,0.853Zm-4.948-1.227L89,103.788l0.853-1.809,3.618,1.706Zm-7.236-3.412-3.618-1.706,0.853-1.809,3.618,1.706Zm15.6-2.6-1.809-.853,1.706-3.618,1.809,0.853Zm-21.5-1.293-1.809-.853,1.706-3.618,1.809,0.853Zm24.913-5.943-1.809-.853,1.706-3.618,1.809,0.853Zm-21.5-1.293L81.081,90.1l1.706-3.618L84.6,87.338ZM101.149,87.4L97.531,85.7l0.853-1.809L102,85.594Zm-7.236-3.412-3.618-1.706,0.853-1.809,3.618,1.706ZM86.3,83.72l-1.809-.853L86.2,79.249,88.008,80.1Z"/><path class="m" d="M107.129,133.34l-1.809-.853,1.706-3.618,1.809,0.853Zm-4.948-1.228-3.618-1.706,0.853-1.809,3.618,1.706ZM94.944,128.7L91.326,127l0.853-1.809,3.618,1.706Zm15.6-2.6-1.809-.853,1.706-3.618,1.809,0.853Zm-21.5-1.294-1.809-.853,1.706-3.618,1.809,0.853Zm24.914-5.942-1.809-.853,1.706-3.618,1.809,0.853Zm-21.5-1.294-1.809-.853,1.706-3.618,1.809,0.853Zm18.259-3.552-3.618-1.706,0.853-1.809,3.618,1.706Zm-7.236-3.412L99.856,108.9l0.853-1.809,3.618,1.706Zm-7.611-.272-1.809-.853,1.706-3.618,1.809,0.853Z"/><path class="m" d="M116.69,159.96l-1.809-.853,1.706-3.618,1.809,0.853Zm-4.948-1.227-3.618-1.706,0.853-1.809,3.618,1.706ZM104.5,155.32l-3.618-1.706,0.853-1.809,3.618,1.706Zm15.6-2.6-1.809-.853L120,148.253l1.809,0.853Zm-21.5-1.293-1.809-.853L98.5,146.96l1.809,0.853Zm24.913-5.943-1.809-.853,1.706-3.618,1.809,0.853Zm-21.5-1.293-1.809-.853,1.706-3.618,1.809,0.853Zm18.259-3.553-3.618-1.706,0.853-1.809,3.618,1.706Zm-7.236-3.412-3.618-1.706,0.853-1.809,3.618,1.706Zm-7.612-.271-1.809-.853,1.706-3.618,1.809,0.853Z"/><path class="m" d="M126.251,186.579l-1.809-.853,1.706-3.618,1.809,0.853Zm-4.949-1.228-3.618-1.706,0.853-1.809,3.618,1.706Zm-7.236-3.411-3.618-1.706,0.853-1.809,3.618,1.706Zm15.6-2.6-1.809-.853,1.706-3.618,1.809,0.853Zm-21.5-1.293-1.809-.853,1.706-3.618,1.809,0.853Zm24.913-5.942-1.809-.853,1.706-3.618,1.809,0.853Zm-21.5-1.294-1.809-.853,1.706-3.618,1.809,0.853Zm18.26-3.553-3.618-1.706,0.853-1.809,3.618,1.706ZM122.6,163.85l-3.618-1.706,0.853-1.809,3.618,1.706Zm-7.612-.272-1.809-.853,1.706-3.618,1.809,0.853Z"/><path class="m" d="M135.812,213.2L134,212.346l1.706-3.618,1.809,0.853Zm-4.949-1.228-3.618-1.706,0.853-1.809,3.618,1.706Zm-7.236-3.412-3.618-1.706,0.853-1.809,3.618,1.706Zm15.6-2.6-1.809-.853,1.706-3.618,1.809,0.853Zm-21.5-1.292-1.809-.853,1.706-3.618,1.809,0.853Zm24.913-5.943-1.809-.853,1.706-3.618,1.809,0.853Zm-21.5-1.293-1.809-.853,1.706-3.618,1.809,0.853Zm18.259-3.554-3.618-1.706,0.853-1.809,3.618,1.706Zm-7.236-3.411-3.618-1.706,0.853-1.809,3.618,1.706Zm-7.611-.272-1.809-.853,1.706-3.618,1.809,0.853Z"/><path class="m" d="M145.372,239.818l-1.809-.853,1.706-3.618,1.809,0.853Zm-4.949-1.228-3.618-1.706,0.853-1.809,3.618,1.706Zm-7.235-3.412-3.618-1.706,0.853-1.809,3.618,1.706Zm15.6-2.6-1.809-.853,1.706-3.618,1.809,0.853Zm-21.5-1.293-1.809-.854,1.706-3.618,1.809,0.854Zm24.913-5.943-1.809-.853,1.706-3.618,1.809,0.853Zm-21.5-1.294-1.809-.853,1.706-3.618,1.809,0.853Zm18.26-3.551-3.618-1.706,0.853-1.809,3.618,1.706Zm-7.236-3.412-3.618-1.706,0.853-1.809,3.618,1.706Zm-7.612-.273-1.809-.853L134,212.346l1.809,0.853Z"/><path class="m" d="M154.933,266.438l-1.809-.853,1.706-3.618,1.809,0.853Zm-4.948-1.228-3.618-1.706,0.853-1.809,3.618,1.706Zm-7.237-3.412-3.618-1.706,0.854-1.809,3.618,1.706Zm15.6-2.6-1.809-.853,1.706-3.618,1.809,0.853Zm-21.5-1.293-1.809-.853,1.705-3.618,1.809,0.853Zm24.914-5.943-1.809-.853,1.706-3.618,1.808,0.852Zm-21.5-1.293-1.809-.853,1.706-3.618,1.809,0.853Zm18.259-3.553-3.618-1.706,0.853-1.809,3.618,1.706Zm-7.236-3.411L147.659,242l0.853-1.809,3.618,1.706Zm-7.611-.271-1.809-.853,1.706-3.618,1.809,0.853Z"/><path class="m" d="M164.494,293.057l-1.809-.853,1.706-3.618,1.809,0.853Zm-4.949-1.228-3.618-1.706,0.853-1.809,3.618,1.706Zm-7.236-3.412-3.618-1.706,0.853-1.809,3.618,1.706Zm15.6-2.6-1.809-.853,1.706-3.618,1.809,0.853Zm-21.5-1.294-1.809-.854,1.706-3.618,1.809,0.854Zm24.913-5.942-1.809-.853,1.706-3.618,1.809,0.853Zm-21.5-1.294-1.809-.853,1.706-3.618,1.809,0.853Zm18.259-3.552-3.618-1.706,0.853-1.809,3.618,1.706Zm-7.236-3.411-3.618-1.706,0.853-1.809,3.618,1.706Zm-7.611-.273-1.809-.853,1.706-3.617,1.809,0.853Z"/><path class="m" d="M88.008,80.1L86.2,79.249l1.706-3.618,1.809,0.853Zm-4.949-1.228-3.618-1.706,0.853-1.809,3.618,1.706Zm-7.236-3.412-3.618-1.706,0.853-1.809,3.618,1.706Zm15.6-2.6-1.809-.853L91.316,68.4l1.809,0.853Zm-21.5-1.294-1.809-.853L69.815,67.1l1.809,0.853ZM94.831,65.63l-1.809-.853,1.706-3.618,1.809,0.853Zm-21.5-1.293-1.809-.853,1.706-3.618,1.809,0.853Zm18.259-3.553-3.618-1.706,0.853-1.809,3.618,1.706Zm-7.236-3.412-3.618-1.706,0.853-1.809,3.618,1.706ZM76.741,57.1l-1.809-.853,1.706-3.618,1.809,0.853Z"/><path class="m" d="M70.949,116.282l-1.809-.853,1.706-3.618,1.809,0.853ZM66,115.054l-3.618-1.706,0.853-1.809,3.618,1.706Zm-7.237-3.412-3.618-1.706L56,108.127l3.618,1.706Zm15.6-2.6-1.809-.853,1.706-3.618,1.809,0.853Zm-21.5-1.293L51.05,106.9l1.706-3.618,1.809,0.853Zm24.914-5.943-1.809-.853,1.706-3.618,1.809,0.853Zm-21.5-1.293-1.809-.853,1.706-3.618L57.977,96.9ZM74.53,96.964l-3.618-1.706,0.853-1.809,3.618,1.706Zm-7.236-3.412-3.618-1.706,0.853-1.809,3.618,1.706Zm-7.611-.272-1.809-.853,1.706-3.618,1.809,0.853Z"/><path class="m" d="M80.51,142.9l-1.809-.853,1.706-3.618,1.809,0.853Zm-4.948-1.227-3.618-1.706,0.853-1.809,3.618,1.706Zm-7.237-3.412-3.618-1.706,0.853-1.809,3.618,1.706Zm15.6-2.6-1.809-.853,1.706-3.618,1.809,0.853Zm-21.5-1.293-1.809-.853,1.706-3.618,1.809,0.853Zm24.913-5.943-1.809-.853,1.706-3.618,1.809,0.853Zm-21.5-1.293-1.809-.853,1.706-3.618,1.809,0.853Zm18.258-3.553-3.618-1.706,0.853-1.809,3.618,1.706Zm-7.235-3.412-3.618-1.706,0.853-1.809,3.618,1.706Zm-7.612-.271-1.809-.853,1.706-3.618,1.809,0.853Z"/><path class="m" d="M90.071,169.521l-1.809-.853,1.706-3.618,1.809,0.853Zm-4.949-1.228L81.5,166.587l0.853-1.809,3.618,1.706Zm-7.236-3.412-3.618-1.706,0.853-1.809,3.618,1.706Zm15.6-2.6-1.809-.853,1.706-3.618,1.809,0.853Zm-21.5-1.294-1.809-.853,1.706-3.618,1.809,0.853Zm24.913-5.942-1.809-.853,1.706-3.618,1.809,0.853Zm-21.5-1.294-1.809-.853,1.706-3.618,1.809,0.853ZM93.651,150.2L90.033,148.5l0.853-1.809,3.618,1.706Zm-7.235-3.412L82.8,145.085l0.853-1.809,3.618,1.706Zm-7.612-.272L77,145.666l1.706-3.618L80.51,142.9Z"/><path class="m" d="M99.631,196.14l-1.809-.853,1.706-3.618,1.809,0.853Zm-4.948-1.227-3.618-1.706,0.853-1.809,3.618,1.706ZM87.447,191.5L83.829,189.8l0.853-1.809,3.618,1.706Zm15.6-2.6-1.809-.853,1.706-3.618,1.809,0.853Zm-21.5-1.293-1.809-.853,1.706-3.618,1.809,0.853Zm24.913-5.943-1.809-.853,1.706-3.618,1.809,0.853Zm-21.5-1.293-1.809-.853L84.85,175.9l1.809,0.853Zm18.259-3.553-3.618-1.706,0.853-1.809,3.618,1.706Zm-7.236-3.412L92.358,171.7l0.853-1.809,3.618,1.706Zm-7.611-.271-1.809-.853,1.706-3.618,1.809,0.853Z"/><path class="m" d="M109.192,222.759l-1.809-.853,1.706-3.618,1.809,0.853Zm-4.949-1.228-3.618-1.706,0.853-1.809,3.618,1.706Zm-7.236-3.411-3.618-1.706,0.853-1.809,3.618,1.706Zm15.6-2.6-1.809-.853,1.706-3.618,1.809,0.853ZM91.1,214.23l-1.809-.853L91,209.759l1.809,0.853Zm24.914-5.942-1.809-.853,1.706-3.618,1.809,0.853Zm-21.5-1.294-1.809-.854,1.706-3.618,1.809,0.854Zm18.259-3.552-3.618-1.706,0.853-1.809,3.618,1.706Zm-7.236-3.412-3.618-1.706,0.854-1.809,3.618,1.706Zm-7.611-.272-1.809-.853,1.706-3.618,1.809,0.853Z"/><path class="m" d="M118.753,249.379l-1.809-.853,1.706-3.618,1.809,0.853Zm-4.948-1.228-3.618-1.706,0.853-1.809,3.618,1.706Zm-7.237-3.411-3.618-1.706,0.854-1.809,3.618,1.706Zm15.6-2.6-1.809-.853,1.706-3.618,1.809,0.853Zm-21.5-1.293L98.854,240l1.705-3.618,1.809,0.853Zm24.914-5.943-1.809-.853,1.706-3.618,1.808,0.852Zm-21.5-1.293-1.809-.853,1.706-3.618L105.78,230Zm18.259-3.553-3.618-1.706,0.853-1.809,3.618,1.706Zm-7.236-3.412-3.618-1.706,0.853-1.809,3.618,1.706Zm-7.611-.271-1.809-.853,1.706-3.618,1.809,0.853Z"/><path class="m" d="M128.314,276l-1.809-.853,1.706-3.618,1.809,0.853Zm-4.949-1.228-3.618-1.706,0.853-1.809,3.618,1.706Zm-7.236-3.412-3.618-1.706,0.853-1.809,3.618,1.706Zm15.6-2.6-1.809-.853,1.706-3.618,1.809,0.853Zm-21.5-1.293-1.809-.854L110.121,263l1.809,0.854Zm24.913-5.943-1.809-.853,1.706-3.618,1.809,0.853Zm-21.5-1.293-1.809-.853,1.706-3.618,1.809,0.853Zm18.259-3.552-3.618-1.706,0.853-1.809,3.618,1.706Zm-7.236-3.412-3.618-1.706,0.853-1.809,3.618,1.706ZM117.047,253l-1.809-.853,1.706-3.617,1.809,0.853Z"/><path class="m" d="M137.875,302.618l-1.809-.853,1.706-3.618L139.581,299Zm-4.949-1.228-3.618-1.706,0.853-1.809,3.618,1.706Zm-7.236-3.411-3.618-1.706,0.854-1.809,3.618,1.706Zm15.6-2.6-1.809-.853,1.706-3.618,1.809,0.853Zm-21.5-1.293-1.809-.853,1.705-3.618,1.809,0.853Zm24.914-5.942-1.809-.853,1.706-3.618,1.808,0.852Zm-21.5-1.293L121.387,286l1.706-3.618,1.809,0.853Zm18.259-3.554-3.618-1.706,0.853-1.809,3.618,1.706Zm-7.237-3.411-3.618-1.706,0.853-1.809,3.618,1.706Zm-7.611-.271-1.809-.853,1.706-3.618L128.313,276Z"/><path class="m" d="M61.388,89.663L59.58,88.81l1.706-3.618L63.1,86.045ZM56.44,88.435l-3.618-1.706,0.853-1.809,3.618,1.706ZM49.2,85.023l-3.618-1.706,0.853-1.809,3.618,1.706Zm15.6-2.6-1.809-.853L64.7,77.955l1.809,0.853ZM43.3,81.133l-1.809-.853,1.706-3.618L45,77.515Zm24.913-5.942L66.4,74.338l1.706-3.618,1.809,0.853ZM46.71,73.9L44.9,73.045l1.706-3.618,1.809,0.853Zm18.259-3.554-3.618-1.706L62.2,66.829l3.618,1.706Zm-7.236-3.411-3.618-1.706,0.853-1.809,3.618,1.706Zm-7.611-.272-1.809-.853,1.706-3.618,1.809,0.853Z"/><path class="m" d="M44.33,125.842l-1.809-.853,1.706-3.618,1.809,0.853Zm-4.949-1.228-3.618-1.706,0.853-1.809,3.618,1.706ZM32.145,121.2L28.527,119.5l0.853-1.809L33,119.394Zm15.6-2.6-1.809-.853,1.706-3.618,1.809,0.853Zm-21.5-1.294-1.809-.854,1.706-3.618,1.809,0.854Zm24.913-5.942-1.809-.853L51.05,106.9l1.809,0.853Zm-21.5-1.294-1.809-.853,1.706-3.618,1.809,0.853Zm18.259-3.552-3.618-1.706,0.853-1.809,3.618,1.706Zm-7.236-3.412-3.618-1.706L37.91,99.6l3.618,1.706Zm-7.611-.273-1.809-.853,1.706-3.617,1.809,0.853Z"/><path class="m" d="M53.891,152.462l-1.809-.853,1.706-3.618,1.809,0.853Zm-4.949-1.228-3.618-1.705,0.853-1.809,3.618,1.705Zm-7.236-3.412-3.618-1.706,0.853-1.809,3.618,1.706Zm15.6-2.6-1.809-.853,1.706-3.618,1.809,0.853Zm-21.5-1.293-1.809-.853,1.706-3.618,1.809,0.853Zm24.914-5.943-1.809-.853,1.706-3.618,1.809,0.852Zm-21.5-1.293-1.809-.853,1.706-3.618,1.809,0.853Zm18.259-3.553-3.618-1.706,0.853-1.809,3.618,1.706Zm-7.236-3.412-3.618-1.706,0.853-1.809,3.618,1.706Zm-7.611-.271-1.809-.853,1.706-3.618,1.809,0.853Z"/><path class="m" d="M63.451,179.082l-1.809-.853,1.706-3.618,1.809,0.853ZM58.5,177.854l-3.618-1.706,0.853-1.809,3.618,1.706Zm-7.236-3.412-3.618-1.706,0.853-1.809,3.618,1.706Zm15.6-2.6-1.809-.853,1.706-3.618,1.809,0.853Zm-21.5-1.293-1.809-.853,1.706-3.618,1.809,0.853Zm24.913-5.943-1.809-.853,1.706-3.618,1.809,0.853Zm-21.5-1.293-1.809-.853,1.706-3.618,1.809,0.853Zm18.259-3.552-3.618-1.706,0.853-1.809,3.618,1.706ZM59.8,156.352l-3.618-1.706,0.853-1.809,3.618,1.706Zm-7.611-.272-1.809-.853,1.706-3.618,1.809,0.853Z"/><path class="m" d="M73.012,205.7l-1.809-.853,1.706-3.618,1.809,0.853Zm-4.948-1.228-3.618-1.706,0.853-1.809,3.618,1.706Zm-7.237-3.412-3.618-1.706,0.853-1.809,3.618,1.706Zm15.6-2.6-1.809-.853,1.706-3.618,1.809,0.853Zm-21.5-1.294-1.809-.853,1.706-3.618,1.809,0.853Zm24.914-5.942-1.809-.853,1.706-3.618,1.809,0.853Zm-21.5-1.293-1.809-.853,1.706-3.618,1.809,0.853Zm18.259-3.553-3.618-1.706,0.853-1.809,3.618,1.706Zm-7.236-3.412-3.618-1.706,0.853-1.809,3.618,1.706Zm-7.611-.272-1.809-.853,1.706-3.618,1.809,0.853Z"/><path class="m" d="M82.573,232.32l-1.809-.853,1.706-3.618,1.809,0.853Zm-4.948-1.227-3.618-1.706,0.853-1.809,3.618,1.706Zm-7.237-3.412-3.618-1.706,0.854-1.809,3.618,1.706Zm15.6-2.6-1.809-.853,1.706-3.618,1.809,0.853Zm-21.5-1.293-1.809-.853,1.705-3.618,1.809,0.853ZM89.4,217.848L87.588,217l1.706-3.618,1.809,0.852Zm-21.5-1.292-1.809-.853,1.706-3.618,1.809,0.853ZM86.153,213L82.535,211.3l0.853-1.809,3.618,1.706Zm-7.236-3.412L75.3,207.884l0.853-1.809,3.618,1.706Zm-7.611-.271-1.809-.853,1.706-3.618,1.809,0.853Z"/><path class="m" d="M92.133,258.94l-1.809-.853,1.706-3.618,1.809,0.853Zm-4.948-1.228-3.618-1.706L84.42,254.2l3.618,1.706ZM79.949,254.3l-3.618-1.706,0.853-1.809,3.618,1.706Zm15.6-2.6-1.809-.853,1.706-3.618,1.809,0.853Zm-21.5-1.294-1.809-.854,1.706-3.618,1.809,0.854Zm24.913-5.942-1.809-.853L98.854,240l1.809,0.853Zm-21.5-1.294-1.809-.853,1.706-3.618,1.809,0.853Zm18.259-3.552L92.1,237.916l0.853-1.809,3.618,1.706Zm-7.236-3.411-3.618-1.706,0.853-1.809,3.618,1.706Zm-7.612-.273-1.809-.853,1.706-3.617,1.809,0.853Z"/><path class="m" d="M101.694,285.559l-1.809-.853,1.706-3.618,1.809,0.853Zm-4.948-1.227-3.618-1.706,0.853-1.809,3.618,1.706Zm-7.237-3.412-3.618-1.706,0.854-1.809,3.618,1.706Zm15.6-2.6-1.809-.853L105,273.852l1.809,0.853ZM83.6,277.03l-1.809-.853,1.705-3.618,1.809,0.853Zm24.914-5.943-1.809-.853,1.706-3.618,1.808,0.852Zm-21.5-1.293-1.809-.853,1.706-3.618,1.809,0.853Zm18.258-3.553-3.618-1.706,0.853-1.809,3.618,1.706Zm-7.236-3.412-3.618-1.706,0.853-1.809,3.618,1.706Zm-7.611-.271-1.809-.853,1.706-3.618,1.809,0.853Z"/><path class="m" d="M111.255,312.178l-1.809-.853,1.706-3.618,1.809,0.853Zm-4.949-1.228-3.618-1.706,0.853-1.809,3.618,1.706Zm-7.236-3.411-3.618-1.706,0.853-1.809,3.618,1.706Zm15.6-2.6-1.809-.853,1.706-3.618,1.809,0.853Zm-21.5-1.293-1.809-.854,1.706-3.618,1.809,0.854Zm24.913-5.942-1.809-.853,1.706-3.618,1.809,0.853Zm-21.5-1.294-1.809-.853,1.706-3.618,1.809,0.853Zm18.259-3.552-3.618-1.706,0.853-1.809,3.618,1.706Zm-7.235-3.412-3.618-1.706,0.853-1.809,3.618,1.706Zm-7.612-.273-1.809-.853,1.706-3.617,1.809,0.853Z"/><path class="m" d="M34.769,99.223L32.96,98.37l1.706-3.618L36.475,95.6ZM29.82,98L26.2,96.289l0.853-1.809,3.618,1.706Zm-7.236-3.411-3.618-1.706,0.853-1.809,3.618,1.706Zm15.6-2.6-1.809-.853,1.706-3.618,1.809,0.853Zm-21.5-1.293-1.809-.853,1.706-3.618,1.809,0.853Zm24.914-5.942L39.784,83.9l1.706-3.618L43.3,81.133Zm-21.5-1.294-1.809-.853,1.706-3.618L21.8,79.84ZM38.349,79.9L34.731,78.2l0.853-1.809L39.2,78.1Zm-7.236-3.412L27.5,74.788l0.853-1.809,3.618,1.705ZM23.5,76.222l-1.809-.853L23.4,71.751,25.208,72.6Z"/><path class="m" d="M17.711,135.4L15.9,134.55l1.706-3.618,1.809,0.853Zm-4.949-1.227L9.144,132.47,10,130.661l3.618,1.706Zm-7.237-3.412-3.618-1.706,0.854-1.809,3.618,1.706Zm15.6-2.6-1.809-.853,1.706-3.618,1.809,0.853Zm-21.5-1.293-1.809-.853,1.705-3.618,1.809,0.853Zm24.914-5.943-1.809-.853,1.706-3.618,1.808,0.852Zm-21.5-1.293-1.809-.853,1.706-3.618,1.809,0.853Zm18.259-3.553-3.618-1.706,0.853-1.809,3.618,1.706Zm-7.237-3.412-3.618-1.706,0.853-1.809,3.618,1.706ZM6.443,112.4l-1.809-.853,1.706-3.618,1.809,0.853Z"/><path class="m" d="M27.271,162.023l-1.809-.853,1.706-3.618,1.809,0.853Zm-4.949-1.228L18.7,159.089l0.853-1.809,3.618,1.706Zm-7.236-3.412-3.618-1.706,0.853-1.809,3.618,1.706Zm15.6-2.6-1.809-.853,1.706-3.618,1.809,0.853Zm-21.5-1.294-1.809-.854,1.706-3.618,1.809,0.854Zm24.913-5.942-1.809-.853,1.706-3.618,1.809,0.853Zm-21.5-1.294-1.809-.853,1.706-3.618,1.809,0.853Zm18.26-3.552L27.235,141l0.853-1.809,3.618,1.706Zm-7.236-3.411L20,137.588l0.853-1.809,3.618,1.706ZM16,139.021l-1.809-.853,1.706-3.617,1.809,0.853Z"/><path class="m" d="M36.832,188.642l-1.809-.853,1.706-3.618,1.809,0.853Zm-4.948-1.227-3.618-1.706,0.853-1.809,3.618,1.706ZM24.647,184L21.029,182.3l0.854-1.809,3.618,1.706Zm15.6-2.6-1.809-.853,1.706-3.618,1.809,0.853Zm-21.5-1.293-1.809-.853,1.7-3.618,1.809,0.853Zm24.914-5.943-1.809-.853,1.706-3.618,1.808,0.852Zm-21.5-1.293-1.809-.853,1.706-3.618,1.809,0.853Zm18.259-3.553-3.618-1.706,0.853-1.809,3.618,1.706Zm-7.236-3.412-3.618-1.706,0.853-1.809,3.618,1.706Zm-7.611-.271-1.809-.853,1.706-3.618,1.809,0.853Z"/><path class="m" d="M46.393,215.261l-1.809-.853,1.706-3.618,1.809,0.853Zm-4.949-1.228-3.618-1.706,0.853-1.809,3.618,1.706Zm-7.236-3.411-3.618-1.706,0.853-1.809,3.618,1.706Zm15.6-2.6L48,207.172l1.706-3.618,1.809,0.853Zm-21.5-1.293-1.809-.854L28.2,202.26l1.809,0.854Zm24.913-5.942-1.809-.853,1.706-3.618,1.809,0.853Zm-21.5-1.294-1.809-.853,1.706-3.618,1.809,0.853Zm18.259-3.552-3.618-1.706,0.853-1.809,3.618,1.706Zm-7.236-3.412-3.618-1.706,0.853-1.809,3.618,1.706Zm-7.611-.273-1.809-.853,1.706-3.617,1.809,0.853Z"/><path class="m" d="M55.953,241.881l-1.809-.853,1.706-3.618,1.809,0.853ZM51,240.653l-3.618-1.705,0.853-1.809,3.618,1.705Zm-7.235-3.412-3.618-1.706L41,233.726l3.618,1.706Zm15.6-2.6-1.809-.853,1.706-3.618,1.809,0.853Zm-21.5-1.294-1.809-.853,1.706-3.618,1.809,0.853Zm24.913-5.942-1.809-.853,1.706-3.618,1.809,0.853Zm-21.5-1.294-1.809-.853,1.706-3.618,1.809,0.853Zm18.259-3.552-3.618-1.706,0.853-1.809,3.618,1.706ZM52.3,219.151l-3.618-1.706,0.853-1.809,3.618,1.706Zm-7.611-.272-1.809-.853,1.706-3.618,1.809,0.853Z"/><path class="m" d="M65.514,268.5l-1.809-.853,1.706-3.618,1.809,0.853Zm-4.949-1.228-3.618-1.706,0.853-1.809,3.618,1.706Zm-7.236-3.412-3.618-1.706,0.853-1.809,3.618,1.706Zm15.6-2.6-1.809-.853,1.706-3.618,1.809,0.853Zm-21.5-1.293-1.809-.853,1.706-3.618,1.809,0.853Zm24.913-5.943-1.809-.853,1.706-3.618,1.809,0.853Zm-21.5-1.293-1.809-.853,1.706-3.618,1.809,0.853ZM69.1,249.182l-3.618-1.706,0.853-1.809,3.618,1.706Zm-7.236-3.411-3.618-1.706,0.853-1.809,3.618,1.706Zm-7.611-.272-1.809-.853,1.706-3.618,1.809,0.853Z"/><path class="m" d="M75.075,295.12l-1.809-.853,1.706-3.618,1.809,0.853Zm-4.949-1.228-3.618-1.706,0.853-1.809,3.618,1.706ZM62.89,290.48l-3.618-1.706,0.853-1.809,3.618,1.706Zm15.6-2.6-1.809-.853,1.706-3.618,1.809,0.853Zm-21.5-1.294-1.809-.853,1.706-3.618,1.809,0.853ZM81.9,280.648l-1.809-.853,1.706-3.618L83.6,277.03Zm-21.5-1.294-1.809-.853,1.706-3.618,1.809,0.853ZM78.656,275.8L75.038,274.1l0.853-1.809,3.618,1.7ZM71.42,272.39L67.8,270.684l0.853-1.809,3.618,1.706Zm-7.611-.272L62,271.265l1.706-3.618,1.809,0.853Z"/><path class="m" d="M84.636,321.739l-1.809-.853,1.706-3.618,1.809,0.853Zm-4.948-1.228L76.07,318.8,76.923,317l3.618,1.706ZM72.451,317.1l-3.618-1.706,0.854-1.809,3.618,1.706Zm15.6-2.6-1.809-.853,1.706-3.618,1.809,0.853Zm-21.5-1.293-1.809-.852,1.705-3.618,1.809,0.853Zm24.915-5.943-1.809-.853,1.706-3.618,1.809,0.852Zm-21.5-1.293-1.809-.853,1.706-3.618,1.809,0.853Zm18.259-3.553L84.6,300.715l0.853-1.809,3.618,1.706Zm-7.236-3.412L77.362,297.3l0.853-1.809,3.618,1.706Zm-7.611-.271-1.809-.854,1.706-3.618,1.809,0.854Z"/><path class="m" d="M8.149,108.784l-1.809-.853,1.706-3.618,1.809,0.853ZM3.2,107.556l-3.618-1.706,0.853-1.809,3.618,1.706Zm-7.236-3.412-3.618-1.706,0.853-1.809,3.618,1.706Zm15.6-2.6L9.752,100.7l1.706-3.618,1.809,0.853Zm-21.5-1.294-1.809-.854,1.706-3.618,1.809,0.854Zm24.913-5.942-1.809-.853,1.706-3.618,1.809,0.853Zm-21.5-1.294-1.809-.853,1.706-3.618L-4.822,89.4Zm18.259-3.552L8.113,87.76l0.853-1.809,3.618,1.706ZM4.495,86.055L0.877,84.349,1.73,82.54l3.618,1.706Zm-7.612-.273-1.809-.853,1.706-3.617,1.809,0.853Z"/></g></g><g class="n"><rect class="o" x="85.24" y="54.109" width="3" height="6" transform="translate(-14.2 32.69) rotate(-19.761)"/><path class="o" d="M156.794,256.6l-3.914-10.9,2.823-1.014,3.914,10.9ZM148.965,234.8l-3.914-10.9,2.823-1.014,3.914,10.9Zm-7.827-21.795-3.914-10.9,2.823-1.014,3.914,10.9Zm-7.828-21.795-3.914-10.9,2.823-1.014,3.914,10.9Zm-7.829-21.795-3.914-10.9,2.823-1.014,3.914,10.9Zm-7.827-21.794-3.914-10.9,2.823-1.014,3.914,10.9Zm-7.828-21.795-3.914-10.9,2.823-1.014,3.914,10.9ZM102,104.032l-3.914-10.9,2.823-1.014,3.914,10.9ZM94.17,82.237l-3.914-10.9,2.823-1.014,3.914,10.9Z"/><rect class="o" x="161.638" y="266.799" width="3" height="6" transform="translate(-81.613 71.046) rotate(-19.761)"/></g></svg>