<svg xmlns="http://www.w3.org/2000/svg" xmlns:xlink="http://www.w3.org/1999/xlink" width="350" height="350" viewBox="0 0 350 350"><defs><style>.a{fill:#818385;}.b{fill:#6d6f71;}.c,.d{fill:#e7f3fb;}.c{opacity:0.1;}.e{opacity:0.2;}.f{fill:#f0f6fc;}.g{fill:#f3f3f5;fill-opacity:0.5;stroke:#d6d8de;stroke-linejoin:round;stroke-opacity:0.7;stroke-width:1.328px;}.h,.n{fill:none;stroke-miterlimit:10;}.h{stroke:#fff;stroke-width:3px;}.i,.j,.k,.l{opacity:0.5;}.i{fill:url(#a);}.j{fill:url(#b);}.k{fill:url(#c);}.l{fill:url(#d);}.m{opacity:0.6;}.n{stroke:#d57198;}</style><radialGradient id="a" cx="175" cy="140.363" r="80.079" gradientTransform="translate(-95.433) scale(1.545 1)" gradientUnits="userSpaceOnUse"><stop offset="0.661" stop-color="#70cfef"/><stop offset="0.789" stop-color="#71cfef" stop-opacity="0.992"/><stop offset="0.835" stop-color="#75d1f0" stop-opacity="0.964"/><stop offset="0.868" stop-color="#7cd3f0" stop-opacity="0.914"/><stop offset="0.894" stop-color="#86d7f2" stop-opacity="0.844"/><stop offset="0.917" stop-color="#94dbf3" stop-opacity="0.751"/><stop offset="0.937" stop-color="#a4e0f5" stop-opacity="0.638"/><stop offset="0.956" stop-color="#b7e7f7" stop-opacity="0.502"/><stop offset="0.972" stop-color="#ceeef9" stop-opacity="0.344"/><stop offset="0.987" stop-color="#e6f7fc" stop-opacity="0.172"/><stop offset="1" stop-color="#fff" stop-opacity="0"/></radialGradient><radialGradient id="b" cx="175" cy="209.637" r="80.079" xlink:href="#a"/><radialGradient id="c" cx="175.915" cy="136.154" r="80.079" gradientTransform="translate(-1.413 446.846) rotate(-90) scale(1.545 1)" xlink:href="#a"/><radialGradient id="d" cx="175.915" cy="212.049" r="80.079" gradientTransform="translate(-1.413 446.846) rotate(-90) scale(1.545 1)" xlink:href="#a"/></defs><title>help-apply</title><circle class="a" cx="175" cy="173.587" r="77.394"/><path class="b" d="M175,98.575a75.012,75.012,0,1,1-75.012,75.012A75.1,75.1,0,0,1,175,98.575m0-2.381a77.394,77.394,0,1,0,77.394,77.394A77.394,77.394,0,0,0,175,96.193h0Z"/><path class="c" d="M188.639,211.183a6.227,6.227,0,0,1-2.157-.5c-0.1-.041-0.2-0.085-0.294-0.12-0.027.008-.06,0.02-0.114,0.04a3.693,3.693,0,0,1-1.356.27,4.482,4.482,0,0,1-1.492-.282,5.229,5.229,0,0,1-1.61-1.028c-0.127-.106-0.249-0.215-0.36-0.29l-0.411-.229a10.489,10.489,0,0,1-3.408-2.71,32.758,32.758,0,0,1-3.614-4.6,3.975,3.975,0,0,0-.847-0.929,11.918,11.918,0,0,1-1.1-1.076,24.773,24.773,0,0,1-3.149-5.058c-0.292-.566-0.576-1.12-0.863-1.635-0.135-.242-0.637-1.121-0.985-1.713a4.126,4.126,0,0,1-1.727-.685,8.236,8.236,0,0,1-1.634-1.506,2.21,2.21,0,0,0-.155-0.176c-0.015,0-.141-0.053-0.426-0.126a6.841,6.841,0,0,0-1.526-.155,4.1,4.1,0,0,0-1.4.176,8.292,8.292,0,0,0-.772,1.665c-0.587,1.494-1.567,4-4.2,4a5.294,5.294,0,0,1-3.348-1.444,5.406,5.406,0,0,1-1.094-1.264c-0.017-.026-0.034-0.052-0.051-0.079l-0.085-.01a5.5,5.5,0,0,1-2-.545,9.5,9.5,0,0,1-4.092-5.361,14.068,14.068,0,0,1-.334-1.583,4.007,4.007,0,0,0-.83-2.3,5.49,5.49,0,0,0-.912-0.595,9.942,9.942,0,0,1-1.67-1.13,3.825,3.825,0,0,1-1.012-1.71l-0.028-.077c-0.124-.109-0.292-0.247-0.417-0.351a12.785,12.785,0,0,1-1.155-1.035L137.96,177a4.854,4.854,0,0,1-1.363-.984,6.926,6.926,0,0,1-.83-1.239c-0.144-.245-0.288-0.5-0.4-0.658a3.6,3.6,0,0,1-.6-2.594l0.01-.178,0.038-2.342,2.343-.035h16.91V140.212H174.4V154a0.954,0.954,0,0,0,.38.126,9.372,9.372,0,0,1,3.048.727,4.933,4.933,0,0,0,1.642.432l0.438-.025c0.31-.023.6-0.041,0.88-0.041a5.07,5.07,0,0,1,2.606.676,4.482,4.482,0,0,1,.47.309,3.862,3.862,0,0,1,1.93-.553l0.266,0.01a3.159,3.159,0,0,1,1.571.563,2.815,2.815,0,0,1,1.186-.255,3.97,3.97,0,0,1,2.173.757,6.889,6.889,0,0,1,4.081-1.08,15.534,15.534,0,0,1,3.449.415,17.383,17.383,0,0,1,2.7.956,11.551,11.551,0,0,0,2.19.763l0.7,0.033a3.269,3.269,0,0,1,3.117,3.269v5.869a3.323,3.323,0,0,0,.341,1.278,12.792,12.792,0,0,1,.5,1.326,16.062,16.062,0,0,0,.844,1.891,12.889,12.889,0,0,1,1.589,4.6,6.531,6.531,0,0,1-.669,3,5.478,5.478,0,0,0-.291.789,6.486,6.486,0,0,0-.053,1.281,10.354,10.354,0,0,1-.143,2.284c-0.488,2.44-2.376,5.182-5.04,5.705,0,0-.621.126-0.738,0.144a3.308,3.308,0,0,1-1.18,1.169c-0.064.136-.122,0.264-0.177,0.385a6.206,6.206,0,0,1-3.532,3.594,5.636,5.636,0,0,1-2.509.513c-0.169,0-.969-0.015-1.006-0.014a5.251,5.251,0,0,1-.338.8,4.328,4.328,0,0,1-1.98,1.909,1.227,1.227,0,0,0-.21.117,3.752,3.752,0,0,0-.226.4,6.075,6.075,0,0,1-1.05,1.543,2.742,2.742,0,0,1,.128.73,21.32,21.32,0,0,1-.46,5.047c-0.435-.581-0.5,1.045-1.184.8a0.522,0.522,0,0,0-.443-0.014,0.512,0.512,0,0,0-.189.385,2.979,2.979,0,0,0,2,3.246A2.788,2.788,0,0,1,188.639,211.183Z"/><path class="d" d="M203.145,160.149c-1.826-.293-3.4-1.346-5.186-1.775-1.482-.356-4.366-0.689-5.66.34-0.378.3-.206,0.73-0.744,0.918-0.773.27-1.315-.537-1.843-0.9-1.655-1.123-1.085.574-2.459,0.283-0.513-.108-0.719-0.935-1.383-0.987-0.807-.063-1.394.862-2.207,0.805-0.671-.047-0.887-0.555-1.451-0.876a3.889,3.889,0,0,0-2.49-.306c-1.926.113-3.208-1.086-5.031-1.152a2.842,2.842,0,0,1-2.675-1.955V142.593H156.448v28.759H137.156a2.658,2.658,0,0,0,.092,1.31c0.3,0.388.875,1.5,1.1,1.738,0.368,0.4,1.02.57,1.265,0.85,0.58,0.662,1.52,1.264,1.951,1.78,0.2,0.238.416,1.194,0.632,1.383,0.8,0.705,1.955,1.1,2.689,1.824,1.476,1.465,1.342,3.418,1.775,4.912a7.156,7.156,0,0,0,2.933,3.927c0.617,0.332,1.635.228,2.088,0.493,0.842,0.492.854,1.107,1.533,1.669,3.807,3.154,3.252-2.912,5.546-4.4,1.05-.683,3.509-0.628,4.772-0.307,1.9,0.483,1.389,1.027,3,2.173,0.606,0.43,1.283.176,1.955,0.7,0.1,0.08,1.4,2.374,1.46,2.478,1.115,2,2.2,4.554,3.718,6.276a16.47,16.47,0,0,1,2.151,2.28,30.456,30.456,0,0,0,3.385,4.3,9.1,9.1,0,0,0,3.262,2.487A17.486,17.486,0,0,0,184,208.344c1.188,0.412,1-.148,2.309-0.175,0.811-.017,2.332,1.234,2.958.369-0.1.137-.959-4.589-1.065-4.91a3.134,3.134,0,0,1-.507-1.479,1.786,1.786,0,0,1,.956-1.033c1.186-.881-0.325-1.175-0.581-1.6-0.748-1.23-.152-0.535.958-1.078,1.138-.557,1.161-1.622,1.877-2.37,0.672-.7,1.315-0.56,1.8-1.488,0.5-.943.091-1.417,1.314-1.884,1.2-.457,2.4.125,3.622-0.458,2.024-.966,1.957-1.638,2.793-3.276,0.329-.644,1.058-0.447,1.171-1.257,0.092-.658-0.975-1.17-0.853-1.685,0.67-2.82,1.33.112,1.685,0.277,1.253,0.584-.043.744,1.4,0.461,1.605-.314,2.847-2.254,3.163-3.834,0.236-1.179-.041-2.384.2-3.567,0.211-1.052.987-2.066,0.918-3.171-0.111-1.789-1.794-4.217-2.329-5.929-0.422-1.348-.815-1.564-0.951-3.211v-5.973a0.891,0.891,0,0,0-.849-0.89Z"/><g class="e"><path class="f" d="M221.291,144.475c-19,12.6-16.647,38.911,3.549,48.3-1.652,3.676-3,7.549-5.043,11.01a121.41,121.41,0,0,1-9.337,13.762c-6.188,7.791-12.824,9.372-21.946,5.272a26.041,26.041,0,0,0-22.651-.01,27.869,27.869,0,0,1-6.873,2.118c-5.159.874-9.287-1.4-12.744-4.972a73.486,73.486,0,0,1-14.99-22.76c-4.406-10.446-6.82-21.283-5.9-32.688,0.637-7.913,3.108-15.169,8.339-21.278,8.732-10.2,20.711-12.831,33.944-7.558,0.746,0.3,1.508.564,2.23,0.914a12.847,12.847,0,0,0,11.411.051,76.318,76.318,0,0,1,7.6-2.821C200.86,129.934,214.27,134.321,221.291,144.475Z"/><path class="f" d="M174.935,130.88c-3.052-11.344,11.611-28.283,24.049-27.78C201.267,115.257,188.969,132.3,174.935,130.88Z"/></g><rect class="g" x="76.032" y="74.619" width="197.936" height="197.936"/><circle class="h" cx="175" cy="173.587" r="82.618"/><rect class="i" y="139.363" width="350" height="2"/><rect class="j" y="208.637" width="350" height="2"/><rect class="k" x="133.742" width="2" height="350"/><rect class="l" x="209.637" width="2" height="350"/><g class="m"><line class="n" x1="208.507" y1="138.363" x2="212.507" y2="142.363"/><line class="n" x1="208.507" y1="142.363" x2="212.507" y2="138.363"/><line class="n" x1="132.742" y1="138.212" x2="136.742" y2="142.212"/><line class="n" x1="132.742" y1="142.212" x2="136.742" y2="138.212"/><line class="n" x1="132.742" y1="207.637" x2="136.742" y2="211.637"/><line class="n" x1="132.742" y1="211.637" x2="136.742" y2="207.637"/><line class="n" x1="208.507" y1="207.637" x2="212.507" y2="211.637"/><line class="n" x1="208.507" y1="211.637" x2="212.507" y2="207.637"/></g></svg>