<svg xmlns="http://www.w3.org/2000/svg" xmlns:xlink="http://www.w3.org/1999/xlink" width="1192.856" height="280.402" viewBox="0 0 1192.856 280.402"><defs><style>.a,.av,.aw,.bh,.bl,.bn,.bo,.o,.p,.q{fill:none;}.b{fill:#916235;}.c{fill:#9b6d3b;}.d{fill:#a17545;}.e{fill:#986c3f;}.f{fill:#a2774a;}.g{clip-path:url(#a);}.h{opacity:0.1;}.i{fill:#e7e7eb;stroke:#5b5d5d;}.av,.aw,.bh,.bl,.bn,.bo,.i,.o,.p,.q{stroke-miterlimit:10;}.av,.aw,.i,.o,.q{stroke-width:3px;}.j{opacity:0.8;}.k{fill:url(#b);}.l{fill:url(#c);}.m{opacity:0.5;}.n{fill:url(#d);}.o{stroke:url(#e);}.bh,.p{stroke-width:5px;}.p{stroke:url(#f);}.q{stroke:url(#g);}.r{fill:url(#h);}.s{opacity:0.4;}.t{fill:url(#i);}.u{fill:url(#j);}.v{fill:url(#k);}.w{fill:url(#l);}.x{fill:url(#m);}.y{fill:url(#n);}.z{fill:url(#o);}.aa{fill:url(#p);}.ab{fill:url(#q);}.ac{fill:url(#r);}.ad{fill:url(#s);}.ae{opacity:0.7;}.af{fill:url(#t);}.ag{fill:url(#u);}.ah{fill:url(#v);}.ai{fill:url(#w);}.aj{fill:url(#x);}.ak{opacity:0.6;}.al{fill:url(#y);}.am{fill:url(#z);}.an{fill:url(#aa);}.ao{fill:url(#ab);}.ap{fill:url(#ac);}.aq{fill:url(#ad);}.ar{fill:url(#ae);}.as{fill:url(#af);}.at{fill:url(#ag);}.au{fill:url(#ah);}.av{stroke:url(#ai);}.aw{stroke:url(#aj);}.ax{fill:url(#ak);}.ay{fill:url(#al);}.az{fill:url(#am);}.ba{fill:url(#an);}.bb{fill:url(#ao);}.bc{fill:url(#ap);}.bd{fill:url(#aq);}.be{fill:url(#ar);}.bf{fill:url(#as);}.bg{fill:url(#at);}.bh{stroke:url(#au);}.bi{fill:#442d19;}.bj{fill:#f2f2f3;}.bk{fill:url(#av);}.bl{stroke:url(#aw);}.bm{fill:#eaebec;}.bn{stroke:url(#ax);}.bo{stroke:url(#ay);}.bp{clip-path:url(#az);}.bq{fill:#62933f;}.br{fill:#d8dd44;}.bs{fill:#66bc46;}.bt{fill:#a6ce39;}.bu{fill:#60bb46;}.bv{fill:#fff;}.bw{fill:#e6f2dd;}.bx{fill:#f392bd;}.by{fill:#adafb3;}.bz{fill:#221e15;}</style><clipPath id="a"><rect class="a" y="-305.402" width="1192.856" height="280.402"/></clipPath><linearGradient id="b" x1="226.228" y1="233.668" x2="1194.356" y2="233.668" gradientUnits="userSpaceOnUse"><stop offset="0" stop-color="#86552a" stop-opacity="0.3"/><stop offset="0.528" stop-color="#86552a"/><stop offset="1" stop-color="#86552a" stop-opacity="0.3"/></linearGradient><linearGradient id="c" x1="193.73" y1="250.497" x2="500.214" y2="250.497" xlink:href="#b"/><linearGradient id="d" x1="695.035" y1="262.035" x2="1001.519" y2="262.035" xlink:href="#b"/><linearGradient id="e" x1="239.307" y1="163.568" x2="543.792" y2="163.568" gradientUnits="userSpaceOnUse"><stop offset="0" stop-color="#9b6d3b" stop-opacity="0"/><stop offset="0.5" stop-color="#9b6d3b"/><stop offset="1" stop-color="#9b6d3b" stop-opacity="0"/></linearGradient><linearGradient id="f" x1="35.738" y1="62.713" x2="340.222" y2="62.713" xlink:href="#e"/><linearGradient id="g" x1="171.937" y1="174.202" x2="346.972" y2="174.202" xlink:href="#e"/><linearGradient id="h" x1="389.05" y1="263.826" x2="698.535" y2="263.826" xlink:href="#b"/><linearGradient id="i" x1="16.77" y1="23.367" x2="903.77" y2="23.367" xlink:href="#b"/><linearGradient id="j" x1="757.818" y1="250.497" x2="1313.77" y2="250.497" xlink:href="#b"/><linearGradient id="k" x1="574.764" y1="121.834" x2="884.249" y2="121.834" xlink:href="#b"/><linearGradient id="l" x1="777.104" y1="104.457" x2="954.425" y2="104.457" xlink:href="#b"/><linearGradient id="m" x1="802.437" y1="111.646" x2="1154.77" y2="111.646" xlink:href="#b"/><linearGradient id="n" x1="781.77" y1="60.745" x2="1163.343" y2="60.745" gradientUnits="userSpaceOnUse"><stop offset="0" stop-color="#976e44" stop-opacity="0"/><stop offset="0.501" stop-color="#976e44"/><stop offset="1" stop-color="#976e44" stop-opacity="0"/></linearGradient><linearGradient id="o" x1="917.393" y1="163.04" x2="1179.393" y2="163.04" xlink:href="#n"/><linearGradient id="p" x1="-87.563" y1="163.04" x2="174.437" y2="163.04" xlink:href="#n"/><linearGradient id="q" x1="34.738" y1="154.153" x2="293.738" y2="154.153" gradientUnits="userSpaceOnUse"><stop offset="0" stop-color="#86552a" stop-opacity="0.3"/><stop offset="0.528" stop-color="#986032"/><stop offset="1" stop-color="#86552a" stop-opacity="0.3"/></linearGradient><linearGradient id="r" x1="339.222" y1="176.038" x2="598.222" y2="176.038" xlink:href="#q"/><linearGradient id="s" x1="531.203" y1="174.202" x2="1018.27" y2="174.202" xlink:href="#q"/><linearGradient id="t" x1="355.103" y1="105.956" x2="758.27" y2="105.956" xlink:href="#b"/><linearGradient id="u" x1="1014.77" y1="148.448" x2="1194.356" y2="148.448" xlink:href="#n"/><linearGradient id="v" x1="133.233" y1="233.668" x2="181.23" y2="233.668" xlink:href="#b"/><linearGradient id="w" x1="80.635" y1="140.344" x2="152.633" y2="140.344" xlink:href="#q"/><linearGradient id="x" x1="88.233" y1="241.137" x2="161.23" y2="241.137" xlink:href="#b"/><linearGradient id="y" x1="191.229" y1="16.51" x2="264.227" y2="16.51" xlink:href="#b"/><linearGradient id="z" x1="21.27" y1="262.326" x2="125.734" y2="262.326" xlink:href="#b"/><linearGradient id="aa" x1="60.437" y1="267.326" x2="222.727" y2="267.326" xlink:href="#b"/><linearGradient id="ab" x1="997.83" y1="18.51" x2="1162.12" y2="18.51" xlink:href="#b"/><linearGradient id="ac" x1="517.652" y1="11.668" x2="878.219" y2="11.668" xlink:href="#b"/><linearGradient id="ad" x1="0.49" y1="12.668" x2="162.78" y2="12.668" xlink:href="#b"/><linearGradient id="ae" x1="781.763" y1="35.05" x2="1116.53" y2="35.05" xlink:href="#b"/><linearGradient id="af" x1="238.138" y1="35.05" x2="400.428" y2="35.05" xlink:href="#b"/><linearGradient id="ag" x1="-1.513" y1="253.326" x2="173.424" y2="253.326" xlink:href="#b"/><linearGradient id="ah" x1="34.238" y1="233.668" x2="115.234" y2="233.668" xlink:href="#b"/><linearGradient id="ai" x1="625.976" y1="74.637" x2="930.461" y2="74.637" xlink:href="#e"/><linearGradient id="aj" x1="722.976" y1="84.052" x2="1027.461" y2="84.052" xlink:href="#e"/><linearGradient id="ak" x1="784.27" y1="216.84" x2="1006.565" y2="216.84" gradientUnits="userSpaceOnUse"><stop offset="0" stop-color="#86552a" stop-opacity="0.3"/><stop offset="0.353" stop-color="#946a3d"/><stop offset="1" stop-color="#86552a" stop-opacity="0.3"/></linearGradient><linearGradient id="al" x1="883.604" y1="206.558" x2="1105.898" y2="206.558" xlink:href="#ak"/><linearGradient id="am" x1="355.728" y1="140.693" x2="1320.856" y2="140.693" xlink:href="#ak"/><linearGradient id="an" x1="159.73" y1="78.693" x2="613.96" y2="78.693" xlink:href="#ak"/><linearGradient id="ao" x1="324.973" y1="60.745" x2="779.203" y2="60.745" xlink:href="#ak"/><linearGradient id="ap" x1="533.203" y1="196.276" x2="987.432" y2="196.276" xlink:href="#ak"/><linearGradient id="aq" x1="-10.77" y1="101.457" x2="179.73" y2="101.457" xlink:href="#ak"/><linearGradient id="ar" x1="0" y1="111.497" x2="213.27" y2="111.497" xlink:href="#ak"/><linearGradient id="as" x1="141.582" y1="127.48" x2="354.852" y2="127.48" xlink:href="#ak"/><linearGradient id="at" x1="0" y1="206.558" x2="638.566" y2="206.558" xlink:href="#ak"/><linearGradient id="au" x1="359.471" y1="154.153" x2="936.513" y2="154.153" xlink:href="#e"/><linearGradient id="av" x1="626.844" y1="80.446" x2="626.844" y2="107.237" gradientTransform="translate(-42.484 -2.856)" gradientUnits="userSpaceOnUse"><stop offset="0.262" stop-color="#b3b3b3"/><stop offset="0.307" stop-color="#b8b8b8"/><stop offset="0.362" stop-color="#c7c7c7"/><stop offset="0.376" stop-color="#ccc"/><stop offset="0.402" stop-color="#d1d1d1"/><stop offset="0.61" stop-color="#f2f2f2"/><stop offset="0.723" stop-color="#fff"/></linearGradient><linearGradient id="aw" x1="548.474" y1="94.159" x2="706.474" y2="94.159" gradientTransform="translate(-45.578 161.853) rotate(-14.933)" gradientUnits="userSpaceOnUse"><stop offset="0" stop-color="#e2e3e4"/><stop offset="0.488" stop-color="#dfe0e0"/><stop offset="0.938" stop-color="#d5d5d5"/><stop offset="0.973" stop-color="#d4d4d4"/></linearGradient><linearGradient id="ax" x1="548.474" y1="202.969" x2="706.474" y2="202.969" gradientTransform="translate(-45.578 161.853) rotate(-14.933)" gradientUnits="userSpaceOnUse"><stop offset="0" stop-color="#d1d3d4"/><stop offset="0.348" stop-color="#cecfd0"/><stop offset="0.669" stop-color="#c4c5c5"/><stop offset="0.973" stop-color="#b3b3b3"/></linearGradient><linearGradient id="ay" x1="548.474" y1="109.492" x2="706.474" y2="109.492" xlink:href="#ax"/><clipPath id="az"><rect class="a" x="525.618" y="150.992" width="157.518" height="24.096" transform="translate(-21.604 162.086) rotate(-15.01)"/></clipPath></defs><title>hero--airpod</title><rect class="b" x="-22.737" y="233.668" width="1238.329" height="58.224"/><rect class="c" x="-22.737" y="186.935" width="1238.329" height="46.734"/><rect class="d" x="-22.737" y="140.201" width="1238.329" height="46.734"/><rect class="e" x="-22.737" y="93.467" width="1238.329" height="46.734"/><rect class="f" x="-22.737" y="46.734" width="1238.329" height="46.734"/><rect class="e" x="-22.737" y="-9.75" width="1238.329" height="56.484"/><g class="g"><g class="h"><rect class="i" x="1022.821" y="-104.216" width="180.648" height="106.186"/></g></g><g class="j"><polygon class="k" points="227.728 233.668 348.369 232.939 469.01 232.52 710.292 232.17 951.574 232.515 1072.215 232.934 1192.856 233.668 1072.215 234.403 951.574 234.822 710.292 235.167 469.01 234.817 348.369 234.398 227.728 233.668"/></g><path class="l" d="M194.729,250.5l38.061-.323,38.061-.242,76.122-.335,38.061-.085,38.061.116c25.374.139,50.748.37,76.121.869-25.374.5-50.748.73-76.121.869l-38.061.116-38.061-.085-76.122-.335-38.061-.242Z"/><g class="m"><path class="n" d="M696.035,262.035l38.061-.323,38.061-.242,76.121-.335,38.061-.085,38.061.116c25.374.139,50.747.37,76.121.869-25.374.5-50.748.73-76.121.869l-38.061.116-38.061-.085-76.121-.335-38.061-.242Z"/></g><polyline class="o" points="239.307 163.568 369.471 163.568 543.792 163.568"/><polyline class="p" points="35.738 62.713 165.901 62.713 340.222 62.713"/><line class="q" x1="171.937" y1="174.202" x2="346.972" y2="174.202"/><path class="r" d="M391.55,263.826c25.374-.668,50.748-1.1,76.121-1.441l76.122-.885c25.374-.208,50.747-.241,76.121.119,6.343.057,12.687.176,19.03.309l9.515.186,9.515.257c12.687.338,25.374.781,38.061,1.455-12.687.674-25.374,1.118-38.061,1.455l-9.515.257-9.515.186c-6.343.132-12.687.252-19.03.309-25.374.359-50.748.326-76.121.119l-76.122-.885C442.3,264.929,416.924,264.494,391.55,263.826Z"/><g class="s"><polygon class="t" points="18.27 23.367 128.77 22.636 239.27 22.218 460.27 21.869 681.27 22.213 791.77 22.632 902.27 23.367 791.77 24.102 681.27 24.521 460.27 24.865 239.27 24.515 128.77 24.098 18.27 23.367"/></g><g class="m"><path class="u" d="M760.318,250.5l17.217-.42,17.217-.32c11.478-.2,22.956-.463,34.435-.6q34.434-.506,68.869-.756l68.869-.309,68.869-.073q68.87.076,137.738.582,34.435.246,68.869.723l34.435.538,17.217.276,17.217.361-17.217.361-17.217.276-34.435.538q-34.435.44-68.869.723-68.869.6-137.738.582l-68.869-.073-68.869-.308q-34.435-.289-68.869-.756c-11.479-.141-22.957-.407-34.435-.6l-17.217-.32Z"/></g><g class="s"><path class="v" d="M577.264,121.834c25.374-.668,50.748-1.1,76.121-1.441l76.121-.885c25.374-.208,50.748-.241,76.122.119,6.343.057,12.687.176,19.03.309l9.515.186,9.515.257c12.687.337,25.374.781,38.061,1.455-12.687.674-25.374,1.118-38.061,1.455l-9.515.257-9.515.186c-6.344.132-12.687.252-19.03.309-25.374.359-50.748.326-76.122.119l-76.121-.885C628.012,122.937,602.638,122.5,577.264,121.834Z"/></g><g class="s"><path class="w" d="M952.925,104.457q-21.79.869-43.581,1.166c-7.263.138-14.527.169-21.79.25l-21.79.083-21.791-.079c-7.263-.084-14.526-.11-21.79-.25q-21.79-.294-43.58-1.171,21.79-.875,43.58-1.171c7.264-.14,14.527-.166,21.79-.25l21.791-.079,21.79.083c7.263.081,14.527.112,21.79.25Q931.135,103.587,952.925,104.457Z"/></g><g class="s"><path class="x" d="M1153.27,111.646c-14.556.338-29.111.484-43.667.731l-43.667.418c-29.111.274-58.222.313-87.333.351-29.111-.034-58.222-.073-87.333-.345l-43.667-.418c-14.556-.249-29.111-.4-43.667-.735,14.556-.34,29.111-.486,43.667-.735l43.667-.419c29.111-.272,58.222-.312,87.333-.345,29.111.038,58.222.076,87.333.351l43.667.418C1124.159,111.162,1138.715,111.308,1153.27,111.646Z"/></g><path class="y" d="M784.27,60.745c31.381-1.035,62.762-1.576,94.143-1.943,15.69-.23,31.381-.282,47.071-.417l47.072-.138,47.071.131c15.691.139,31.381.184,47.072.416,31.381.366,62.762.91,94.143,1.951-31.381,1.041-62.762,1.585-94.143,1.951-15.69.233-31.381.277-47.072.416l-47.071.131-47.072-.138c-15.69-.135-31.381-.187-47.071-.417C847.033,62.321,815.651,61.779,784.27,60.745Z"/><path class="z" d="M919.893,163.04c21.417-1.034,42.833-1.576,64.25-1.943,10.708-.23,21.417-.282,32.125-.417l32.125-.138,32.125.131c10.708.139,21.417.184,32.125.416,21.417.366,42.833.91,64.25,1.951-21.417,1.041-42.833,1.585-64.25,1.951-10.708.233-21.417.277-32.125.416l-32.125.131-32.125-.138c-10.708-.135-21.417-.187-32.125-.417C962.726,164.616,941.309,164.075,919.893,163.04Z"/><path class="aa" d="M-85.063,163.04c21.417-1.034,42.833-1.576,64.25-1.943,10.708-.23,21.417-.282,32.125-.417l32.125-.138,32.125.131c10.708.139,21.417.184,32.125.416,21.417.366,42.833.91,64.25,1.951-21.417,1.041-42.833,1.585-64.25,1.951-10.708.233-21.417.277-32.125.416l-32.125.131L11.312,165.4c-10.708-.135-21.417-.187-32.125-.417C-42.229,164.616-63.646,164.075-85.063,163.04Z"/><path class="ab" d="M35.738,154.153c10.708-.225,21.417-.323,32.125-.487l32.125-.278c21.417-.165,42.833-.15,64.25-.233,21.417.078,42.833.07,64.25.23l32.125.279c10.708.166,21.417.263,32.125.49-10.708.227-21.417.324-32.125.49l-32.125.279c-21.417.159-42.833.151-64.25.23-21.417-.084-42.833-.068-64.25-.233l-32.125-.278C57.154,154.475,46.446,154.378,35.738,154.153Z"/><path class="ac" d="M340.222,176.038c10.708-.225,21.417-.323,32.125-.487l32.125-.278c21.417-.165,42.833-.15,64.25-.233,21.417.078,42.833.07,64.25.23l32.125.279c10.708.166,21.417.263,32.125.49-10.708.227-21.417.324-32.125.49l-32.125.279c-21.417.159-42.833.151-64.25.23-21.417-.084-42.833-.068-64.25-.233l-32.125-.278C361.639,176.361,350.93,176.263,340.222,176.038Z"/><g class="j"><path class="ad" d="M533.2,174.2l15.1-.3,15.1-.227,30.192-.448,60.383-.557c40.256-.366,80.511-.417,120.767-.467l60.383.105c20.128.119,40.256.129,60.383.355l60.384.558,30.191.45,15.1.228,15.1.3-15.1.3-15.1.228-30.191.45-60.384.558c-20.127.227-40.255.236-60.383.355l-60.383.105c-40.256-.05-80.511-.1-120.767-.467l-60.383-.557-30.192-.448-15.1-.227Z"/></g><g class="ae"><polygon class="af" points="356.103 105.956 406.249 105.468 456.395 105.19 556.686 104.957 656.978 105.186 707.124 105.465 757.27 105.956 707.124 106.446 656.978 106.725 556.686 106.955 456.395 106.721 406.249 106.443 356.103 105.956"/></g><path class="ag" d="M1016.27,148.448q22.073-.869,44.146-1.166c7.358-.138,14.715-.169,22.073-.25l22.073-.083,22.073.079c7.358.084,14.715.11,22.073.25q22.073.294,44.146,1.171-22.073.875-44.146,1.171c-7.358.14-14.715.166-22.073.25l-22.073.079-22.073-.083c-7.358-.081-14.715-.112-22.073-.25Q1038.344,149.318,1016.27,148.448Z"/><path class="ah" d="M134.732,233.668a107.228,107.228,0,0,1,11.25-1.166c3.75-.239,7.5-.328,11.25-.333s7.5.091,11.25.329a106,106,0,0,1,11.25,1.171,106.017,106.017,0,0,1-11.25,1.171c-3.75.238-7.5.327-11.25.329s-7.5-.095-11.25-.333A107.228,107.228,0,0,1,134.732,233.668Z"/><path class="ai" d="M81.635,140.344q8.75-.58,17.5-.777c5.833-.16,11.667-.2,17.5-.222,5.833.017,11.666.06,17.5.219q8.75.2,17.5.78-8.75.583-17.5.78c-5.833.159-11.667.2-17.5.219-5.833-.02-11.667-.062-17.5-.222Q90.385,140.924,81.635,140.344Z"/><path class="aj" d="M89.732,241.137c5.833-.621,11.667-.945,17.5-1.166,2.917-.138,5.833-.169,8.75-.25l8.75-.083,8.75.079c2.917.084,5.833.11,8.75.25,5.833.22,11.667.546,17.5,1.171-5.833.624-11.667.951-17.5,1.171-2.917.14-5.833.166-8.75.25l-8.75.079-8.75-.083c-2.917-.081-5.833-.112-8.75-.25C101.4,242.082,95.566,241.758,89.732,241.137Z"/><g class="ak"><path class="al" d="M192.729,16.51c5.833-.621,11.667-.945,17.5-1.166,2.917-.138,5.833-.169,8.75-.25l8.75-.083,8.75.079c2.917.084,5.833.11,8.75.25,5.833.22,11.666.546,17.5,1.171-5.833.624-11.667.951-17.5,1.171-2.917.14-5.833.166-8.75.25l-8.75.079-8.75-.083c-2.917-.081-5.833-.112-8.75-.25C204.4,17.456,198.562,17.131,192.729,16.51Z"/></g><path class="am" d="M22.27,262.326q12.808-.58,25.616-.777c8.539-.16,17.077-.2,25.616-.222,8.539.017,17.078.06,25.616.219q12.808.2,25.616.78-12.808.583-25.616.78c-8.539.159-17.078.2-25.616.219-8.539-.02-17.077-.062-25.616-.222Q35.078,262.906,22.27,262.326Z"/><path class="an" d="M61.937,267.326q19.912-.869,39.823-1.166c6.637-.138,13.274-.169,19.911-.25l19.912-.083,19.911.079c6.637.084,13.274.11,19.911.25q19.912.294,39.823,1.171-19.912.875-39.823,1.171c-6.637.14-13.274.166-19.911.25l-19.911.079-19.912-.083c-6.637-.081-13.274-.112-19.911-.25Q81.848,268.2,61.937,267.326Z"/><g class="m"><path class="ao" d="M1000.33,18.51c13.274-1.035,26.548-1.576,39.822-1.943,6.637-.23,13.274-.282,19.912-.417l19.911-.138,19.911.131c6.637.139,13.274.184,19.911.416,13.274.366,26.549.91,39.823,1.951-13.274,1.041-26.548,1.585-39.823,1.951-6.637.233-13.274.277-19.911.416l-19.911.131-19.911-.138c-6.637-.135-13.274-.187-19.912-.417C1026.878,20.086,1013.6,19.545,1000.33,18.51Z"/></g><g class="m"><path class="ap" d="M520.152,11.668c29.631-1.035,59.261-1.576,88.892-1.943,14.815-.23,29.631-.282,44.446-.417l44.446-.138,44.446.131c14.815.139,29.63.184,44.446.416,29.63.366,59.261.91,88.892,1.951-29.631,1.041-59.261,1.585-88.892,1.951-14.815.233-29.631.277-44.446.416l-44.446.131-44.446-.138c-14.815-.135-29.63-.187-44.446-.417C579.413,13.244,549.783,12.7,520.152,11.668Z"/></g><path class="aq" d="M1.99,12.668Q21.9,11.8,41.813,11.5c6.637-.138,13.274-.169,19.911-.25l19.912-.083,19.911.079c6.637.084,13.274.11,19.911.25q19.912.294,39.823,1.171-19.912.875-39.823,1.171c-6.637.14-13.274.166-19.911.25l-19.911.079-19.912-.083c-6.637-.081-13.274-.112-19.911-.25Q21.9,13.538,1.99,12.668Z"/><path class="ar" d="M783.263,35.05c13.824-.338,27.647-.484,41.471-.731L866.2,33.9c27.647-.274,55.294-.313,82.942-.351,27.647.034,55.294.073,82.942.345l41.471.419c13.824.249,27.647.4,41.471.735-13.823.34-27.647.486-41.471.735l-41.471.418c-27.647.272-55.295.312-82.942.345-27.647-.038-55.294-.076-82.942-.351l-41.471-.418C810.91,35.534,797.087,35.388,783.263,35.05Z"/><path class="as" d="M239.638,35.05q19.912-.869,39.823-1.166c6.637-.138,13.274-.169,19.911-.25l19.912-.083,19.911.079c6.637.084,13.274.11,19.911.25q19.912.294,39.823,1.171-19.912.875-39.823,1.171c-6.637.14-13.274.166-19.911.25l-19.911.079-19.912-.083c-6.637-.081-13.274-.112-19.911-.25Q259.549,35.92,239.638,35.05Z"/><path class="at" d="M0,251.826l171.937,1.5L0,254.826a1.5,1.5,0,0,1-1.513-1.487,1.5,1.5,0,0,1,1.487-1.513Z"/><path class="au" d="M35.738,233.668c6.5-.621,13-.945,19.5-1.166,3.25-.138,6.5-.169,9.75-.25l9.75-.083,9.75.079c3.25.084,6.5.11,9.75.25,6.5.22,13,.546,19.5,1.171-6.5.624-13,.951-19.5,1.171-3.25.14-6.5.166-9.75.25l-9.75.079-9.75-.083c-3.25-.081-6.5-.112-9.75-.25C48.737,234.614,42.237,234.289,35.738,233.668Z"/><polyline class="av" points="625.976 74.637 756.14 74.637 930.461 74.637"/><polyline class="aw" points="722.976 84.052 853.14 84.052 1027.461 84.052"/><g class="m"><path class="ax" d="M784.27,216.84c18.524-1.035,37.049-1.576,55.574-1.943,9.262-.23,18.524-.282,27.787-.417l27.787-.138,27.787.131c9.262.139,18.524.184,27.787.416,18.524.366,37.049.91,55.574,1.951-18.525,1.041-37.049,1.585-55.574,1.951-9.262.233-18.524.277-27.787.416l-27.787.131-27.787-.138c-9.262-.135-18.524-.187-27.787-.417C821.319,218.416,802.795,217.874,784.27,216.84Z"/></g><g class="m"><path class="ay" d="M883.6,206.558q27.787-.869,55.573-1.166c9.262-.138,18.525-.169,27.787-.25l27.787-.083,27.787.079c9.262.084,18.525.11,27.787.25q27.787.294,55.573,1.17-27.787.875-55.573,1.171c-9.262.14-18.525.166-27.787.25l-27.787.079-27.787-.083c-9.262-.081-18.525-.112-27.787-.25Q911.391,207.428,883.6,206.558Z"/></g><polygon class="az" points="355.728 140.693 476.369 139.964 597.01 139.545 838.292 139.195 1079.574 139.539 1200.215 139.959 1320.856 140.693 1200.215 141.427 1079.574 141.847 838.292 142.191 597.01 141.842 476.369 141.423 355.728 140.693"/><path class="ba" d="M159.73,78.693c18.926-.338,37.853-.484,56.779-.731l56.779-.418c18.926-.18,37.852-.147,56.778-.214l56.779-.136,56.779.133c18.926.071,37.853.029,56.779.211l56.778.418c18.926.249,37.853.4,56.779.735-18.926.34-37.853.486-56.779.735l-56.778.418c-18.926.182-37.853.14-56.779.211l-56.779.133-56.779-.136c-18.926-.067-37.853-.034-56.778-.214l-56.779-.418C197.583,79.177,178.657,79.031,159.73,78.693Z"/><g class="s"><path class="bb" d="M324.973,60.745c18.926-.338,37.853-.484,56.778-.731L438.53,59.6c18.926-.18,37.853-.147,56.779-.214l56.779-.136,56.779.133c18.926.071,37.852.029,56.778.211l56.779.419c18.926.249,37.853.4,56.779.735-18.926.34-37.853.486-56.779.735l-56.779.419c-18.926.182-37.852.14-56.778.211l-56.779.133-56.779-.136c-18.926-.067-37.853-.034-56.779-.214l-56.779-.418C362.826,61.229,343.9,61.083,324.973,60.745Z"/></g><path class="bc" d="M533.2,196.275c18.926-.338,37.853-.484,56.779-.731l56.779-.418c18.926-.18,37.852-.147,56.778-.214l56.779-.136,56.779.133c18.926.071,37.853.029,56.779.211l56.778.418c18.926.249,37.853.4,56.779.735-18.926.34-37.853.486-56.779.735l-56.778.418c-18.926.182-37.853.14-56.779.211l-56.779.133-56.779-.136c-18.926-.067-37.853-.034-56.778-.214l-56.779-.418C571.055,196.759,552.129,196.613,533.2,196.275Z"/><path class="bd" d="M-10.77,101.457q23.813-.869,47.625-1.166c7.938-.138,15.875-.169,23.813-.25l23.812-.083,23.813.079c7.938.084,15.875.11,23.813.25q23.813.294,47.625,1.171-23.812.875-47.625,1.171c-7.937.14-15.875.166-23.812.25l-23.813.079-23.812-.083c-7.937-.081-15.875-.112-23.812-.25Q13.043,102.327-10.77,101.457Z"/><path class="be" d="M0,111.5q26.659-.869,53.318-1.166c8.886-.138,17.772-.169,26.659-.25L106.635,110l26.659.079c8.886.084,17.772.11,26.659.25q26.659.294,53.317,1.171-26.659.875-53.317,1.171c-8.887.14-17.773.166-26.659.25L106.635,113l-26.659-.083c-8.886-.081-17.772-.112-26.659-.25Q26.659,112.367,0,111.5Z"/><path class="bf" d="M141.582,127.48c17.772-1.035,35.545-1.576,53.317-1.943,8.886-.23,17.772-.282,26.659-.417l26.659-.138,26.659.131c8.886.139,17.772.184,26.659.416,17.772.366,35.545.91,53.317,1.951-17.772,1.041-35.545,1.585-53.317,1.951-8.886.233-17.772.277-26.659.416l-26.659.131-26.659-.138c-8.886-.135-17.772-.187-26.659-.417C177.127,129.056,159.355,128.515,141.582,127.48Z"/><g class="m"><path class="bg" d="M0,206.558l19.955-.375,19.956-.284,39.91-.559q39.91-.439,79.821-.725c26.607-.23,53.214-.282,79.821-.417l79.821-.138,79.821.131c26.607.139,53.213.184,79.82.416q39.91.253,79.821.725l39.911.563,19.955.285,19.955.378-19.955.378-19.955.285-39.911.563q-39.91.438-79.821.725c-26.607.233-53.213.277-79.82.416l-79.821.131-79.821-.138c-26.607-.135-53.214-.187-79.821-.417q-39.91-.252-79.821-.725l-39.91-.559-19.956-.284Z"/></g><line class="bh" x1="359.471" y1="154.153" x2="936.513" y2="154.153"/><g class="h"><path class="bi" d="M674.423,75.933l28.763,107.85a38.186,38.186,0,0,1-27.059,46.741l-78.864,21.032A38.192,38.192,0,0,1,550.522,224.5l-28.763-107.85a38.192,38.192,0,0,1,27.059-46.741l78.864-21.032A38.186,38.186,0,0,1,674.423,75.933Z"/></g><path class="bj" d="M660.061,66.135l28.763,107.85a38.186,38.186,0,0,1-27.059,46.741L582.9,241.76A38.192,38.192,0,0,1,536.16,214.7L507.4,106.85a38.192,38.192,0,0,1,27.059-46.741L613.32,39.076A38.186,38.186,0,0,1,660.061,66.135Z"/><path class="bj" d="M660.061,66.135l28.763,107.85a38.186,38.186,0,0,1-27.059,46.741L582.9,241.76A38.192,38.192,0,0,1,536.16,214.7L507.4,106.85a38.192,38.192,0,0,1,27.059-46.741L613.32,39.076A38.186,38.186,0,0,1,660.061,66.135Z"/><path class="bj" d="M660.061,66.135l1.239,4.648L508.637,111.5,507.4,106.85a38.192,38.192,0,0,1,27.059-46.741L613.32,39.076A38.186,38.186,0,0,1,660.061,66.135Z"/><rect class="bk" x="542.06" y="85.053" width="84.6" height="12.5" rx="6.25" ry="6.25" transform="translate(-3.793 153.665) rotate(-14.933)"/><line class="bl" x1="508.637" y1="111.497" x2="661.301" y2="70.783"/><rect class="bm" x="521.964" y="104.377" width="158" height="93.477" transform="translate(-18.645 159.963) rotate(-14.933)"/><g class="m"><line class="bn" x1="536.676" y1="216.633" x2="689.34" y2="175.918"/><line class="bo" x1="512.588" y1="126.313" x2="665.252" y2="85.598"/></g><g class="bp"><path class="bq" d="M561.382,177.715a26.764,26.764,0,0,1-5.808,2.207c-4.587,1.181-10.306.666-14,.752l15.368-4.121c.329.1.67.194,1.021.29C559.012,177.142,560.17,177.438,561.382,177.715Z"/><path class="bq" d="M560.019,172.612c-1.22,1.129-2.336,2.241-3.274,3.23l-15.393,4.127c3.242-1.774,7.955-5.092,12.529-6.361l.324-.087A25.991,25.991,0,0,1,560.019,172.612Z"/><path class="bq" d="M589.384,165.562a17.39,17.39,0,0,0,3.67-2.246l7.933-5.839a20.8,20.8,0,0,1,3.557-2.256,6.016,6.016,0,0,1,1.061-.369,16.381,16.381,0,0,0-5.525-.253c-2.948.393-6.084,2.5-12.363,6.7-2.507,1.679-4.361,3.042-5.812,4.172C584.384,166.124,586.846,166.6,589.384,165.562Z"/><path class="bq" d="M604.43,170.315q-4.892-.542-9.79-1.087a17.188,17.188,0,0,0-4.3-.1c-2.715.374-4.61,2.014-6.429,3.822,1.822.252,4.108.5,7.118.7,7.539.5,11.306.747,14.056-.384a16.4,16.4,0,0,0,4.658-2.987,6,6,0,0,1-1.105.211A20.509,20.509,0,0,1,604.43,170.315Z"/><path class="br" d="M667.024,147.037c-.409.213-.819.442-1.235.667a19.145,19.145,0,0,1-4.061,1.869,25.638,25.638,0,0,1-3.959.693,11.083,11.083,0,0,1,3.67-1.732Z"/><path class="br" d="M666.858,146.317l-5.591,1.5a11.061,11.061,0,0,1-4.062.331,26.209,26.209,0,0,1,3.773-1.369,19.372,19.372,0,0,1,4.45-.418C665.912,146.349,666.387,146.341,666.858,146.317Z"/><path class="bs" d="M573.806,169.108a26.349,26.349,0,0,1,5.3-1.366c.763-.64,1.656-1.385,2.8-2.274-2.713-.718-5.448-1.656-8.33-1.082-4.795.952-9.742,4.69-13.557,8.223,2.4-.1,4.4.127,6.491.111A55.039,55.039,0,0,1,573.806,169.108Z"/><path class="bs" d="M619.479,161.844c-1.021.94-1.973,1.938-2.923,2.859-.155.15-.306.293-.462.438-1.868,1.742-3.591,4.35-6.349,5.138a68.234,68.234,0,0,0,4.825-5.043,42.675,42.675,0,0,1,3.175-3.154h.005Z"/><path class="bs" d="M583.913,172.947c-.231.23-.461.465-.7.7-1.752,1.77-3.518,3.571-5.976,4.409-3.5,1.187-7.865,1.041-11.98.405-1.329-.207-2.633-.464-3.873-.744.4-.21.776-.419,1.147-.633s.724-.433,1.068-.644c.763-.47,1.482-.939,2.207-1.388.317-.193.628-.385.953-.57.06-.038.121-.076.182-.108h.005a53.915,53.915,0,0,0,8.128-.527,26.371,26.371,0,0,0,5.276-1.463C581.335,172.549,582.477,172.746,583.913,172.947Z"/><path class="bs" d="M618.256,157.284l-1.615.666c-.269-.053-.539-.11-.805-.174-.224-.048-.445-.1-.665-.158-.279-.071-.559-.143-.839-.219-1.147-.316-2.261-.673-3.359-1.028-.361-.114-.717-.23-1.072-.341-.32-.1-.634-.2-.952-.3-.22-.071-.443-.136-.661-.2-.894-.264-1.781-.5-2.68-.679,2.782-.7,5.579.7,8.068,1.272.9.208,1.826.464,2.77.71C617.04,156.993,617.644,157.145,618.256,157.284Z"/><path class="bt" d="M616.641,157.951a161.707,161.707,0,0,1-16.741,5.93,139.3,139.3,0,0,1-17.066,3.3c-1.421.218-2.614.376-3.724.56l.6-.5q.152-.13.319-.264c.218-.178.443-.368.684-.563.366-.293.763-.611,1.192-.948.408.107.815.21,1.219.3.219.05.438.1.66.137.052.013.1.021.154.029q.206.042.409.069a11.485,11.485,0,0,0,1.422.15,3.2,3.2,0,0,0,.333.008c.093,0,.185,0,.277,0,.237,0,.478-.014.72-.041l.1-.011.316-.036c.082-.017.166-.028.253-.046s.181-.032.273-.052c.128-.029.255-.058.382-.092a8.455,8.455,0,0,0,.964-.324,17.366,17.366,0,0,0,3.673-2.247l.453-.333q3.741-2.751,7.481-5.506a20.654,20.654,0,0,1,3.557-2.254,5.86,5.86,0,0,1,1.06-.371c.178.039.355.073.535.117s.358.083.538.127c.539.132,1.071.276,1.607.436.218.066.441.131.661.2,1.747.534,3.517,1.154,5.383,1.667.281.076.56.148.839.219.221.055.441.109.665.158C616.1,157.84,616.372,157.9,616.641,157.951Z"/><path class="bt" d="M617.744,162.082a42.675,42.675,0,0,0-3.175,3.154,68.234,68.234,0,0,1-4.825,5.043,5.862,5.862,0,0,1-1.1.209,20.654,20.654,0,0,1-4.208-.172q-3.116-.343-6.233-.691l-3.558-.4a17.13,17.13,0,0,0-4.3-.108c-2.712.375-4.607,2.016-6.425,3.825-1.435-.2-2.578-.4-3.561-.568,1.052-.4,2.165-.857,3.5-1.384a139.382,139.382,0,0,1,16.434-5.68A160.248,160.248,0,0,1,617.744,162.082Z"/><path class="bt" d="M566.944,174.37c-.062.033-.122.071-.182.108-.324.185-.636.376-.953.57-.725.449-1.444.918-2.207,1.388-.344.212-.7.431-1.068.644s-.748.423-1.147.633h-.005c-1.212-.276-2.37-.573-3.42-.871-.351-.1-.691-.194-1.021-.29l4.1-1.1a35.1,35.1,0,0,1,5.866-1.08C566.917,174.372,566.934,174.373,566.944,174.37Z"/><path class="bt" d="M566.507,172.721a.966.966,0,0,0-.111.051,36.113,36.113,0,0,1-5.561,1.973l-4.09,1.1c.938-.988,2.054-2.1,3.274-3.23.9-.036,1.748-.03,2.561-.009.268.009.541.017.8.028.526.022,1.047.044,1.566.062S565.988,172.724,566.507,172.721Z"/><path class="bu" d="M657.2,148.147a23.75,23.75,0,0,1-6.321,2.112c-2.841.377-5.39-.338-8.232.078a27.731,27.731,0,0,0-5.661,1.5q-1.506.566-2.927,1.251c-1.769.837-3.476,1.929-5.253,2.839q-2.687.468-5.382.8c-1.7.218-3.413.406-5.126.545a.115.115,0,0,1-.042.006c2.079-.855,4.141-1.733,6.191-2.6l1.358-.575c8.3-3.521,16.479-7.231,25.4-6.6.53.037,1.064.089,1.6.157Z"/><path class="bu" d="M657.768,150.267l-3.562,2.619a28.983,28.983,0,0,1-5.079,3.085c-4.633,2.223-9.715,3.255-14.933,4-2.177.307-4.383.568-6.585.844-2.7.333-5.408.664-8.129,1.026,1.569-.735,3.157-1.443,4.755-2.11q2.505-1.054,5.062-2a.222.222,0,0,1,.058,0c1.428-.069,2.852-.033,4.237-.063a29.655,29.655,0,0,0,9.7-1.74c3.019-1.108,5.028-3.115,7.949-4.326A23.9,23.9,0,0,1,657.768,150.267Z"/><path class="br" d="M580.352,172.379a26.371,26.371,0,0,1-5.276,1.463,53.915,53.915,0,0,1-8.128.527,18.741,18.741,0,0,1,2.206-1.09,18.352,18.352,0,0,1,3.834-1.12c.305-.055.59-.1.867-.14A17.684,17.684,0,0,1,580.352,172.379Z"/><path class="br" d="M579.109,167.743a17.682,17.682,0,0,1-5.485,3.573c-.245.1-.5.2-.782.3a18.317,18.317,0,0,1-3.838.942,19.4,19.4,0,0,1-2.5.166,54.62,54.62,0,0,1,7.3-3.615A26.342,26.342,0,0,1,579.109,167.743Z"/><path class="bv" d="M554.556,176.428l-.1.026,0-.008C554.491,176.44,554.52,176.433,554.556,176.428Z"/><path class="br" d="M624.9,157.46l.011,0a21.6,21.6,0,0,1-8.256.491.016.016,0,0,0-.011,0l1.615-.666h.005a.115.115,0,0,0,.042-.006c1.713-.14,3.423-.327,5.126-.545q2.7-.333,5.382-.8A16.984,16.984,0,0,1,624.9,157.46Z"/><line class="a" x1="623.684" y1="157.685" x2="621.558" y2="157.765"/><path class="br" d="M629.3,157.738q-2.559.946-5.062,2c-1.6.667-3.186,1.374-4.755,2.11l-1.73.236a.016.016,0,0,0,.009-.008,21.486,21.486,0,0,1,7.394-3.706,14.423,14.423,0,0,1,1.92-.417.2.2,0,0,0,.052-.008c.345-.049.69-.093,1.04-.122a1.493,1.493,0,0,1,.163-.017c.153-.014.307-.028.456-.036C628.954,157.754,629.125,157.746,629.3,157.738Z"/><path class="bw" d="M680.456,142.671l.191.713-19.21,5.151a11.083,11.083,0,0,0-3.67,1.732,23.9,23.9,0,0,0-6.523,1.337c-2.921,1.211-4.93,3.218-7.949,4.326a29.655,29.655,0,0,1-9.7,1.74c-1.385.03-2.808-.006-4.237.063a.222.222,0,0,0-.058,0c-.171.008-.343.016-.512.029-.15.008-.3.022-.456.036a1.493,1.493,0,0,0-.163.017c-.35.029-.7.073-1.04.122a.2.2,0,0,1-.052.008,14.423,14.423,0,0,0-1.92.417,21.486,21.486,0,0,0-7.394,3.706.016.016,0,0,1-.009.008h-.005a160.248,160.248,0,0,0-17.454,3.233,139.382,139.382,0,0,0-16.434,5.68c-1.338.527-2.451.982-3.5,1.384a17.684,17.684,0,0,0-6.5-.361c-.277.036-.562.086-.867.14a18.352,18.352,0,0,0-3.834,1.12,18.741,18.741,0,0,0-2.206,1.09h-.005c-.01,0-.027,0-.037,0a35.1,35.1,0,0,0-5.866,1.08l-32.318,8.665-.191-.713,32.3-8.661a36.113,36.113,0,0,0,5.561-1.973.966.966,0,0,1,.111-.051,19.4,19.4,0,0,0,2.5-.166,18.317,18.317,0,0,0,3.838-.942c.278-.1.537-.2.782-.3a17.682,17.682,0,0,0,5.485-3.573c1.11-.184,2.3-.341,3.724-.56a139.3,139.3,0,0,0,17.066-3.3,161.707,161.707,0,0,0,16.741-5.93.016.016,0,0,1,.011,0,21.6,21.6,0,0,0,8.256-.491l-.011,0a16.984,16.984,0,0,0,3.913-1.532c1.777-.91,3.484-2,5.253-2.839q1.419-.681,2.927-1.251a27.731,27.731,0,0,1,5.661-1.5c2.842-.415,5.391.3,8.232-.078a23.75,23.75,0,0,0,6.321-2.112,11.061,11.061,0,0,0,4.062-.331Z"/></g><path class="bu" d="M580.745,149.7a2.51,2.51,0,0,0,1.68.237.8.8,0,0,0,.683-.967c-.289-1.083-3.1-.134-3.591-1.993a1.926,1.926,0,0,1,1.561-2.3,2.664,2.664,0,0,1,1.981.166l-.239,1.023a2.287,2.287,0,0,0-1.48-.172.841.841,0,0,0-.719.968c.287,1.075,3.064.051,3.581,1.986a1.872,1.872,0,0,1-1.522,2.306,3.034,3.034,0,0,1-2.31-.27Z"/><path class="bu" d="M586.451,145.073a2.359,2.359,0,1,1-1.781,2.913A2.369,2.369,0,0,1,586.451,145.073Zm.977,3.63a1.4,1.4,0,1,0-1.658-1.01A1.338,1.338,0,0,0,587.429,148.7Z"/><path class="bu" d="M589.683,144.321l1.083-.289.687,2.575c.141.529.373.851.91.707a1.354,1.354,0,0,0,.828-1.792l-.532-2,1.083-.289,1.16,4.349-1.04.277-.132-.494a2.846,2.846,0,0,1-.065-.312l-.017,0a1.735,1.735,0,0,1-1.268,1.306c-.929.248-1.634-.066-1.951-1.252Z"/><path class="bu" d="M594.935,142.92l1.04-.277.2.75a3.051,3.051,0,0,1,.065.312l.017,0a1.549,1.549,0,0,1,1.084-1.485,1.28,1.28,0,0,1,.2-.035l.284,1.066a1.982,1.982,0,0,0-.26.052,1.274,1.274,0,0,0-.942,1.228,2.415,2.415,0,0,0,.095.733l.459,1.722-1.083.289Z"/><path class="bu" d="M602.092,144.007l-2.123.566-.1,1.689-1.134.3.517-6.623,1.151-.307,3.747,5.486-1.134.3Zm-1.987-3.169s.023.633-.006,1.006l-.105,1.763,1.586-.423-.969-1.477c-.2-.311-.489-.874-.489-.874Z"/><path class="bu" d="M603.6,140.61l.989-.264.084.315a2.854,2.854,0,0,1,.063.3l.017,0a1.611,1.611,0,0,1,1.208-1.089,2.073,2.073,0,0,1,2.534,1.762,2.118,2.118,0,0,1-1.38,2.807,1.554,1.554,0,0,1-1.4-.265l-.017,0a3.879,3.879,0,0,1,.117.371l.487,1.825-1.083.289Zm3.075,2.97a1.215,1.215,0,0,0,.732-1.638c-.221-.827-.807-1.246-1.447-1.076-.562.15-.982.7-.725,1.664A1.233,1.233,0,0,0,606.672,143.58Z"/><path class="bu" d="M608.8,139.221l.989-.264.084.315a2.854,2.854,0,0,1,.063.3l.017,0a1.611,1.611,0,0,1,1.208-1.089,2.073,2.073,0,0,1,2.534,1.762,2.118,2.118,0,0,1-1.38,2.807,1.554,1.554,0,0,1-1.4-.265l-.017,0a3.879,3.879,0,0,1,.117.371l.487,1.825-1.083.289Zm3.075,2.97a1.215,1.215,0,0,0,.732-1.638c-.221-.827-.807-1.246-1.447-1.076-.562.15-.982.7-.725,1.664A1.233,1.233,0,0,0,611.88,142.191Z"/><path class="bu" d="M613.5,136.142l1.074-.287,1.21,4.537c.127.478.321.554.6.479a1.667,1.667,0,0,0,.16-.052l.252.947a2.577,2.577,0,0,1-.335.116c-.6.159-1.379.2-1.711-1.042Z"/><path class="bu" d="M618.308,136.577a1.946,1.946,0,0,1,2.478,1.549c.034.128.086.425.086.425l-3,.8a1.28,1.28,0,0,0,1.612.8,2.222,2.222,0,0,0,1.126-.812l.625.665a2.812,2.812,0,0,1-1.582,1.089,2.306,2.306,0,0,1-2.944-1.654A2.225,2.225,0,0,1,618.308,136.577Zm1.3,1.517a.869.869,0,0,0-1.1-.674,1.048,1.048,0,0,0-.8,1.181Z"/><polygon class="bx" points="552.776 135.611 517.572 145 512.698 126.726 554.059 115.695 552.776 135.611"/><path class="bv" d="M522.08,137.754l-1.928-7.228,1.019-.272,3.292,3.039a21.17,21.17,0,0,1,1.924,2l.019-.016c-.343-.942-.6-1.816-.9-2.942l-.807-3.024.879-.234,1.928,7.228-.944.252-3.273-3.056a23.679,23.679,0,0,1-1.995-2.053l-.029.019c.3.9.55,1.76.87,2.961l.824,3.089Z"/><path class="bv" d="M531.977,131.485l-2.81.749.695,2.606,3.132-.835.209.783-4.064,1.084-1.928-7.228,3.9-1.041.209.783-2.971.792.609,2.284,2.81-.749Z"/><path class="bv" d="M535.692,134.124l-3.762-6.739.987-.263,1.833,3.428c.455.844.888,1.693,1.2,2.356l.022-.006c-.074-.75-.077-1.668-.08-2.667l-.007-3.9.976-.26,1.858,3.433c.433.8.854,1.61,1.165,2.343l.021-.006c-.061-.834-.072-1.692-.087-2.653l-.018-3.9.954-.255-.12,7.774-.976.26-1.916-3.521a22.5,22.5,0,0,1-1.1-2.233l-.022.006a23.351,23.351,0,0,1,.072,2.508l-.026,4.039Z"/><path class="bv" d="M543.228,131.528a.651.651,0,0,1,.455-.834.689.689,0,0,1,.355,1.33A.651.651,0,0,1,543.228,131.528Zm-.141-1.605-1.523-5.108,1.03-.275,1.223,5.188Z"/><path class="by" d="M567.466,139.756l-.178,3.059-1.193.318.653-9.748,1.392-.371,5.434,8.124-1.233.329-1.7-2.557Zm2.69-1.683-1.561-2.339c-.354-.53-.629-1.026-.9-1.507l-.027.007c.009.566.008,1.148-.019,1.738l-.185,2.819Z"/><path class="by" d="M573.967,141.287l-1.734.462-1.7-2.557-2.828.754-.178,3.059-1.7.452.688-10.264,1.731-.462Zm-1.521-.1.733-.2-5.146-7.694-1.053.281-.618,9.231.692-.184.178-3.059,3.51-.936Zm-1.9-2.964-3.353.894.208-3.16c.023-.5.03-1.052.019-1.718l0-.191.369-.1.166.242c.253.45.514.916.842,1.408Zm-2.819.244,2.031-.542-1.371-2.055c-.174-.26-.329-.512-.473-.757,0,.309-.011.6-.023.871Z"/><path class="by" d="M572.53,131.957a13.853,13.853,0,0,1,2.169-.763,3.8,3.8,0,0,1,2.7.074,2.487,2.487,0,0,1,1.281,1.661,2.723,2.723,0,0,1-.18,2.094,3.833,3.833,0,0,1-2.47,1.71,4.106,4.106,0,0,1-.949.168l.955,3.58-1.154.308Zm2.3,4a4.014,4.014,0,0,0,.98-.162c1.392-.371,2.061-1.274,1.732-2.507-.315-1.18-1.3-1.528-2.575-1.188a5,5,0,0,0-1.063.383Z"/><path class="by" d="M576.339,140.655l-1.627.434-2.472-9.269.189-.086a14.11,14.11,0,0,1,2.207-.776,4.025,4.025,0,0,1,2.879.092,2.738,2.738,0,0,1,1.407,1.817,2.964,2.964,0,0,1-.2,2.277,4.049,4.049,0,0,1-2.621,1.827,5.922,5.922,0,0,1-.7.152Zm-1.28-.166.68-.181-.973-3.647.314,0a3.9,3.9,0,0,0,.89-.16,3.575,3.575,0,0,0,2.318-1.589,2.5,2.5,0,0,0,.159-1.915,2.258,2.258,0,0,0-1.152-1.5,3.568,3.568,0,0,0-2.534-.057,13.856,13.856,0,0,0-1.941.665Zm.817-4.455a4.18,4.18,0,0,1-1.042.17h-.189l-1.024-3.839.163-.094a5.25,5.25,0,0,1,1.122-.407c1.469-.392,2.543.117,2.875,1.362C578.14,134.57,577.427,135.62,575.876,136.034Zm-.857-.33a4.633,4.633,0,0,0,.731-.144c.749-.2,1.946-.752,1.558-2.207-.334-1.251-1.422-1.242-2.275-1.015a6.207,6.207,0,0,0-.837.278Z"/><path class="by" d="M579.585,130.075a13.853,13.853,0,0,1,2.169-.763,3.8,3.8,0,0,1,2.7.074,2.487,2.487,0,0,1,1.281,1.661,2.723,2.723,0,0,1-.18,2.094,3.833,3.833,0,0,1-2.47,1.71,4.106,4.106,0,0,1-.949.168l.955,3.58-1.154.308Zm2.3,4a4.014,4.014,0,0,0,.98-.162c1.392-.371,2.061-1.274,1.732-2.507-.315-1.18-1.3-1.528-2.575-1.188a5,5,0,0,0-1.063.383Z"/><path class="by" d="M583.394,138.773l-1.627.434-2.472-9.269.189-.086a14.11,14.11,0,0,1,2.207-.776,4.026,4.026,0,0,1,2.879.092,2.738,2.738,0,0,1,1.406,1.817,2.964,2.964,0,0,1-.2,2.277,4.049,4.049,0,0,1-2.621,1.827,5.922,5.922,0,0,1-.7.152Zm-1.28-.166.68-.181-.973-3.647.314,0a3.9,3.9,0,0,0,.89-.16,3.575,3.575,0,0,0,2.318-1.589,2.5,2.5,0,0,0,.159-1.915,2.259,2.259,0,0,0-1.151-1.5,3.569,3.569,0,0,0-2.534-.057,13.856,13.856,0,0,0-1.941.665Zm.817-4.455a4.18,4.18,0,0,1-1.042.17H581.7l-1.024-3.839.163-.094a5.25,5.25,0,0,1,1.122-.407c1.469-.392,2.543.117,2.875,1.362C585.194,132.689,584.482,133.738,582.931,134.152Zm-.857-.33a4.633,4.633,0,0,0,.731-.144c.749-.2,1.946-.752,1.558-2.207-.334-1.251-1.422-1.242-2.275-1.015a6.207,6.207,0,0,0-.837.278Z"/><path class="by" d="M586.611,128.088l1.154-.308,2.126,7.97,3.819-1.019.258.968-4.973,1.326Z"/><path class="by" d="M594.268,135.873l-5.446,1.453-2.51-9.411,1.627-.434,2.126,7.97,3.819-1.019Zm-5.1.853,4.5-1.2-.132-.494-3.819,1.019-2.126-7.97-.68.181Z"/><path class="by" d="M598.764,129.932l-3.474.927.859,3.222,3.872-1.033.258.968-5.026,1.34-2.384-8.938,4.827-1.287.258.968-3.673.98.753,2.825,3.474-.927Z"/><path class="by" d="M600.58,134.19l-5.5,1.467-2.51-9.411,5.3-1.414.384,1.442-3.673.98.627,2.351,3.474-.927.381,1.428-3.474.927.733,2.749,3.872-1.033Zm-5.152.867,4.552-1.214-.132-.494-3.872,1.033-.986-3.7,3.474-.927-.128-.481-3.474.927-.88-3.3,3.673-.98-.132-.494-4.353,1.161Z"/><path class="bz" d="M610.066,130.98a8.621,8.621,0,0,1-2.614,1.223,4.344,4.344,0,0,1-5.79-3.285,4.639,4.639,0,0,1,3.609-5.906,5.716,5.716,0,0,1,2.338-.183l-.027,1.016a4.792,4.792,0,0,0-2.078.142,3.46,3.46,0,0,0-2.635,4.552,3.391,3.391,0,0,0,4.409,2.688,3.889,3.889,0,0,0,1.475-.649l-.711-2.665-1.817.485-.248-.928,2.944-.785Z"/><path class="bz" d="M607.515,132.439a4.587,4.587,0,0,1-6.09-3.459,4.883,4.883,0,0,1,3.783-6.206,5.932,5.932,0,0,1,2.447-.187l.2.039-.04,1.5-.276-.044a4.5,4.5,0,0,0-1.977.137,3.223,3.223,0,0,0-2.462,4.252,3.162,3.162,0,0,0,4.11,2.514,4.267,4.267,0,0,0,1.259-.508l-.605-2.27-1.817.485-.374-1.4,3.417-.911,1.253,4.7-.142.1A8.807,8.807,0,0,1,607.515,132.439Zm-2.181-9.191a4.419,4.419,0,0,0-3.435,5.607,4.1,4.1,0,0,0,5.49,3.11,8.28,8.28,0,0,0,2.4-1.091l-1.038-3.892-2.47.659.121.455,1.817-.485.813,3.048-.113.1a4.139,4.139,0,0,1-1.574.7,3.617,3.617,0,0,1-4.709-2.861,3.715,3.715,0,0,1,2.809-4.852,5.217,5.217,0,0,1,1.9-.184l.014-.526A5.947,5.947,0,0,0,605.334,123.249Z"/><path class="bz" d="M610.706,121.662l1.411,5.291c.534,2,1.649,2.614,2.843,2.3,1.326-.354,1.941-1.455,1.414-3.431l-1.411-5.291,1.167-.311,1.39,5.211c.732,2.745-.413,4.258-2.349,4.774-1.83.488-3.489-.192-4.228-2.963l-1.4-5.265Z"/><path class="bz" d="M615.234,130.438c-1.287.343-3.587.392-4.528-3.137l-1.467-5.5,1.641-.438,1.474,5.528c.45,1.686,1.353,2.439,2.543,2.122,1.286-.343,1.7-1.4,1.241-3.131l-1.474-5.528,1.641-.438,1.453,5.448C618.453,127.975,617.533,129.824,615.234,130.438Zm-5.4-8.291,1.341,5.028c.625,2.344,1.983,3.308,3.928,2.789,2.028-.541,2.8-2.129,2.175-4.474l-1.327-4.975-.693.185,1.348,5.054c.717,2.687-.687,3.491-1.588,3.731-.7.186-2.4.317-3.142-2.469l-1.348-5.054Z"/><path class="bz" d="M627,122.685c-.4-1.229-.878-2.706-1.162-3.823l-.04.011c-.025,1.129-.1,2.342-.222,3.7l-.422,4.757-.875.233-2.581-3.871c-.761-1.146-1.426-2.2-1.961-3.2l-.026.007c.27,1.121.6,2.637.881,4l.783,3.9-1.1.294-1.76-9.1,1.472-.392,2.678,3.916c.664,1,1.231,1.9,1.7,2.77l.04-.011c-.015-.962.042-2.028.139-3.261l.439-4.747,1.472-.392,2.941,8.789-1.127.3Z"/><path class="bz" d="M629.715,126.42l-1.6.427-1.345-4.086.233-.076-.234.074c-.246-.759-.53-1.634-.778-2.459-.038.714-.094,1.472-.168,2.289l-.437,4.928-1.211.323-2.678-4.017c-.468-.7-.858-1.315-1.194-1.866.178.8.363,1.66.532,2.487l.829,4.123-1.577.421-1.853-9.587,1.86-.5,2.776,4.06c.533.8.951,1.465,1.3,2.056.015-.683.059-1.469.136-2.439l.455-4.921,1.859-.5Zm-1.282-.165.651-.174-2.785-8.324-1.084.289-.423,4.577c-.109,1.376-.151,2.375-.138,3.235l0,.191-.371.1-.132-.159c-.418-.768-.94-1.616-1.693-2.752l-2.578-3.77-1.083.289,1.667,8.622.624-.167-.738-3.67c-.284-1.39-.612-2.881-.879-3.989l-.056-.233.418-.112.118.164c.475.882,1.076,1.863,1.95,3.179l2.483,3.725.54-.144.406-4.586c.124-1.372.2-2.575.221-3.679l0-.184.417-.111.1.23c.282,1.109.767,2.6,1.157,3.807l-.233.077.233-.076Z"/><path class="bz" d="M596.429,188.562l-.123-.461.436-.728c1.056-1.725,1.5-2.612,1.29-3.45a1.023,1.023,0,0,0-1.389-.789,1.954,1.954,0,0,0-1.052.783l-.38-.465a2.515,2.515,0,0,1,1.419-.981,1.614,1.614,0,0,1,2.127,1.159c.273,1.023-.248,2.048-1.117,3.485l-.334.527,0,.017L599.8,187l.166.623Z"/><path class="bz" d="M603.121,186.778l-.4-1.509-2.575.687-.132-.495,1.529-4.2.81-.216.919,3.445.776-.207.157.589-.776.207.4,1.509Zm-.559-2.1-.494-1.85q-.116-.434-.206-.876l-.025.007c-.084.369-.157.645-.242.941l-.853,2.246,0,.017Z"/><path class="bz" d="M605.214,179.748l.25.936,1.081-.288-.25-.936.292-.078.6,2.236-.292.078-.28-1.048-1.081.288.28,1.048-.289.077-.6-2.236Z"/><path class="bz" d="M609.289,179.834a1.084,1.084,0,0,1-.724,1.454,1.061,1.061,0,0,1-1.308-.866,1.1,1.1,0,0,1,.725-1.451A1.054,1.054,0,0,1,609.289,179.834Zm-1.725.5c.127.478.5.837.955.715s.6-.612.469-1.12c-.119-.444-.475-.847-.956-.719S607.433,179.842,607.564,180.333Z"/><path class="bz" d="M609.66,178.563l.353,1.324c.134.5.413.654.711.574.332-.089.485-.364.353-.858l-.353-1.324.292-.078.348,1.3c.183.686-.1,1.065-.588,1.194-.457.122-.872-.048-1.057-.742l-.351-1.317Z"/><path class="bz" d="M611.524,178.1a3.1,3.1,0,0,1,.542-.194.943.943,0,0,1,.7.01.576.576,0,0,1,.289.378.606.606,0,0,1-.269.683l0,.01a.577.577,0,0,1,.449.363,3.6,3.6,0,0,0,.337.568l-.3.08a3,3,0,0,1-.292-.494c-.148-.291-.3-.375-.564-.315l-.272.073.258.968-.289.077Zm.56.941.3-.079c.309-.082.459-.3.391-.559-.077-.288-.319-.359-.625-.281a1.226,1.226,0,0,0-.279.1Z"/><path class="bz" d="M613.762,179.487a1.059,1.059,0,0,0,.557.008c.3-.079.426-.28.365-.506-.056-.209-.207-.3-.539-.332-.4-.032-.675-.161-.759-.476a.666.666,0,0,1,.56-.8,1.053,1.053,0,0,1,.524-.022l-.017.257a.925.925,0,0,0-.453.007c-.305.081-.373.295-.333.447.056.209.219.275.56.312.416.046.657.176.745.5.092.345-.084.712-.611.853a1.2,1.2,0,0,1-.609.009Z"/><path class="bz" d="M617.839,177.554a1.083,1.083,0,0,1-.724,1.454,1.061,1.061,0,0,1-1.308-.866,1.1,1.1,0,0,1,.726-1.451A1.053,1.053,0,0,1,617.839,177.554Zm-1.725.5c.127.478.5.837.955.715s.6-.612.468-1.12c-.119-.444-.475-.847-.956-.719S615.983,177.562,616.114,178.053Z"/><path class="bz" d="M617.921,176.359l1.2-.321.065.242-.916.244.2.743.846-.226.064.239-.846.226.27,1.011-.289.077Z"/><path class="bz" d="M607.461,184.683l-.869.232.215.806.968-.258.065.242-1.257.335-.6-2.236,1.208-.322.065.242-.919.245.188.706.869-.232Z"/><path class="bz" d="M608.214,185.6l-.6-2.236.315-.084,1.019.94a6.559,6.559,0,0,1,.595.619l.006-.005c-.106-.291-.185-.561-.278-.91l-.25-.936.272-.073.6,2.236-.292.078-1.013-.945a7.4,7.4,0,0,1-.617-.635l-.009.006c.092.277.17.544.269.916l.255.955Z"/><path class="bz" d="M610.257,182.665l.289-.077.4,1.5c.158.593-.085.854-.47.957a.959.959,0,0,1-.323.029l-.02-.247a.713.713,0,0,0,.253-.021c.259-.069.381-.226.264-.664Z"/><path class="bz" d="M613.228,183.045a1.083,1.083,0,0,1-.724,1.454,1.061,1.061,0,0,1-1.308-.866,1.1,1.1,0,0,1,.725-1.451A1.053,1.053,0,0,1,613.228,183.045Zm-1.725.5c.127.478.5.836.955.715s.6-.612.468-1.12c-.119-.444-.475-.847-.956-.719S611.372,183.053,611.5,183.544Z"/><path class="bz" d="M614.311,183.978l-.253-.949-1.05-1.1.328-.088.48.533c.131.146.233.265.345.4l.006,0c.024-.163.062-.329.1-.521l.157-.7.328-.088-.408,1.484.254.952Z"/><path class="bz" d="M617.2,182.157c-.1-.307-.22-.676-.291-.956l-.01,0c-.007.283-.025.586-.056.924l-.106,1.19-.218.058-.646-.968c-.19-.287-.357-.551-.491-.8l-.006,0c.068.281.151.66.22,1l.2.975-.276.074-.44-2.277.368-.1.669.98c.167.25.308.476.427.693l.01,0c0-.24.01-.507.034-.816l.11-1.188.368-.1.735,2.2-.281.075Z"/><path class="bz" d="M619.117,181.574l-.87.232.215.806.968-.258.065.242-1.257.335-.6-2.236,1.208-.322.065.242-.919.245.188.706.87-.232Z"/><path class="bz" d="M619.87,182.5l-.6-2.236.315-.084,1.019.94a6.642,6.642,0,0,1,.6.619l.006,0c-.106-.291-.185-.561-.278-.91l-.25-.936.272-.073.6,2.236-.291.078-1.013-.945a7.483,7.483,0,0,1-.617-.635l-.008.006c.092.277.17.544.269.916l.255.955Z"/><path class="bz" d="M621.945,179.811l-.68.181-.065-.246,1.655-.441.065.246-.684.182.531,1.99-.291.078Z"/><path class="bz" d="M623.588,181.323a.2.2,0,0,1,.14-.257.2.2,0,0,1,.251.153.2.2,0,1,1-.391.1Zm-.044-.5-.471-1.58.318-.085.378,1.6Z"/></svg>