<?xml version="1.0" encoding="utf-8"?>
<!-- Generator: Adobe Illustrator 19.2.0, SVG Export Plug-In . SVG Version: 6.00 Build 0)  -->
<svg version="1.1" id="Layer_1" xmlns="http://www.w3.org/2000/svg" xmlns:xlink="http://www.w3.org/1999/xlink" x="0px" y="0px"
	 width="135px" height="135px" viewBox="0 0 135 135" enable-background="new 0 0 135 135" xml:space="preserve">
<g>
	<path fill="#FFFFFF" d="M117.655,46.233C97.073,59.885,99.618,88.392,121.5,98.569c-1.79,3.983-3.248,8.179-5.464,11.929
		c-3.052,5.164-6.388,10.217-10.116,14.911c-6.704,8.441-13.894,10.154-23.778,5.712c-8.28-3.721-16.318-3.778-24.542-0.011
		c-2.346,1.075-4.904,1.864-7.447,2.295c-5.589,0.947-10.062-1.521-13.807-5.387c-6.96-7.186-12.356-15.447-16.242-24.66
		c-4.774-11.317-7.389-23.059-6.394-35.416c0.69-8.574,3.368-16.435,9.035-23.054c9.461-11.048,22.44-13.901,36.777-8.189
		c0.809,0.322,1.634,0.611,2.416,0.99c4.118,1.997,8.188,1.92,12.363,0.055c2.667-1.191,5.447-2.155,8.229-3.056
		C95.518,30.478,110.048,35.231,117.655,46.233z"/>
	<path fill="#FFFFFF" d="M67.43,31.503C64.122,19.212,80.01,0.86,93.486,1.404C95.96,14.576,82.635,33.038,67.43,31.503z"/>
</g>
</svg>
