<svg xmlns="http://www.w3.org/2000/svg" width="266.651" height="215.314" viewBox="0 0 266.651 215.314"><defs><style>.a{isolation:isolate;}.b,.e{fill:#e7e7eb;}.b{opacity:0.45;}.c{fill:#f6f5f9;}.d,.o{fill:#5b5d5d;}.f{fill:#a7d3ee;}.g{fill:#49494a;}.h{fill:#a8acba;}.i{fill:#87bfe8;}.j{fill:#d5d7dd;}.k{fill:#db7d7c;}.l{fill:#c5c8d1;}.m{fill:#ecf4fa;}.n{fill:#ededef;}.o{opacity:0.15;mix-blend-mode:multiply;}</style></defs><title>il_shop</title><g class="a"><path class="b" d="M233.064,83.818v1A11.665,11.665,0,0,1,221.4,96.483H55.782A11.676,11.676,0,0,1,44.106,84.807V83.818a11.728,11.728,0,0,1,.146-1.849,7.705,7.705,0,0,0-7.476-9.12H36.757A11.676,11.676,0,0,1,25.081,61.173V60.183A11.676,11.676,0,0,1,36.757,48.507H202.363a11.676,11.676,0,0,1,11.676,11.676v1a11.728,11.728,0,0,1-.146,1.849,7.7,7.7,0,0,0,7.467,9.109h0.028A11.676,11.676,0,0,1,233.064,83.818Z"/><rect class="c" x="86.201" y="32.41" width="93.139" height="34.7"/><path class="d" d="M179.34,68.611H86.2a1.5,1.5,0,0,1-1.5-1.5v-34.7a1.5,1.5,0,0,1,1.5-1.5H179.34a1.5,1.5,0,0,1,1.5,1.5v34.7A1.5,1.5,0,0,1,179.34,68.611Zm-91.639-3H177.84v-31.7H87.7v31.7Z"/><rect class="e" x="66.591" y="132.405" width="133.469" height="73.652"/><path class="d" d="M201.56,207.557H65.091V130.9H201.56v76.652Zm-133.469-3H198.56V133.9H68.091v70.652Z"/><polygon class="f" points="209.327 117.06 209.327 132.4 57.327 132.4 57.327 117.06 72.327 78.81 194.327 78.81 209.327 117.06"/><path class="d" d="M209.327,133.9h-152a1.5,1.5,0,0,1-1.5-1.5v-15.34a1.5,1.5,0,0,1,.1-0.548l15-38.25a1.5,1.5,0,0,1,1.4-.952h122a1.5,1.5,0,0,1,1.4.952l15,38.25a1.5,1.5,0,0,1,.1.548V132.4A1.5,1.5,0,0,1,209.327,133.9Zm-150.5-3h149V117.344L193.3,80.311H73.35L58.827,117.344V130.9Z"/><path class="g" d="M135.755,39.711H141.4a0.728,0.728,0,0,1,.728.728V59.083a0.728,0.728,0,0,1-.728.728h-3.918a0.728,0.728,0,0,1-.728-0.728V44.1h-2.38Z"/><path class="g" d="M156.557,44.1a0.727,0.727,0,0,0,.728-0.728V40.438a0.727,0.727,0,0,0-.728-0.728H144.916L143.648,44.1V57.191a2.62,2.62,0,0,0,2.62,2.62h8.4a2.619,2.619,0,0,0,2.62-2.62V49.95a2.619,2.619,0,0,0-2.62-2.62h-5.784V44.1h7.677Zm-3.664,7.131v3.929h-4.013V51.234h4.013Z"/><path class="h" d="M173.123,40.439V59.083a0.728,0.728,0,0,1-.728.728h-4.046a0.728,0.728,0,0,1-.656-0.414l-4.56-9.531v9.217a0.728,0.728,0,0,1-.728.728h-2.936a0.728,0.728,0,0,1-.728-0.728V40.439a0.728,0.728,0,0,1,.728-0.728h3.205a0.728,0.728,0,0,1,.657.414l4.56,9.532V40.439a0.728,0.728,0,0,1,.728-0.728H172.4A0.728,0.728,0,0,1,173.123,40.439Z"/><path class="h" d="M113.578,44.1v3.228h4.784a0.728,0.728,0,0,1,.728.728v2.367a0.728,0.728,0,0,1-.728.728h-4.784v4.009h4.784a0.728,0.728,0,0,1,.728.728v3.193a0.728,0.728,0,0,1-.728.728h-9.289a0.728,0.728,0,0,1-.728-0.728V40.439a0.728,0.728,0,0,1,.728-0.728h9.289a0.728,0.728,0,0,1,.728.728v2.936a0.728,0.728,0,0,1-.728.728h-4.784Z"/><path class="h" d="M93.145,39.711v20.1H104.2a2.693,2.693,0,0,0,2.693-2.693V42.4a2.693,2.693,0,0,0-2.693-2.693H93.145Zm8.626,15.452H98.378V44.1h3.393a0.728,0.728,0,0,1,.728.728v9.605A0.728,0.728,0,0,1,101.771,55.163Z"/><path class="g" d="M133.892,49.95v7.24a2.619,2.619,0,0,1-2.62,2.62h-8.4a2.619,2.619,0,0,1-2.62-2.62V53.708a0.728,0.728,0,0,1,.728-0.728h3.777a0.728,0.728,0,0,1,.728.728v1.454H129.5V51.234h-8.518a0.727,0.727,0,0,1-.728-0.728V44.1L122.4,39.71H134.27L132.889,44.1h-7.4V47.33h5.784A2.62,2.62,0,0,1,133.892,49.95Z"/><polyline class="i" points="57.327 117.06 57.327 132.4 209.327 132.4 209.327 117.06"/><polygon class="d" points="210.327 133.4 56.327 133.4 56.327 117.061 58.327 117.061 58.327 131.4 208.327 131.4 208.327 117.061 210.327 117.061 210.327 133.4"/><path class="d" d="M183.34,118.061H170.153a1,1,0,1,1,0-2H183.34A1,1,0,0,1,183.34,118.061Z"/><path class="d" d="M157.337,118.061H57.327a1,1,0,0,1,0-2h100.01A1,1,0,0,1,157.337,118.061Z"/><path class="d" d="M209.327,118.061H189.059a1,1,0,0,1,0-2h20.269A1,1,0,1,1,209.327,118.061Z"/><rect class="j" x="81.591" y="141.98" width="30.966" height="64.077"/><path class="d" d="M112.557,207.557H81.591a1.5,1.5,0,0,1-1.5-1.5V141.98a1.5,1.5,0,0,1,1.5-1.5h30.966a1.5,1.5,0,0,1,1.5,1.5v64.077A1.5,1.5,0,0,1,112.557,207.557Zm-29.466-3h27.966V143.48H83.091v61.077Z"/><rect class="e" x="39.057" y="169.231" width="4.5" height="36.826"/><path class="d" d="M43.557,207.057h-4.5a1,1,0,0,1-1-1V169.231a1,1,0,0,1,1-1h4.5a1,1,0,0,1,1,1v36.826A1,1,0,0,1,43.557,207.057Zm-3.5-2h2.5V170.231h-2.5v34.826Z"/><path class="e" d="M39.1,160.48h4.418a5.541,5.541,0,0,1,5.541,5.541v9.959a0,0,0,0,1,0,0h-15.5a0,0,0,0,1,0,0v-9.959A5.541,5.541,0,0,1,39.1,160.48Z"/><path class="d" d="M49.057,176.98h-15.5a1,1,0,0,1-1-1v-9.959A6.548,6.548,0,0,1,39.1,159.48h4.418a6.548,6.548,0,0,1,6.541,6.541v9.959A1,1,0,0,1,49.057,176.98Zm-14.5-2h13.5v-8.959a4.546,4.546,0,0,0-4.541-4.541H39.1a4.546,4.546,0,0,0-4.541,4.541v8.959Z"/><path class="k" d="M32.057,170.231a1,1,0,0,1-1-1v-11.5a1,1,0,0,1,2,0v11.5A1,1,0,0,1,32.057,170.231Z"/><path class="l" d="M43.891,167.23H38.724a1,1,0,0,1,0-2h5.167A1,1,0,0,1,43.891,167.23Z"/><rect class="m" x="127.187" y="141.98" width="57.596" height="37.833"/><path class="d" d="M184.783,181.314h-57.6a1.5,1.5,0,0,1-1.5-1.5V141.98a1.5,1.5,0,0,1,1.5-1.5h57.6a1.5,1.5,0,0,1,1.5,1.5v37.833A1.5,1.5,0,0,1,184.783,181.314Zm-56.1-3h54.6V143.48h-54.6v34.833Z"/><polyline class="j" points="127.187 174.48 127.187 179.814 184.783 179.814 184.783 174.48"/><path class="d" d="M184.783,181.314h-57.6a1.5,1.5,0,0,1-1.5-1.5V174.48h3v3.833h54.6V174.48h3v5.333A1.5,1.5,0,0,1,184.783,181.314Z"/><path class="d" d="M184.783,175.48h-57.6a1,1,0,1,1,0-2h57.6A1,1,0,0,1,184.783,175.48Z"/><rect class="m" x="87.816" y="148.18" width="18.516" height="23.339"/><path class="d" d="M106.332,172.519H87.816a1,1,0,0,1-1-1V148.18a1,1,0,0,1,1-1h18.516a1,1,0,0,1,1,1v23.339A1,1,0,0,1,106.332,172.519Zm-17.516-2h16.516V149.18H88.816v21.339Z"/><path class="h" d="M107.332,178.147H86.816a1,1,0,1,1,0-2h20.516A1,1,0,1,1,107.332,178.147Z"/><rect class="n" x="-1.5" y="206.057" width="269.651" height="9.256"/><path class="h" d="M269.651,216.814H-3V204.557H269.651v12.257ZM0,213.814H266.651v-6.257H0v6.257Z"/><rect class="d" x="94.701" y="67.111" width="3" height="11.439"/><rect class="d" x="167.84" y="67.111" width="3" height="11.439"/><rect class="o" x="66.591" y="132.405" width="133.469" height="13.409"/></g></svg>
