<?xml version="1.0" encoding="utf-8"?>
<!-- Generator: Adobe Illustrator 19.2.0, SVG Export Plug-In . SVG Version: 6.00 Build 0)  -->
<svg version="1.1" id="Layer_1" xmlns="http://www.w3.org/2000/svg" xmlns:xlink="http://www.w3.org/1999/xlink" x="0px" y="0px"
	 width="216px" height="60.826px" viewBox="0 0 216 60.826" enable-background="new 0 0 216 60.826" xml:space="preserve">
<path fill="#A9AFBD" d="M5.079,5.079v50.667h27.594c3.896,0,7.054-3.158,7.054-7.054V12.133c0-3.896-3.158-7.054-7.054-7.054
	C32.673,5.079,5.079,5.079,5.079,5.079z M25.836,44.031H18.27V16.149h7.566c1.558,0,2.822,1.263,2.822,2.822V41.21
	C28.657,42.768,27.394,44.031,25.836,44.031z"/>
<path fill="#A9AFBD" d="M57.293,24.286H70.9v9.636H57.293V44.03H70.9v11.715l-26.798,0.002V5.078h30.946l-3.442,10.955
	c-0.748,0.078-14.313,0.12-14.313,0.12S57.293,24.286,57.293,24.286z"/>
<polygon fill="#A9AFBD" points="210.921,5.079 210.921,55.747 197.73,55.747 185.736,30.679 185.736,55.747 174.666,55.747 
	174.666,5.079 185.736,5.079 197.73,30.15 197.73,5.079 "/>
<polygon fill="#EBF3FA" points="114.783,5.079 130.85,5.079 130.85,55.747 117.304,55.747 117.304,16.15 111.304,16.15 "/>
<path fill="#EBF3FA" d="M170.29,16.151V5.078h-30.898l-3.478,11.074v32.543c0,3.896,3.158,7.054,7.054,7.054h20.268
	c3.896,0,7.054-3.158,7.054-7.054V31.34c0-3.896-3.158-7.054-7.054-7.054h-14.132v-8.135H170.29z M159.22,34.126v9.903h-10.116
	v-9.903H159.22z"/>
<path fill="#EBF3FA" d="M110.217,31.34v17.351c0,3.896-3.158,7.054-7.054,7.054H82.895c-3.896,0-7.054-3.158-7.054-7.054v-4.716
	v-5.446h13.191v5.5h10.116v-9.903H75.841V16.147l3.478-11.07h31.852l-3.482,11.07H89.031v8.138h14.132
	C107.059,24.286,110.217,27.444,110.217,31.34z"/>
</svg>
