<svg xmlns="http://www.w3.org/2000/svg" xmlns:xlink="http://www.w3.org/1999/xlink" width="1192.856" height="280.402" viewBox="0 0 1192.856 280.402"><defs><style>.a,.aa,.h,.n,.z{fill:none;}.b{isolation:isolate;}.c{clip-path:url(#a);}.d{opacity:0.1;}.e,.f,.g,.u,.v,.w{fill:#e7e7eb;}.aa,.e,.f,.g,.h,.o,.p,.s,.t,.u,.x,.y{stroke:#5b5d5d;}.aa,.e,.n,.s{stroke-miterlimit:10;}.aa,.e,.f,.g,.n,.o,.p,.t,.x{stroke-width:3px;}.f,.g,.h,.o,.p,.t,.u,.v,.w,.x,.y,.z{stroke-linejoin:round;}.g,.h,.p,.u,.v,.w,.z{stroke-linecap:round;}.h,.s,.u,.v,.w,.y,.z{stroke-width:2px;}.i{fill:#ededef;opacity:0.8;}.j{fill:#ebecef;}.k{fill:#dee6d5;}.l{fill:#d1dac8;}.m{fill:#c5b0a8;}.n{stroke:#c7d4c4;}.o{fill:#f6f5f9;}.p{fill:#a7d3ee;}.q{fill:#49494a;}.r{fill:#a8acba;}.s{fill:#87bfe8;}.t{fill:#d5d7dd;}.v{stroke:#db7d7c;}.w{stroke:#c5c8d1;}.x,.y{fill:#ecf4fa;}.z{stroke:#a8acba;}.ab{fill:#5b5d5d;opacity:0.15;mix-blend-mode:multiply;}</style><clipPath id="a"><rect class="a" width="1192.856" height="280.402"/></clipPath></defs><title>storefront</title><g class="b"><g class="c"><g class="d"><rect class="e" x="-8.683" y="184.887" width="180.648" height="106.186"/><polyline class="f" points="176.352 195.461 176.352 204.738 -13.07 204.738 -13.07 195.461"/><polyline class="g" points="-13.07 195.461 1.93 151.016 161.352 151.016 176.352 195.461"/><line class="h" x1="176.352" y1="195.461" x2="31.728" y2="195.461"/><line class="h" x1="14.118" y1="195.461" x2="-13.07" y2="195.461"/></g><g class="d"><rect class="e" x="975.731" y="204.403" width="180.648" height="77.969"/><polygon class="e" points="1160.766 216.761 971.344 216.761 986.344 172.315 1145.766 172.315 1160.766 216.761"/><rect class="e" x="1069.565" y="218.295" width="180.648" height="64.077"/><polygon class="e" points="1254.6 221.761 1065.178 221.761 1080.178 177.315 1239.6 177.315 1254.6 221.761"/><rect class="e" x="1022.821" y="201.186" width="180.648" height="106.186"/><polyline class="f" points="1207.856 196.761 1207.856 206.038 1018.435 206.038 1018.435 196.761"/><polyline class="g" points="1018.435 196.761 1033.435 152.315 1192.856 152.315 1207.856 196.761"/><line class="h" x1="1065.179" y1="196.761" x2="1018.435" y2="196.761"/><line class="h" x1="1139.755" y1="196.761" x2="1077.175" y2="196.761"/><line class="h" x1="1268.516" y1="196.761" x2="1157.196" y2="196.761"/></g><path class="i" d="M166.043,48.711v1a11.665,11.665,0,0,1-11.665,11.665H-11.238A11.676,11.676,0,0,1-22.914,49.7v-.989a11.728,11.728,0,0,1,.146-1.849,7.705,7.705,0,0,0-7.476-9.12h-.019A11.676,11.676,0,0,1-41.94,26.066v-.989A11.676,11.676,0,0,1-30.264,13.4H135.342a11.676,11.676,0,0,1,11.676,11.676v1a11.728,11.728,0,0,1-.146,1.849,7.7,7.7,0,0,0,7.467,9.109h.028A11.676,11.676,0,0,1,166.043,48.711Z"/><g class="d"><rect class="e" x="663.124" y="218.295" width="180.648" height="64.077"/><polygon class="e" points="848.159 221.761 658.737 221.761 673.737 177.315 833.159 177.315 848.159 221.761"/><rect class="e" x="730.214" y="176.186" width="180.648" height="106.186"/><polyline class="f" points="915.249 186.761 915.249 196.038 725.827 196.038 725.827 186.761"/><polyline class="g" points="725.827 186.761 740.827 142.315 900.249 142.315 915.249 186.761"/><line class="h" x1="915.249" y1="186.761" x2="883.929" y2="186.761"/><line class="h" x1="866.319" y1="186.761" x2="725.827" y2="186.761"/><rect class="f" x="754.749" y="131.075" width="20" height="33.463"/></g><g class="d"><rect class="e" x="237.572" y="218.295" width="180.648" height="64.077"/><polygon class="e" points="422.607 221.761 233.185 221.761 248.185 177.315 407.607 177.315 422.607 221.761"/><rect class="e" x="331.406" y="218.295" width="180.648" height="64.077"/><polygon class="e" points="516.441 221.761 327.02 221.761 342.02 177.315 501.441 177.315 516.441 221.761"/><rect class="e" x="299.663" y="176.186" width="180.648" height="106.186"/><polyline class="f" points="484.698 171.761 484.698 181.038 295.276 181.038 295.276 171.761"/><polyline class="g" points="295.276 171.761 310.276 127.315 469.698 127.315 484.698 171.761"/><line class="h" x1="484.698" y1="171.761" x2="363.378" y2="171.761"/><rect class="f" x="361.724" y="119.725" width="16.483" height="24.081"/></g><path class="j" d="M-58.607,231.617q.008-.292.016-.583c112.059-28.029,230.04-18.609,344.158-.728s227.379,44.08,342.774,49.243c114.873,5.139,229.536-10.676,343.436-26.452l222.159-30.771c9.614-1.332,19.74-2.608,28.761.985,14.788,5.892,18.589,60.759,12.1,60.751L-22.365,282.351c-5.722-.008-11.6-.044-16.926-2.133C-56.65,273.408-59.1,250.349-58.607,231.617Z"/><path class="k" d="M777.843,224.706c-10.51,5.48-23.74,8.41-33.93,2.35-8.19-4.88-12.06-14.54-20.33-19.04-.31-.17-.63-.34-.95-.5-3.27-1.72-6.7-3.25-9.25-5.9-8.26-8.58,2.61-32.06,6.3-41.07,1.35-3.28,2.82-6.52,4.41-9.69,5.78-11.51,13.99-22.89,26.16-27.11,12.88-4.47,27.09.09,39.37,6.03,7.28,3.52,14.44,7.62,20.04,13.46a34.31,34.31,0,0,1,6.98,10.46C827.613,179.786,800.243,213.026,777.843,224.706Z"/><path class="l" d="M777.843,224.706c-10.51,5.48-23.74,8.41-33.93,2.35-8.19-4.88-12.06-14.54-20.33-19.04-.31-.17-.63-.34-.95-.5a28.937,28.937,0,0,0,12.45-8.04c5.43-5.76,9.11-12.92,13.86-19.25,15.33-20.41,42.65-30.78,67.7-26.53C827.613,179.786,800.243,213.026,777.843,224.706Z"/><path class="m" d="M763.45,203.581a62.639,62.639,0,0,0-8.038-5.452c-2.757-1.646-5.74-2.793-8.594-4.226l-8.531-4.363c-2.823-1.5-5.663-2.964-8.47-4.5l.124-.273c3,1.1,5.976,2.273,8.965,3.407l8.9,3.543c2.958,1.2,5.787,2.691,8.842,3.68a62.618,62.618,0,0,0,9.4,2.455Z"/><path class="m" d="M762.883,212.144a92.314,92.314,0,0,0,9.194-5.741c2.964-2.035,5.631-4.43,8.473-6.612l8.569-6.5c2.889-2.126,5.751-4.285,8.664-6.381l.191.231c-2.608,2.466-5.268,4.869-7.9,7.306l-8,7.191c-2.679,2.38-5.534,4.548-8.091,7.075a92.326,92.326,0,0,0-7.371,7.947Z"/><polygon class="m" points="764.295 182.247 778.085 172.798 764.75 186.001 764.295 182.247"/><path class="n" d="M777.843,224.706c-10.51,5.48-23.74,8.41-33.93,2.35-8.19-4.88-12.06-14.54-20.33-19.04-.31-.17-.63-.34-.95-.5-3.27-1.72-6.7-3.25-9.25-5.9-8.26-8.58,2.61-32.06,6.3-41.07,1.35-3.28,2.82-6.52,4.41-9.69,5.78-11.51,13.99-22.89,26.16-27.11,12.88-4.47,27.09.09,39.37,6.03,7.28,3.52,14.44,7.62,20.04,13.46a34.31,34.31,0,0,1,6.98,10.46C827.613,179.786,800.243,213.026,777.843,224.706Z"/><path class="m" d="M759.75,282.372c.986-9.388,1.545-18.776,2-28.164.471-9.388.344-18.776.6-28.164l.405-14.082.495-14.082c.4-9.388.721-18.776,1.2-28.164h.6c.479,9.388.8,18.776,1.2,28.164l.5,14.082.405,14.082c.256,9.388.129,18.776.6,28.164.455,9.388,1.014,18.776,2,28.164Z"/><rect class="o" x="558.305" y="108.725" width="93.139" height="34.7"/><rect class="e" x="538.695" y="208.72" width="133.469" height="73.652"/><polygon class="p" points="681.431 193.375 681.431 208.715 529.431 208.715 529.431 193.375 544.431 155.125 666.431 155.125 681.431 193.375"/><path class="q" d="M607.859,116.026h5.646a.728.728,0,0,1,.728.728V135.4a.728.728,0,0,1-.728.728h-3.918a.728.728,0,0,1-.728-.728v-14.98h-2.38Z"/><path class="q" d="M628.661,120.418a.727.727,0,0,0,.728-.728v-2.937a.727.727,0,0,0-.728-.728H617.02l-1.268,4.393v13.088a2.62,2.62,0,0,0,2.62,2.62h8.4a2.619,2.619,0,0,0,2.62-2.62v-7.241a2.619,2.619,0,0,0-2.62-2.62h-5.784v-3.227ZM625,127.549v3.929h-4.013v-3.929Z"/><path class="r" d="M645.227,116.753V135.4a.728.728,0,0,1-.728.728h-4.046a.728.728,0,0,1-.656-.414l-4.56-9.531V135.4a.728.728,0,0,1-.728.728h-2.936a.728.728,0,0,1-.728-.728V116.753a.728.728,0,0,1,.728-.728h3.205a.728.728,0,0,1,.657.414l4.56,9.532v-9.218a.728.728,0,0,1,.728-.728H644.5A.728.728,0,0,1,645.227,116.753Z"/><path class="r" d="M585.682,120.417v3.228h4.784a.728.728,0,0,1,.728.728v2.367a.728.728,0,0,1-.728.728h-4.784v4.009h4.784a.728.728,0,0,1,.728.728V135.4a.728.728,0,0,1-.728.728h-9.289a.728.728,0,0,1-.728-.728V116.753a.728.728,0,0,1,.728-.728h9.289a.728.728,0,0,1,.728.728v2.936a.728.728,0,0,1-.728.728Z"/><path class="r" d="M565.249,116.026v20.1H576.3a2.693,2.693,0,0,0,2.693-2.693V118.718a2.693,2.693,0,0,0-2.693-2.693Zm8.626,15.452h-3.393V120.417h3.393a.728.728,0,0,1,.728.728v9.605A.728.728,0,0,1,573.875,131.478Z"/><path class="q" d="M606,126.265v7.24a2.619,2.619,0,0,1-2.62,2.62h-8.4a2.619,2.619,0,0,1-2.62-2.62v-3.482a.728.728,0,0,1,.728-.728h3.777a.728.728,0,0,1,.728.728v1.454H601.6v-3.929h-8.518a.727.727,0,0,1-.728-.728v-6.4l2.141-4.391h11.874l-1.381,4.391h-7.4v3.228h5.784A2.62,2.62,0,0,1,606,126.265Z"/><polyline class="s" points="529.431 193.375 529.431 208.715 681.431 208.715 681.431 193.375"/><line class="h" x1="642.257" y1="193.375" x2="655.444" y2="193.375"/><line class="h" x1="529.431" y1="193.375" x2="629.441" y2="193.375"/><line class="h" x1="681.431" y1="193.375" x2="661.162" y2="193.375"/><rect class="t" x="553.695" y="218.295" width="30.966" height="64.077"/><rect class="u" x="511.161" y="245.546" width="4.5" height="36.826"/><path class="u" d="M511.2,236.8h4.418a5.541,5.541,0,0,1,5.541,5.541V252.3a0,0,0,0,1,0,0h-15.5a0,0,0,0,1,0,0v-9.959A5.541,5.541,0,0,1,511.2,236.8Z"/><line class="v" x1="504.161" y1="245.546" x2="504.161" y2="234.045"/><line class="w" x1="510.828" y1="242.545" x2="515.994" y2="242.545"/><rect class="x" x="599.291" y="218.295" width="57.596" height="37.833"/><polyline class="t" points="599.291 250.795 599.291 256.129 656.887 256.129 656.887 250.795"/><line class="h" x1="656.887" y1="250.795" x2="599.291" y2="250.795"/><rect class="y" x="559.92" y="224.495" width="18.516" height="23.339"/><line class="z" x1="558.92" y1="253.462" x2="579.436" y2="253.462"/><line class="aa" x1="568.305" y1="143.426" x2="568.305" y2="154.865"/><line class="aa" x1="641.444" y1="143.426" x2="641.444" y2="154.865"/><rect class="ab" x="538.695" y="208.72" width="133.469" height="13.409"/><path class="k" d="M424.086,168.956c-3.04,22.52-21.99,51.47-34.03,58.14-17.36,9.63-38.66,7.01-58.29,4.11-15.41-2.28-32.1-5.2-42.62-16.68-.12-.13-.24-.26-.35-.39-11.31-12.72-11.69-32.07-7.34-48.57,4.37-16.57,13.25-32.49,27.29-42.29a49.451,49.451,0,0,1,34.08-8.61,38.659,38.659,0,0,1,14.43,4.88c9.78,5.73,16.99,15.81,27.78,19.28,7.77,2.49,16.29,1.15,24.21,3.12C422.327,145.186,425.836,156.006,424.086,168.956Z"/><path class="l" d="M397.9,162.466q13.215,2.73,26.19,6.49c-3.04,22.52-21.99,51.47-34.03,58.14-17.36,9.63-38.66,7.01-58.29,4.11-15.41-2.28-32.1-5.2-42.62-16.68-.12-.13-.24-.26-.35-.39,1.96-.28,3.93-.5,5.82-.76a85.187,85.187,0,0,0,52.03-28.08c7.21-8.26,13.33-18.34,23.44-22.57C378.777,159.086,388.677,160.556,397.9,162.466Z"/><path class="m" d="M348.85,182.851a62.621,62.621,0,0,0,9.4-2.455c3.055-.989,5.883-2.478,8.841-3.68l8.9-3.543c2.989-1.134,5.96-2.307,8.965-3.407l.124.273c-2.807,1.536-5.647,3-8.469,4.5L368.08,178.9c-2.853,1.434-5.837,2.58-8.594,4.226a62.605,62.605,0,0,0-8.038,5.452Z"/><path class="n" d="M424.086,168.956c-3.04,22.52-21.99,51.47-34.03,58.14-17.36,9.63-38.66,7.01-58.29,4.11-15.41-2.28-32.1-5.2-42.62-16.68-.12-.13-.24-.26-.35-.39-11.31-12.72-11.69-32.07-7.34-48.57,4.37-16.57,13.25-32.49,27.29-42.29a49.451,49.451,0,0,1,34.08-8.61,38.659,38.659,0,0,1,14.43,4.88c9.78,5.73,16.99,15.81,27.78,19.28,7.77,2.49,16.29,1.15,24.21,3.12C422.327,145.186,425.836,156.006,424.086,168.956Z"/><path class="m" d="M348.282,220.35a92.285,92.285,0,0,0-7.371-7.947c-2.558-2.527-5.412-4.7-8.091-7.075l-8-7.191c-2.632-2.437-5.292-4.84-7.9-7.306l.191-.231c2.913,2.1,5.775,4.256,8.665,6.381l8.569,6.5c2.842,2.183,5.51,4.577,8.473,6.612a92.292,92.292,0,0,0,9.194,5.741Z"/><polygon class="m" points="350.604 172.247 336.814 162.798 350.149 176.001 350.604 172.247"/><path class="m" d="M344.89,282.372c.986-10.221,1.545-20.443,2-30.664.471-10.221.344-20.443.6-30.664l.405-15.332.495-15.332c.4-10.221.721-20.443,1.2-30.664h.6c.479,10.221.8,20.443,1.2,30.664l.5,15.332.405,15.332c.256,10.221.129,20.443.6,30.664.455,10.221,1.014,20.443,2,30.664Z"/><path class="i" d="M1107.572,110.048v1a11.665,11.665,0,0,1-11.665,11.665H930.291a11.676,11.676,0,0,1-11.676-11.676v-.989a11.728,11.728,0,0,1,.146-1.849,7.705,7.705,0,0,0-7.476-9.12h-.019A11.676,11.676,0,0,1,899.589,87.4v-.989a11.676,11.676,0,0,1,11.676-11.676h165.606a11.676,11.676,0,0,1,11.676,11.676v1a11.728,11.728,0,0,1-.146,1.849,7.7,7.7,0,0,0,7.467,9.109h.028A11.676,11.676,0,0,1,1107.572,110.048Z"/><path class="k" d="M98.032,210.9c-4.17,4.19-9.68,6.71-15.13,8.98-14.5,6.04-29.84,10.96-45.55,10.68S5.412,224.14-4,211.57a43.812,43.812,0,0,1-9.07-27.29c.23-24.26,19.02-48.77,36.63-63.79a48.342,48.342,0,0,1,3.91-3.06,18.194,18.194,0,0,1,7-3.13c13.88-2.54,29.11,24.72,37.37,33.18,1.92,1.97,4.28,4.32,6.85,6.97C93.322,169.57,114.582,194.27,98.032,210.9Z"/><path class="l" d="M98.032,210.9c-4.17,4.19-9.68,6.71-15.13,8.98-14.5,6.04-29.84,10.96-45.55,10.68S5.412,224.14-4,211.57a43.812,43.812,0,0,1-9.07-27.29,48.078,48.078,0,0,1,12.06-2.69c20.94-1.92,44.98,8.18,61.45-4.89,7.54-5.98,11.36-15.61,18.25-22.25C93.322,169.57,114.582,194.27,98.032,210.9Z"/><path class="n" d="M27.47,117.428a48.254,48.254,0,0,0-3.909,3.062C-.8,141.283-27.444,180.248-4,211.566c9.415,12.576,25.646,18.724,41.353,19s31.05-4.641,45.551-10.682c5.448-2.27,10.959-4.8,15.124-8.982,19.45-19.553-13.317-50.227-26.194-63.416-8.255-8.463-23.489-35.721-37.368-33.183A18.22,18.22,0,0,0,27.47,117.428Z"/><path class="m" d="M39.063,193.581a62.605,62.605,0,0,0-8.038-5.452c-2.757-1.646-5.74-2.793-8.594-4.226L13.9,179.539c-2.822-1.5-5.663-2.964-8.469-4.5l.124-.273c3,1.1,5.976,2.273,8.965,3.407l8.9,3.543c2.958,1.2,5.787,2.691,8.841,3.68a62.621,62.621,0,0,0,9.4,2.455Z"/><path class="m" d="M38.5,217.144A92.292,92.292,0,0,0,47.69,211.4c2.964-2.035,5.631-4.43,8.473-6.612l8.569-6.5c2.889-2.126,5.751-4.285,8.665-6.381l.191.231c-2.608,2.466-5.268,4.869-7.9,7.306l-8,7.191c-2.68,2.38-5.534,4.548-8.091,7.075a92.287,92.287,0,0,0-7.371,7.947Z"/><polygon class="m" points="39.907 172.247 53.697 162.798 40.363 176.001 39.907 172.247"/><path class="m" d="M35.363,282.372c.986-10.638,1.545-21.276,2-31.914.471-10.638.344-21.276.6-31.914l.4-15.957.5-15.957c.4-10.638.721-21.276,1.2-31.914h.6c.479,10.638.8,21.276,1.2,31.914l.5,15.957.4,15.957c.256,10.638.129,21.276.6,31.914.455,10.638,1.014,21.276,2,31.914Z"/><path class="k" d="M1096.237,115.19c-7.026,3.176-13.092,9.668-17.184,16.462-10.648,17.678-13.988,38.688-16.615,59.158-.634,4.942-1.214,10.119.545,14.781,2.483,6.577,9.049,10.657,15.535,13.369,19.379,8.1,53,11.988,68.137-7.181,18.08-22.9-4.625-66.426-20.032-85.469-4.692-5.8-10.469-11.369-17.792-12.792A20.637,20.637,0,0,0,1096.237,115.19Z"/><path class="l" d="M1146.654,211.777c-15.14,19.17-48.76,15.29-68.14,7.18-6.48-2.71-13.05-6.79-15.53-13.37-1.76-4.66-1.18-9.83-.55-14.78.45-3.51.92-7.03,1.45-10.55.52-.09,1.03-.16,1.55-.22,13.6-1.65,27.53,1.57,41.03-.77a51,51,0,0,0,27.85-14.8c3.07-3.2,6.27-7.03,9.93-9.35C1153.234,174.657,1158.064,197.327,1146.654,211.777Z"/><path class="n" d="M1146.654,211.777c-15.14,19.17-48.76,15.29-68.14,7.18-6.48-2.71-13.05-6.79-15.53-13.37-1.76-4.66-1.18-9.83-.55-14.78.45-3.51.92-7.03,1.45-10.55,2.54-17.02,6.34-33.96,15.17-48.6,4.09-6.8,10.16-13.29,17.18-16.47a20.725,20.725,0,0,1,12.6-1.67c7.32,1.42,13.1,6.99,17.79,12.79a142.685,142.685,0,0,1,17.62,28.81C1153.234,174.657,1158.064,197.327,1146.654,211.777Z"/><path class="m" d="M1108.328,184.441a32.379,32.379,0,0,0,6.81-1.281,65.425,65.425,0,0,0,6.254-2.507q3.142-1.219,6.315-2.37c2.127-.743,4.236-1.525,6.378-2.233l.124.273c-1.944,1.145-3.922,2.216-5.882,3.326q-2.956,1.629-5.944,3.19a65.375,65.375,0,0,0-6.006,3.053,32.367,32.367,0,0,0-5.45,4.278Z"/><path class="m" d="M1107.759,214.9a56.542,56.542,0,0,0-5.514-6.413c-1.939-2.016-4.174-3.673-6.235-5.541s-4.109-3.752-6.139-5.657c-2.014-1.926-4.055-3.818-6.044-5.772l.191-.231c2.294,1.585,4.537,3.233,6.808,4.847q3.381,2.452,6.713,4.963c2.223,1.672,4.271,3.554,6.617,5.078a56.548,56.548,0,0,0,7.337,4.207Z"/><polygon class="m" points="1110.081 164.566 1096.291 155.117 1109.626 168.32 1110.081 164.566"/><path class="m" d="M1104.626,285.607c.985-11.471,1.544-22.943,2-34.414.471-11.471.344-22.943.6-34.414l.405-17.207.5-17.207c.4-11.471.721-22.943,1.2-34.414h.6c.479,11.471.8,22.943,1.2,34.414l.495,17.207.405,17.207c.256,11.471.129,22.943.6,34.414.455,11.471,1.014,22.943,2,34.414Z"/></g></g></svg>